<?xml version="1.0" encoding="UTF-8"?>
<svg xmlns="http://www.w3.org/2000/svg" xmlns:xlink="http://www.w3.org/1999/xlink" width="1920" height="1080" viewBox="0 0 1920 1080">
<defs>
<g>
<g id="glyph-0-0">
<path d="M 0.558594 1.445312 C 0.546875 1.445312 0.535156 1.4375 0.519531 1.421875 C 0.507812 1.40625 0.5 1.390625 0.5 1.375 L 0.5 -3.378906 C 0.5 -3.40625 0.511719 -3.429688 0.53125 -3.449219 C 0.550781 -3.46875 0.574219 -3.484375 0.601562 -3.496094 C 0.628906 -3.507812 0.65625 -3.519531 0.683594 -3.523438 C 0.707031 -3.53125 0.722656 -3.535156 0.730469 -3.535156 C 0.746094 -3.535156 0.761719 -3.527344 0.777344 -3.515625 C 0.792969 -3.5 0.800781 -3.488281 0.800781 -3.46875 L 0.800781 1.324219 C 0.800781 1.351562 0.789062 1.371094 0.769531 1.386719 C 0.75 1.402344 0.726562 1.414062 0.699219 1.421875 C 0.667969 1.429688 0.640625 1.4375 0.613281 1.441406 C 0.585938 1.445312 0.570312 1.445312 0.558594 1.445312 Z "/>
</g>
<g id="glyph-0-1">
<path d="M 1.039062 -3.304688 C 1.054688 -3.304688 1.078125 -3.296875 1.109375 -3.285156 C 1.136719 -3.273438 1.160156 -3.253906 1.183594 -3.226562 C 1.203125 -3.203125 1.214844 -3.175781 1.214844 -3.144531 L 1.214844 0.183594 C 1.273438 0.128906 1.335938 0.0703125 1.410156 0.015625 C 1.484375 -0.0429688 1.566406 -0.0976562 1.65625 -0.148438 C 1.746094 -0.203125 1.839844 -0.25 1.945312 -0.289062 C 1.957031 -0.296875 1.964844 -0.296875 1.980469 -0.292969 C 1.992188 -0.289062 2 -0.273438 2 -0.246094 C 2 -0.222656 1.996094 -0.199219 1.984375 -0.171875 C 1.976562 -0.148438 1.960938 -0.125 1.945312 -0.109375 C 1.871094 -0.0390625 1.800781 0.03125 1.726562 0.105469 C 1.65625 0.179688 1.585938 0.253906 1.519531 0.328125 C 1.453125 0.40625 1.390625 0.488281 1.328125 0.574219 C 1.269531 0.65625 1.214844 0.75 1.164062 0.84375 C 1.140625 0.882812 1.121094 0.90625 1.101562 0.90625 C 1.085938 0.90625 1.078125 0.902344 1.070312 0.898438 C 1.0625 0.894531 1.050781 0.875 1.035156 0.839844 C 0.984375 0.742188 0.929688 0.652344 0.871094 0.566406 C 0.808594 0.480469 0.746094 0.402344 0.679688 0.324219 C 0.613281 0.25 0.542969 0.171875 0.472656 0.101562 C 0.402344 0.0273438 0.328125 -0.046875 0.253906 -0.113281 C 0.242188 -0.132812 0.230469 -0.152344 0.21875 -0.175781 C 0.207031 -0.203125 0.199219 -0.226562 0.199219 -0.25 C 0.199219 -0.285156 0.210938 -0.300781 0.234375 -0.300781 C 0.238281 -0.300781 0.246094 -0.300781 0.261719 -0.296875 C 0.277344 -0.296875 0.292969 -0.292969 0.304688 -0.285156 C 0.410156 -0.234375 0.5 -0.183594 0.578125 -0.136719 C 0.65625 -0.0859375 0.726562 -0.0351562 0.796875 0.0195312 C 0.863281 0.0742188 0.925781 0.128906 0.984375 0.183594 L 0.984375 -3.234375 C 0.984375 -3.25 0.992188 -3.265625 1.003906 -3.28125 C 1.015625 -3.296875 1.027344 -3.304688 1.039062 -3.304688 Z "/>
</g>
<g id="glyph-0-2">
<path d="M 0.378906 -3.523438 C 0.40625 -3.523438 0.425781 -3.511719 0.433594 -3.480469 C 0.496094 -3.285156 0.554688 -3.117188 0.601562 -2.972656 C 0.652344 -2.828125 0.699219 -2.691406 0.742188 -2.570312 C 0.789062 -2.445312 0.835938 -2.320312 0.886719 -2.195312 C 0.9375 -2.070312 0.992188 -1.929688 1.058594 -1.773438 C 1.121094 -1.621094 1.199219 -1.441406 1.289062 -1.234375 C 1.300781 -1.210938 1.308594 -1.1875 1.320312 -1.164062 C 1.332031 -1.140625 1.335938 -1.117188 1.335938 -1.09375 C 1.335938 -1.089844 1.332031 -1.082031 1.328125 -1.074219 C 1.324219 -1.066406 1.324219 -1.0625 1.320312 -1.054688 C 1.222656 -0.859375 1.136719 -0.679688 1.058594 -0.515625 C 0.984375 -0.351562 0.914062 -0.191406 0.851562 -0.0390625 C 0.789062 0.117188 0.722656 0.28125 0.660156 0.449219 C 0.597656 0.621094 0.527344 0.808594 0.453125 1.015625 C 0.449219 1.035156 0.421875 1.050781 0.378906 1.058594 C 0.332031 1.066406 0.296875 1.070312 0.269531 1.070312 C 0.253906 1.070312 0.238281 1.066406 0.226562 1.054688 C 0.214844 1.042969 0.210938 1.027344 0.210938 1.003906 C 0.210938 0.988281 0.214844 0.96875 0.21875 0.949219 C 0.226562 0.925781 0.230469 0.910156 0.234375 0.894531 C 0.3125 0.699219 0.378906 0.527344 0.433594 0.386719 C 0.488281 0.246094 0.535156 0.121094 0.578125 0.0078125 C 0.621094 -0.105469 0.660156 -0.210938 0.699219 -0.316406 C 0.738281 -0.421875 0.785156 -0.535156 0.835938 -0.652344 C 0.886719 -0.769531 0.945312 -0.910156 1.015625 -1.066406 C 1.023438 -1.082031 1.023438 -1.09375 1.023438 -1.101562 C 1.023438 -1.109375 1.023438 -1.121094 1.015625 -1.136719 C 0.941406 -1.320312 0.867188 -1.511719 0.789062 -1.71875 C 0.710938 -1.925781 0.625 -2.160156 0.539062 -2.421875 C 0.449219 -2.679688 0.355469 -2.980469 0.253906 -3.320312 C 0.25 -3.328125 0.246094 -3.34375 0.242188 -3.371094 C 0.238281 -3.398438 0.234375 -3.410156 0.234375 -3.414062 C 0.234375 -3.453125 0.246094 -3.480469 0.265625 -3.496094 C 0.289062 -3.515625 0.328125 -3.523438 0.378906 -3.523438 Z "/>
</g>
</g>
</defs>
<g fill="rgb(0%, 0%, 0%)" fill-opacity="1">
<use xlink:href="#glyph-0-0" x="30" y="25.035156"/>
<use xlink:href="#glyph-0-1" x="31" y="25.035156"/>
<use xlink:href="#glyph-0-2" x="33" y="25.035156"/>
</g>
</svg>
