<?xml version="1.0" encoding="UTF-8"?>
<svg xmlns="http://www.w3.org/2000/svg" xmlns:xlink="http://www.w3.org/1999/xlink" width="1920" height="1080" viewBox="0 0 1920 1080">
<defs>
<g>
<g id="glyph-0-0">
<path d="M 0.125 -0.613281 C 0.113281 -0.613281 0.105469 -0.621094 0.105469 -0.636719 C 0.105469 -0.675781 0.109375 -0.71875 0.121094 -0.761719 C 0.132812 -0.804688 0.144531 -0.828125 0.164062 -0.832031 C 0.277344 -0.847656 0.394531 -0.863281 0.507812 -0.878906 C 0.625 -0.894531 0.738281 -0.910156 0.855469 -0.921875 C 0.863281 -0.921875 0.871094 -0.917969 0.875 -0.914062 C 0.882812 -0.910156 0.882812 -0.90625 0.882812 -0.898438 C 0.882812 -0.851562 0.878906 -0.808594 0.867188 -0.769531 C 0.855469 -0.730469 0.835938 -0.707031 0.808594 -0.703125 C 0.699219 -0.6875 0.589844 -0.671875 0.476562 -0.65625 C 0.367188 -0.640625 0.25 -0.625 0.125 -0.613281 Z "/>
</g>
<g id="glyph-0-1">
<path d="M 0.582031 0.136719 C 0.527344 0.136719 0.46875 0.128906 0.40625 0.109375 C 0.34375 0.09375 0.289062 0.0703125 0.246094 0.046875 C 0.203125 0.0234375 0.179688 0 0.179688 -0.0195312 C 0.179688 -0.0351562 0.191406 -0.0546875 0.210938 -0.0820312 C 0.230469 -0.109375 0.25 -0.132812 0.277344 -0.152344 C 0.300781 -0.171875 0.324219 -0.183594 0.339844 -0.183594 C 0.367188 -0.183594 0.390625 -0.175781 0.410156 -0.164062 C 0.433594 -0.148438 0.457031 -0.132812 0.480469 -0.113281 C 0.511719 -0.0859375 0.546875 -0.0585938 0.589844 -0.0351562 C 0.628906 -0.0117188 0.683594 0 0.75 0 C 0.839844 0 0.925781 -0.0234375 1.003906 -0.0703125 C 1.082031 -0.113281 1.148438 -0.175781 1.199219 -0.257812 C 1.25 -0.339844 1.277344 -0.429688 1.277344 -0.527344 C 1.277344 -0.621094 1.261719 -0.710938 1.230469 -0.796875 C 1.199219 -0.882812 1.152344 -0.957031 1.09375 -1.011719 C 1.03125 -1.070312 0.953125 -1.097656 0.859375 -1.097656 C 0.832031 -1.097656 0.796875 -1.09375 0.753906 -1.089844 C 0.707031 -1.082031 0.664062 -1.066406 0.625 -1.042969 C 0.613281 -1.035156 0.597656 -1.035156 0.582031 -1.046875 C 0.566406 -1.054688 0.5625 -1.0625 0.5625 -1.074219 C 0.574219 -1.105469 0.585938 -1.132812 0.605469 -1.152344 C 0.625 -1.171875 0.648438 -1.1875 0.671875 -1.199219 C 0.691406 -1.207031 0.726562 -1.226562 0.777344 -1.253906 C 0.824219 -1.28125 0.875 -1.316406 0.929688 -1.359375 C 0.984375 -1.402344 1.03125 -1.449219 1.070312 -1.503906 C 1.109375 -1.558594 1.125 -1.617188 1.125 -1.683594 C 1.125 -1.78125 1.09375 -1.867188 1.03125 -1.945312 C 0.96875 -2.019531 0.886719 -2.058594 0.785156 -2.058594 C 0.691406 -2.058594 0.617188 -2.042969 0.5625 -2.007812 C 0.503906 -1.976562 0.460938 -1.9375 0.425781 -1.898438 C 0.390625 -1.855469 0.367188 -1.816406 0.351562 -1.785156 C 0.332031 -1.753906 0.316406 -1.738281 0.304688 -1.738281 C 0.292969 -1.738281 0.28125 -1.742188 0.265625 -1.757812 C 0.253906 -1.773438 0.246094 -1.789062 0.246094 -1.804688 C 0.246094 -1.835938 0.257812 -1.878906 0.285156 -1.929688 C 0.3125 -1.980469 0.351562 -2.035156 0.410156 -2.085938 C 0.464844 -2.140625 0.539062 -2.183594 0.625 -2.21875 C 0.714844 -2.257812 0.820312 -2.273438 0.941406 -2.273438 C 1.019531 -2.273438 1.097656 -2.257812 1.167969 -2.222656 C 1.238281 -2.1875 1.296875 -2.140625 1.34375 -2.078125 C 1.390625 -2.015625 1.410156 -1.945312 1.410156 -1.863281 C 1.410156 -1.804688 1.398438 -1.746094 1.375 -1.683594 C 1.351562 -1.621094 1.3125 -1.558594 1.257812 -1.496094 C 1.203125 -1.433594 1.125 -1.375 1.03125 -1.320312 C 1.023438 -1.320312 1.023438 -1.316406 1.023438 -1.308594 C 1.023438 -1.300781 1.027344 -1.300781 1.035156 -1.300781 C 1.140625 -1.300781 1.230469 -1.273438 1.3125 -1.222656 C 1.394531 -1.171875 1.460938 -1.101562 1.511719 -1.015625 C 1.558594 -0.929688 1.585938 -0.835938 1.585938 -0.734375 C 1.585938 -0.597656 1.554688 -0.476562 1.5 -0.371094 C 1.441406 -0.261719 1.363281 -0.171875 1.265625 -0.09375 C 1.171875 -0.0195312 1.0625 0.0390625 0.945312 0.078125 C 0.824219 0.117188 0.703125 0.136719 0.582031 0.136719 Z "/>
</g>
<g id="glyph-0-2">
<path d="M 0.414062 0.0507812 C 0.363281 0.0507812 0.316406 0.03125 0.277344 -0.0078125 C 0.238281 -0.046875 0.214844 -0.09375 0.214844 -0.148438 C 0.214844 -0.203125 0.238281 -0.25 0.277344 -0.289062 C 0.316406 -0.328125 0.363281 -0.347656 0.414062 -0.347656 C 0.46875 -0.347656 0.515625 -0.328125 0.554688 -0.289062 C 0.59375 -0.25 0.613281 -0.203125 0.613281 -0.148438 C 0.613281 -0.09375 0.59375 -0.046875 0.554688 -0.0078125 C 0.515625 0.03125 0.46875 0.0507812 0.414062 0.0507812 Z "/>
</g>
<g id="glyph-0-3">
<path d="M 0.882812 0.0507812 C 0.761719 0.0507812 0.65625 0.015625 0.566406 -0.0507812 C 0.476562 -0.117188 0.398438 -0.207031 0.339844 -0.320312 C 0.28125 -0.433594 0.234375 -0.554688 0.207031 -0.691406 C 0.175781 -0.824219 0.164062 -0.957031 0.164062 -1.089844 C 0.164062 -1.226562 0.175781 -1.367188 0.207031 -1.503906 C 0.234375 -1.644531 0.28125 -1.773438 0.339844 -1.886719 C 0.402344 -2.003906 0.480469 -2.097656 0.578125 -2.167969 C 0.675781 -2.238281 0.789062 -2.273438 0.921875 -2.273438 C 1.042969 -2.273438 1.148438 -2.242188 1.238281 -2.171875 C 1.328125 -2.105469 1.40625 -2.015625 1.464844 -1.90625 C 1.527344 -1.792969 1.570312 -1.667969 1.597656 -1.535156 C 1.628906 -1.402344 1.644531 -1.269531 1.644531 -1.140625 C 1.644531 -1.007812 1.628906 -0.867188 1.597656 -0.730469 C 1.570312 -0.589844 1.523438 -0.460938 1.464844 -0.34375 C 1.402344 -0.226562 1.324219 -0.128906 1.230469 -0.0585938 C 1.132812 0.015625 1.019531 0.0507812 0.882812 0.0507812 Z M 0.945312 -0.0429688 C 1.042969 -0.0429688 1.121094 -0.09375 1.179688 -0.191406 C 1.238281 -0.289062 1.28125 -0.414062 1.308594 -0.570312 C 1.332031 -0.726562 1.347656 -0.894531 1.347656 -1.074219 C 1.347656 -1.210938 1.335938 -1.34375 1.316406 -1.472656 C 1.296875 -1.601562 1.265625 -1.722656 1.222656 -1.828125 C 1.179688 -1.933594 1.128906 -2.015625 1.066406 -2.078125 C 1.003906 -2.140625 0.933594 -2.171875 0.851562 -2.171875 C 0.753906 -2.171875 0.679688 -2.125 0.621094 -2.03125 C 0.566406 -1.9375 0.523438 -1.8125 0.5 -1.660156 C 0.476562 -1.503906 0.460938 -1.335938 0.460938 -1.15625 C 0.460938 -1.019531 0.472656 -0.886719 0.492188 -0.753906 C 0.511719 -0.621094 0.542969 -0.503906 0.582031 -0.394531 C 0.621094 -0.289062 0.671875 -0.203125 0.734375 -0.140625 C 0.792969 -0.0742188 0.863281 -0.0429688 0.945312 -0.0429688 Z "/>
</g>
</g>
</defs>
<g fill="rgb(0%, 0%, 0%)" fill-opacity="1">
<use xlink:href="#glyph-0-0" x="30" y="23.635742"/>
<use xlink:href="#glyph-0-1" x="31" y="23.635742"/>
<use xlink:href="#glyph-0-2" x="33" y="23.635742"/>
<use xlink:href="#glyph-0-3" x="34" y="23.635742"/>
</g>
</svg>
