<?xml version="1.0" encoding="UTF-8"?>
<svg xmlns="http://www.w3.org/2000/svg" xmlns:xlink="http://www.w3.org/1999/xlink" width="1920" height="1080" viewBox="0 0 1920 1080">
<defs>
<g>
<g id="glyph-0-0">
<path d="M 0.757812 0.0585938 C 0.65625 0.0585938 0.566406 0.03125 0.488281 -0.0195312 C 0.414062 -0.0742188 0.347656 -0.144531 0.296875 -0.230469 C 0.246094 -0.320312 0.207031 -0.414062 0.183594 -0.515625 C 0.160156 -0.617188 0.144531 -0.714844 0.144531 -0.8125 C 0.144531 -0.9375 0.167969 -1.054688 0.214844 -1.167969 C 0.261719 -1.277344 0.324219 -1.375 0.402344 -1.460938 C 0.480469 -1.546875 0.558594 -1.613281 0.648438 -1.660156 C 0.734375 -1.710938 0.816406 -1.734375 0.894531 -1.734375 C 0.941406 -1.734375 1 -1.730469 1.074219 -1.730469 C 1.148438 -1.726562 1.230469 -1.722656 1.316406 -1.722656 C 1.402344 -1.71875 1.484375 -1.714844 1.566406 -1.710938 C 1.648438 -1.710938 1.714844 -1.707031 1.765625 -1.707031 C 1.816406 -1.707031 1.867188 -1.722656 1.914062 -1.757812 C 1.960938 -1.789062 1.988281 -1.804688 2 -1.804688 C 2.015625 -1.804688 2.023438 -1.800781 2.027344 -1.792969 C 2.03125 -1.785156 2.035156 -1.777344 2.035156 -1.765625 C 2.035156 -1.664062 2.007812 -1.582031 1.953125 -1.515625 C 1.902344 -1.453125 1.84375 -1.421875 1.785156 -1.421875 C 1.769531 -1.421875 1.742188 -1.421875 1.699219 -1.421875 C 1.65625 -1.425781 1.609375 -1.425781 1.554688 -1.425781 C 1.503906 -1.429688 1.460938 -1.429688 1.421875 -1.429688 C 1.382812 -1.433594 1.359375 -1.433594 1.351562 -1.433594 C 1.34375 -1.433594 1.335938 -1.429688 1.328125 -1.425781 C 1.320312 -1.417969 1.316406 -1.414062 1.320312 -1.402344 C 1.320312 -1.394531 1.324219 -1.386719 1.332031 -1.375 C 1.359375 -1.339844 1.398438 -1.285156 1.445312 -1.210938 C 1.492188 -1.132812 1.515625 -1.039062 1.515625 -0.929688 C 1.515625 -0.828125 1.496094 -0.71875 1.460938 -0.601562 C 1.421875 -0.488281 1.371094 -0.378906 1.300781 -0.277344 C 1.230469 -0.179688 1.148438 -0.0976562 1.058594 -0.0351562 C 0.96875 0.0273438 0.867188 0.0585938 0.757812 0.0585938 Z M 0.667969 -0.265625 C 0.808594 -0.265625 0.929688 -0.300781 1.023438 -0.371094 C 1.121094 -0.441406 1.195312 -0.53125 1.246094 -0.640625 C 1.296875 -0.753906 1.320312 -0.871094 1.320312 -0.996094 C 1.320312 -1.042969 1.316406 -1.101562 1.304688 -1.167969 C 1.292969 -1.234375 1.273438 -1.292969 1.246094 -1.351562 C 1.222656 -1.40625 1.183594 -1.4375 1.132812 -1.445312 C 1.109375 -1.453125 1.074219 -1.453125 1.03125 -1.457031 C 0.988281 -1.457031 0.953125 -1.457031 0.925781 -1.457031 C 0.792969 -1.457031 0.683594 -1.417969 0.589844 -1.332031 C 0.5 -1.25 0.429688 -1.148438 0.382812 -1.027344 C 0.335938 -0.90625 0.3125 -0.785156 0.3125 -0.667969 C 0.3125 -0.554688 0.347656 -0.460938 0.414062 -0.382812 C 0.484375 -0.304688 0.566406 -0.265625 0.667969 -0.265625 Z "/>
</g>
<g id="glyph-0-1">
<path d="M 2.03125 0.550781 C 2.042969 0.550781 2.054688 0.554688 2.070312 0.5625 C 2.082031 0.570312 2.085938 0.582031 2.085938 0.597656 C 2.085938 0.625 2.074219 0.65625 2.046875 0.699219 C 2.019531 0.738281 1.988281 0.757812 1.953125 0.757812 L 0.0585938 0.757812 C 0.0429688 0.757812 0.03125 0.753906 0.0195312 0.742188 C 0.0078125 0.730469 0 0.71875 0 0.707031 C 0 0.695312 0.00390625 0.675781 0.0117188 0.648438 C 0.0195312 0.625 0.0273438 0.601562 0.0429688 0.582031 C 0.0546875 0.5625 0.0742188 0.550781 0.101562 0.550781 Z "/>
</g>
<g id="glyph-0-2">
<path d="M 0.125 0.015625 C 0.109375 0.015625 0.0898438 0.015625 0.0703125 0.0117188 C 0.0507812 0.0078125 0.0429688 -0.00390625 0.0429688 -0.0195312 C 0.0429688 -0.0429688 0.0507812 -0.0585938 0.0742188 -0.0703125 C 0.09375 -0.0820312 0.117188 -0.0898438 0.136719 -0.0976562 C 0.179688 -0.109375 0.222656 -0.132812 0.265625 -0.164062 C 0.308594 -0.195312 0.359375 -0.253906 0.417969 -0.332031 L 0.738281 -0.777344 C 0.757812 -0.800781 0.765625 -0.820312 0.765625 -0.832031 C 0.761719 -0.84375 0.757812 -0.859375 0.746094 -0.875 L 0.402344 -1.394531 C 0.371094 -1.449219 0.339844 -1.492188 0.316406 -1.515625 C 0.289062 -1.542969 0.253906 -1.558594 0.210938 -1.570312 C 0.191406 -1.578125 0.167969 -1.585938 0.148438 -1.597656 C 0.128906 -1.609375 0.117188 -1.625 0.117188 -1.644531 C 0.117188 -1.667969 0.128906 -1.679688 0.15625 -1.679688 C 0.183594 -1.683594 0.203125 -1.683594 0.210938 -1.683594 C 0.265625 -1.683594 0.304688 -1.683594 0.328125 -1.679688 C 0.347656 -1.675781 0.371094 -1.671875 0.398438 -1.671875 C 0.425781 -1.667969 0.476562 -1.667969 0.542969 -1.667969 C 0.59375 -1.667969 0.628906 -1.667969 0.648438 -1.671875 C 0.671875 -1.675781 0.707031 -1.675781 0.753906 -1.675781 C 0.765625 -1.675781 0.785156 -1.675781 0.808594 -1.671875 C 0.835938 -1.671875 0.851562 -1.660156 0.851562 -1.636719 C 0.851562 -1.621094 0.84375 -1.609375 0.828125 -1.601562 C 0.8125 -1.59375 0.792969 -1.585938 0.773438 -1.578125 C 0.753906 -1.574219 0.734375 -1.566406 0.714844 -1.554688 C 0.695312 -1.546875 0.6875 -1.53125 0.6875 -1.507812 C 0.6875 -1.496094 0.691406 -1.476562 0.703125 -1.453125 C 0.710938 -1.429688 0.726562 -1.402344 0.742188 -1.375 L 0.933594 -1.085938 C 0.945312 -1.066406 0.957031 -1.066406 0.972656 -1.085938 L 1.183594 -1.410156 C 1.195312 -1.421875 1.203125 -1.4375 1.207031 -1.453125 C 1.214844 -1.46875 1.214844 -1.484375 1.214844 -1.5 C 1.214844 -1.535156 1.199219 -1.554688 1.164062 -1.566406 C 1.140625 -1.574219 1.117188 -1.585938 1.097656 -1.597656 C 1.078125 -1.609375 1.066406 -1.621094 1.066406 -1.640625 C 1.066406 -1.664062 1.078125 -1.675781 1.105469 -1.675781 C 1.132812 -1.679688 1.152344 -1.679688 1.164062 -1.679688 C 1.183594 -1.679688 1.214844 -1.675781 1.257812 -1.671875 C 1.300781 -1.667969 1.335938 -1.667969 1.371094 -1.667969 C 1.449219 -1.667969 1.503906 -1.671875 1.535156 -1.675781 C 1.566406 -1.683594 1.597656 -1.6875 1.632812 -1.6875 C 1.648438 -1.6875 1.667969 -1.6875 1.6875 -1.679688 C 1.707031 -1.675781 1.71875 -1.667969 1.71875 -1.648438 C 1.71875 -1.628906 1.707031 -1.617188 1.6875 -1.605469 C 1.664062 -1.59375 1.644531 -1.582031 1.621094 -1.574219 C 1.578125 -1.5625 1.527344 -1.542969 1.472656 -1.511719 C 1.414062 -1.480469 1.363281 -1.433594 1.324219 -1.378906 L 1.0625 -0.984375 C 1.058594 -0.976562 1.058594 -0.96875 1.054688 -0.960938 C 1.054688 -0.949219 1.058594 -0.941406 1.066406 -0.929688 L 1.472656 -0.269531 C 1.503906 -0.21875 1.535156 -0.179688 1.566406 -0.152344 C 1.597656 -0.128906 1.632812 -0.109375 1.675781 -0.0976562 C 1.699219 -0.0898438 1.71875 -0.0820312 1.738281 -0.0703125 C 1.761719 -0.0585938 1.769531 -0.0429688 1.769531 -0.0195312 C 1.769531 -0.00390625 1.761719 0.0078125 1.742188 0.0117188 C 1.722656 0.015625 1.703125 0.015625 1.6875 0.015625 C 1.632812 0.015625 1.589844 0.015625 1.566406 0.0117188 C 1.542969 0.0078125 1.515625 0.0078125 1.484375 0.00390625 C 1.457031 0 1.40625 0 1.335938 0 C 1.285156 0 1.234375 0 1.183594 0.00390625 C 1.128906 0.0078125 1.082031 0.0078125 1.035156 0.0078125 C 0.96875 0.0078125 0.9375 -0.00390625 0.9375 -0.0351562 C 0.9375 -0.0585938 0.945312 -0.078125 0.964844 -0.0859375 C 0.984375 -0.0976562 1.007812 -0.109375 1.042969 -0.117188 C 1.074219 -0.125 1.097656 -0.136719 1.121094 -0.152344 C 1.144531 -0.167969 1.160156 -0.1875 1.160156 -0.214844 C 1.160156 -0.226562 1.15625 -0.238281 1.152344 -0.253906 C 1.148438 -0.265625 1.140625 -0.277344 1.132812 -0.292969 L 0.886719 -0.691406 C 0.878906 -0.699219 0.871094 -0.699219 0.863281 -0.691406 L 0.585938 -0.277344 C 0.585938 -0.273438 0.582031 -0.261719 0.574219 -0.246094 C 0.570312 -0.230469 0.566406 -0.214844 0.566406 -0.199219 C 0.566406 -0.179688 0.570312 -0.160156 0.582031 -0.144531 C 0.589844 -0.125 0.605469 -0.113281 0.625 -0.109375 C 0.648438 -0.101562 0.667969 -0.0898438 0.691406 -0.0820312 C 0.710938 -0.0703125 0.722656 -0.0546875 0.722656 -0.0351562 C 0.722656 -0.015625 0.707031 -0.00390625 0.679688 0 C 0.65625 0.00390625 0.636719 0.00390625 0.625 0.00390625 C 0.601562 0.00390625 0.570312 0.00390625 0.523438 0 C 0.476562 -0.00390625 0.4375 -0.00390625 0.402344 -0.00390625 C 0.324219 -0.00390625 0.269531 0 0.234375 0.0078125 C 0.199219 0.015625 0.164062 0.015625 0.125 0.015625 Z "/>
</g>
<g id="glyph-0-3">
<rect x="0" y="0" width="0" height="0" mask="url(#mask-0)"/>
</g>
<g id="glyph-0-4">
<path d="M 0.988281 0.890625 C 0.960938 0.890625 0.9375 0.882812 0.917969 0.863281 C 0.859375 0.804688 0.796875 0.722656 0.726562 0.613281 C 0.660156 0.503906 0.589844 0.378906 0.523438 0.242188 C 0.457031 0.101562 0.398438 -0.046875 0.34375 -0.203125 C 0.289062 -0.359375 0.246094 -0.515625 0.214844 -0.671875 C 0.183594 -0.828125 0.167969 -0.980469 0.167969 -1.121094 C 0.167969 -1.296875 0.191406 -1.476562 0.238281 -1.652344 C 0.285156 -1.832031 0.347656 -2 0.421875 -2.160156 C 0.496094 -2.320312 0.574219 -2.464844 0.660156 -2.589844 C 0.746094 -2.714844 0.824219 -2.816406 0.898438 -2.890625 C 0.914062 -2.90625 0.929688 -2.917969 0.953125 -2.925781 C 0.972656 -2.933594 0.992188 -2.9375 1.011719 -2.9375 C 1.027344 -2.9375 1.046875 -2.929688 1.070312 -2.917969 C 1.09375 -2.90625 1.105469 -2.890625 1.105469 -2.871094 C 1.105469 -2.867188 1.101562 -2.863281 1.089844 -2.851562 C 1.082031 -2.839844 1.074219 -2.828125 1.066406 -2.816406 C 1.058594 -2.804688 1.054688 -2.792969 1.050781 -2.792969 C 0.96875 -2.695312 0.882812 -2.5625 0.800781 -2.398438 C 0.71875 -2.234375 0.648438 -2.050781 0.59375 -1.839844 C 0.539062 -1.628906 0.511719 -1.40625 0.511719 -1.171875 C 0.511719 -0.992188 0.527344 -0.808594 0.558594 -0.617188 C 0.589844 -0.429688 0.628906 -0.246094 0.679688 -0.0703125 C 0.730469 0.105469 0.785156 0.265625 0.847656 0.402344 C 0.910156 0.539062 0.972656 0.644531 1.039062 0.722656 C 1.039062 0.722656 1.046875 0.730469 1.054688 0.742188 C 1.066406 0.753906 1.074219 0.765625 1.085938 0.777344 C 1.09375 0.789062 1.101562 0.796875 1.101562 0.800781 C 1.101562 0.828125 1.089844 0.851562 1.066406 0.867188 C 1.042969 0.882812 1.015625 0.890625 0.988281 0.890625 Z "/>
</g>
<g id="glyph-0-5">
<path d="M 0.183594 0.0117188 C 0.160156 0.0117188 0.136719 0.0078125 0.121094 0.00390625 C 0.105469 -0.00390625 0.101562 -0.015625 0.101562 -0.0351562 C 0.101562 -0.0546875 0.109375 -0.0703125 0.125 -0.078125 C 0.140625 -0.0859375 0.164062 -0.0898438 0.195312 -0.101562 C 0.238281 -0.113281 0.277344 -0.125 0.316406 -0.144531 C 0.355469 -0.164062 0.375 -0.203125 0.375 -0.257812 L 0.375 -1.152344 C 0.375 -1.230469 0.367188 -1.292969 0.351562 -1.347656 C 0.335938 -1.398438 0.292969 -1.433594 0.222656 -1.453125 C 0.210938 -1.460938 0.199219 -1.464844 0.191406 -1.472656 C 0.183594 -1.480469 0.179688 -1.492188 0.179688 -1.507812 C 0.179688 -1.539062 0.191406 -1.554688 0.214844 -1.558594 C 0.3125 -1.582031 0.394531 -1.613281 0.453125 -1.648438 C 0.515625 -1.6875 0.574219 -1.726562 0.632812 -1.769531 C 0.640625 -1.777344 0.648438 -1.78125 0.65625 -1.785156 C 0.664062 -1.789062 0.671875 -1.792969 0.679688 -1.792969 C 0.683594 -1.792969 0.691406 -1.789062 0.695312 -1.785156 C 0.699219 -1.777344 0.699219 -1.769531 0.699219 -1.761719 C 0.699219 -1.742188 0.695312 -1.703125 0.691406 -1.644531 C 0.683594 -1.585938 0.679688 -1.535156 0.679688 -1.496094 C 0.679688 -1.484375 0.679688 -1.472656 0.679688 -1.464844 C 0.683594 -1.453125 0.683594 -1.449219 0.6875 -1.445312 C 0.785156 -1.539062 0.886719 -1.605469 0.996094 -1.652344 C 1.105469 -1.699219 1.226562 -1.726562 1.359375 -1.726562 C 1.496094 -1.726562 1.605469 -1.667969 1.695312 -1.558594 C 1.785156 -1.449219 1.828125 -1.308594 1.828125 -1.144531 L 1.828125 -0.257812 C 1.828125 -0.203125 1.847656 -0.164062 1.886719 -0.148438 C 1.925781 -0.128906 1.96875 -0.113281 2.007812 -0.101562 C 2.03125 -0.09375 2.050781 -0.0820312 2.074219 -0.0742188 C 2.09375 -0.0625 2.105469 -0.046875 2.105469 -0.0234375 C 2.105469 -0.0078125 2.09375 0.00390625 2.074219 0.0078125 C 2.054688 0.0117188 2.039062 0.0117188 2.019531 0.0117188 C 1.964844 0.0117188 1.921875 0.0117188 1.890625 0.0078125 C 1.859375 0.00390625 1.832031 0 1.804688 -0.00390625 C 1.777344 -0.0078125 1.738281 -0.0078125 1.6875 -0.0078125 C 1.640625 -0.0078125 1.601562 -0.0078125 1.570312 -0.00390625 C 1.539062 0 1.507812 0.00390625 1.476562 0.0078125 C 1.445312 0.0117188 1.402344 0.0117188 1.347656 0.0117188 C 1.332031 0.0117188 1.316406 0.0117188 1.292969 0.0078125 C 1.273438 0.00390625 1.261719 -0.0078125 1.261719 -0.0234375 C 1.261719 -0.046875 1.273438 -0.0625 1.292969 -0.0742188 C 1.3125 -0.0820312 1.335938 -0.0898438 1.359375 -0.101562 C 1.402344 -0.113281 1.441406 -0.128906 1.480469 -0.148438 C 1.519531 -0.167969 1.539062 -0.203125 1.539062 -0.257812 L 1.539062 -1.132812 C 1.539062 -1.253906 1.503906 -1.351562 1.433594 -1.417969 C 1.367188 -1.488281 1.277344 -1.523438 1.164062 -1.523438 C 1.0625 -1.523438 0.976562 -1.507812 0.898438 -1.476562 C 0.824219 -1.445312 0.757812 -1.40625 0.699219 -1.359375 C 0.6875 -1.347656 0.679688 -1.332031 0.675781 -1.316406 C 0.667969 -1.296875 0.667969 -1.277344 0.667969 -1.261719 L 0.667969 -0.257812 C 0.667969 -0.203125 0.6875 -0.164062 0.726562 -0.144531 C 0.765625 -0.125 0.804688 -0.109375 0.847656 -0.101562 C 0.910156 -0.0820312 0.941406 -0.0625 0.941406 -0.0351562 C 0.941406 -0.015625 0.933594 -0.00390625 0.921875 0.00390625 C 0.90625 0.0078125 0.886719 0.0117188 0.859375 0.0117188 C 0.804688 0.0117188 0.757812 0.0117188 0.726562 0.0078125 C 0.695312 0.00390625 0.664062 0 0.636719 -0.00390625 C 0.609375 -0.0078125 0.570312 -0.0078125 0.519531 -0.0078125 C 0.472656 -0.0078125 0.433594 -0.0078125 0.40625 -0.00390625 C 0.378906 0 0.347656 0.00390625 0.316406 0.0078125 C 0.285156 0.0117188 0.238281 0.0117188 0.183594 0.0117188 Z "/>
</g>
<g id="glyph-0-6">
<path d="M 0.183594 0.0117188 C 0.160156 0.0117188 0.140625 0.0078125 0.125 0.00390625 C 0.109375 0 0.101562 -0.015625 0.101562 -0.0351562 C 0.101562 -0.0546875 0.109375 -0.0664062 0.128906 -0.0742188 C 0.144531 -0.0820312 0.167969 -0.0898438 0.195312 -0.101562 C 0.234375 -0.113281 0.273438 -0.128906 0.316406 -0.148438 C 0.355469 -0.167969 0.375 -0.203125 0.375 -0.257812 L 0.375 -1.152344 C 0.375 -1.230469 0.367188 -1.296875 0.351562 -1.351562 C 0.332031 -1.410156 0.289062 -1.441406 0.214844 -1.453125 C 0.203125 -1.457031 0.195312 -1.460938 0.191406 -1.472656 C 0.183594 -1.480469 0.179688 -1.492188 0.179688 -1.507812 C 0.179688 -1.535156 0.191406 -1.554688 0.210938 -1.558594 C 0.285156 -1.578125 0.347656 -1.597656 0.390625 -1.617188 C 0.4375 -1.640625 0.476562 -1.664062 0.511719 -1.691406 C 0.546875 -1.714844 0.585938 -1.746094 0.636719 -1.773438 C 0.644531 -1.777344 0.648438 -1.78125 0.652344 -1.785156 C 0.660156 -1.789062 0.667969 -1.792969 0.675781 -1.792969 C 0.691406 -1.792969 0.699219 -1.78125 0.699219 -1.761719 C 0.699219 -1.742188 0.695312 -1.703125 0.691406 -1.644531 C 0.683594 -1.585938 0.679688 -1.535156 0.679688 -1.496094 C 0.679688 -1.46875 0.683594 -1.453125 0.6875 -1.445312 L 0.695312 -1.445312 C 0.757812 -1.507812 0.84375 -1.570312 0.949219 -1.632812 C 1.050781 -1.695312 1.183594 -1.726562 1.347656 -1.726562 C 1.445312 -1.726562 1.527344 -1.703125 1.597656 -1.660156 C 1.664062 -1.617188 1.71875 -1.542969 1.761719 -1.4375 L 1.773438 -1.4375 C 1.863281 -1.519531 1.964844 -1.585938 2.078125 -1.640625 C 2.191406 -1.695312 2.316406 -1.726562 2.453125 -1.726562 C 2.546875 -1.726562 2.621094 -1.699219 2.683594 -1.640625 C 2.746094 -1.585938 2.792969 -1.515625 2.824219 -1.425781 C 2.855469 -1.335938 2.871094 -1.242188 2.871094 -1.144531 L 2.871094 -0.257812 C 2.871094 -0.203125 2.890625 -0.164062 2.929688 -0.148438 C 2.96875 -0.128906 3.007812 -0.113281 3.050781 -0.101562 C 3.078125 -0.09375 3.101562 -0.0820312 3.117188 -0.0742188 C 3.136719 -0.0664062 3.144531 -0.0546875 3.144531 -0.0351562 C 3.144531 -0.015625 3.140625 -0.00390625 3.128906 0.00390625 C 3.117188 0.0078125 3.09375 0.0117188 3.0625 0.0117188 C 3.007812 0.0117188 2.964844 0.0117188 2.933594 0.0078125 C 2.902344 0.00390625 2.875 0 2.847656 -0.00390625 C 2.820312 -0.0078125 2.785156 -0.0078125 2.734375 -0.0078125 C 2.6875 -0.0078125 2.648438 -0.0078125 2.617188 -0.00390625 C 2.585938 0 2.554688 0.00390625 2.519531 0.0078125 C 2.488281 0.0117188 2.441406 0.0117188 2.386719 0.0117188 C 2.363281 0.0117188 2.34375 0.0078125 2.328125 0.00390625 C 2.3125 -0.00390625 2.304688 -0.015625 2.304688 -0.0351562 C 2.304688 -0.0546875 2.3125 -0.0703125 2.332031 -0.078125 C 2.351562 -0.0859375 2.371094 -0.09375 2.398438 -0.101562 C 2.445312 -0.113281 2.484375 -0.125 2.523438 -0.144531 C 2.5625 -0.164062 2.578125 -0.203125 2.578125 -0.257812 L 2.578125 -1.132812 C 2.578125 -1.199219 2.5625 -1.261719 2.535156 -1.324219 C 2.503906 -1.382812 2.460938 -1.433594 2.414062 -1.472656 C 2.363281 -1.511719 2.308594 -1.527344 2.246094 -1.527344 C 2.175781 -1.527344 2.113281 -1.519531 2.050781 -1.503906 C 1.992188 -1.488281 1.9375 -1.457031 1.882812 -1.417969 C 1.804688 -1.355469 1.765625 -1.253906 1.765625 -1.117188 L 1.765625 -0.257812 C 1.765625 -0.203125 1.789062 -0.164062 1.828125 -0.144531 C 1.871094 -0.125 1.914062 -0.109375 1.953125 -0.101562 C 1.980469 -0.09375 2.003906 -0.0859375 2.023438 -0.078125 C 2.042969 -0.0664062 2.050781 -0.0546875 2.050781 -0.0351562 C 2.050781 -0.015625 2.042969 -0.00390625 2.03125 0.00390625 C 2.015625 0.0078125 1.996094 0.0117188 1.96875 0.0117188 C 1.910156 0.0117188 1.867188 0.0117188 1.835938 0.0078125 C 1.804688 0.00390625 1.773438 0 1.742188 -0.00390625 C 1.714844 -0.0078125 1.675781 -0.0078125 1.625 -0.0078125 C 1.578125 -0.0078125 1.539062 -0.0078125 1.507812 -0.00390625 C 1.476562 0 1.445312 0.00390625 1.414062 0.0078125 C 1.378906 0.0117188 1.335938 0.0117188 1.277344 0.0117188 C 1.257812 0.0117188 1.238281 0.0078125 1.222656 0.00390625 C 1.203125 -0.00390625 1.195312 -0.015625 1.195312 -0.0351562 C 1.195312 -0.0546875 1.207031 -0.0703125 1.226562 -0.078125 C 1.246094 -0.0859375 1.269531 -0.0898438 1.292969 -0.101562 C 1.332031 -0.113281 1.375 -0.128906 1.414062 -0.148438 C 1.453125 -0.167969 1.476562 -0.203125 1.476562 -0.257812 L 1.476562 -1.132812 C 1.476562 -1.199219 1.460938 -1.261719 1.429688 -1.324219 C 1.398438 -1.382812 1.359375 -1.433594 1.308594 -1.472656 C 1.257812 -1.511719 1.203125 -1.527344 1.140625 -1.527344 C 1.070312 -1.527344 1.007812 -1.519531 0.949219 -1.503906 C 0.890625 -1.488281 0.832031 -1.457031 0.777344 -1.417969 C 0.703125 -1.363281 0.667969 -1.261719 0.667969 -1.117188 L 0.667969 -0.257812 C 0.667969 -0.203125 0.6875 -0.164062 0.726562 -0.148438 C 0.765625 -0.128906 0.804688 -0.113281 0.847656 -0.101562 C 0.867188 -0.09375 0.890625 -0.0859375 0.910156 -0.078125 C 0.929688 -0.0703125 0.941406 -0.0546875 0.941406 -0.0351562 C 0.941406 -0.015625 0.933594 -0.00390625 0.917969 0.00390625 C 0.902344 0.0078125 0.882812 0.0117188 0.859375 0.0117188 C 0.804688 0.0117188 0.757812 0.0117188 0.726562 0.0078125 C 0.695312 0.00390625 0.664062 0 0.636719 -0.00390625 C 0.609375 -0.0078125 0.570312 -0.0078125 0.519531 -0.0078125 C 0.472656 -0.0078125 0.433594 -0.0078125 0.40625 -0.00390625 C 0.378906 0 0.347656 0.00390625 0.316406 0.0078125 C 0.285156 0.0117188 0.238281 0.0117188 0.183594 0.0117188 Z "/>
</g>
<g id="glyph-0-7">
<path d="M 0.324219 0.890625 C 0.296875 0.890625 0.273438 0.882812 0.246094 0.867188 C 0.222656 0.851562 0.210938 0.828125 0.210938 0.800781 C 0.210938 0.796875 0.21875 0.789062 0.226562 0.777344 C 0.238281 0.765625 0.246094 0.753906 0.257812 0.742188 C 0.269531 0.730469 0.273438 0.722656 0.273438 0.722656 C 0.339844 0.644531 0.402344 0.539062 0.464844 0.402344 C 0.527344 0.265625 0.582031 0.109375 0.632812 -0.0703125 C 0.683594 -0.246094 0.722656 -0.429688 0.753906 -0.617188 C 0.785156 -0.808594 0.800781 -0.992188 0.800781 -1.171875 C 0.800781 -1.40625 0.773438 -1.628906 0.71875 -1.839844 C 0.664062 -2.050781 0.597656 -2.234375 0.515625 -2.398438 C 0.433594 -2.5625 0.347656 -2.695312 0.261719 -2.792969 C 0.257812 -2.796875 0.253906 -2.800781 0.246094 -2.816406 C 0.238281 -2.828125 0.230469 -2.839844 0.222656 -2.851562 C 0.214844 -2.863281 0.207031 -2.867188 0.207031 -2.871094 C 0.207031 -2.890625 0.21875 -2.90625 0.242188 -2.917969 C 0.265625 -2.929688 0.285156 -2.9375 0.300781 -2.9375 C 0.324219 -2.9375 0.34375 -2.933594 0.363281 -2.925781 C 0.386719 -2.917969 0.402344 -2.90625 0.414062 -2.890625 C 0.488281 -2.816406 0.566406 -2.714844 0.652344 -2.589844 C 0.738281 -2.464844 0.816406 -2.320312 0.890625 -2.160156 C 0.964844 -2 1.027344 -1.832031 1.074219 -1.652344 C 1.121094 -1.476562 1.144531 -1.296875 1.144531 -1.121094 C 1.144531 -0.980469 1.128906 -0.828125 1.097656 -0.671875 C 1.066406 -0.515625 1.023438 -0.359375 0.96875 -0.203125 C 0.914062 -0.046875 0.855469 0.101562 0.789062 0.242188 C 0.722656 0.378906 0.652344 0.503906 0.585938 0.613281 C 0.515625 0.722656 0.453125 0.804688 0.394531 0.863281 C 0.375 0.882812 0.351562 0.890625 0.324219 0.890625 Z "/>
</g>
</g>
<image id="source-40" x="0" y="0" width="0" height="0"/>
<mask id="mask-0">
<use xlink:href="#source-40"/>
</mask>
</defs>
<g fill="rgb(0%, 0%, 0%)" fill-opacity="1">
<use xlink:href="#glyph-0-0" x="30" y="24.196289"/>
<use xlink:href="#glyph-0-1" x="32" y="24.196289"/>
</g>
<g fill="rgb(0%, 0%, 0%)" fill-opacity="1">
<use xlink:href="#glyph-0-2" x="34" y="24.196289"/>
<use xlink:href="#glyph-0-3" x="36" y="24.196289"/>
<use xlink:href="#glyph-0-3" x="37" y="24.196289"/>
<use xlink:href="#glyph-0-4" x="38" y="24.196289"/>
<use xlink:href="#glyph-0-5" x="39" y="24.196289"/>
<use xlink:href="#glyph-0-6" x="41" y="24.196289"/>
<use xlink:href="#glyph-0-7" x="44" y="24.196289"/>
</g>
</svg>
