<?xml version="1.0" encoding="UTF-8"?>
<svg xmlns="http://www.w3.org/2000/svg" xmlns:xlink="http://www.w3.org/1999/xlink" width="1920" height="1080" viewBox="0 0 1920 1080">
<defs>
<g>
<g id="glyph-0-0">
<path d="M 0.21875 0.0117188 C 0.1875 0.0117188 0.164062 0.0078125 0.152344 0.00390625 C 0.136719 -0.00390625 0.128906 -0.0195312 0.128906 -0.0351562 C 0.128906 -0.0585938 0.136719 -0.0742188 0.15625 -0.0820312 C 0.171875 -0.0898438 0.199219 -0.0976562 0.230469 -0.105469 C 0.289062 -0.121094 0.328125 -0.144531 0.359375 -0.171875 C 0.386719 -0.199219 0.398438 -0.234375 0.398438 -0.277344 L 0.398438 -1.230469 C 0.398438 -1.3125 0.386719 -1.378906 0.363281 -1.441406 C 0.339844 -1.5 0.292969 -1.535156 0.21875 -1.550781 C 0.207031 -1.554688 0.195312 -1.5625 0.1875 -1.574219 C 0.179688 -1.585938 0.171875 -1.597656 0.171875 -1.609375 C 0.171875 -1.636719 0.1875 -1.65625 0.214844 -1.664062 C 0.289062 -1.6875 0.371094 -1.71875 0.457031 -1.765625 C 0.539062 -1.8125 0.605469 -1.851562 0.652344 -1.878906 C 0.671875 -1.890625 0.683594 -1.898438 0.695312 -1.90625 C 0.707031 -1.910156 0.714844 -1.910156 0.71875 -1.910156 C 0.734375 -1.910156 0.742188 -1.902344 0.742188 -1.878906 C 0.742188 -1.871094 0.742188 -1.847656 0.738281 -1.8125 C 0.738281 -1.777344 0.738281 -1.734375 0.734375 -1.6875 C 0.734375 -1.640625 0.730469 -1.59375 0.730469 -1.546875 C 0.730469 -1.539062 0.730469 -1.539062 0.738281 -1.539062 C 0.785156 -1.597656 0.835938 -1.648438 0.894531 -1.691406 C 0.953125 -1.738281 1.011719 -1.773438 1.074219 -1.800781 C 1.132812 -1.828125 1.191406 -1.839844 1.25 -1.839844 C 1.3125 -1.839844 1.363281 -1.828125 1.402344 -1.800781 C 1.441406 -1.773438 1.460938 -1.738281 1.460938 -1.699219 C 1.460938 -1.667969 1.453125 -1.636719 1.4375 -1.601562 C 1.421875 -1.566406 1.398438 -1.535156 1.375 -1.507812 C 1.347656 -1.480469 1.320312 -1.464844 1.289062 -1.464844 C 1.269531 -1.464844 1.25 -1.46875 1.230469 -1.476562 C 1.210938 -1.484375 1.1875 -1.496094 1.164062 -1.507812 C 1.140625 -1.515625 1.117188 -1.523438 1.09375 -1.535156 C 1.070312 -1.542969 1.046875 -1.546875 1.023438 -1.546875 C 0.953125 -1.546875 0.882812 -1.519531 0.816406 -1.472656 C 0.75 -1.421875 0.714844 -1.320312 0.714844 -1.171875 L 0.714844 -0.277344 C 0.714844 -0.238281 0.734375 -0.207031 0.777344 -0.179688 C 0.820312 -0.15625 0.878906 -0.128906 0.949219 -0.105469 C 0.984375 -0.0976562 1.007812 -0.0898438 1.027344 -0.078125 C 1.042969 -0.0703125 1.054688 -0.0546875 1.054688 -0.0351562 C 1.054688 -0.00390625 1.023438 0.0117188 0.964844 0.0117188 C 0.875 0.0117188 0.808594 0.0078125 0.761719 0.00390625 C 0.714844 -0.00390625 0.65625 -0.0078125 0.578125 -0.0078125 C 0.527344 -0.0078125 0.488281 -0.0078125 0.457031 -0.00390625 C 0.425781 0 0.390625 0.00390625 0.359375 0.0078125 C 0.324219 0.0117188 0.277344 0.0117188 0.21875 0.0117188 Z "/>
</g>
<g id="glyph-0-1">
<rect x="0" y="0" width="0" height="0" mask="url(#mask-0)"/>
</g>
<g id="glyph-0-2">
<path d="M 0.164062 0.277344 C 0.132812 0.277344 0.113281 0.269531 0.101562 0.253906 C 0.0859375 0.242188 0.0859375 0.226562 0.09375 0.207031 L 1.414062 -2.878906 C 1.429688 -2.914062 1.449219 -2.933594 1.480469 -2.941406 C 1.511719 -2.949219 1.546875 -2.957031 1.585938 -2.957031 C 1.617188 -2.957031 1.636719 -2.949219 1.644531 -2.933594 C 1.652344 -2.917969 1.652344 -2.902344 1.644531 -2.878906 L 0.324219 0.207031 C 0.3125 0.238281 0.292969 0.257812 0.261719 0.265625 C 0.230469 0.273438 0.195312 0.277344 0.164062 0.277344 Z "/>
</g>
<g id="glyph-0-3">
<path d="M 0.519531 0.0625 C 0.464844 0.0625 0.414062 0.0429688 0.359375 0 C 0.304688 -0.0429688 0.257812 -0.09375 0.21875 -0.152344 C 0.183594 -0.210938 0.164062 -0.265625 0.164062 -0.320312 C 0.164062 -0.414062 0.191406 -0.488281 0.238281 -0.542969 C 0.289062 -0.597656 0.371094 -0.644531 0.480469 -0.6875 L 0.933594 -0.875 C 0.992188 -0.898438 1.027344 -0.921875 1.039062 -0.9375 C 1.046875 -0.957031 1.054688 -0.992188 1.058594 -1.054688 L 1.066406 -1.335938 C 1.070312 -1.414062 1.046875 -1.480469 1.003906 -1.539062 C 0.957031 -1.59375 0.890625 -1.621094 0.804688 -1.621094 C 0.761719 -1.621094 0.714844 -1.613281 0.671875 -1.601562 C 0.625 -1.585938 0.589844 -1.566406 0.558594 -1.542969 C 0.542969 -1.53125 0.53125 -1.511719 0.523438 -1.488281 C 0.519531 -1.464844 0.515625 -1.441406 0.515625 -1.414062 C 0.515625 -1.402344 0.515625 -1.386719 0.519531 -1.375 C 0.519531 -1.359375 0.519531 -1.34375 0.519531 -1.332031 C 0.519531 -1.316406 0.5 -1.296875 0.464844 -1.273438 C 0.425781 -1.25 0.386719 -1.226562 0.339844 -1.207031 C 0.292969 -1.1875 0.257812 -1.179688 0.226562 -1.179688 C 0.210938 -1.179688 0.199219 -1.179688 0.191406 -1.1875 C 0.183594 -1.195312 0.179688 -1.207031 0.179688 -1.21875 C 0.179688 -1.265625 0.191406 -1.316406 0.222656 -1.371094 C 0.253906 -1.425781 0.300781 -1.476562 0.355469 -1.523438 C 0.421875 -1.585938 0.496094 -1.640625 0.578125 -1.6875 C 0.65625 -1.734375 0.734375 -1.773438 0.8125 -1.800781 C 0.890625 -1.828125 0.957031 -1.839844 1.019531 -1.839844 C 1.125 -1.839844 1.210938 -1.800781 1.28125 -1.726562 C 1.351562 -1.652344 1.386719 -1.558594 1.382812 -1.445312 L 1.359375 -0.378906 C 1.355469 -0.316406 1.371094 -0.265625 1.402344 -0.226562 C 1.433594 -0.1875 1.472656 -0.167969 1.519531 -0.167969 C 1.59375 -0.167969 1.648438 -0.183594 1.683594 -0.21875 C 1.699219 -0.234375 1.710938 -0.238281 1.71875 -0.238281 C 1.734375 -0.238281 1.746094 -0.234375 1.753906 -0.226562 C 1.765625 -0.21875 1.769531 -0.207031 1.769531 -0.191406 C 1.769531 -0.160156 1.753906 -0.125 1.71875 -0.09375 C 1.671875 -0.046875 1.621094 -0.0078125 1.566406 0.0195312 C 1.511719 0.046875 1.460938 0.0625 1.414062 0.0625 C 1.277344 0.0625 1.167969 -0.015625 1.089844 -0.167969 L 1.074219 -0.167969 C 0.976562 -0.0898438 0.882812 -0.03125 0.796875 0.0078125 C 0.707031 0.0429688 0.613281 0.0625 0.519531 0.0625 Z M 0.730469 -0.152344 C 0.789062 -0.152344 0.839844 -0.160156 0.878906 -0.179688 C 0.921875 -0.199219 0.957031 -0.226562 0.992188 -0.257812 C 1.007812 -0.273438 1.019531 -0.292969 1.027344 -0.316406 C 1.039062 -0.34375 1.046875 -0.382812 1.050781 -0.441406 L 1.058594 -0.65625 C 1.0625 -0.691406 1.058594 -0.714844 1.054688 -0.730469 C 1.046875 -0.746094 1.035156 -0.75 1.019531 -0.75 C 1.011719 -0.75 1 -0.75 0.988281 -0.746094 C 0.972656 -0.742188 0.953125 -0.738281 0.929688 -0.730469 C 0.773438 -0.671875 0.664062 -0.613281 0.601562 -0.554688 C 0.542969 -0.492188 0.511719 -0.4375 0.511719 -0.386719 C 0.511719 -0.308594 0.535156 -0.25 0.578125 -0.210938 C 0.625 -0.171875 0.675781 -0.152344 0.730469 -0.152344 Z "/>
</g>
<g id="glyph-0-4">
<path d="M 0.632812 0.714844 C 0.507812 0.714844 0.402344 0.675781 0.320312 0.597656 C 0.238281 0.519531 0.175781 0.421875 0.132812 0.300781 C 0.0898438 0.183594 0.0664062 0.0625 0.0664062 -0.0625 C 0.0664062 -0.195312 0.09375 -0.320312 0.144531 -0.441406 C 0.195312 -0.5625 0.269531 -0.660156 0.367188 -0.734375 C 0.464844 -0.8125 0.582031 -0.847656 0.710938 -0.847656 C 0.832031 -0.847656 0.933594 -0.8125 1.015625 -0.738281 C 1.097656 -0.667969 1.160156 -0.574219 1.203125 -0.460938 C 1.246094 -0.347656 1.265625 -0.234375 1.265625 -0.109375 C 1.265625 0.0234375 1.242188 0.152344 1.191406 0.28125 C 1.144531 0.40625 1.074219 0.511719 0.976562 0.59375 C 0.882812 0.675781 0.765625 0.714844 0.632812 0.714844 Z M 0.679688 0.617188 C 0.777344 0.617188 0.847656 0.582031 0.894531 0.511719 C 0.941406 0.441406 0.96875 0.351562 0.980469 0.246094 C 0.992188 0.140625 1 0.0390625 1 -0.0585938 C 1 -0.160156 0.992188 -0.261719 0.976562 -0.363281 C 0.960938 -0.46875 0.933594 -0.554688 0.882812 -0.628906 C 0.835938 -0.703125 0.761719 -0.738281 0.664062 -0.738281 C 0.570312 -0.738281 0.5 -0.703125 0.453125 -0.636719 C 0.40625 -0.570312 0.375 -0.488281 0.359375 -0.394531 C 0.34375 -0.296875 0.332031 -0.203125 0.332031 -0.109375 C 0.332031 -0.03125 0.335938 0.0507812 0.34375 0.136719 C 0.351562 0.21875 0.367188 0.296875 0.390625 0.371094 C 0.410156 0.445312 0.445312 0.503906 0.492188 0.550781 C 0.539062 0.59375 0.601562 0.617188 0.679688 0.617188 Z "/>
</g>
</g>
<image id="source-40" x="0" y="0" width="0" height="0"/>
<mask id="mask-0">
<use xlink:href="#source-40"/>
</mask>
</defs>
<g fill="rgb(0%, 0%, 0%)" fill-opacity="1">
<use xlink:href="#glyph-0-0" x="30" y="24.475586"/>
<use xlink:href="#glyph-0-1" x="31" y="24.475586"/>
<use xlink:href="#glyph-0-2" x="32" y="24.475586"/>
<use xlink:href="#glyph-0-1" x="34" y="24.475586"/>
<use xlink:href="#glyph-0-3" x="35" y="24.475586"/>
<use xlink:href="#glyph-0-4" x="37" y="24.475586"/>
</g>
</svg>
