<?xml version="1.0" encoding="UTF-8"?>
<svg xmlns="http://www.w3.org/2000/svg" xmlns:xlink="http://www.w3.org/1999/xlink" width="1920" height="1080" viewBox="0 0 1920 1080">
<defs>
<g>
<g id="glyph-0-0">
<path d="M 3.707031 0 L 3.707031 -4.277344 L 4.320312 -4.277344 L 4.320312 0 Z M 0.640625 0 L 0.640625 -4.277344 L 1.253906 -4.277344 L 1.253906 0 Z M 1.191406 -1.90625 L 1.191406 -2.4375 L 3.765625 -2.4375 L 3.765625 -1.90625 Z "/>
</g>
<g id="glyph-0-1">
<path d="M 0.640625 0 L 0.640625 -4.277344 L 3.660156 -4.277344 L 3.660156 -3.746094 L 1.253906 -3.746094 L 1.253906 -0.53125 L 3.746094 -0.53125 L 3.746094 0 Z M 1.199219 -1.914062 L 1.199219 -2.433594 L 3.398438 -2.433594 L 3.398438 -1.914062 Z "/>
</g>
<g id="glyph-0-2">
<path d="M 0.347656 -1.421875 L 0.347656 -1.929688 L 1.992188 -1.929688 L 1.992188 -1.421875 Z "/>
</g>
<g id="glyph-0-3">
<path d="M 1.601562 0.0507812 C 1.300781 0.0507812 1.007812 0.00390625 0.722656 -0.0898438 C 0.441406 -0.183594 0.210938 -0.3125 0.03125 -0.46875 L 0.3125 -0.953125 C 0.453125 -0.820312 0.640625 -0.707031 0.867188 -0.625 C 1.09375 -0.539062 1.339844 -0.496094 1.601562 -0.496094 C 1.917969 -0.496094 2.167969 -0.5625 2.34375 -0.699219 C 2.519531 -0.835938 2.609375 -1.019531 2.609375 -1.253906 C 2.609375 -1.476562 2.523438 -1.65625 2.355469 -1.792969 C 2.1875 -1.929688 1.917969 -2 1.550781 -2 L 1.210938 -2 L 1.210938 -2.425781 L 2.480469 -3.988281 L 2.566406 -3.746094 L 0.226562 -3.746094 L 0.226562 -4.277344 L 3.050781 -4.277344 L 3.050781 -3.863281 L 1.785156 -2.304688 L 1.464844 -2.492188 L 1.667969 -2.492188 C 2.183594 -2.492188 2.574219 -2.375 2.832031 -2.144531 C 3.089844 -1.914062 3.21875 -1.617188 3.21875 -1.257812 C 3.21875 -1.019531 3.160156 -0.796875 3.042969 -0.597656 C 2.925781 -0.398438 2.746094 -0.242188 2.507812 -0.125 C 2.269531 -0.0078125 1.96875 0.0507812 1.601562 0.0507812 Z "/>
</g>
</g>
</defs>
<g fill="rgb(100%, 100%, 100%)" fill-opacity="1">
<use xlink:href="#glyph-0-0" x="30" y="25.915039"/>
<use xlink:href="#glyph-0-1" x="35" y="25.915039"/>
<use xlink:href="#glyph-0-2" x="39" y="25.915039"/>
<use xlink:href="#glyph-0-3" x="41" y="25.915039"/>
</g>
</svg>
