<?xml version="1.0" encoding="UTF-8"?>
<svg xmlns="http://www.w3.org/2000/svg" xmlns:xlink="http://www.w3.org/1999/xlink" width="1920" height="1080" viewBox="0 0 1920 1080">
<defs>
<g>
<g id="glyph-0-0">
<path d="M 0.671875 -4.277344 C 0.671875 -4.96875 0.734375 -5.59375 0.855469 -6.140625 C 0.976562 -6.691406 1.160156 -7.15625 1.40625 -7.535156 C 1.648438 -7.914062 1.960938 -8.203125 2.335938 -8.402344 C 2.710938 -8.601562 3.152344 -8.703125 3.667969 -8.703125 C 4.214844 -8.703125 4.675781 -8.605469 5.054688 -8.410156 C 5.433594 -8.214844 5.742188 -7.929688 5.976562 -7.554688 C 6.214844 -7.179688 6.382812 -6.714844 6.488281 -6.167969 C 6.59375 -5.617188 6.648438 -4.988281 6.648438 -4.277344 C 6.648438 -3.585938 6.589844 -2.964844 6.464844 -2.414062 C 6.34375 -1.863281 6.160156 -1.398438 5.914062 -1.019531 C 5.671875 -0.640625 5.363281 -0.351562 4.988281 -0.152344 C 4.613281 0.046875 4.167969 0.148438 3.65625 0.148438 C 3.117188 0.148438 2.660156 0.0390625 2.28125 -0.175781 C 1.902344 -0.394531 1.589844 -0.695312 1.351562 -1.085938 C 1.109375 -1.476562 0.9375 -1.945312 0.832031 -2.488281 C 0.726562 -3.03125 0.671875 -3.625 0.671875 -4.277344 Z M 5.648438 -4.277344 C 5.648438 -4.710938 5.621094 -5.121094 5.574219 -5.511719 L 1.945312 -2.199219 C 2.082031 -1.734375 2.289062 -1.363281 2.566406 -1.085938 C 2.84375 -0.808594 3.207031 -0.671875 3.65625 -0.671875 C 4.371094 -0.671875 4.882812 -0.96875 5.1875 -1.566406 C 5.492188 -2.160156 5.648438 -3.0625 5.648438 -4.277344 Z M 1.6875 -4.277344 C 1.6875 -4.074219 1.691406 -3.878906 1.703125 -3.691406 C 1.714844 -3.503906 1.730469 -3.320312 1.746094 -3.140625 L 5.390625 -6.441406 C 5.25 -6.882812 5.046875 -7.230469 4.773438 -7.492188 C 4.5 -7.753906 4.132812 -7.882812 3.667969 -7.882812 C 2.941406 -7.882812 2.429688 -7.585938 2.132812 -6.984375 C 1.835938 -6.386719 1.6875 -5.484375 1.6875 -4.277344 Z "/>
</g>
<g id="glyph-0-1">
<path d="M 2.847656 -0.671875 C 2.847656 -0.933594 2.921875 -1.132812 3.066406 -1.277344 C 3.214844 -1.417969 3.410156 -1.492188 3.65625 -1.492188 C 3.914062 -1.492188 4.117188 -1.417969 4.265625 -1.277344 C 4.414062 -1.132812 4.484375 -0.933594 4.484375 -0.671875 C 4.484375 -0.4375 4.414062 -0.242188 4.265625 -0.0859375 C 4.117188 0.0703125 3.914062 0.148438 3.65625 0.148438 C 3.410156 0.148438 3.214844 0.0703125 3.066406 -0.0859375 C 2.921875 -0.242188 2.847656 -0.4375 2.847656 -0.671875 Z "/>
</g>
<g id="glyph-0-2">
<path d="M 6.109375 -6.390625 C 6.109375 -5.640625 5.757812 -4.808594 5.046875 -3.886719 C 4.339844 -2.964844 3.347656 -1.964844 2.078125 -0.878906 L 6.378906 -0.878906 L 6.378906 0 L 0.953125 0 L 0.953125 -0.878906 C 1.109375 -1.027344 1.320312 -1.21875 1.589844 -1.453125 C 1.859375 -1.691406 2.148438 -1.953125 2.457031 -2.242188 C 2.765625 -2.53125 3.082031 -2.84375 3.402344 -3.179688 C 3.726562 -3.511719 4.015625 -3.855469 4.277344 -4.203125 C 4.539062 -4.554688 4.75 -4.90625 4.914062 -5.253906 C 5.078125 -5.605469 5.15625 -5.945312 5.15625 -6.269531 C 5.15625 -6.757812 5.03125 -7.144531 4.773438 -7.425781 C 4.515625 -7.707031 4.132812 -7.847656 3.617188 -7.847656 C 3.175781 -7.847656 2.808594 -7.796875 2.503906 -7.699219 C 2.203125 -7.601562 1.929688 -7.460938 1.6875 -7.273438 L 1.269531 -7.945312 C 1.636719 -8.207031 2.027344 -8.398438 2.4375 -8.519531 C 2.851562 -8.640625 3.300781 -8.703125 3.789062 -8.703125 C 4.554688 -8.703125 5.132812 -8.496094 5.523438 -8.078125 C 5.914062 -7.664062 6.109375 -7.101562 6.109375 -6.390625 Z "/>
</g>
<g id="glyph-0-3">
<path d="M 3.128906 -0.707031 C 3.4375 -0.707031 3.722656 -0.746094 3.984375 -0.824219 C 4.246094 -0.902344 4.46875 -1.019531 4.652344 -1.179688 C 4.835938 -1.339844 4.976562 -1.535156 5.078125 -1.773438 C 5.179688 -2.007812 5.230469 -2.285156 5.230469 -2.601562 C 5.230469 -3.191406 5.019531 -3.636719 4.601562 -3.941406 C 4.183594 -4.246094 3.609375 -4.398438 2.882812 -4.398438 L 1.734375 -4.339844 L 1.734375 -8.554688 L 5.929688 -8.554688 L 5.929688 -7.675781 L 2.652344 -7.675781 L 2.652344 -5.195312 L 3.261719 -5.21875 C 4.167969 -5.21875 4.882812 -5 5.402344 -4.558594 C 5.925781 -4.117188 6.183594 -3.492188 6.183594 -2.675781 C 6.183594 -2.21875 6.105469 -1.816406 5.945312 -1.464844 C 5.785156 -1.117188 5.570312 -0.820312 5.292969 -0.582031 C 5.015625 -0.339844 4.6875 -0.160156 4.308594 -0.0351562 C 3.929688 0.0859375 3.515625 0.148438 3.066406 0.148438 C 2.824219 0.148438 2.589844 0.128906 2.371094 0.0898438 C 2.152344 0.0546875 1.953125 0.0117188 1.773438 -0.0429688 C 1.59375 -0.0976562 1.4375 -0.152344 1.300781 -0.214844 C 1.167969 -0.273438 1.070312 -0.328125 1.015625 -0.378906 L 1.40625 -1.171875 C 1.542969 -1.089844 1.757812 -0.992188 2.042969 -0.878906 C 2.328125 -0.765625 2.6875 -0.707031 3.128906 -0.707031 Z "/>
</g>
<g id="glyph-0-4">
<rect x="0" y="0" width="0" height="0" mask="url(#mask-0)"/>
</g>
<g id="glyph-0-5">
<path d="M 2.996094 -3.960938 L 2.054688 -3.960938 L 2.054688 0 L 1.039062 0 L 1.039062 -8.554688 L 2.054688 -8.554688 L 2.054688 -4.742188 L 2.96875 -4.742188 L 5.71875 -8.554688 L 6.894531 -8.554688 L 3.875 -4.484375 L 7.273438 0 L 5.988281 0 Z "/>
</g>
</g>
<image id="source-39" x="0" y="0" width="0" height="0"/>
<mask id="mask-0">
<use xlink:href="#source-39"/>
</mask>
</defs>
<g fill="rgb(74.901961%, 20%, 22.352941%)" fill-opacity="1">
<use xlink:href="#glyph-0-0" x="30" y="30.817383"/>
<use xlink:href="#glyph-0-1" x="37" y="30.817383"/>
<use xlink:href="#glyph-0-0" x="44" y="30.817383"/>
<use xlink:href="#glyph-0-0" x="51" y="30.817383"/>
<use xlink:href="#glyph-0-2" x="58" y="30.817383"/>
<use xlink:href="#glyph-0-3" x="65" y="30.817383"/>
<use xlink:href="#glyph-0-4" x="72" y="30.817383"/>
<use xlink:href="#glyph-0-5" x="79" y="30.817383"/>
</g>
</svg>
