<?xml version="1.0" encoding="UTF-8"?>
<svg xmlns="http://www.w3.org/2000/svg" xmlns:xlink="http://www.w3.org/1999/xlink" width="1920" height="1080" viewBox="0 0 1920 1080">
<defs>
<g>
<g id="glyph-0-0">
<path d="M 6.464844 -0.769531 C 6.320312 -0.640625 6.144531 -0.515625 5.945312 -0.402344 C 5.746094 -0.289062 5.527344 -0.191406 5.292969 -0.109375 C 5.054688 -0.0273438 4.808594 0.0351562 4.554688 0.078125 C 4.296875 0.125 4.039062 0.148438 3.777344 0.148438 C 3.289062 0.148438 2.855469 0.0703125 2.480469 -0.078125 C 2.105469 -0.230469 1.792969 -0.445312 1.539062 -0.726562 C 1.289062 -1.007812 1.097656 -1.34375 0.964844 -1.734375 C 0.835938 -2.125 0.769531 -2.566406 0.769531 -3.054688 C 0.769531 -3.570312 0.839844 -4.023438 0.984375 -4.425781 C 1.125 -4.824219 1.332031 -5.15625 1.601562 -5.425781 C 1.871094 -5.695312 2.195312 -5.902344 2.578125 -6.042969 C 2.960938 -6.1875 3.390625 -6.257812 3.863281 -6.257812 C 4.203125 -6.257812 4.542969 -6.214844 4.875 -6.125 C 5.210938 -6.035156 5.507812 -5.863281 5.761719 -5.617188 C 6.019531 -5.367188 6.21875 -5.027344 6.355469 -4.589844 C 6.496094 -4.152344 6.542969 -3.589844 6.503906 -2.898438 L 1.773438 -2.898438 C 1.773438 -2.164062 1.96875 -1.617188 2.363281 -1.253906 C 2.757812 -0.890625 3.289062 -0.707031 3.949219 -0.707031 C 4.167969 -0.707031 4.386719 -0.734375 4.601562 -0.789062 C 4.816406 -0.839844 5.023438 -0.90625 5.21875 -0.976562 C 5.414062 -1.050781 5.585938 -1.132812 5.738281 -1.222656 C 5.890625 -1.3125 6.003906 -1.394531 6.085938 -1.464844 Z M 3.886719 -5.453125 C 3.617188 -5.453125 3.363281 -5.421875 3.121094 -5.367188 C 2.882812 -5.308594 2.671875 -5.214844 2.488281 -5.078125 C 2.304688 -4.945312 2.152344 -4.769531 2.035156 -4.554688 C 1.917969 -4.335938 1.839844 -4.070312 1.808594 -3.753906 L 5.609375 -3.753906 C 5.570312 -4.289062 5.394531 -4.707031 5.089844 -5.003906 C 4.785156 -5.300781 4.382812 -5.453125 3.886719 -5.453125 Z "/>
</g>
<g id="glyph-0-1">
<path d="M 1.453125 -8.554688 L 3.484375 -8.554688 L 3.484375 -2.054688 C 3.484375 -1.558594 3.566406 -1.207031 3.734375 -1.003906 C 3.902344 -0.800781 4.148438 -0.695312 4.472656 -0.695312 C 4.703125 -0.695312 4.917969 -0.738281 5.128906 -0.820312 C 5.335938 -0.902344 5.566406 -1.039062 5.816406 -1.234375 L 6.257812 -0.5625 C 6.128906 -0.449219 5.984375 -0.347656 5.832031 -0.257812 C 5.675781 -0.167969 5.515625 -0.0898438 5.355469 -0.03125 C 5.191406 0.03125 5.027344 0.078125 4.863281 0.109375 C 4.703125 0.140625 4.550781 0.160156 4.414062 0.160156 C 4.113281 0.160156 3.84375 0.121094 3.605469 0.0429688 C 3.371094 -0.0351562 3.171875 -0.160156 3.011719 -0.328125 C 2.855469 -0.5 2.734375 -0.726562 2.652344 -1.007812 C 2.570312 -1.289062 2.53125 -1.636719 2.53125 -2.054688 L 2.53125 -7.738281 L 1.453125 -7.738281 Z "/>
</g>
<g id="glyph-0-2">
<rect x="0" y="0" width="0" height="0" mask="url(#mask-0)"/>
</g>
<g id="glyph-0-3">
<path d="M 2.601562 -8.726562 L 3.691406 -6.589844 L 4.742188 -8.738281 L 5.585938 -8.285156 L 4.105469 -6.222656 L 6.589844 -6.40625 L 6.589844 -5.414062 L 4.179688 -5.609375 L 5.597656 -3.640625 L 4.777344 -3.164062 L 3.640625 -5.355469 L 2.566406 -3.164062 L 1.6875 -3.640625 L 3.164062 -5.609375 L 0.746094 -5.414062 L 0.746094 -6.40625 L 3.164062 -6.195312 L 1.761719 -8.25 Z "/>
</g>
<g id="glyph-0-4">
<path d="M 0.0507812 -8.554688 L 1.957031 -8.554688 L 1.957031 -5.355469 L 2.015625 -5.355469 C 2.269531 -5.640625 2.5625 -5.859375 2.898438 -6.019531 C 3.230469 -6.179688 3.644531 -6.257812 4.144531 -6.257812 C 4.535156 -6.257812 4.875 -6.21875 5.164062 -6.136719 C 5.453125 -6.054688 5.691406 -5.910156 5.871094 -5.707031 C 6.054688 -5.503906 6.191406 -5.226562 6.28125 -4.871094 C 6.371094 -4.515625 6.417969 -4.066406 6.417969 -3.519531 L 6.417969 0 L 5.464844 0 L 5.464844 -3.335938 C 5.464844 -3.6875 5.441406 -3.992188 5.402344 -4.253906 C 5.363281 -4.515625 5.28125 -4.730469 5.164062 -4.90625 C 5.046875 -5.082031 4.886719 -5.214844 4.679688 -5.304688 C 4.476562 -5.394531 4.21875 -5.4375 3.898438 -5.4375 C 3.679688 -5.4375 3.464844 -5.398438 3.25 -5.324219 C 3.039062 -5.246094 2.847656 -5.140625 2.671875 -5.003906 C 2.496094 -4.871094 2.34375 -4.707031 2.21875 -4.515625 C 2.09375 -4.324219 2.003906 -4.113281 1.957031 -3.886719 L 1.957031 0 L 1.015625 0 L 1.015625 -7.738281 L 0.0507812 -7.738281 Z "/>
</g>
<g id="glyph-0-5">
<path d="M 0.0234375 -8.554688 L 1.980469 -8.554688 L 1.980469 -5.414062 L 2.042969 -5.414062 C 2.253906 -5.683594 2.527344 -5.890625 2.859375 -6.039062 C 3.195312 -6.183594 3.558594 -6.257812 3.949219 -6.257812 C 5.742188 -6.257812 6.636719 -5.222656 6.636719 -3.152344 C 6.636719 -2.101562 6.347656 -1.296875 5.769531 -0.738281 C 5.191406 -0.179688 4.367188 0.0976562 3.300781 0.0976562 C 2.796875 0.0976562 2.339844 0.0507812 1.929688 -0.0507812 C 1.523438 -0.148438 1.226562 -0.261719 1.039062 -0.390625 L 1.039062 -7.738281 L 0.0234375 -7.738281 Z M 3.824219 -5.4375 C 3.335938 -5.4375 2.941406 -5.300781 2.640625 -5.023438 C 2.339844 -4.746094 2.117188 -4.355469 1.980469 -3.851562 L 1.980469 -1.039062 C 2.167969 -0.941406 2.390625 -0.863281 2.652344 -0.808594 C 2.914062 -0.75 3.1875 -0.722656 3.472656 -0.722656 C 3.796875 -0.722656 4.09375 -0.769531 4.355469 -0.863281 C 4.621094 -0.957031 4.847656 -1.101562 5.035156 -1.300781 C 5.222656 -1.5 5.367188 -1.757812 5.46875 -2.066406 C 5.570312 -2.375 5.621094 -2.742188 5.621094 -3.164062 C 5.621094 -3.476562 5.589844 -3.769531 5.523438 -4.046875 C 5.460938 -4.324219 5.355469 -4.566406 5.214844 -4.773438 C 5.070312 -4.980469 4.886719 -5.144531 4.65625 -5.261719 C 4.429688 -5.378906 4.152344 -5.4375 3.824219 -5.4375 Z "/>
</g>
<g id="glyph-0-6">
<path d="M 1.320312 -5.632812 C 1.671875 -5.835938 2.066406 -5.984375 2.503906 -6.074219 C 2.945312 -6.164062 3.378906 -6.210938 3.800781 -6.210938 C 4.214844 -6.210938 4.558594 -6.144531 4.820312 -6.011719 C 5.085938 -5.882812 5.292969 -5.714844 5.445312 -5.507812 C 5.597656 -5.300781 5.699219 -5.0625 5.75 -4.796875 C 5.804688 -4.53125 5.832031 -4.265625 5.832031 -3.996094 C 5.832031 -3.6875 5.820312 -3.355469 5.804688 -3.007812 C 5.789062 -2.65625 5.777344 -2.304688 5.769531 -1.957031 C 5.769531 -1.546875 5.792969 -1.160156 5.84375 -0.792969 L 6.660156 -0.792969 L 6.660156 0 L 5.035156 0 L 4.925781 -0.917969 L 4.863281 -0.917969 C 4.816406 -0.84375 4.742188 -0.75 4.644531 -0.636719 C 4.546875 -0.523438 4.417969 -0.410156 4.257812 -0.300781 C 4.101562 -0.191406 3.90625 -0.09375 3.679688 -0.0117188 C 3.449219 0.0703125 3.183594 0.109375 2.871094 0.109375 C 2.269531 0.109375 1.792969 -0.0429688 1.441406 -0.355469 C 1.089844 -0.664062 0.917969 -1.085938 0.917969 -1.625 C 0.917969 -2.039062 1.007812 -2.386719 1.191406 -2.664062 C 1.375 -2.941406 1.636719 -3.152344 1.980469 -3.300781 C 2.324219 -3.445312 2.734375 -3.53125 3.21875 -3.558594 C 3.703125 -3.582031 4.25 -3.546875 4.851562 -3.460938 C 4.894531 -3.835938 4.898438 -4.144531 4.871094 -4.394531 C 4.84375 -4.644531 4.777344 -4.839844 4.675781 -4.988281 C 4.574219 -5.132812 4.429688 -5.238281 4.246094 -5.296875 C 4.0625 -5.359375 3.839844 -5.390625 3.570312 -5.390625 C 3.203125 -5.390625 2.851562 -5.339844 2.519531 -5.238281 C 2.183594 -5.136719 1.886719 -5.03125 1.625 -4.925781 Z M 3.117188 -0.707031 C 3.34375 -0.707031 3.558594 -0.746094 3.753906 -0.820312 C 3.949219 -0.894531 4.117188 -0.984375 4.265625 -1.101562 C 4.414062 -1.214844 4.535156 -1.339844 4.632812 -1.472656 C 4.730469 -1.605469 4.804688 -1.734375 4.851562 -1.859375 L 4.851562 -2.714844 C 4.429688 -2.789062 4.039062 -2.824219 3.679688 -2.824219 C 3.320312 -2.824219 3.011719 -2.785156 2.75 -2.707031 C 2.488281 -2.628906 2.285156 -2.507812 2.140625 -2.347656 C 1.992188 -2.183594 1.917969 -1.972656 1.917969 -1.710938 C 1.917969 -1.441406 2.011719 -1.207031 2.195312 -1.007812 C 2.378906 -0.808594 2.683594 -0.707031 3.117188 -0.707031 Z "/>
</g>
<g id="glyph-0-7">
<path d="M 0.808594 0 L 0.808594 -0.820312 L 2.457031 -0.820312 L 2.457031 -5.292969 L 0.808594 -5.292969 L 0.808594 -6.109375 L 3.09375 -6.109375 L 3.289062 -5.316406 L 3.347656 -5.316406 C 3.625 -5.570312 3.9375 -5.785156 4.277344 -5.964844 C 4.621094 -6.144531 5.027344 -6.234375 5.5 -6.234375 C 5.777344 -6.234375 6 -6.179688 6.167969 -6.074219 C 6.332031 -5.96875 6.464844 -5.8125 6.558594 -5.609375 C 6.652344 -5.40625 6.714844 -5.160156 6.746094 -4.871094 C 6.777344 -4.582031 6.796875 -4.253906 6.796875 -3.886719 L 5.941406 -3.875 C 5.941406 -4.394531 5.890625 -4.777344 5.789062 -5.023438 C 5.6875 -5.269531 5.5 -5.390625 5.230469 -5.390625 C 4.976562 -5.390625 4.75 -5.355469 4.546875 -5.28125 C 4.34375 -5.207031 4.164062 -5.117188 4.015625 -5.011719 C 3.863281 -4.90625 3.734375 -4.800781 3.628906 -4.695312 C 3.523438 -4.589844 3.445312 -4.496094 3.398438 -4.425781 L 3.398438 -0.820312 L 5.746094 -0.820312 L 5.746094 0 Z "/>
</g>
</g>
<image id="source-55" x="0" y="0" width="0" height="0"/>
<mask id="mask-0">
<use xlink:href="#source-55"/>
</mask>
</defs>
<g fill="rgb(12.156863%, 43.529412%, 36.078431%)" fill-opacity="1">
<use xlink:href="#glyph-0-0" x="30" y="30.817383"/>
<use xlink:href="#glyph-0-1" x="37" y="30.817383"/>
<use xlink:href="#glyph-0-1" x="44" y="30.817383"/>
<use xlink:href="#glyph-0-2" x="51" y="30.817383"/>
<use xlink:href="#glyph-0-3" x="58" y="30.817383"/>
<use xlink:href="#glyph-0-2" x="65" y="30.817383"/>
<use xlink:href="#glyph-0-4" x="72" y="30.817383"/>
<use xlink:href="#glyph-0-5" x="79" y="30.817383"/>
<use xlink:href="#glyph-0-6" x="86" y="30.817383"/>
<use xlink:href="#glyph-0-7" x="93" y="30.817383"/>
</g>
</svg>
