<?xml version="1.0" encoding="UTF-8"?>
<svg xmlns="http://www.w3.org/2000/svg" xmlns:xlink="http://www.w3.org/1999/xlink" width="1920" height="1080" viewBox="0 0 1920 1080">
<defs>
<g>
<g id="glyph-0-0">
<path d="M 0.699219 -5.445312 L 1.34375 -5.445312 L 1.34375 -0.574219 L 3.546875 -0.574219 L 3.546875 -1.929688 L 4.121094 -1.929688 L 4.121094 0 L 0.699219 0 Z "/>
</g>
<g id="glyph-0-1">
<rect x="0" y="0" width="0" height="0" mask="url(#mask-0)"/>
</g>
<g id="glyph-0-2">
<path d="M 0.527344 -3.554688 L 4.136719 -3.554688 L 4.136719 -2.996094 L 0.527344 -2.996094 Z M 0.527344 -2.277344 L 4.136719 -2.277344 L 4.136719 -1.71875 L 0.527344 -1.71875 Z "/>
</g>
<g id="glyph-0-3">
<path d="M 3.359375 1.648438 C 3.011719 1.558594 2.6875 1.429688 2.382812 1.257812 C 2.082031 1.082031 1.816406 0.855469 1.589844 0.574219 C 1.363281 0.296875 1.1875 -0.046875 1.054688 -0.449219 C 0.921875 -0.855469 0.855469 -1.335938 0.855469 -1.890625 C 0.855469 -2.441406 0.921875 -2.921875 1.058594 -3.332031 C 1.191406 -3.746094 1.375 -4.09375 1.601562 -4.382812 C 1.828125 -4.671875 2.097656 -4.902344 2.398438 -5.074219 C 2.703125 -5.25 3.023438 -5.371094 3.359375 -5.445312 L 3.554688 -4.953125 C 3.25 -4.867188 2.96875 -4.75 2.714844 -4.609375 C 2.460938 -4.464844 2.242188 -4.277344 2.058594 -4.039062 C 1.875 -3.804688 1.730469 -3.511719 1.628906 -3.160156 C 1.527344 -2.8125 1.476562 -2.386719 1.476562 -1.890625 C 1.476562 -1.386719 1.539062 -0.957031 1.660156 -0.601562 C 1.78125 -0.246094 1.941406 0.046875 2.144531 0.285156 C 2.34375 0.519531 2.566406 0.703125 2.8125 0.835938 C 3.058594 0.96875 3.304688 1.058594 3.554688 1.113281 Z "/>
</g>
<g id="glyph-0-4">
<path d="M 3.890625 -4.066406 C 3.890625 -3.589844 3.664062 -3.058594 3.210938 -2.472656 C 2.761719 -1.886719 2.132812 -1.25 1.320312 -0.558594 L 4.058594 -0.558594 L 4.058594 0 L 0.605469 0 L 0.605469 -0.558594 C 0.703125 -0.652344 0.839844 -0.773438 1.011719 -0.925781 C 1.183594 -1.074219 1.367188 -1.242188 1.5625 -1.425781 C 1.761719 -1.609375 1.960938 -1.808594 2.164062 -2.023438 C 2.371094 -2.234375 2.554688 -2.453125 2.722656 -2.675781 C 2.886719 -2.898438 3.023438 -3.121094 3.125 -3.34375 C 3.230469 -3.566406 3.28125 -3.78125 3.28125 -3.988281 C 3.28125 -4.300781 3.199219 -4.546875 3.035156 -4.726562 C 2.875 -4.902344 2.628906 -4.992188 2.300781 -4.992188 C 2.023438 -4.992188 1.785156 -4.960938 1.59375 -4.898438 C 1.402344 -4.835938 1.230469 -4.746094 1.074219 -4.628906 L 0.808594 -5.054688 C 1.042969 -5.222656 1.289062 -5.34375 1.550781 -5.421875 C 1.8125 -5.5 2.101562 -5.539062 2.410156 -5.539062 C 2.898438 -5.539062 3.265625 -5.40625 3.515625 -5.140625 C 3.765625 -4.875 3.890625 -4.519531 3.890625 -4.066406 Z "/>
</g>
<g id="glyph-0-5">
<path d="M 3.507812 -5.539062 L 3.996094 -5.320312 L 1.160156 1.089844 L 0.667969 0.871094 Z "/>
</g>
<g id="glyph-0-6">
<path d="M 1.992188 -0.449219 C 2.1875 -0.449219 2.371094 -0.476562 2.535156 -0.523438 C 2.703125 -0.574219 2.84375 -0.648438 2.960938 -0.75 C 3.078125 -0.851562 3.167969 -0.976562 3.230469 -1.128906 C 3.296875 -1.277344 3.328125 -1.453125 3.328125 -1.65625 C 3.328125 -2.03125 3.195312 -2.3125 2.929688 -2.507812 C 2.660156 -2.703125 2.296875 -2.800781 1.835938 -2.800781 L 1.105469 -2.761719 L 1.105469 -5.445312 L 3.773438 -5.445312 L 3.773438 -4.882812 L 1.6875 -4.882812 L 1.6875 -3.304688 L 2.078125 -3.320312 C 2.652344 -3.320312 3.105469 -3.179688 3.4375 -2.902344 C 3.769531 -2.621094 3.933594 -2.222656 3.933594 -1.703125 C 3.933594 -1.414062 3.886719 -1.15625 3.785156 -0.933594 C 3.683594 -0.710938 3.542969 -0.523438 3.367188 -0.371094 C 3.191406 -0.21875 2.984375 -0.101562 2.742188 -0.0234375 C 2.5 0.0546875 2.238281 0.09375 1.953125 0.09375 C 1.796875 0.09375 1.648438 0.0820312 1.507812 0.0585938 C 1.367188 0.0351562 1.242188 0.0078125 1.128906 -0.0273438 C 1.015625 -0.0625 0.914062 -0.0976562 0.828125 -0.136719 C 0.742188 -0.175781 0.683594 -0.210938 0.644531 -0.242188 L 0.894531 -0.746094 C 0.984375 -0.695312 1.117188 -0.632812 1.296875 -0.558594 C 1.480469 -0.488281 1.710938 -0.449219 1.992188 -0.449219 Z "/>
</g>
<g id="glyph-0-7">
<path d="M 1.113281 1.113281 C 1.363281 1.0625 1.609375 0.96875 1.855469 0.835938 C 2.101562 0.703125 2.324219 0.519531 2.523438 0.285156 C 2.722656 0.046875 2.882812 -0.246094 3.007812 -0.601562 C 3.128906 -0.957031 3.1875 -1.386719 3.1875 -1.890625 C 3.1875 -2.386719 3.136719 -2.8125 3.035156 -3.160156 C 2.933594 -3.511719 2.792969 -3.804688 2.609375 -4.039062 C 2.425781 -4.277344 2.207031 -4.464844 1.953125 -4.609375 C 1.699219 -4.75 1.417969 -4.867188 1.113281 -4.953125 L 1.304688 -5.445312 C 1.644531 -5.371094 1.964844 -5.25 2.265625 -5.074219 C 2.570312 -4.902344 2.835938 -4.671875 3.0625 -4.382812 C 3.292969 -4.09375 3.472656 -3.746094 3.609375 -3.332031 C 3.742188 -2.921875 3.8125 -2.441406 3.8125 -1.890625 C 3.8125 -1.335938 3.746094 -0.855469 3.613281 -0.449219 C 3.480469 -0.046875 3.300781 0.296875 3.074219 0.574219 C 2.851562 0.855469 2.585938 1.082031 2.28125 1.257812 C 1.980469 1.429688 1.652344 1.5625 1.304688 1.648438 Z "/>
</g>
<g id="glyph-0-8">
<path d="M 2.039062 0 L 2.039062 -2.589844 C 2.039062 -2.699219 2.035156 -2.804688 2.027344 -2.90625 C 2.019531 -3.007812 2 -3.097656 1.972656 -3.175781 C 1.945312 -3.257812 1.902344 -3.320312 1.847656 -3.367188 C 1.792969 -3.414062 1.722656 -3.4375 1.632812 -3.4375 C 1.457031 -3.4375 1.308594 -3.363281 1.1875 -3.21875 C 1.066406 -3.074219 0.972656 -2.894531 0.910156 -2.675781 L 0.910156 0 L 0.320312 0 L 0.320312 -3.890625 L 0.722656 -3.890625 L 0.839844 -3.414062 L 0.871094 -3.414062 C 0.921875 -3.492188 0.972656 -3.566406 1.023438 -3.636719 C 1.070312 -3.707031 1.128906 -3.765625 1.195312 -3.820312 C 1.257812 -3.871094 1.335938 -3.910156 1.421875 -3.9375 C 1.511719 -3.96875 1.621094 -3.980469 1.757812 -3.980469 C 1.835938 -3.980469 1.914062 -3.96875 2 -3.945312 C 2.082031 -3.921875 2.160156 -3.886719 2.226562 -3.839844 C 2.296875 -3.789062 2.359375 -3.722656 2.410156 -3.640625 C 2.460938 -3.558594 2.496094 -3.457031 2.511719 -3.335938 C 2.632812 -3.539062 2.765625 -3.695312 2.914062 -3.8125 C 3.0625 -3.925781 3.265625 -3.980469 3.523438 -3.980469 C 3.695312 -3.980469 3.832031 -3.953125 3.9375 -3.894531 C 4.046875 -3.839844 4.128906 -3.757812 4.1875 -3.652344 C 4.246094 -3.546875 4.289062 -3.417969 4.3125 -3.269531 C 4.335938 -3.121094 4.347656 -2.957031 4.347656 -2.777344 L 4.347656 0 L 3.757812 0 L 3.757812 -2.644531 C 3.757812 -2.753906 3.75 -2.855469 3.742188 -2.953125 C 3.730469 -3.046875 3.710938 -3.132812 3.683594 -3.203125 C 3.65625 -3.277344 3.613281 -3.332031 3.566406 -3.375 C 3.515625 -3.417969 3.449219 -3.4375 3.367188 -3.4375 C 3.1875 -3.4375 3.03125 -3.363281 2.910156 -3.21875 C 2.785156 -3.074219 2.691406 -2.867188 2.628906 -2.597656 L 2.628906 0 Z "/>
</g>
<g id="glyph-0-9">
<path d="M 0.511719 0 L 0.511719 -0.519531 L 1.5625 -0.519531 L 1.5625 -3.367188 L 0.511719 -3.367188 L 0.511719 -3.890625 L 1.96875 -3.890625 L 2.09375 -3.382812 L 2.132812 -3.382812 C 2.308594 -3.542969 2.503906 -3.679688 2.722656 -3.796875 C 2.941406 -3.910156 3.199219 -3.964844 3.5 -3.964844 C 3.675781 -3.964844 3.816406 -3.933594 3.921875 -3.867188 C 4.03125 -3.796875 4.113281 -3.699219 4.171875 -3.570312 C 4.230469 -3.441406 4.273438 -3.285156 4.292969 -3.097656 C 4.3125 -2.914062 4.324219 -2.707031 4.324219 -2.472656 L 3.78125 -2.464844 C 3.78125 -2.796875 3.746094 -3.039062 3.683594 -3.195312 C 3.617188 -3.351562 3.5 -3.429688 3.328125 -3.429688 C 3.167969 -3.429688 3.023438 -3.40625 2.894531 -3.359375 C 2.765625 -3.3125 2.652344 -3.257812 2.554688 -3.1875 C 2.457031 -3.121094 2.378906 -3.054688 2.308594 -2.988281 C 2.242188 -2.917969 2.191406 -2.863281 2.160156 -2.816406 L 2.160156 -0.519531 L 3.65625 -0.519531 L 3.65625 0 Z "/>
</g>
<g id="glyph-0-10">
<path d="M 2.285156 -5.53125 L 2.511719 -5.53125 L 4.410156 -2.339844 L 3.773438 -2.339844 L 2.371094 -4.738281 L 0.917969 -2.339844 L 0.273438 -2.339844 Z "/>
</g>
<g id="glyph-0-11">
<path d="M 1.65625 -5.554688 L 2.347656 -4.191406 L 3.019531 -5.5625 L 3.554688 -5.273438 L 2.613281 -3.957031 L 4.191406 -4.074219 L 4.191406 -3.445312 L 2.660156 -3.570312 L 3.5625 -2.316406 L 3.039062 -2.015625 L 2.316406 -3.40625 L 1.632812 -2.015625 L 1.074219 -2.316406 L 2.015625 -3.570312 L 0.472656 -3.445312 L 0.472656 -4.074219 L 2.015625 -3.941406 L 1.121094 -5.25 Z "/>
</g>
<g id="glyph-0-12">
<path d="M 0.441406 -1.945312 C 0.441406 -2.570312 0.605469 -3.066406 0.933594 -3.433594 C 1.261719 -3.800781 1.726562 -3.980469 2.332031 -3.980469 C 2.660156 -3.980469 2.941406 -3.929688 3.175781 -3.824219 C 3.414062 -3.71875 3.609375 -3.574219 3.765625 -3.390625 C 3.921875 -3.210938 4.035156 -2.996094 4.109375 -2.746094 C 4.183594 -2.496094 4.222656 -2.230469 4.222656 -1.945312 C 4.222656 -1.632812 4.179688 -1.351562 4.097656 -1.101562 C 4.015625 -0.847656 3.894531 -0.636719 3.734375 -0.457031 C 3.574219 -0.28125 3.375 -0.144531 3.136719 -0.0507812 C 2.902344 0.046875 2.632812 0.09375 2.332031 0.09375 C 2.011719 0.09375 1.730469 0.0390625 1.492188 -0.0664062 C 1.253906 -0.171875 1.058594 -0.316406 0.902344 -0.496094 C 0.746094 -0.679688 0.632812 -0.894531 0.554688 -1.144531 C 0.480469 -1.390625 0.441406 -1.660156 0.441406 -1.945312 Z M 1.089844 -1.945312 C 1.089844 -1.761719 1.109375 -1.582031 1.15625 -1.398438 C 1.199219 -1.21875 1.269531 -1.054688 1.367188 -0.910156 C 1.464844 -0.765625 1.59375 -0.648438 1.753906 -0.558594 C 1.910156 -0.472656 2.105469 -0.429688 2.332031 -0.429688 C 2.746094 -0.429688 3.058594 -0.554688 3.269531 -0.8125 C 3.480469 -1.070312 3.585938 -1.445312 3.585938 -1.945312 C 3.585938 -2.132812 3.5625 -2.3125 3.519531 -2.492188 C 3.476562 -2.671875 3.402344 -2.832031 3.300781 -2.980469 C 3.199219 -3.125 3.070312 -3.242188 2.914062 -3.328125 C 2.753906 -3.417969 2.5625 -3.460938 2.332031 -3.460938 C 1.917969 -3.460938 1.605469 -3.332031 1.398438 -3.078125 C 1.191406 -2.824219 1.089844 -2.449219 1.089844 -1.945312 Z "/>
</g>
<g id="glyph-0-13">
<path d="M 4.113281 -0.488281 C 4.019531 -0.40625 3.910156 -0.328125 3.785156 -0.257812 C 3.65625 -0.183594 3.519531 -0.121094 3.367188 -0.0703125 C 3.21875 -0.0195312 3.058594 0.0234375 2.898438 0.0507812 C 2.734375 0.078125 2.570312 0.09375 2.402344 0.09375 C 2.09375 0.09375 1.816406 0.046875 1.578125 -0.0507812 C 1.339844 -0.148438 1.140625 -0.285156 0.980469 -0.460938 C 0.820312 -0.640625 0.699219 -0.855469 0.613281 -1.105469 C 0.53125 -1.355469 0.488281 -1.632812 0.488281 -1.945312 C 0.488281 -2.269531 0.535156 -2.5625 0.625 -2.816406 C 0.714844 -3.070312 0.847656 -3.28125 1.019531 -3.453125 C 1.191406 -3.625 1.398438 -3.753906 1.640625 -3.847656 C 1.882812 -3.9375 2.15625 -3.980469 2.457031 -3.980469 C 2.675781 -3.980469 2.890625 -3.953125 3.101562 -3.894531 C 3.316406 -3.839844 3.503906 -3.730469 3.667969 -3.574219 C 3.832031 -3.414062 3.957031 -3.199219 4.042969 -2.921875 C 4.132812 -2.644531 4.164062 -2.285156 4.136719 -1.84375 L 1.128906 -1.84375 C 1.128906 -1.375 1.253906 -1.027344 1.503906 -0.796875 C 1.757812 -0.566406 2.09375 -0.449219 2.511719 -0.449219 C 2.652344 -0.449219 2.789062 -0.46875 2.929688 -0.5 C 3.066406 -0.535156 3.195312 -0.574219 3.320312 -0.621094 C 3.445312 -0.667969 3.554688 -0.71875 3.652344 -0.777344 C 3.746094 -0.835938 3.820312 -0.886719 3.875 -0.933594 Z M 2.472656 -3.46875 C 2.300781 -3.46875 2.140625 -3.449219 1.988281 -3.414062 C 1.835938 -3.378906 1.699219 -3.316406 1.582031 -3.230469 C 1.464844 -3.144531 1.371094 -3.035156 1.296875 -2.898438 C 1.21875 -2.761719 1.171875 -2.589844 1.152344 -2.386719 L 3.570312 -2.386719 C 3.542969 -2.730469 3.433594 -2.996094 3.238281 -3.183594 C 3.042969 -3.375 2.789062 -3.46875 2.472656 -3.46875 Z "/>
</g>
<g id="glyph-0-14">
<path d="M 4.074219 0.195312 C 4.074219 0.4375 4.027344 0.652344 3.933594 0.835938 C 3.839844 1.019531 3.714844 1.171875 3.550781 1.292969 C 3.386719 1.410156 3.195312 1.5 2.980469 1.558594 C 2.761719 1.617188 2.523438 1.648438 2.269531 1.648438 C 1.964844 1.648438 1.699219 1.617188 1.46875 1.554688 C 1.242188 1.492188 1.042969 1.414062 0.878906 1.3125 L 1.175781 0.761719 C 1.222656 0.804688 1.28125 0.84375 1.355469 0.882812 C 1.433594 0.921875 1.519531 0.957031 1.617188 0.992188 C 1.714844 1.027344 1.820312 1.050781 1.933594 1.074219 C 2.042969 1.09375 2.15625 1.105469 2.261719 1.105469 C 2.492188 1.105469 2.683594 1.082031 2.835938 1.042969 C 2.988281 1 3.109375 0.9375 3.203125 0.847656 C 3.296875 0.757812 3.363281 0.644531 3.40625 0.503906 C 3.449219 0.363281 3.46875 0.195312 3.46875 -0.0078125 L 3.46875 -0.441406 L 3.4375 -0.441406 C 3.316406 -0.273438 3.164062 -0.140625 2.980469 -0.046875 C 2.792969 0.046875 2.550781 0.09375 2.253906 0.09375 C 1.664062 0.09375 1.230469 -0.0703125 0.953125 -0.402344 C 0.675781 -0.730469 0.535156 -1.242188 0.535156 -1.9375 C 0.535156 -2.601562 0.714844 -3.101562 1.066406 -3.441406 C 1.417969 -3.78125 1.941406 -3.949219 2.636719 -3.949219 C 2.957031 -3.949219 3.230469 -3.929688 3.457031 -3.886719 C 3.683594 -3.839844 3.890625 -3.785156 4.074219 -3.71875 Z M 2.339844 -0.429688 C 2.65625 -0.429688 2.90625 -0.507812 3.085938 -0.671875 C 3.269531 -0.835938 3.394531 -1.085938 3.46875 -1.421875 L 3.46875 -3.265625 C 3.242188 -3.375 2.921875 -3.429688 2.511719 -3.429688 C 2.097656 -3.429688 1.769531 -3.308594 1.53125 -3.0625 C 1.292969 -2.820312 1.175781 -2.449219 1.175781 -1.945312 C 1.175781 -1.722656 1.195312 -1.519531 1.238281 -1.332031 C 1.277344 -1.148438 1.34375 -0.992188 1.433594 -0.855469 C 1.523438 -0.71875 1.644531 -0.617188 1.792969 -0.539062 C 1.941406 -0.464844 2.125 -0.429688 2.339844 -0.429688 Z "/>
</g>
<g id="glyph-0-15">
<path d="M 0.839844 -3.585938 C 1.0625 -3.714844 1.3125 -3.808594 1.59375 -3.867188 C 1.875 -3.921875 2.148438 -3.949219 2.417969 -3.949219 C 2.683594 -3.949219 2.898438 -3.910156 3.066406 -3.828125 C 3.234375 -3.742188 3.367188 -3.636719 3.464844 -3.503906 C 3.5625 -3.371094 3.625 -3.222656 3.660156 -3.050781 C 3.691406 -2.882812 3.710938 -2.714844 3.710938 -2.542969 C 3.710938 -2.347656 3.703125 -2.136719 3.695312 -1.914062 C 3.683594 -1.691406 3.675781 -1.46875 3.671875 -1.246094 C 3.671875 -0.984375 3.6875 -0.738281 3.71875 -0.503906 L 4.238281 -0.503906 L 4.238281 0 L 3.203125 0 L 3.132812 -0.582031 L 3.09375 -0.582031 C 3.0625 -0.535156 3.019531 -0.476562 2.957031 -0.40625 C 2.894531 -0.332031 2.8125 -0.261719 2.710938 -0.191406 C 2.609375 -0.121094 2.484375 -0.0585938 2.339844 -0.0078125 C 2.195312 0.0429688 2.023438 0.0703125 1.828125 0.0703125 C 1.445312 0.0703125 1.140625 -0.0273438 0.917969 -0.226562 C 0.695312 -0.421875 0.582031 -0.691406 0.582031 -1.035156 C 0.582031 -1.300781 0.640625 -1.519531 0.757812 -1.695312 C 0.875 -1.871094 1.042969 -2.007812 1.261719 -2.101562 C 1.476562 -2.195312 1.742188 -2.246094 2.050781 -2.261719 C 2.359375 -2.277344 2.703125 -2.257812 3.085938 -2.199219 C 3.113281 -2.4375 3.117188 -2.636719 3.097656 -2.796875 C 3.082031 -2.953125 3.039062 -3.078125 2.976562 -3.171875 C 2.910156 -3.265625 2.820312 -3.332031 2.703125 -3.371094 C 2.585938 -3.410156 2.441406 -3.429688 2.269531 -3.429688 C 2.039062 -3.429688 1.816406 -3.398438 1.601562 -3.332031 C 1.390625 -3.269531 1.199219 -3.203125 1.035156 -3.132812 Z M 1.984375 -0.449219 C 2.128906 -0.449219 2.261719 -0.472656 2.386719 -0.519531 C 2.511719 -0.566406 2.621094 -0.628906 2.714844 -0.699219 C 2.808594 -0.773438 2.886719 -0.851562 2.949219 -0.9375 C 3.011719 -1.023438 3.054688 -1.105469 3.085938 -1.183594 L 3.085938 -1.726562 C 2.816406 -1.773438 2.570312 -1.796875 2.339844 -1.796875 C 2.113281 -1.796875 1.914062 -1.773438 1.75 -1.722656 C 1.585938 -1.671875 1.453125 -1.597656 1.359375 -1.492188 C 1.265625 -1.390625 1.222656 -1.253906 1.222656 -1.089844 C 1.222656 -0.917969 1.28125 -0.769531 1.394531 -0.640625 C 1.511719 -0.515625 1.707031 -0.449219 1.984375 -0.449219 Z "/>
</g>
<g id="glyph-0-16">
<path d="M 0.03125 -5.445312 L 1.246094 -5.445312 L 1.246094 -3.40625 L 1.285156 -3.40625 C 1.445312 -3.585938 1.628906 -3.730469 1.84375 -3.832031 C 2.054688 -3.933594 2.320312 -3.980469 2.636719 -3.980469 C 2.886719 -3.980469 3.101562 -3.957031 3.285156 -3.902344 C 3.46875 -3.851562 3.621094 -3.761719 3.738281 -3.632812 C 3.855469 -3.503906 3.941406 -3.324219 3.996094 -3.097656 C 4.054688 -2.875 4.082031 -2.585938 4.082031 -2.238281 L 4.082031 0 L 3.476562 0 L 3.476562 -2.125 C 3.476562 -2.347656 3.464844 -2.539062 3.4375 -2.707031 C 3.410156 -2.871094 3.359375 -3.011719 3.285156 -3.121094 C 3.210938 -3.234375 3.109375 -3.316406 2.980469 -3.375 C 2.851562 -3.433594 2.683594 -3.460938 2.480469 -3.460938 C 2.339844 -3.460938 2.203125 -3.4375 2.070312 -3.386719 C 1.933594 -3.335938 1.8125 -3.269531 1.699219 -3.183594 C 1.585938 -3.097656 1.492188 -2.996094 1.410156 -2.875 C 1.332031 -2.753906 1.277344 -2.617188 1.246094 -2.472656 L 1.246094 0 L 0.644531 0 L 0.644531 -4.921875 L 0.03125 -4.921875 Z "/>
</g>
<g id="glyph-0-17">
<path d="M 0.015625 -5.445312 L 1.261719 -5.445312 L 1.261719 -3.445312 L 1.296875 -3.445312 C 1.433594 -3.617188 1.605469 -3.75 1.820312 -3.84375 C 2.03125 -3.9375 2.261719 -3.980469 2.511719 -3.980469 C 3.652344 -3.980469 4.222656 -3.324219 4.222656 -2.007812 C 4.222656 -1.339844 4.039062 -0.824219 3.671875 -0.46875 C 3.304688 -0.113281 2.777344 0.0625 2.101562 0.0625 C 1.777344 0.0625 1.488281 0.03125 1.230469 -0.03125 C 0.96875 -0.09375 0.78125 -0.164062 0.660156 -0.25 L 0.660156 -4.921875 L 0.015625 -4.921875 Z M 2.433594 -3.460938 C 2.121094 -3.460938 1.871094 -3.371094 1.679688 -3.195312 C 1.488281 -3.019531 1.347656 -2.769531 1.261719 -2.449219 L 1.261719 -0.660156 C 1.378906 -0.597656 1.523438 -0.550781 1.6875 -0.511719 C 1.855469 -0.476562 2.027344 -0.457031 2.207031 -0.457031 C 2.414062 -0.457031 2.605469 -0.488281 2.773438 -0.546875 C 2.941406 -0.609375 3.085938 -0.703125 3.203125 -0.828125 C 3.324219 -0.957031 3.414062 -1.117188 3.480469 -1.3125 C 3.546875 -1.511719 3.578125 -1.746094 3.578125 -2.015625 C 3.578125 -2.210938 3.558594 -2.398438 3.515625 -2.574219 C 3.472656 -2.75 3.40625 -2.90625 3.316406 -3.035156 C 3.226562 -3.167969 3.109375 -3.273438 2.964844 -3.347656 C 2.820312 -3.421875 2.640625 -3.460938 2.433594 -3.460938 Z "/>
</g>
</g>
<image id="source-27" x="0" y="0" width="0" height="0"/>
<mask id="mask-0">
<use xlink:href="#source-27"/>
</mask>
</defs>
<g fill="rgb(24.313725%, 33.333333%, 34.901961%)" fill-opacity="1">
<use xlink:href="#glyph-0-0" x="30" y="26.882812"/>
<use xlink:href="#glyph-0-1" x="35" y="26.882812"/>
<use xlink:href="#glyph-0-2" x="40" y="26.882812"/>
<use xlink:href="#glyph-0-1" x="45" y="26.882812"/>
<use xlink:href="#glyph-0-3" x="50" y="26.882812"/>
<use xlink:href="#glyph-0-4" x="55" y="26.882812"/>
<use xlink:href="#glyph-0-5" x="60" y="26.882812"/>
<use xlink:href="#glyph-0-6" x="65" y="26.882812"/>
<use xlink:href="#glyph-0-7" x="70" y="26.882812"/>
<use xlink:href="#glyph-0-1" x="75" y="26.882812"/>
<use xlink:href="#glyph-0-8" x="80" y="26.882812"/>
<use xlink:href="#glyph-0-1" x="85" y="26.882812"/>
<use xlink:href="#glyph-0-9" x="90" y="26.882812"/>
<use xlink:href="#glyph-0-10" x="95" y="26.882812"/>
<use xlink:href="#glyph-0-4" x="100" y="26.882812"/>
<use xlink:href="#glyph-0-1" x="105" y="26.882812"/>
<use xlink:href="#glyph-0-11" x="110" y="26.882812"/>
<use xlink:href="#glyph-0-1" x="115" y="26.882812"/>
<use xlink:href="#glyph-0-12" x="120" y="26.882812"/>
<use xlink:href="#glyph-0-8" x="125" y="26.882812"/>
<use xlink:href="#glyph-0-13" x="130" y="26.882812"/>
<use xlink:href="#glyph-0-14" x="135" y="26.882812"/>
<use xlink:href="#glyph-0-15" x="140" y="26.882812"/>
<use xlink:href="#glyph-0-1" x="145" y="26.882812"/>
<use xlink:href="#glyph-0-2" x="150" y="26.882812"/>
<use xlink:href="#glyph-0-1" x="155" y="26.882812"/>
<use xlink:href="#glyph-0-16" x="160" y="26.882812"/>
<use xlink:href="#glyph-0-17" x="165" y="26.882812"/>
<use xlink:href="#glyph-0-15" x="170" y="26.882812"/>
<use xlink:href="#glyph-0-9" x="175" y="26.882812"/>
<use xlink:href="#glyph-0-5" x="180" y="26.882812"/>
<use xlink:href="#glyph-0-4" x="185" y="26.882812"/>
</g>
</svg>
