<?xml version="1.0" encoding="utf-8" standalone="no"?>
<!DOCTYPE svg PUBLIC "-//W3C//DTD SVG 1.1//EN"
  "http://www.w3.org/Graphics/SVG/1.1/DTD/svg11.dtd">
<svg xmlns:xlink="http://www.w3.org/1999/xlink" width="460.8pt" height="288pt" viewBox="0 0 460.8 288" xmlns="http://www.w3.org/2000/svg" version="1.1">
 <metadata>
  <rdf:RDF xmlns:dc="http://purl.org/dc/elements/1.1/" xmlns:cc="http://creativecommons.org/ns#" xmlns:rdf="http://www.w3.org/1999/02/22-rdf-syntax-ns#">
   <cc:Work>
    <dc:type rdf:resource="http://purl.org/dc/dcmitype/StillImage"/>
    <dc:date>2026-06-04T06:14:23.025068</dc:date>
    <dc:format>image/svg+xml</dc:format>
    <dc:creator>
     <cc:Agent>
      <dc:title>Matplotlib v3.10.8, https://matplotlib.org/</dc:title>
     </cc:Agent>
    </dc:creator>
   </cc:Work>
  </rdf:RDF>
 </metadata>
 <defs>
  <style type="text/css">*{stroke-linejoin: round; stroke-linecap: butt}</style>
 </defs>
 <g id="figure_1">
  <g id="patch_1">
   <path d="M 0 288 
L 460.8 288 
L 460.8 0 
L 0 0 
z
" style="fill: #ffffff"/>
  </g>
  <g id="axes_1">
   <g id="patch_2">
    <path d="M 64.712 241.072 
L 441.99 241.072 
L 441.99 27.96 
L 64.712 27.96 
z
" style="fill: #ffffff"/>
   </g>
   <g id="matplotlib.axis_1">
    <g id="xtick_1">
     <g id="line2d_1">
      <defs>
       <path id="m74da4ee73f" d="M 0 0 
L 0 3.5 
" style="stroke: #000000; stroke-width: 0.8"/>
      </defs>
      <g>
       <use xlink:href="#m74da4ee73f" x="64.712" y="241.072" style="stroke: #000000; stroke-width: 0.8"/>
      </g>
     </g>
     <g id="text_1">
      <!-- 0 -->
      <g transform="translate(61.212625 256.430281) scale(0.11 -0.11)">
       <defs>
        <path id="DejaVuSans-30" d="M 2034 4250 
Q 1547 4250 1301 3770 
Q 1056 3291 1056 2328 
Q 1056 1369 1301 889 
Q 1547 409 2034 409 
Q 2525 409 2770 889 
Q 3016 1369 3016 2328 
Q 3016 3291 2770 3770 
Q 2525 4250 2034 4250 
z
M 2034 4750 
Q 2819 4750 3233 4129 
Q 3647 3509 3647 2328 
Q 3647 1150 3233 529 
Q 2819 -91 2034 -91 
Q 1250 -91 836 529 
Q 422 1150 422 2328 
Q 422 3509 836 4129 
Q 1250 4750 2034 4750 
z
" transform="scale(0.015625)"/>
       </defs>
       <use xlink:href="#DejaVuSans-30"/>
      </g>
     </g>
    </g>
    <g id="xtick_2">
     <g id="line2d_2">
      <g>
       <use xlink:href="#m74da4ee73f" x="127.591667" y="241.072" style="stroke: #000000; stroke-width: 0.8"/>
      </g>
     </g>
     <g id="text_2">
      <!-- 2 -->
      <g transform="translate(124.092292 256.430281) scale(0.11 -0.11)">
       <defs>
        <path id="DejaVuSans-32" d="M 1228 531 
L 3431 531 
L 3431 0 
L 469 0 
L 469 531 
Q 828 903 1448 1529 
Q 2069 2156 2228 2338 
Q 2531 2678 2651 2914 
Q 2772 3150 2772 3378 
Q 2772 3750 2511 3984 
Q 2250 4219 1831 4219 
Q 1534 4219 1204 4116 
Q 875 4013 500 3803 
L 500 4441 
Q 881 4594 1212 4672 
Q 1544 4750 1819 4750 
Q 2544 4750 2975 4387 
Q 3406 4025 3406 3419 
Q 3406 3131 3298 2873 
Q 3191 2616 2906 2266 
Q 2828 2175 2409 1742 
Q 1991 1309 1228 531 
z
" transform="scale(0.015625)"/>
       </defs>
       <use xlink:href="#DejaVuSans-32"/>
      </g>
     </g>
    </g>
    <g id="xtick_3">
     <g id="line2d_3">
      <g>
       <use xlink:href="#m74da4ee73f" x="190.471333" y="241.072" style="stroke: #000000; stroke-width: 0.8"/>
      </g>
     </g>
     <g id="text_3">
      <!-- 4 -->
      <g transform="translate(186.971958 256.430281) scale(0.11 -0.11)">
       <defs>
        <path id="DejaVuSans-34" d="M 2419 4116 
L 825 1625 
L 2419 1625 
L 2419 4116 
z
M 2253 4666 
L 3047 4666 
L 3047 1625 
L 3713 1625 
L 3713 1100 
L 3047 1100 
L 3047 0 
L 2419 0 
L 2419 1100 
L 313 1100 
L 313 1709 
L 2253 4666 
z
" transform="scale(0.015625)"/>
       </defs>
       <use xlink:href="#DejaVuSans-34"/>
      </g>
     </g>
    </g>
    <g id="xtick_4">
     <g id="line2d_4">
      <g>
       <use xlink:href="#m74da4ee73f" x="253.351" y="241.072" style="stroke: #000000; stroke-width: 0.8"/>
      </g>
     </g>
     <g id="text_4">
      <!-- 6 -->
      <g transform="translate(249.851625 256.430281) scale(0.11 -0.11)">
       <defs>
        <path id="DejaVuSans-36" d="M 2113 2584 
Q 1688 2584 1439 2293 
Q 1191 2003 1191 1497 
Q 1191 994 1439 701 
Q 1688 409 2113 409 
Q 2538 409 2786 701 
Q 3034 994 3034 1497 
Q 3034 2003 2786 2293 
Q 2538 2584 2113 2584 
z
M 3366 4563 
L 3366 3988 
Q 3128 4100 2886 4159 
Q 2644 4219 2406 4219 
Q 1781 4219 1451 3797 
Q 1122 3375 1075 2522 
Q 1259 2794 1537 2939 
Q 1816 3084 2150 3084 
Q 2853 3084 3261 2657 
Q 3669 2231 3669 1497 
Q 3669 778 3244 343 
Q 2819 -91 2113 -91 
Q 1303 -91 875 529 
Q 447 1150 447 2328 
Q 447 3434 972 4092 
Q 1497 4750 2381 4750 
Q 2619 4750 2861 4703 
Q 3103 4656 3366 4563 
z
" transform="scale(0.015625)"/>
       </defs>
       <use xlink:href="#DejaVuSans-36"/>
      </g>
     </g>
    </g>
    <g id="xtick_5">
     <g id="line2d_5">
      <g>
       <use xlink:href="#m74da4ee73f" x="316.230667" y="241.072" style="stroke: #000000; stroke-width: 0.8"/>
      </g>
     </g>
     <g id="text_5">
      <!-- 8 -->
      <g transform="translate(312.731292 256.430281) scale(0.11 -0.11)">
       <defs>
        <path id="DejaVuSans-38" d="M 2034 2216 
Q 1584 2216 1326 1975 
Q 1069 1734 1069 1313 
Q 1069 891 1326 650 
Q 1584 409 2034 409 
Q 2484 409 2743 651 
Q 3003 894 3003 1313 
Q 3003 1734 2745 1975 
Q 2488 2216 2034 2216 
z
M 1403 2484 
Q 997 2584 770 2862 
Q 544 3141 544 3541 
Q 544 4100 942 4425 
Q 1341 4750 2034 4750 
Q 2731 4750 3128 4425 
Q 3525 4100 3525 3541 
Q 3525 3141 3298 2862 
Q 3072 2584 2669 2484 
Q 3125 2378 3379 2068 
Q 3634 1759 3634 1313 
Q 3634 634 3220 271 
Q 2806 -91 2034 -91 
Q 1263 -91 848 271 
Q 434 634 434 1313 
Q 434 1759 690 2068 
Q 947 2378 1403 2484 
z
M 1172 3481 
Q 1172 3119 1398 2916 
Q 1625 2713 2034 2713 
Q 2441 2713 2670 2916 
Q 2900 3119 2900 3481 
Q 2900 3844 2670 4047 
Q 2441 4250 2034 4250 
Q 1625 4250 1398 4047 
Q 1172 3844 1172 3481 
z
" transform="scale(0.015625)"/>
       </defs>
       <use xlink:href="#DejaVuSans-38"/>
      </g>
     </g>
    </g>
    <g id="xtick_6">
     <g id="line2d_6">
      <g>
       <use xlink:href="#m74da4ee73f" x="379.110333" y="241.072" style="stroke: #000000; stroke-width: 0.8"/>
      </g>
     </g>
     <g id="text_6">
      <!-- 10 -->
      <g transform="translate(372.111583 256.430281) scale(0.11 -0.11)">
       <defs>
        <path id="DejaVuSans-31" d="M 794 531 
L 1825 531 
L 1825 4091 
L 703 3866 
L 703 4441 
L 1819 4666 
L 2450 4666 
L 2450 531 
L 3481 531 
L 3481 0 
L 794 0 
L 794 531 
z
" transform="scale(0.015625)"/>
       </defs>
       <use xlink:href="#DejaVuSans-31"/>
       <use xlink:href="#DejaVuSans-30" transform="translate(63.623047 0)"/>
      </g>
     </g>
    </g>
    <g id="xtick_7">
     <g id="line2d_7">
      <g>
       <use xlink:href="#m74da4ee73f" x="441.99" y="241.072" style="stroke: #000000; stroke-width: 0.8"/>
      </g>
     </g>
     <g id="text_7">
      <!-- 12 -->
      <g transform="translate(434.99125 256.430281) scale(0.11 -0.11)">
       <use xlink:href="#DejaVuSans-31"/>
       <use xlink:href="#DejaVuSans-32" transform="translate(63.623047 0)"/>
      </g>
     </g>
    </g>
    <g id="text_8">
     <!-- $r$  (units of $a_0$) -->
     <g transform="translate(214.961 271.076219) scale(0.11 -0.11)">
      <defs>
       <path id="DejaVuSans-Oblique-72" d="M 2853 2969 
Q 2766 3016 2653 3041 
Q 2541 3066 2413 3066 
Q 1953 3066 1609 2717 
Q 1266 2369 1153 1784 
L 800 0 
L 225 0 
L 909 3500 
L 1484 3500 
L 1375 2956 
Q 1603 3259 1920 3421 
Q 2238 3584 2597 3584 
Q 2691 3584 2781 3573 
Q 2872 3563 2963 3538 
L 2853 2969 
z
" transform="scale(0.015625)"/>
       <path id="DejaVuSans-20" transform="scale(0.015625)"/>
       <path id="DejaVuSans-28" d="M 1984 4856 
Q 1566 4138 1362 3434 
Q 1159 2731 1159 2009 
Q 1159 1288 1364 580 
Q 1569 -128 1984 -844 
L 1484 -844 
Q 1016 -109 783 600 
Q 550 1309 550 2009 
Q 550 2706 781 3412 
Q 1013 4119 1484 4856 
L 1984 4856 
z
" transform="scale(0.015625)"/>
       <path id="DejaVuSans-75" d="M 544 1381 
L 544 3500 
L 1119 3500 
L 1119 1403 
Q 1119 906 1312 657 
Q 1506 409 1894 409 
Q 2359 409 2629 706 
Q 2900 1003 2900 1516 
L 2900 3500 
L 3475 3500 
L 3475 0 
L 2900 0 
L 2900 538 
Q 2691 219 2414 64 
Q 2138 -91 1772 -91 
Q 1169 -91 856 284 
Q 544 659 544 1381 
z
M 1991 3584 
L 1991 3584 
z
" transform="scale(0.015625)"/>
       <path id="DejaVuSans-6e" d="M 3513 2113 
L 3513 0 
L 2938 0 
L 2938 2094 
Q 2938 2591 2744 2837 
Q 2550 3084 2163 3084 
Q 1697 3084 1428 2787 
Q 1159 2491 1159 1978 
L 1159 0 
L 581 0 
L 581 3500 
L 1159 3500 
L 1159 2956 
Q 1366 3272 1645 3428 
Q 1925 3584 2291 3584 
Q 2894 3584 3203 3211 
Q 3513 2838 3513 2113 
z
" transform="scale(0.015625)"/>
       <path id="DejaVuSans-69" d="M 603 3500 
L 1178 3500 
L 1178 0 
L 603 0 
L 603 3500 
z
M 603 4863 
L 1178 4863 
L 1178 4134 
L 603 4134 
L 603 4863 
z
" transform="scale(0.015625)"/>
       <path id="DejaVuSans-74" d="M 1172 4494 
L 1172 3500 
L 2356 3500 
L 2356 3053 
L 1172 3053 
L 1172 1153 
Q 1172 725 1289 603 
Q 1406 481 1766 481 
L 2356 481 
L 2356 0 
L 1766 0 
Q 1100 0 847 248 
Q 594 497 594 1153 
L 594 3053 
L 172 3053 
L 172 3500 
L 594 3500 
L 594 4494 
L 1172 4494 
z
" transform="scale(0.015625)"/>
       <path id="DejaVuSans-73" d="M 2834 3397 
L 2834 2853 
Q 2591 2978 2328 3040 
Q 2066 3103 1784 3103 
Q 1356 3103 1142 2972 
Q 928 2841 928 2578 
Q 928 2378 1081 2264 
Q 1234 2150 1697 2047 
L 1894 2003 
Q 2506 1872 2764 1633 
Q 3022 1394 3022 966 
Q 3022 478 2636 193 
Q 2250 -91 1575 -91 
Q 1294 -91 989 -36 
Q 684 19 347 128 
L 347 722 
Q 666 556 975 473 
Q 1284 391 1588 391 
Q 1994 391 2212 530 
Q 2431 669 2431 922 
Q 2431 1156 2273 1281 
Q 2116 1406 1581 1522 
L 1381 1569 
Q 847 1681 609 1914 
Q 372 2147 372 2553 
Q 372 3047 722 3315 
Q 1072 3584 1716 3584 
Q 2034 3584 2315 3537 
Q 2597 3491 2834 3397 
z
" transform="scale(0.015625)"/>
       <path id="DejaVuSans-6f" d="M 1959 3097 
Q 1497 3097 1228 2736 
Q 959 2375 959 1747 
Q 959 1119 1226 758 
Q 1494 397 1959 397 
Q 2419 397 2687 759 
Q 2956 1122 2956 1747 
Q 2956 2369 2687 2733 
Q 2419 3097 1959 3097 
z
M 1959 3584 
Q 2709 3584 3137 3096 
Q 3566 2609 3566 1747 
Q 3566 888 3137 398 
Q 2709 -91 1959 -91 
Q 1206 -91 779 398 
Q 353 888 353 1747 
Q 353 2609 779 3096 
Q 1206 3584 1959 3584 
z
" transform="scale(0.015625)"/>
       <path id="DejaVuSans-66" d="M 2375 4863 
L 2375 4384 
L 1825 4384 
Q 1516 4384 1395 4259 
Q 1275 4134 1275 3809 
L 1275 3500 
L 2222 3500 
L 2222 3053 
L 1275 3053 
L 1275 0 
L 697 0 
L 697 3053 
L 147 3053 
L 147 3500 
L 697 3500 
L 697 3744 
Q 697 4328 969 4595 
Q 1241 4863 1831 4863 
L 2375 4863 
z
" transform="scale(0.015625)"/>
       <path id="DejaVuSans-Oblique-61" d="M 3438 1997 
L 3047 0 
L 2472 0 
L 2578 531 
Q 2325 219 2001 64 
Q 1678 -91 1281 -91 
Q 834 -91 548 182 
Q 263 456 263 884 
Q 263 1497 752 1853 
Q 1241 2209 2100 2209 
L 2900 2209 
L 2931 2363 
Q 2938 2388 2941 2417 
Q 2944 2447 2944 2509 
Q 2944 2788 2717 2942 
Q 2491 3097 2081 3097 
Q 1800 3097 1504 3025 
Q 1209 2953 897 2809 
L 997 3341 
Q 1322 3463 1633 3523 
Q 1944 3584 2234 3584 
Q 2853 3584 3176 3315 
Q 3500 3047 3500 2534 
Q 3500 2431 3484 2292 
Q 3469 2153 3438 1997 
z
M 2816 1759 
L 2241 1759 
Q 1534 1759 1195 1570 
Q 856 1381 856 984 
Q 856 709 1029 553 
Q 1203 397 1509 397 
Q 1978 397 2328 733 
Q 2678 1069 2791 1631 
L 2816 1759 
z
" transform="scale(0.015625)"/>
       <path id="DejaVuSans-29" d="M 513 4856 
L 1013 4856 
Q 1481 4119 1714 3412 
Q 1947 2706 1947 2009 
Q 1947 1309 1714 600 
Q 1481 -109 1013 -844 
L 513 -844 
Q 928 -128 1133 580 
Q 1338 1288 1338 2009 
Q 1338 2731 1133 3434 
Q 928 4138 513 4856 
z
" transform="scale(0.015625)"/>
      </defs>
      <use xlink:href="#DejaVuSans-Oblique-72" transform="translate(0 0.015625)"/>
      <use xlink:href="#DejaVuSans-20" transform="translate(41.113281 0.015625)"/>
      <use xlink:href="#DejaVuSans-20" transform="translate(72.900391 0.015625)"/>
      <use xlink:href="#DejaVuSans-28" transform="translate(104.6875 0.015625)"/>
      <use xlink:href="#DejaVuSans-75" transform="translate(143.701172 0.015625)"/>
      <use xlink:href="#DejaVuSans-6e" transform="translate(207.080078 0.015625)"/>
      <use xlink:href="#DejaVuSans-69" transform="translate(270.458984 0.015625)"/>
      <use xlink:href="#DejaVuSans-74" transform="translate(298.242188 0.015625)"/>
      <use xlink:href="#DejaVuSans-73" transform="translate(337.451172 0.015625)"/>
      <use xlink:href="#DejaVuSans-20" transform="translate(389.550781 0.015625)"/>
      <use xlink:href="#DejaVuSans-6f" transform="translate(421.337891 0.015625)"/>
      <use xlink:href="#DejaVuSans-66" transform="translate(482.519531 0.015625)"/>
      <use xlink:href="#DejaVuSans-20" transform="translate(517.724609 0.015625)"/>
      <use xlink:href="#DejaVuSans-Oblique-61" transform="translate(549.511719 0.015625)"/>
      <use xlink:href="#DejaVuSans-30" transform="translate(610.791016 -16.390625) scale(0.7)"/>
      <use xlink:href="#DejaVuSans-29" transform="translate(658.061523 0.015625)"/>
     </g>
    </g>
   </g>
   <g id="matplotlib.axis_2">
    <g id="ytick_1">
     <g id="line2d_8">
      <defs>
       <path id="mcb54f0eebd" d="M 0 0 
L -3.5 0 
" style="stroke: #000000; stroke-width: 0.8"/>
      </defs>
      <g>
       <use xlink:href="#mcb54f0eebd" x="64.712" y="228.536" style="stroke: #000000; stroke-width: 0.8"/>
      </g>
     </g>
     <g id="text_9">
      <!-- −1.0 -->
      <g transform="translate(31.000906 232.715141) scale(0.11 -0.11)">
       <defs>
        <path id="DejaVuSans-2212" d="M 678 2272 
L 4684 2272 
L 4684 1741 
L 678 1741 
L 678 2272 
z
" transform="scale(0.015625)"/>
        <path id="DejaVuSans-2e" d="M 684 794 
L 1344 794 
L 1344 0 
L 684 0 
L 684 794 
z
" transform="scale(0.015625)"/>
       </defs>
       <use xlink:href="#DejaVuSans-2212"/>
       <use xlink:href="#DejaVuSans-31" transform="translate(83.789062 0)"/>
       <use xlink:href="#DejaVuSans-2e" transform="translate(147.412109 0)"/>
       <use xlink:href="#DejaVuSans-30" transform="translate(179.199219 0)"/>
      </g>
     </g>
    </g>
    <g id="ytick_2">
     <g id="line2d_9">
      <g>
       <use xlink:href="#mcb54f0eebd" x="64.712" y="203.464" style="stroke: #000000; stroke-width: 0.8"/>
      </g>
     </g>
     <g id="text_10">
      <!-- −0.8 -->
      <g transform="translate(31.000906 207.643141) scale(0.11 -0.11)">
       <use xlink:href="#DejaVuSans-2212"/>
       <use xlink:href="#DejaVuSans-30" transform="translate(83.789062 0)"/>
       <use xlink:href="#DejaVuSans-2e" transform="translate(147.412109 0)"/>
       <use xlink:href="#DejaVuSans-38" transform="translate(179.199219 0)"/>
      </g>
     </g>
    </g>
    <g id="ytick_3">
     <g id="line2d_10">
      <g>
       <use xlink:href="#mcb54f0eebd" x="64.712" y="178.392" style="stroke: #000000; stroke-width: 0.8"/>
      </g>
     </g>
     <g id="text_11">
      <!-- −0.6 -->
      <g transform="translate(31.000906 182.571141) scale(0.11 -0.11)">
       <use xlink:href="#DejaVuSans-2212"/>
       <use xlink:href="#DejaVuSans-30" transform="translate(83.789062 0)"/>
       <use xlink:href="#DejaVuSans-2e" transform="translate(147.412109 0)"/>
       <use xlink:href="#DejaVuSans-36" transform="translate(179.199219 0)"/>
      </g>
     </g>
    </g>
    <g id="ytick_4">
     <g id="line2d_11">
      <g>
       <use xlink:href="#mcb54f0eebd" x="64.712" y="153.32" style="stroke: #000000; stroke-width: 0.8"/>
      </g>
     </g>
     <g id="text_12">
      <!-- −0.4 -->
      <g transform="translate(31.000906 157.499141) scale(0.11 -0.11)">
       <use xlink:href="#DejaVuSans-2212"/>
       <use xlink:href="#DejaVuSans-30" transform="translate(83.789062 0)"/>
       <use xlink:href="#DejaVuSans-2e" transform="translate(147.412109 0)"/>
       <use xlink:href="#DejaVuSans-34" transform="translate(179.199219 0)"/>
      </g>
     </g>
    </g>
    <g id="ytick_5">
     <g id="line2d_12">
      <g>
       <use xlink:href="#mcb54f0eebd" x="64.712" y="128.248" style="stroke: #000000; stroke-width: 0.8"/>
      </g>
     </g>
     <g id="text_13">
      <!-- −0.2 -->
      <g transform="translate(31.000906 132.427141) scale(0.11 -0.11)">
       <use xlink:href="#DejaVuSans-2212"/>
       <use xlink:href="#DejaVuSans-30" transform="translate(83.789062 0)"/>
       <use xlink:href="#DejaVuSans-2e" transform="translate(147.412109 0)"/>
       <use xlink:href="#DejaVuSans-32" transform="translate(179.199219 0)"/>
      </g>
     </g>
    </g>
    <g id="ytick_6">
     <g id="line2d_13">
      <g>
       <use xlink:href="#mcb54f0eebd" x="64.712" y="103.176" style="stroke: #000000; stroke-width: 0.8"/>
      </g>
     </g>
     <g id="text_14">
      <!-- 0.0 -->
      <g transform="translate(40.218563 107.355141) scale(0.11 -0.11)">
       <use xlink:href="#DejaVuSans-30"/>
       <use xlink:href="#DejaVuSans-2e" transform="translate(63.623047 0)"/>
       <use xlink:href="#DejaVuSans-30" transform="translate(95.410156 0)"/>
      </g>
     </g>
    </g>
    <g id="ytick_7">
     <g id="line2d_14">
      <g>
       <use xlink:href="#mcb54f0eebd" x="64.712" y="78.104" style="stroke: #000000; stroke-width: 0.8"/>
      </g>
     </g>
     <g id="text_15">
      <!-- 0.2 -->
      <g transform="translate(40.218563 82.283141) scale(0.11 -0.11)">
       <use xlink:href="#DejaVuSans-30"/>
       <use xlink:href="#DejaVuSans-2e" transform="translate(63.623047 0)"/>
       <use xlink:href="#DejaVuSans-32" transform="translate(95.410156 0)"/>
      </g>
     </g>
    </g>
    <g id="ytick_8">
     <g id="line2d_15">
      <g>
       <use xlink:href="#mcb54f0eebd" x="64.712" y="53.032" style="stroke: #000000; stroke-width: 0.8"/>
      </g>
     </g>
     <g id="text_16">
      <!-- 0.4 -->
      <g transform="translate(40.218563 57.211141) scale(0.11 -0.11)">
       <use xlink:href="#DejaVuSans-30"/>
       <use xlink:href="#DejaVuSans-2e" transform="translate(63.623047 0)"/>
       <use xlink:href="#DejaVuSans-34" transform="translate(95.410156 0)"/>
      </g>
     </g>
    </g>
    <g id="ytick_9">
     <g id="line2d_16">
      <g>
       <use xlink:href="#mcb54f0eebd" x="64.712" y="27.96" style="stroke: #000000; stroke-width: 0.8"/>
      </g>
     </g>
     <g id="text_17">
      <!-- 0.6 -->
      <g transform="translate(40.218563 32.139141) scale(0.11 -0.11)">
       <use xlink:href="#DejaVuSans-30"/>
       <use xlink:href="#DejaVuSans-2e" transform="translate(63.623047 0)"/>
       <use xlink:href="#DejaVuSans-36" transform="translate(95.410156 0)"/>
      </g>
     </g>
    </g>
    <g id="text_18">
     <!-- $V_{\mathrm{eff}}(r)$  (units of $e^2/4\pi\varepsilon_0 a_0$) -->
     <g transform="translate(24.71325 206.621) rotate(-90) scale(0.11 -0.11)">
      <defs>
       <path id="DejaVuSans-Oblique-56" d="M 1319 0 
L 500 4666 
L 1119 4666 
L 1797 653 
L 4063 4666 
L 4750 4666 
L 2053 0 
L 1319 0 
z
" transform="scale(0.015625)"/>
       <path id="DejaVuSans-65" d="M 3597 1894 
L 3597 1613 
L 953 1613 
Q 991 1019 1311 708 
Q 1631 397 2203 397 
Q 2534 397 2845 478 
Q 3156 559 3463 722 
L 3463 178 
Q 3153 47 2828 -22 
Q 2503 -91 2169 -91 
Q 1331 -91 842 396 
Q 353 884 353 1716 
Q 353 2575 817 3079 
Q 1281 3584 2069 3584 
Q 2775 3584 3186 3129 
Q 3597 2675 3597 1894 
z
M 3022 2063 
Q 3016 2534 2758 2815 
Q 2500 3097 2075 3097 
Q 1594 3097 1305 2825 
Q 1016 2553 972 2059 
L 3022 2063 
z
" transform="scale(0.015625)"/>
       <path id="DejaVuSans-Oblique-65" d="M 3078 2063 
Q 3088 2113 3092 2166 
Q 3097 2219 3097 2272 
Q 3097 2653 2873 2875 
Q 2650 3097 2266 3097 
Q 1838 3097 1509 2826 
Q 1181 2556 1013 2059 
L 3078 2063 
z
M 3578 1613 
L 903 1613 
Q 884 1494 878 1425 
Q 872 1356 872 1306 
Q 872 872 1139 634 
Q 1406 397 1894 397 
Q 2269 397 2603 481 
Q 2938 566 3225 728 
L 3116 159 
Q 2806 34 2476 -28 
Q 2147 -91 1806 -91 
Q 1078 -91 686 257 
Q 294 606 294 1247 
Q 294 1794 489 2264 
Q 684 2734 1063 3103 
Q 1306 3334 1642 3459 
Q 1978 3584 2356 3584 
Q 2950 3584 3301 3228 
Q 3653 2872 3653 2272 
Q 3653 2128 3634 1964 
Q 3616 1800 3578 1613 
z
" transform="scale(0.015625)"/>
       <path id="DejaVuSans-2f" d="M 1625 4666 
L 2156 4666 
L 531 -594 
L 0 -594 
L 1625 4666 
z
" transform="scale(0.015625)"/>
       <path id="DejaVuSans-Oblique-3c0" d="M 584 3500 
L 3938 3500 
L 3825 2925 
L 3384 2925 
L 2966 775 
Q 2922 550 2981 450 
Q 3038 353 3209 353 
Q 3256 353 3325 363 
Q 3397 369 3419 372 
L 3338 -44 
Q 3222 -84 3103 -103 
Q 2981 -122 2866 -122 
Q 2491 -122 2388 81 
Q 2284 288 2391 838 
L 2797 2925 
L 1506 2925 
L 938 0 
L 350 0 
L 919 2925 
L 472 2925 
L 584 3500 
z
" transform="scale(0.015625)"/>
       <path id="DejaVuSans-Oblique-3b5" d="M 1263 1888 
Q 925 1963 778 2166 
Q 669 2309 669 2503 
Q 669 3034 1175 3344 
Q 1575 3588 2188 3588 
Q 2425 3588 2684 3550 
Q 2944 3513 3234 3438 
L 3134 2916 
Q 2847 3006 2606 3047 
Q 2359 3088 2138 3088 
Q 1766 3088 1522 2944 
Q 1228 2772 1228 2522 
Q 1228 2356 1381 2241 
Q 1563 2103 1925 2103 
L 2409 2103 
L 2319 1628 
L 1856 1628 
Q 1425 1628 1172 1469 
Q 828 1253 828 916 
Q 828 703 1013 563 
Q 1244 388 1716 388 
Q 2006 388 2284 444 
Q 2563 503 2806 619 
L 2700 84 
Q 2403 -3 2131 -47 
Q 1859 -91 1609 -91 
Q 866 -91 516 194 
Q 250 413 250 781 
Q 250 1278 600 1584 
Q 859 1813 1263 1888 
z
" transform="scale(0.015625)"/>
      </defs>
      <use xlink:href="#DejaVuSans-Oblique-56" transform="translate(0 0.765625)"/>
      <use xlink:href="#DejaVuSans-65" transform="translate(68.408203 -15.640625) scale(0.7)"/>
      <use xlink:href="#DejaVuSans-66" transform="translate(111.474609 -15.640625) scale(0.7)"/>
      <use xlink:href="#DejaVuSans-66" transform="translate(136.118164 -15.640625) scale(0.7)"/>
      <use xlink:href="#DejaVuSans-28" transform="translate(163.496094 0.765625)"/>
      <use xlink:href="#DejaVuSans-Oblique-72" transform="translate(202.509766 0.765625)"/>
      <use xlink:href="#DejaVuSans-29" transform="translate(243.623047 0.765625)"/>
      <use xlink:href="#DejaVuSans-20" transform="translate(282.636719 0.765625)"/>
      <use xlink:href="#DejaVuSans-20" transform="translate(314.423828 0.765625)"/>
      <use xlink:href="#DejaVuSans-28" transform="translate(346.210938 0.765625)"/>
      <use xlink:href="#DejaVuSans-75" transform="translate(385.224609 0.765625)"/>
      <use xlink:href="#DejaVuSans-6e" transform="translate(448.603516 0.765625)"/>
      <use xlink:href="#DejaVuSans-69" transform="translate(511.982422 0.765625)"/>
      <use xlink:href="#DejaVuSans-74" transform="translate(539.765625 0.765625)"/>
      <use xlink:href="#DejaVuSans-73" transform="translate(578.974609 0.765625)"/>
      <use xlink:href="#DejaVuSans-20" transform="translate(631.074219 0.765625)"/>
      <use xlink:href="#DejaVuSans-6f" transform="translate(662.861328 0.765625)"/>
      <use xlink:href="#DejaVuSans-66" transform="translate(724.042969 0.765625)"/>
      <use xlink:href="#DejaVuSans-20" transform="translate(759.248047 0.765625)"/>
      <use xlink:href="#DejaVuSans-Oblique-65" transform="translate(791.035156 0.765625)"/>
      <use xlink:href="#DejaVuSans-32" transform="translate(857.20849 39.046875) scale(0.7)"/>
      <use xlink:href="#DejaVuSans-2f" transform="translate(904.478997 0.765625)"/>
      <use xlink:href="#DejaVuSans-34" transform="translate(938.170404 0.765625)"/>
      <use xlink:href="#DejaVuSans-Oblique-3c0" transform="translate(1001.793451 0.765625)"/>
      <use xlink:href="#DejaVuSans-Oblique-3b5" transform="translate(1061.998529 0.765625)"/>
      <use xlink:href="#DejaVuSans-30" transform="translate(1116.051263 -15.640625) scale(0.7)"/>
      <use xlink:href="#DejaVuSans-Oblique-61" transform="translate(1163.321771 0.765625)"/>
      <use xlink:href="#DejaVuSans-30" transform="translate(1224.601068 -15.640625) scale(0.7)"/>
      <use xlink:href="#DejaVuSans-29" transform="translate(1271.871576 0.765625)"/>
     </g>
    </g>
   </g>
   <g id="line2d_17">
    <path d="M 64.712 103.176 
L 441.99 103.176 
" clip-path="url(#p6a076c58ec)" style="fill: none; stroke-dasharray: 0.8,1.32; stroke-dashoffset: 0; stroke: #999999; stroke-width: 0.8"/>
   </g>
   <g id="line2d_18">
    <path d="M 85.922257 289 
L 87.522 275.96414 
L 89.213523 264.035287 
L 90.905046 253.647142 
L 92.596569 244.51932 
L 94.476038 235.594104 
L 96.355508 227.729115 
L 98.234978 220.74603 
L 100.302395 213.916483 
L 102.369811 207.836822 
L 104.625175 201.92278 
L 106.880539 196.641356 
L 109.135903 191.8962 
L 111.579213 187.270983 
L 114.022524 183.104121 
L 116.653782 179.055136 
L 119.285039 175.396597 
L 122.104244 171.848999 
L 125.111396 168.429923 
L 128.306494 165.151452 
L 131.501593 162.186653 
L 134.884639 159.341731 
L 138.455631 156.621938 
L 142.214571 154.029765 
L 146.349404 151.454085 
L 150.672185 149.026268 
L 155.370859 146.649937 
L 160.25748 144.426486 
L 165.519996 142.273072 
L 171.158405 140.202121 
L 177.360655 138.163524 
L 184.126747 136.181116 
L 191.456679 134.272355 
L 199.350452 132.449194 
L 207.996013 130.682889 
L 217.581309 128.958137 
L 228.106339 127.297383 
L 239.571105 125.715847 
L 252.3515 124.180626 
L 266.63547 122.694769 
L 282.423016 121.279344 
L 300.277979 119.907183 
L 320.388305 118.591185 
L 343.12989 117.33205 
L 368.878626 116.133692 
L 398.386301 114.98781 
L 432.404704 113.894998 
L 441.99 113.622667 
L 441.99 113.622667 
" clip-path="url(#p6a076c58ec)" style="fill: none; stroke-dasharray: 5.92,2.56; stroke-dashoffset: 0; stroke: #999999; stroke-width: 1.6"/>
   </g>
   <g id="line2d_19">
    <path d="M 85.922257 289 
L 87.522 275.96414 
L 89.213523 264.035287 
L 90.905046 253.647142 
L 92.596569 244.51932 
L 94.476038 235.594104 
L 96.355508 227.729115 
L 98.234978 220.74603 
L 100.302395 213.916483 
L 102.369811 207.836822 
L 104.625175 201.92278 
L 106.880539 196.641356 
L 109.135903 191.8962 
L 111.579213 187.270983 
L 114.022524 183.104121 
L 116.653782 179.055136 
L 119.285039 175.396597 
L 122.104244 171.848999 
L 125.111396 168.429923 
L 128.306494 165.151452 
L 131.501593 162.186653 
L 134.884639 159.341731 
L 138.455631 156.621938 
L 142.214571 154.029765 
L 146.349404 151.454085 
L 150.672185 149.026268 
L 155.370859 146.649937 
L 160.25748 144.426486 
L 165.519996 142.273072 
L 171.158405 140.202121 
L 177.360655 138.163524 
L 184.126747 136.181116 
L 191.456679 134.272355 
L 199.350452 132.449194 
L 207.996013 130.682889 
L 217.581309 128.958137 
L 228.106339 127.297383 
L 239.571105 125.715847 
L 252.3515 124.180626 
L 266.63547 122.694769 
L 282.423016 121.279344 
L 300.277979 119.907183 
L 320.388305 118.591185 
L 343.12989 117.33205 
L 368.878626 116.133692 
L 398.386301 114.98781 
L 432.404704 113.894998 
L 441.99 113.622667 
L 441.99 113.622667 
" clip-path="url(#p6a076c58ec)" style="fill: none; stroke: #0072b2; stroke-width: 2.2; stroke-linecap: square"/>
   </g>
   <g id="line2d_20">
    <path d="M 85.131815 -1 
L 86.206371 18.333259 
L 87.334053 35.265888 
L 88.649682 51.574675 
L 89.965311 64.94205 
L 91.28094 75.980352 
L 92.596569 85.154816 
L 93.912197 92.823504 
L 95.227826 99.265212 
L 96.543455 104.699327 
L 97.859084 109.30015 
L 99.36266 113.715816 
L 100.866236 117.39102 
L 102.369811 120.457373 
L 103.873387 123.019935 
L 105.376963 125.163251 
L 106.880539 126.955868 
L 108.572062 128.622633 
L 110.263584 129.980836 
L 112.143054 131.191301 
L 114.022524 132.142853 
L 116.089941 132.945378 
L 118.345304 133.584524 
L 120.976562 134.082786 
L 123.795767 134.386642 
L 127.178812 134.514631 
L 131.125699 134.427259 
L 136.01232 134.078873 
L 142.214571 133.400334 
L 151.423973 132.148593 
L 187.697739 127.030407 
L 202.733497 125.226998 
L 218.333097 123.581259 
L 235.060378 122.042536 
L 253.291234 120.591525 
L 273.401561 119.216701 
L 295.955198 117.902654 
L 321.32804 116.653028 
L 350.083928 115.465503 
L 382.786702 114.342318 
L 420.564045 113.273119 
L 441.99 112.752111 
L 441.99 112.752111 
" clip-path="url(#p6a076c58ec)" style="fill: none; stroke: #e69f00; stroke-width: 2.2; stroke-linecap: square"/>
   </g>
   <g id="line2d_21">
    <defs>
     <path id="m1945128ad4" d="M 0 2.5 
C 0.663008 2.5 1.29895 2.236584 1.767767 1.767767 
C 2.236584 1.29895 2.5 0.663008 2.5 0 
C 2.5 -0.663008 2.236584 -1.29895 1.767767 -1.767767 
C 1.29895 -2.236584 0.663008 -2.5 0 -2.5 
C -0.663008 -2.5 -1.29895 -2.236584 -1.767767 -1.767767 
C -2.236584 -1.29895 -2.5 -0.663008 -2.5 0 
C -2.5 0.663008 -2.236584 1.29895 -1.767767 1.767767 
C -1.29895 2.236584 -0.663008 2.5 0 2.5 
z
" style="stroke: #e69f00"/>
    </defs>
    <g clip-path="url(#p6a076c58ec)">
     <use xlink:href="#m1945128ad4" x="127.554706" y="134.515989" style="fill: #e69f00; stroke: #e69f00"/>
    </g>
   </g>
   <g id="line2d_22">
    <path d="M 108.455425 -1 
L 110.075637 9.413715 
L 111.955107 20.044525 
L 113.834577 29.354001 
L 115.714047 37.542295 
L 117.593517 44.77369 
L 119.472986 51.183984 
L 121.540403 57.421221 
L 123.60782 62.926179 
L 125.675237 67.802292 
L 127.742653 72.135754 
L 129.998017 76.328861 
L 132.253381 80.040472 
L 134.508745 83.336161 
L 136.952055 86.500793 
L 139.395366 89.300538 
L 142.026624 91.963837 
L 144.657881 94.312339 
L 147.477086 96.527973 
L 150.484238 98.596978 
L 153.679336 100.510937 
L 157.062382 102.266016 
L 160.633374 103.862178 
L 164.392314 105.30243 
L 168.527148 106.648501 
L 173.037875 107.88036 
L 177.924496 108.985668 
L 183.374959 109.989828 
L 189.577209 110.897586 
L 196.531247 111.681697 
L 204.42502 112.341567 
L 213.634422 112.879645 
L 224.535347 113.283077 
L 237.691635 113.537054 
L 254.230969 113.622441 
L 276.220766 113.50053 
L 309.675328 113.070376 
L 441.99 111.011 
L 441.99 111.011 
" clip-path="url(#p6a076c58ec)" style="fill: none; stroke: #d55e00; stroke-width: 2.2; stroke-linecap: square"/>
   </g>
   <g id="line2d_23">
    <defs>
     <path id="mfc23b0c3cc" d="M 0 2.5 
C 0.663008 2.5 1.29895 2.236584 1.767767 1.767767 
C 2.236584 1.29895 2.5 0.663008 2.5 0 
C 2.5 -0.663008 2.236584 -1.29895 1.767767 -1.767767 
C 1.29895 -2.236584 0.663008 -2.5 0 -2.5 
C -0.663008 -2.5 -1.29895 -2.236584 -1.767767 -1.767767 
C -2.236584 -1.29895 -2.5 -0.663008 -2.5 0 
C -2.5 0.663008 -2.236584 1.29895 -1.767767 1.767767 
C -1.29895 2.236584 -0.663008 2.5 0 2.5 
z
" style="stroke: #d55e00"/>
    </defs>
    <g clip-path="url(#p6a076c58ec)">
     <use xlink:href="#mfc23b0c3cc" x="253.291234" y="113.622666" style="fill: #d55e00; stroke: #d55e00"/>
    </g>
   </g>
   <g id="patch_3">
    <path d="M 64.712 241.072 
L 64.712 27.96 
" style="fill: none; stroke: #000000; stroke-linejoin: miter; stroke-linecap: square"/>
   </g>
   <g id="patch_4">
    <path d="M 64.712 241.072 
L 441.99 241.072 
" style="fill: none; stroke: #000000; stroke-linejoin: miter; stroke-linecap: square"/>
   </g>
   <g id="text_19">
    <!-- Effective radial potential: Coulomb well + centrifugal barrier -->
    <g transform="translate(71.958813 21.96) scale(0.12 -0.12)">
     <defs>
      <path id="DejaVuSans-45" d="M 628 4666 
L 3578 4666 
L 3578 4134 
L 1259 4134 
L 1259 2753 
L 3481 2753 
L 3481 2222 
L 1259 2222 
L 1259 531 
L 3634 531 
L 3634 0 
L 628 0 
L 628 4666 
z
" transform="scale(0.015625)"/>
      <path id="DejaVuSans-63" d="M 3122 3366 
L 3122 2828 
Q 2878 2963 2633 3030 
Q 2388 3097 2138 3097 
Q 1578 3097 1268 2742 
Q 959 2388 959 1747 
Q 959 1106 1268 751 
Q 1578 397 2138 397 
Q 2388 397 2633 464 
Q 2878 531 3122 666 
L 3122 134 
Q 2881 22 2623 -34 
Q 2366 -91 2075 -91 
Q 1284 -91 818 406 
Q 353 903 353 1747 
Q 353 2603 823 3093 
Q 1294 3584 2113 3584 
Q 2378 3584 2631 3529 
Q 2884 3475 3122 3366 
z
" transform="scale(0.015625)"/>
      <path id="DejaVuSans-76" d="M 191 3500 
L 800 3500 
L 1894 563 
L 2988 3500 
L 3597 3500 
L 2284 0 
L 1503 0 
L 191 3500 
z
" transform="scale(0.015625)"/>
      <path id="DejaVuSans-72" d="M 2631 2963 
Q 2534 3019 2420 3045 
Q 2306 3072 2169 3072 
Q 1681 3072 1420 2755 
Q 1159 2438 1159 1844 
L 1159 0 
L 581 0 
L 581 3500 
L 1159 3500 
L 1159 2956 
Q 1341 3275 1631 3429 
Q 1922 3584 2338 3584 
Q 2397 3584 2469 3576 
Q 2541 3569 2628 3553 
L 2631 2963 
z
" transform="scale(0.015625)"/>
      <path id="DejaVuSans-61" d="M 2194 1759 
Q 1497 1759 1228 1600 
Q 959 1441 959 1056 
Q 959 750 1161 570 
Q 1363 391 1709 391 
Q 2188 391 2477 730 
Q 2766 1069 2766 1631 
L 2766 1759 
L 2194 1759 
z
M 3341 1997 
L 3341 0 
L 2766 0 
L 2766 531 
Q 2569 213 2275 61 
Q 1981 -91 1556 -91 
Q 1019 -91 701 211 
Q 384 513 384 1019 
Q 384 1609 779 1909 
Q 1175 2209 1959 2209 
L 2766 2209 
L 2766 2266 
Q 2766 2663 2505 2880 
Q 2244 3097 1772 3097 
Q 1472 3097 1187 3025 
Q 903 2953 641 2809 
L 641 3341 
Q 956 3463 1253 3523 
Q 1550 3584 1831 3584 
Q 2591 3584 2966 3190 
Q 3341 2797 3341 1997 
z
" transform="scale(0.015625)"/>
      <path id="DejaVuSans-64" d="M 2906 2969 
L 2906 4863 
L 3481 4863 
L 3481 0 
L 2906 0 
L 2906 525 
Q 2725 213 2448 61 
Q 2172 -91 1784 -91 
Q 1150 -91 751 415 
Q 353 922 353 1747 
Q 353 2572 751 3078 
Q 1150 3584 1784 3584 
Q 2172 3584 2448 3432 
Q 2725 3281 2906 2969 
z
M 947 1747 
Q 947 1113 1208 752 
Q 1469 391 1925 391 
Q 2381 391 2643 752 
Q 2906 1113 2906 1747 
Q 2906 2381 2643 2742 
Q 2381 3103 1925 3103 
Q 1469 3103 1208 2742 
Q 947 2381 947 1747 
z
" transform="scale(0.015625)"/>
      <path id="DejaVuSans-6c" d="M 603 4863 
L 1178 4863 
L 1178 0 
L 603 0 
L 603 4863 
z
" transform="scale(0.015625)"/>
      <path id="DejaVuSans-70" d="M 1159 525 
L 1159 -1331 
L 581 -1331 
L 581 3500 
L 1159 3500 
L 1159 2969 
Q 1341 3281 1617 3432 
Q 1894 3584 2278 3584 
Q 2916 3584 3314 3078 
Q 3713 2572 3713 1747 
Q 3713 922 3314 415 
Q 2916 -91 2278 -91 
Q 1894 -91 1617 61 
Q 1341 213 1159 525 
z
M 3116 1747 
Q 3116 2381 2855 2742 
Q 2594 3103 2138 3103 
Q 1681 3103 1420 2742 
Q 1159 2381 1159 1747 
Q 1159 1113 1420 752 
Q 1681 391 2138 391 
Q 2594 391 2855 752 
Q 3116 1113 3116 1747 
z
" transform="scale(0.015625)"/>
      <path id="DejaVuSans-3a" d="M 750 794 
L 1409 794 
L 1409 0 
L 750 0 
L 750 794 
z
M 750 3309 
L 1409 3309 
L 1409 2516 
L 750 2516 
L 750 3309 
z
" transform="scale(0.015625)"/>
      <path id="DejaVuSans-43" d="M 4122 4306 
L 4122 3641 
Q 3803 3938 3442 4084 
Q 3081 4231 2675 4231 
Q 1875 4231 1450 3742 
Q 1025 3253 1025 2328 
Q 1025 1406 1450 917 
Q 1875 428 2675 428 
Q 3081 428 3442 575 
Q 3803 722 4122 1019 
L 4122 359 
Q 3791 134 3420 21 
Q 3050 -91 2638 -91 
Q 1578 -91 968 557 
Q 359 1206 359 2328 
Q 359 3453 968 4101 
Q 1578 4750 2638 4750 
Q 3056 4750 3426 4639 
Q 3797 4528 4122 4306 
z
" transform="scale(0.015625)"/>
      <path id="DejaVuSans-6d" d="M 3328 2828 
Q 3544 3216 3844 3400 
Q 4144 3584 4550 3584 
Q 5097 3584 5394 3201 
Q 5691 2819 5691 2113 
L 5691 0 
L 5113 0 
L 5113 2094 
Q 5113 2597 4934 2840 
Q 4756 3084 4391 3084 
Q 3944 3084 3684 2787 
Q 3425 2491 3425 1978 
L 3425 0 
L 2847 0 
L 2847 2094 
Q 2847 2600 2669 2842 
Q 2491 3084 2119 3084 
Q 1678 3084 1418 2786 
Q 1159 2488 1159 1978 
L 1159 0 
L 581 0 
L 581 3500 
L 1159 3500 
L 1159 2956 
Q 1356 3278 1631 3431 
Q 1906 3584 2284 3584 
Q 2666 3584 2933 3390 
Q 3200 3197 3328 2828 
z
" transform="scale(0.015625)"/>
      <path id="DejaVuSans-62" d="M 3116 1747 
Q 3116 2381 2855 2742 
Q 2594 3103 2138 3103 
Q 1681 3103 1420 2742 
Q 1159 2381 1159 1747 
Q 1159 1113 1420 752 
Q 1681 391 2138 391 
Q 2594 391 2855 752 
Q 3116 1113 3116 1747 
z
M 1159 2969 
Q 1341 3281 1617 3432 
Q 1894 3584 2278 3584 
Q 2916 3584 3314 3078 
Q 3713 2572 3713 1747 
Q 3713 922 3314 415 
Q 2916 -91 2278 -91 
Q 1894 -91 1617 61 
Q 1341 213 1159 525 
L 1159 0 
L 581 0 
L 581 4863 
L 1159 4863 
L 1159 2969 
z
" transform="scale(0.015625)"/>
      <path id="DejaVuSans-77" d="M 269 3500 
L 844 3500 
L 1563 769 
L 2278 3500 
L 2956 3500 
L 3675 769 
L 4391 3500 
L 4966 3500 
L 4050 0 
L 3372 0 
L 2619 2869 
L 1863 0 
L 1184 0 
L 269 3500 
z
" transform="scale(0.015625)"/>
      <path id="DejaVuSans-2b" d="M 2944 4013 
L 2944 2272 
L 4684 2272 
L 4684 1741 
L 2944 1741 
L 2944 0 
L 2419 0 
L 2419 1741 
L 678 1741 
L 678 2272 
L 2419 2272 
L 2419 4013 
L 2944 4013 
z
" transform="scale(0.015625)"/>
      <path id="DejaVuSans-67" d="M 2906 1791 
Q 2906 2416 2648 2759 
Q 2391 3103 1925 3103 
Q 1463 3103 1205 2759 
Q 947 2416 947 1791 
Q 947 1169 1205 825 
Q 1463 481 1925 481 
Q 2391 481 2648 825 
Q 2906 1169 2906 1791 
z
M 3481 434 
Q 3481 -459 3084 -895 
Q 2688 -1331 1869 -1331 
Q 1566 -1331 1297 -1286 
Q 1028 -1241 775 -1147 
L 775 -588 
Q 1028 -725 1275 -790 
Q 1522 -856 1778 -856 
Q 2344 -856 2625 -561 
Q 2906 -266 2906 331 
L 2906 616 
Q 2728 306 2450 153 
Q 2172 0 1784 0 
Q 1141 0 747 490 
Q 353 981 353 1791 
Q 353 2603 747 3093 
Q 1141 3584 1784 3584 
Q 2172 3584 2450 3431 
Q 2728 3278 2906 2969 
L 2906 3500 
L 3481 3500 
L 3481 434 
z
" transform="scale(0.015625)"/>
     </defs>
     <use xlink:href="#DejaVuSans-45"/>
     <use xlink:href="#DejaVuSans-66" transform="translate(63.183594 0)"/>
     <use xlink:href="#DejaVuSans-66" transform="translate(98.388672 0)"/>
     <use xlink:href="#DejaVuSans-65" transform="translate(133.59375 0)"/>
     <use xlink:href="#DejaVuSans-63" transform="translate(195.117188 0)"/>
     <use xlink:href="#DejaVuSans-74" transform="translate(250.097656 0)"/>
     <use xlink:href="#DejaVuSans-69" transform="translate(289.306641 0)"/>
     <use xlink:href="#DejaVuSans-76" transform="translate(317.089844 0)"/>
     <use xlink:href="#DejaVuSans-65" transform="translate(376.269531 0)"/>
     <use xlink:href="#DejaVuSans-20" transform="translate(437.792969 0)"/>
     <use xlink:href="#DejaVuSans-72" transform="translate(469.580078 0)"/>
     <use xlink:href="#DejaVuSans-61" transform="translate(510.693359 0)"/>
     <use xlink:href="#DejaVuSans-64" transform="translate(571.972656 0)"/>
     <use xlink:href="#DejaVuSans-69" transform="translate(635.449219 0)"/>
     <use xlink:href="#DejaVuSans-61" transform="translate(663.232422 0)"/>
     <use xlink:href="#DejaVuSans-6c" transform="translate(724.511719 0)"/>
     <use xlink:href="#DejaVuSans-20" transform="translate(752.294922 0)"/>
     <use xlink:href="#DejaVuSans-70" transform="translate(784.082031 0)"/>
     <use xlink:href="#DejaVuSans-6f" transform="translate(847.558594 0)"/>
     <use xlink:href="#DejaVuSans-74" transform="translate(908.740234 0)"/>
     <use xlink:href="#DejaVuSans-65" transform="translate(947.949219 0)"/>
     <use xlink:href="#DejaVuSans-6e" transform="translate(1009.472656 0)"/>
     <use xlink:href="#DejaVuSans-74" transform="translate(1072.851562 0)"/>
     <use xlink:href="#DejaVuSans-69" transform="translate(1112.060547 0)"/>
     <use xlink:href="#DejaVuSans-61" transform="translate(1139.84375 0)"/>
     <use xlink:href="#DejaVuSans-6c" transform="translate(1201.123047 0)"/>
     <use xlink:href="#DejaVuSans-3a" transform="translate(1228.90625 0)"/>
     <use xlink:href="#DejaVuSans-20" transform="translate(1262.597656 0)"/>
     <use xlink:href="#DejaVuSans-43" transform="translate(1294.384766 0)"/>
     <use xlink:href="#DejaVuSans-6f" transform="translate(1364.208984 0)"/>
     <use xlink:href="#DejaVuSans-75" transform="translate(1425.390625 0)"/>
     <use xlink:href="#DejaVuSans-6c" transform="translate(1488.769531 0)"/>
     <use xlink:href="#DejaVuSans-6f" transform="translate(1516.552734 0)"/>
     <use xlink:href="#DejaVuSans-6d" transform="translate(1577.734375 0)"/>
     <use xlink:href="#DejaVuSans-62" transform="translate(1675.146484 0)"/>
     <use xlink:href="#DejaVuSans-20" transform="translate(1738.623047 0)"/>
     <use xlink:href="#DejaVuSans-77" transform="translate(1770.410156 0)"/>
     <use xlink:href="#DejaVuSans-65" transform="translate(1852.197266 0)"/>
     <use xlink:href="#DejaVuSans-6c" transform="translate(1913.720703 0)"/>
     <use xlink:href="#DejaVuSans-6c" transform="translate(1941.503906 0)"/>
     <use xlink:href="#DejaVuSans-20" transform="translate(1969.287109 0)"/>
     <use xlink:href="#DejaVuSans-2b" transform="translate(2001.074219 0)"/>
     <use xlink:href="#DejaVuSans-20" transform="translate(2084.863281 0)"/>
     <use xlink:href="#DejaVuSans-63" transform="translate(2116.650391 0)"/>
     <use xlink:href="#DejaVuSans-65" transform="translate(2171.630859 0)"/>
     <use xlink:href="#DejaVuSans-6e" transform="translate(2233.154297 0)"/>
     <use xlink:href="#DejaVuSans-74" transform="translate(2296.533203 0)"/>
     <use xlink:href="#DejaVuSans-72" transform="translate(2335.742188 0)"/>
     <use xlink:href="#DejaVuSans-69" transform="translate(2376.855469 0)"/>
     <use xlink:href="#DejaVuSans-66" transform="translate(2404.638672 0)"/>
     <use xlink:href="#DejaVuSans-75" transform="translate(2439.84375 0)"/>
     <use xlink:href="#DejaVuSans-67" transform="translate(2503.222656 0)"/>
     <use xlink:href="#DejaVuSans-61" transform="translate(2566.699219 0)"/>
     <use xlink:href="#DejaVuSans-6c" transform="translate(2627.978516 0)"/>
     <use xlink:href="#DejaVuSans-20" transform="translate(2655.761719 0)"/>
     <use xlink:href="#DejaVuSans-62" transform="translate(2687.548828 0)"/>
     <use xlink:href="#DejaVuSans-61" transform="translate(2751.025391 0)"/>
     <use xlink:href="#DejaVuSans-72" transform="translate(2812.304688 0)"/>
     <use xlink:href="#DejaVuSans-72" transform="translate(2851.667969 0)"/>
     <use xlink:href="#DejaVuSans-69" transform="translate(2892.78125 0)"/>
     <use xlink:href="#DejaVuSans-65" transform="translate(2920.564453 0)"/>
     <use xlink:href="#DejaVuSans-72" transform="translate(2982.087891 0)"/>
    </g>
   </g>
   <g id="legend_1">
    <g id="line2d_24">
     <path d="M 294.15 176.596531 
L 305.15 176.596531 
L 316.15 176.596531 
" style="fill: none; stroke-dasharray: 5.92,2.56; stroke-dashoffset: 0; stroke: #999999; stroke-width: 1.6"/>
    </g>
    <g id="text_20">
     <!-- Coulomb $-e^2/4\pi\varepsilon_0 r$ -->
     <g transform="translate(324.95 180.446531) scale(0.11 -0.11)">
      <use xlink:href="#DejaVuSans-43" transform="translate(0 0.765625)"/>
      <use xlink:href="#DejaVuSans-6f" transform="translate(69.824219 0.765625)"/>
      <use xlink:href="#DejaVuSans-75" transform="translate(131.005859 0.765625)"/>
      <use xlink:href="#DejaVuSans-6c" transform="translate(194.384766 0.765625)"/>
      <use xlink:href="#DejaVuSans-6f" transform="translate(222.167969 0.765625)"/>
      <use xlink:href="#DejaVuSans-6d" transform="translate(283.349609 0.765625)"/>
      <use xlink:href="#DejaVuSans-62" transform="translate(380.761719 0.765625)"/>
      <use xlink:href="#DejaVuSans-20" transform="translate(444.238281 0.765625)"/>
      <use xlink:href="#DejaVuSans-2212" transform="translate(476.025391 0.765625)"/>
      <use xlink:href="#DejaVuSans-Oblique-65" transform="translate(559.814453 0.765625)"/>
      <use xlink:href="#DejaVuSans-32" transform="translate(625.987786 39.046875) scale(0.7)"/>
      <use xlink:href="#DejaVuSans-2f" transform="translate(673.258294 0.765625)"/>
      <use xlink:href="#DejaVuSans-34" transform="translate(706.949701 0.765625)"/>
      <use xlink:href="#DejaVuSans-Oblique-3c0" transform="translate(770.572747 0.765625)"/>
      <use xlink:href="#DejaVuSans-Oblique-3b5" transform="translate(830.777826 0.765625)"/>
      <use xlink:href="#DejaVuSans-30" transform="translate(884.83056 -15.640625) scale(0.7)"/>
      <use xlink:href="#DejaVuSans-Oblique-72" transform="translate(932.101068 0.765625)"/>
     </g>
    </g>
    <g id="line2d_25">
     <path d="M 294.15 192.742469 
L 305.15 192.742469 
L 316.15 192.742469 
" style="fill: none; stroke: #0072b2; stroke-width: 2.2; stroke-linecap: square"/>
    </g>
    <g id="text_21">
     <!-- $\ell=0$ -->
     <g transform="translate(324.95 196.592469) scale(0.11 -0.11)">
      <defs>
       <path id="DejaVuSans-Oblique-2113" d="M 950 838 
Q 1078 213 1350 213 
Q 1531 213 1766 572 
L 2181 572 
Q 1994 253 1775 88 
Q 1538 -91 1319 -91 
Q 831 -91 634 344 
L 400 0 
L -88 0 
Q 250 459 500 888 
Q 469 1131 469 1397 
Q 469 1872 566 2347 
Q 931 4131 1256 4497 
Q 1481 4750 1866 4750 
Q 2256 4750 2256 4209 
Q 2253 3966 2197 3675 
Q 1972 2484 950 838 
z
M 947 1656 
Q 1531 2744 1709 3613 
Q 1803 4072 1803 4191 
Q 1803 4406 1725 4406 
Q 1384 4134 1081 2516 
Q 997 2063 947 1656 
z
" transform="scale(0.015625)"/>
       <path id="DejaVuSans-3d" d="M 678 2906 
L 4684 2906 
L 4684 2381 
L 678 2381 
L 678 2906 
z
M 678 1631 
L 4684 1631 
L 4684 1100 
L 678 1100 
L 678 1631 
z
" transform="scale(0.015625)"/>
      </defs>
      <use xlink:href="#DejaVuSans-Oblique-2113" transform="translate(0 0.78125)"/>
      <use xlink:href="#DejaVuSans-3d" transform="translate(60.791016 0.78125)"/>
      <use xlink:href="#DejaVuSans-30" transform="translate(164.0625 0.78125)"/>
     </g>
    </g>
    <g id="line2d_26">
     <path d="M 294.15 208.888406 
L 305.15 208.888406 
L 316.15 208.888406 
" style="fill: none; stroke: #e69f00; stroke-width: 2.2; stroke-linecap: square"/>
    </g>
    <g id="text_22">
     <!-- $\ell=1$ -->
     <g transform="translate(324.95 212.738406) scale(0.11 -0.11)">
      <use xlink:href="#DejaVuSans-Oblique-2113" transform="translate(0 0.78125)"/>
      <use xlink:href="#DejaVuSans-3d" transform="translate(60.791016 0.78125)"/>
      <use xlink:href="#DejaVuSans-31" transform="translate(164.0625 0.78125)"/>
     </g>
    </g>
    <g id="line2d_27">
     <path d="M 294.15 225.034344 
L 305.15 225.034344 
L 316.15 225.034344 
" style="fill: none; stroke: #d55e00; stroke-width: 2.2; stroke-linecap: square"/>
    </g>
    <g id="text_23">
     <!-- $\ell=2$ -->
     <g transform="translate(324.95 228.884344) scale(0.11 -0.11)">
      <use xlink:href="#DejaVuSans-Oblique-2113" transform="translate(0 0.78125)"/>
      <use xlink:href="#DejaVuSans-3d" transform="translate(60.791016 0.78125)"/>
      <use xlink:href="#DejaVuSans-32" transform="translate(164.0625 0.78125)"/>
     </g>
    </g>
   </g>
  </g>
 </g>
 <defs>
  <clipPath id="p6a076c58ec">
   <rect x="64.712" y="27.96" width="377.278" height="213.112"/>
  </clipPath>
 </defs>
</svg>
