<!-- CAJAL SVG · book: quantum-mechanics-vol2 · chapter: 05-quantum-mechanics-in-three-dimensions · figure: 04
     title: Effective Potential and the Centrifugal Barrier
     type: chart · priority: Critical · generated: 2026-06-06 -->
<svg viewBox="0 0 700 420" xmlns="http://www.w3.org/2000/svg" role="img" aria-labelledby="fig-title-04">
  <title id="fig-title-04">Effective Potential and the Centrifugal Barrier (ℓ=1)</title>
  <desc>Line chart showing three curves vs. radial distance r: the attractive Coulomb potential V(r) = −1/r (ink), the centrifugal barrier ħ²ℓ(ℓ+1)/(2mr²) for ℓ=1 (gray), and the effective potential V_eff (red) which has a minimum at r=2. A horizontal dashed line marks a representative bound-state energy below zero.</desc>
  <metadata>
    <cajal:figure xmlns:cajal="https://bearbrown.ai/cajal/1.0"
      book="Quantum Mechanics: Formalism and the Three-Dimensional Atom"
      book-slug="quantum-mechanics-vol2"
      chapter="05-quantum-mechanics-in-three-dimensions"
      figure-number="04"
      figure-title="Effective Potential and the Centrifugal Barrier"
      figure-slug="effective-potential-centrifugal-barrier"
      figure-type="chart"
      priority="Critical"
      author="Humanitarians AI Incorporated"
      date-generated="2026-06-06"
      source-file="pantry/05-quantum-mechanics-in-three-dimensions-cajal.md"/>
  </metadata>

  <defs>
    <clipPath id="chartClip">
      <rect x="80" y="30" width="540" height="350"/>
    </clipPath>
  </defs>

  <rect width="700" height="420" fill="#FFFFFF"/>

  <!-- Title -->
  <text x="350" y="20" font-family="'EB Garamond','Garamond',Georgia,serif" font-size="14" font-weight="400" fill="#2a1a0e" text-anchor="middle">Effective Potential and the Centrifugal Barrier (ℓ = 1)</text>

  <!-- Chart background -->
  <rect x="80" y="30" width="540" height="350" rx="0" fill="#F5F5F5" stroke="#D4D4D4" stroke-width="0.75"/>

  <!-- Zero reference line: y=313.8 -->
  <line x1="80" y1="313.8" x2="620" y2="313.8" stroke="#D4D4D4" stroke-width="0.75"/>

  <!-- Bound-state energy reference: y=337.4 -->
  <line x1="80" y1="337.4" x2="620" y2="337.4" stroke="#D4D4D4" stroke-width="0.75" stroke-dasharray="6 3"/>

  <!-- Centrifugal barrier curve: ℓ(ℓ+1)/r² = 2/r² for ℓ=1; clips at top (gray) -->
  <polyline clip-path="url(#chartClip)" fill="none" stroke="#ADADAD" stroke-width="1.5" stroke-linejoin="round"
    points="80.0,30.0 82.7,30.0 85.4,30.0 88.1,30.0 90.8,30.0 93.5,30.0 96.2,30.0 98.9,30.0 101.6,30.0 104.3,30.0 107.0,35.8 109.7,56.5 112.4,74.9 115.1,91.5 117.8,106.3 120.5,119.8 123.2,131.9 125.9,143.0 128.6,153.1 131.3,162.3 134.0,170.7 136.7,178.5 139.4,185.6 142.1,192.2 144.8,198.3 147.5,204.0 150.2,209.2 152.9,214.1 155.6,218.6 158.3,222.9 161.0,226.8 163.7,230.5 166.4,234.0 169.1,237.3 171.8,240.3 174.5,243.2 177.2,245.9 179.9,248.5 182.6,250.9 185.3,253.2 188.0,255.4 190.7,257.4 193.4,259.4 196.1,261.2 198.8,263.0 201.5,264.7 204.2,266.2 206.9,267.8 209.6,269.2 212.3,270.6 215.0,271.9 217.7,273.1 220.4,274.3 223.1,275.5 225.8,276.6 228.5,277.7 231.2,278.7 233.9,279.7 236.6,280.7 239.3,281.6 242.0,282.5 244.7,283.4 247.4,284.2 250.1,285.0 252.8,285.8 255.5,286.5 258.2,287.2 260.9,287.9 263.6,288.6 266.3,289.3 269.0,289.9 271.7,290.5 274.4,291.1 277.1,291.7 279.8,292.2 282.5,292.8 285.2,293.3 287.9,293.8 290.6,294.3 293.3,294.7 296.0,295.2 298.7,295.6 301.4,296.1 304.1,296.5 306.8,296.9 309.5,297.3 312.2,297.7 314.9,298.1 317.6,298.4 320.3,298.8 323.0,299.1 325.7,299.5 328.4,299.8 331.1,300.1 333.8,300.4 336.5,300.7 339.2,301.0 341.9,301.3 344.6,301.6 347.3,301.9 350.0,302.1 352.7,302.4 355.4,302.6 358.1,302.9 360.8,303.2 363.5,303.4 366.2,303.6 368.9,303.9 371.6,304.1 374.3,304.3 377.0,304.5 379.7,304.7 382.4,305.0 385.1,305.2 387.8,305.4 390.5,305.6 393.2,305.7 395.9,305.9 398.6,306.1 401.3,306.3 404.0,306.5 406.7,306.6 409.4,306.8 412.1,307.0 414.8,307.1 417.5,307.3 420.2,307.4 422.9,307.6 425.6,307.7 428.3,307.9 431.0,308.0 433.7,308.2 436.4,308.3 439.1,308.5 441.8,308.6 444.5,308.7 447.2,308.9 449.9,309.0 452.6,309.1 455.3,309.3 458.0,309.4 460.7,309.5 463.4,309.6 466.1,309.7 468.8,309.9 471.5,310.0 474.2,310.1 476.9,310.2 479.6,310.3 482.3,310.4 485.0,310.5 487.7,310.6 490.4,310.7 493.1,310.8 495.8,310.9 498.5,311.0 501.2,311.1 503.9,311.2 506.6,311.3 509.3,311.4 512.0,311.5 514.7,311.6 517.4,311.7 520.1,311.7 522.8,311.8 525.5,311.9 528.2,312.0 530.9,312.1 533.6,312.2 536.3,312.2 539.0,312.3 541.7,312.4 544.4,312.5 547.1,312.5 549.8,312.6 552.5,312.7 555.2,312.7 557.9,312.8 560.6,312.9 563.3,312.9 566.0,313.0 568.7,313.1 571.4,313.1 574.1,313.2 576.8,313.2 579.5,313.3 582.2,313.4 584.9,313.4 587.6,313.5 590.3,313.5 593.0,313.6 595.7,313.6 598.4,313.7 601.1,313.8 603.8,313.8 606.5,313.8 609.2,313.9 611.9,313.9 614.6,314.0 617.3,314.0 620.0,314.1"/>

  <!-- V(r) = −1/r curve — clips to bottom at small r (ink) -->
  <!-- Only visible portion: once V > -0.35, i.e. r > 2.86 approximately -->
  <polyline clip-path="url(#chartClip)" fill="none" stroke="#2a1a0e" stroke-width="1.5" stroke-linejoin="round"
    points="80.0,380.0 82.7,380.0 85.4,380.0 88.1,380.0 90.8,380.0 93.5,380.0 96.2,380.0 98.9,380.0 101.6,380.0 104.3,380.0 107.0,380.0 109.7,380.0 112.4,380.0 115.1,380.0 117.8,380.0 120.5,380.0 123.2,380.0 125.9,380.0 128.6,380.0 131.3,380.0 134.0,380.0 136.7,380.0 139.4,380.0 142.1,380.0 144.8,380.0 147.5,380.0 150.2,380.0 152.9,380.0 155.6,380.0 158.3,380.0 161.0,380.0 163.7,380.0 166.4,380.0 169.1,380.0 171.8,380.0 174.5,380.0 177.2,380.0 179.9,380.0 182.6,380.0 185.3,380.0 188.0,380.0 190.7,380.0 193.4,380.0 196.1,380.0 198.8,380.0 201.5,380.0 204.2,380.0 206.9,380.0 209.6,380.0 212.3,380.0 215.0,380.0 217.7,380.0 220.4,380.0 223.1,380.0 225.8,380.0 228.5,380.0 231.2,380.0 233.9,380.0 236.6,380.0 239.3,380.0 242.0,380.0 244.7,380.0 247.4,380.0 250.1,380.0 252.8,380.0 255.5,380.0 258.2,380.0 260.9,380.0 263.6,380.0 266.3,380.0 269.0,380.0 271.7,380.0 274.4,380.0 277.1,379.6 279.8,378.9 282.5,378.2 285.2,377.5 287.9,376.8 290.6,376.1 293.3,375.5 296.0,374.8 298.7,374.2 301.4,373.6 304.1,373.0 306.8,372.4 309.5,371.8 312.2,371.2 314.9,370.6 317.6,370.1 320.3,369.6 323.0,369.0 325.7,368.5 328.4,368.0 331.1,367.5 333.8,367.0 336.5,366.5 339.2,366.0 341.9,365.6 344.6,365.1 347.3,364.7 350.0,364.2 352.7,363.8 355.4,363.4 358.1,363.0 360.8,362.5 363.5,362.1 366.2,361.7 368.9,361.3 371.6,361.0 374.3,360.6 377.0,360.2 379.7,359.8 382.4,359.5 385.1,359.1 387.8,358.8 390.5,358.4 393.2,358.1 395.9,357.8 398.6,357.4 401.3,357.1 404.0,356.8 406.7,356.5 409.4,356.2 412.1,355.8 414.8,355.5 417.5,355.2 420.2,355.0 422.9,354.7 425.6,354.4 428.3,354.1 431.0,353.8 433.7,353.6 436.4,353.3 439.1,353.0 441.8,352.8 444.5,352.5 447.2,352.2 449.9,352.0 452.6,351.7 455.3,351.5 458.0,351.2 460.7,351.0 463.4,350.8 466.1,350.5 468.8,350.3 471.5,350.1 474.2,349.9 476.9,349.6 479.6,349.4 482.3,349.2 485.0,349.0 487.7,348.8 490.4,348.6 493.1,348.4 495.8,348.2 498.5,347.9 501.2,347.7 503.9,347.6 506.6,347.4 509.3,347.2 512.0,347.0 514.7,346.8 517.4,346.6 520.1,346.4 522.8,346.2 525.5,346.1 528.2,345.9 530.9,345.7 533.6,345.5 536.3,345.4 539.0,345.2 541.7,345.0 544.4,344.8 547.1,344.7 549.8,344.5 552.5,344.4 555.2,344.2 557.9,344.0 560.6,343.9 563.3,343.7 566.0,343.6 568.7,343.4 571.4,343.3 574.1,343.1 576.8,343.0 579.5,342.8 582.2,342.7 584.9,342.5 587.6,342.4 590.3,342.3 593.0,342.1 595.7,342.0 598.4,341.9 601.1,341.7 603.8,341.6 606.5,341.5 609.2,341.3 611.9,341.2 614.6,341.1 617.3,340.9 620.0,340.8"/>

  <!-- V_eff curve — red, has visible minimum -->
  <polyline clip-path="url(#chartClip)" fill="none" stroke="#C8102E" stroke-width="2" stroke-linejoin="round"
    points="80.0,30.0 82.7,30.0 85.4,56.0 88.1,100.5 90.8,137.4 93.5,168.3 96.2,194.3 98.9,216.4 101.6,235.2 104.3,251.3 107.0,265.1 109.7,277.1 112.4,287.5 115.1,296.6 117.8,304.4 120.5,311.4 123.2,317.4 125.9,322.8 128.6,327.4 131.3,331.6 134.0,335.2 136.7,338.5 139.4,341.3 142.1,343.9 144.8,346.1 147.5,348.1 150.2,349.9 152.9,351.4 155.6,352.8 158.3,354.0 161.0,355.1 163.7,356.0 166.4,356.9 169.1,357.6 171.8,358.2 174.5,358.8 177.2,359.2 179.9,359.6 182.6,360.0 185.3,360.3 188.0,360.5 190.7,360.7 193.4,360.8 196.1,361.0 198.8,361.1 201.5,361.1 204.2,361.1 206.9,361.1 209.6,361.1 212.3,361.0 215.0,360.9 217.7,360.8 220.4,360.7 223.1,360.5 225.8,360.3 228.5,360.1 231.2,359.9 233.9,359.7 236.6,359.4 239.3,359.2 242.0,358.9 244.7,358.6 247.4,358.3 250.1,358.0 252.8,357.7 255.5,357.4 258.2,357.0 260.9,356.7 263.6,356.3 266.3,356.0 269.0,355.6 271.7,355.3 274.4,354.9 277.1,354.5 279.8,354.2 282.5,353.8 285.2,353.4 287.9,353.1 290.6,352.7 293.3,352.3 296.0,352.0 298.7,351.6 301.4,351.2 304.1,350.9 306.8,350.5 309.5,350.2 312.2,349.8 314.9,349.5 317.6,349.1 320.3,348.8 323.0,348.4 325.7,348.1 328.4,347.8 331.1,347.4 333.8,347.1 336.5,346.8 339.2,346.5 341.9,346.2 344.6,345.9 347.3,345.6 350.0,345.3 352.7,345.0 355.4,344.7 358.1,344.4 360.8,344.2 363.5,343.9 366.2,343.6 368.9,343.4 371.6,343.1 374.3,342.9 377.0,342.6 379.7,342.4 382.4,342.2 385.1,342.0 387.8,341.7 390.5,341.5 393.2,341.3 395.9,341.1 398.6,340.9 401.3,340.7 404.0,340.5 406.7,340.3 409.4,340.2 412.1,340.0 414.8,339.8 417.5,339.6 420.2,339.5 422.9,339.3 425.6,339.2 428.3,339.0 431.0,338.9 433.7,338.7 436.4,338.6 439.1,338.4 441.8,338.3 444.5,338.2 447.2,338.0 449.9,337.9 452.6,337.8 455.3,337.6 458.0,337.5 460.7,337.4 463.4,337.3 466.1,337.2 468.8,337.0 471.5,336.9 474.2,336.8 476.9,336.7 479.6,336.6 482.3,336.5 485.0,336.4 487.7,336.3 490.4,336.2 493.1,336.1 495.8,336.0 498.5,335.9 501.2,335.8 503.9,335.7 506.6,335.6 509.3,335.5 512.0,335.5 514.7,335.4 517.4,335.3 520.1,335.2 522.8,335.1 525.5,335.1 528.2,335.0 530.9,334.9 533.6,334.8 536.3,334.8 539.0,334.7 541.7,334.6 544.4,334.5 547.1,334.5 549.8,334.4 552.5,334.3 555.2,334.3 557.9,334.2 560.6,334.1 563.3,334.1 566.0,334.0 568.7,333.9 571.4,333.9 574.1,333.8 576.8,333.8 579.5,333.7 582.2,333.6 584.9,333.6 587.6,333.5 590.3,333.5 593.0,333.4 595.7,333.4 598.4,333.3 601.1,333.3 603.8,333.2 606.5,333.2 609.2,333.1 611.9,333.0 614.6,333.0 617.3,332.9 620.0,332.9"/>

  <!-- Minimum marker at r=2 (x=204.6, y=361.1 ≈ V_eff min) -->
  <circle cx="204.6" cy="361.1" r="5" fill="#C8102E"/>

  <!-- Axes -->
  <line x1="80" y1="380" x2="620" y2="380" stroke="#545454" stroke-width="0.75"/>
  <line x1="80" y1="380" x2="80" y2="30" stroke="#545454" stroke-width="0.75"/>

  <!-- x-axis ticks: r=1,2,3,4,5,6 -->
  <!-- r=1: x=80+540*(1-0.5)/6.5=80+41.5=121.5; r=2: x=80+540*(1.5/6.5)=204.6; etc -->
  <!-- Actually r2x(r) = 80 + 540*(r-0.5)/6.5 -->
  <line x1="121.5" y1="378" x2="121.5" y2="382" stroke="#545454" stroke-width="0.75"/>
  <text x="121.5" y="393" font-family="'JetBrains Mono','Fira Code','Courier New',monospace" font-size="11" fill="#545454" text-anchor="middle">1</text>
  <line x1="204.6" y1="378" x2="204.6" y2="382" stroke="#545454" stroke-width="0.75"/>
  <text x="204.6" y="393" font-family="'JetBrains Mono','Fira Code','Courier New',monospace" font-size="11" fill="#545454" text-anchor="middle">2</text>
  <line x1="287.8" y1="378" x2="287.8" y2="382" stroke="#545454" stroke-width="0.75"/>
  <text x="287.8" y="393" font-family="'JetBrains Mono','Fira Code','Courier New',monospace" font-size="11" fill="#545454" text-anchor="middle">3</text>
  <line x1="370.9" y1="378" x2="370.9" y2="382" stroke="#545454" stroke-width="0.75"/>
  <text x="370.9" y="393" font-family="'JetBrains Mono','Fira Code','Courier New',monospace" font-size="11" fill="#545454" text-anchor="middle">4</text>
  <line x1="454.1" y1="378" x2="454.1" y2="382" stroke="#545454" stroke-width="0.75"/>
  <text x="454.1" y="393" font-family="'JetBrains Mono','Fira Code','Courier New',monospace" font-size="11" fill="#545454" text-anchor="middle">5</text>
  <line x1="537.2" y1="378" x2="537.2" y2="382" stroke="#545454" stroke-width="0.75"/>
  <text x="537.2" y="393" font-family="'JetBrains Mono','Fira Code','Courier New',monospace" font-size="11" fill="#545454" text-anchor="middle">6</text>
  <text x="620" y="393" font-family="'JetBrains Mono','Fira Code','Courier New',monospace" font-size="11" fill="#545454" text-anchor="middle">r</text>

  <!-- y-axis ticks: V=0 (y=313.8) -->
  <line x1="78" y1="313.8" x2="82" y2="313.8" stroke="#545454" stroke-width="0.75"/>
  <text x="72" y="317.8" font-family="'JetBrains Mono','Fira Code','Courier New',monospace" font-size="11" fill="#545454" text-anchor="end">0</text>
  <!-- V=-0.25 (y=361.1) -->
  <line x1="78" y1="361.1" x2="82" y2="361.1" stroke="#545454" stroke-width="0.75"/>
  <text x="72" y="365.1" font-family="'JetBrains Mono','Fira Code','Courier New',monospace" font-size="11" fill="#545454" text-anchor="end">−¼</text>
  <!-- V axis label -->
  <text x="30" y="205" font-family="'Inter',-apple-system,'Helvetica Neue',sans-serif" font-size="12" fill="#2a1a0e" text-anchor="middle" transform="rotate(-90,30,205)">potential energy V</text>
  <text x="350" y="410" font-family="'Inter',-apple-system,'Helvetica Neue',sans-serif" font-size="12" fill="#2a1a0e" text-anchor="middle">radial distance r (arbitrary units)</text>

  <!-- Bound state energy label -->
  <text x="630" y="341" font-family="'Inter',-apple-system,'Helvetica Neue',sans-serif" font-size="10" fill="#545454">E_bound</text>

  <!-- Zero line label -->
  <text x="630" y="310" font-family="'JetBrains Mono','Fira Code','Courier New',monospace" font-size="11" fill="#545454">V=0</text>

  <!-- Minimum annotation -->
  <text x="215" y="356" font-family="'Inter',-apple-system,'Helvetica Neue',sans-serif" font-size="10" fill="#C8102E">min at r=2</text>

  <!-- Legend -->
  <rect x="440" y="42" width="176" height="72" rx="0" fill="#FFFFFF" stroke="#D4D4D4" stroke-width="0.75"/>
  <line x1="452" y1="60" x2="476" y2="60" stroke="#2a1a0e" stroke-width="1.5"/>
  <text x="484" y="64" font-family="'Inter',-apple-system,'Helvetica Neue',sans-serif" font-size="11" fill="#2a1a0e">V(r) = −1/r</text>
  <line x1="452" y1="80" x2="476" y2="80" stroke="#ADADAD" stroke-width="1.5"/>
  <text x="484" y="84" font-family="'Inter',-apple-system,'Helvetica Neue',sans-serif" font-size="11" fill="#545454">centrifugal (ℓ=1)</text>
  <line x1="452" y1="100" x2="476" y2="100" stroke="#C8102E" stroke-width="2"/>
  <text x="484" y="104" font-family="'Inter',-apple-system,'Helvetica Neue',sans-serif" font-size="11" fill="#C8102E">V_eff = V + barrier</text>
</svg>
