<?xml version="1.0" encoding="utf-8" standalone="no"?>
<!DOCTYPE svg PUBLIC "-//W3C//DTD SVG 1.1//EN"
  "http://www.w3.org/Graphics/SVG/1.1/DTD/svg11.dtd">
<svg xmlns:xlink="http://www.w3.org/1999/xlink" width="460.8pt" height="288pt" viewBox="0 0 460.8 288" xmlns="http://www.w3.org/2000/svg" version="1.1">
 <metadata>
  <rdf:RDF xmlns:dc="http://purl.org/dc/elements/1.1/" xmlns:cc="http://creativecommons.org/ns#" xmlns:rdf="http://www.w3.org/1999/02/22-rdf-syntax-ns#">
   <cc:Work>
    <dc:type rdf:resource="http://purl.org/dc/dcmitype/StillImage"/>
    <dc:date>2026-06-04T06:14:23.313583</dc:date>
    <dc:format>image/svg+xml</dc:format>
    <dc:creator>
     <cc:Agent>
      <dc:title>Matplotlib v3.10.8, https://matplotlib.org/</dc:title>
     </cc:Agent>
    </dc:creator>
   </cc:Work>
  </rdf:RDF>
 </metadata>
 <defs>
  <style type="text/css">*{stroke-linejoin: round; stroke-linecap: butt}</style>
 </defs>
 <g id="figure_1">
  <g id="patch_1">
   <path d="M 0 288 
L 460.8 288 
L 460.8 0 
L 0 0 
z
" style="fill: #ffffff"/>
  </g>
  <g id="axes_1">
   <g id="patch_2">
    <path d="M 57.044 241.072 
L 445.41 241.072 
L 445.41 27.96 
L 57.044 27.96 
z
" style="fill: #ffffff"/>
   </g>
   <g id="FillBetweenPolyCollection_1">
    <defs>
     <path id="m23337bdf9e" d="M 121.966044 -46.928 
L 121.966044 -249.89181 
L 122.354799 -249.877262 
L 122.743554 -249.848335 
L 123.132308 -249.805206 
L 123.521063 -249.748048 
L 123.909818 -249.677039 
L 124.298573 -249.592353 
L 124.687327 -249.494165 
L 125.076082 -249.38265 
L 125.464837 -249.257983 
L 125.853592 -249.120336 
L 126.242346 -248.969885 
L 126.631101 -248.806802 
L 127.019856 -248.63126 
L 127.408611 -248.44343 
L 127.797365 -248.243485 
L 128.18612 -248.031595 
L 128.574875 -247.807931 
L 128.96363 -247.572662 
L 129.352384 -247.325958 
L 129.741139 -247.067986 
L 130.129894 -246.798915 
L 130.518649 -246.518911 
L 130.907403 -246.22814 
L 131.296158 -245.926767 
L 131.684913 -245.614957 
L 132.073668 -245.292873 
L 132.462422 -244.960677 
L 132.851177 -244.618533 
L 133.239932 -244.266599 
L 133.628687 -243.905037 
L 134.017441 -243.534005 
L 134.406196 -243.15366 
L 134.794951 -242.764161 
L 135.183706 -242.365663 
L 135.57246 -241.95832 
L 135.961215 -241.542287 
L 136.34997 -241.117717 
L 136.738725 -240.684761 
L 137.127479 -240.24357 
L 137.516234 -239.794293 
L 137.904989 -239.337079 
L 138.293744 -238.872076 
L 138.682498 -238.39943 
L 139.071253 -237.919285 
L 139.460008 -237.431786 
L 139.848763 -236.937076 
L 140.237518 -236.435296 
L 140.626272 -235.926587 
L 141.015027 -235.411089 
L 141.403782 -234.888938 
L 141.792537 -234.360274 
L 142.181291 -233.82523 
L 142.570046 -233.283943 
L 142.958801 -232.736545 
L 143.347556 -232.183168 
L 143.73631 -231.623945 
L 144.125065 -231.059003 
L 144.51382 -230.488473 
L 144.902575 -229.912482 
L 145.291329 -229.331155 
L 145.680084 -228.744618 
L 146.068839 -228.152994 
L 146.457594 -227.556407 
L 146.846348 -226.954977 
L 147.235103 -226.348825 
L 147.623858 -225.738069 
L 148.012613 -225.122827 
L 148.401367 -224.503216 
L 148.790122 -223.879351 
L 149.178877 -223.251346 
L 149.567632 -222.619314 
L 149.956386 -221.983366 
L 150.345141 -221.343613 
L 150.733896 -220.700164 
L 151.122651 -220.053127 
L 151.511405 -219.402609 
L 151.90016 -218.748716 
L 152.288915 -218.091552 
L 152.67767 -217.43122 
L 153.066424 -216.767823 
L 153.455179 -216.10146 
L 153.843934 -215.432232 
L 154.232689 -214.760238 
L 154.621443 -214.085575 
L 155.010198 -213.408338 
L 155.398953 -212.728624 
L 155.787708 -212.046525 
L 156.176462 -211.362135 
L 156.565217 -210.675545 
L 156.953972 -209.986845 
L 157.342727 -209.296125 
L 157.731481 -208.603474 
L 158.120236 -207.908977 
L 158.508991 -207.212722 
L 158.897746 -206.514792 
L 159.286501 -205.815272 
L 159.675255 -205.114244 
L 160.06401 -204.41179 
L 160.452765 -203.707991 
L 160.84152 -203.002924 
L 161.230274 -202.29667 
L 161.619029 -201.589305 
L 162.007784 -200.880905 
L 162.396539 -200.171545 
L 162.785293 -199.4613 
L 163.174048 -198.750242 
L 163.562803 -198.038444 
L 163.951558 -197.325977 
L 164.340312 -196.61291 
L 164.729067 -195.899312 
L 165.117822 -195.185252 
L 165.506577 -194.470796 
L 165.895331 -193.756011 
L 166.284086 -193.040961 
L 166.672841 -192.325711 
L 167.061596 -191.610323 
L 167.45035 -190.89486 
L 167.839105 -190.179382 
L 168.22786 -189.463951 
L 168.616615 -188.748624 
L 169.005369 -188.033462 
L 169.394124 -187.31852 
L 169.782879 -186.603857 
L 170.171634 -185.889526 
L 170.560388 -185.175584 
L 170.949143 -184.462083 
L 171.337898 -183.749078 
L 171.726653 -183.036619 
L 172.115407 -182.324758 
L 172.504162 -181.613546 
L 172.892917 -180.903033 
L 173.281672 -180.193266 
L 173.670426 -179.484294 
L 174.059181 -178.776163 
L 174.447936 -178.06892 
L 174.836691 -177.362611 
L 175.225445 -176.65728 
L 175.6142 -175.952971 
L 176.002955 -175.249726 
L 176.39171 -174.547588 
L 176.780464 -173.8466 
L 177.169219 -173.1468 
L 177.557974 -172.44823 
L 177.946729 -171.750928 
L 178.335483 -171.054933 
L 178.724238 -170.360283 
L 179.112993 -169.667014 
L 179.501748 -168.975164 
L 179.890503 -168.284767 
L 180.279257 -167.595859 
L 180.668012 -166.908474 
L 181.056767 -166.222645 
L 181.445522 -165.538405 
L 181.834276 -164.855786 
L 182.223031 -164.17482 
L 182.611786 -163.495538 
L 183.000541 -162.81797 
L 183.389295 -162.142145 
L 183.77805 -161.468092 
L 184.166805 -160.79584 
L 184.55556 -160.125416 
L 184.944314 -159.456848 
L 185.333069 -158.790161 
L 185.721824 -158.125382 
L 186.110579 -157.462536 
L 186.499333 -156.801647 
L 186.888088 -156.14274 
L 187.276843 -155.485839 
L 187.665598 -154.830965 
L 188.054352 -154.178142 
L 188.443107 -153.527391 
L 188.831862 -152.878734 
L 189.220617 -152.232191 
L 189.609371 -151.587783 
L 189.998126 -150.945529 
L 190.386881 -150.305449 
L 190.775636 -149.667561 
L 191.16439 -149.031883 
L 191.553145 -148.398433 
L 191.9419 -147.767229 
L 192.330655 -147.138287 
L 192.719409 -146.511622 
L 193.108164 -145.887252 
L 193.496919 -145.265191 
L 193.885674 -144.645454 
L 194.274428 -144.028055 
L 194.663183 -143.413008 
L 195.051938 -142.800327 
L 195.440693 -142.190025 
L 195.829447 -141.582114 
L 196.218202 -140.976606 
L 196.606957 -140.373514 
L 196.995712 -139.772849 
L 197.384466 -139.17462 
L 197.773221 -138.57884 
L 198.161976 -137.985518 
L 198.550731 -137.394664 
L 198.939485 -136.806287 
L 199.32824 -136.220396 
L 199.716995 -135.637 
L 200.10575 -135.056107 
L 200.494505 -134.477725 
L 200.883259 -133.901862 
L 201.272014 -133.328524 
L 201.660769 -132.757718 
L 202.049524 -132.189451 
L 202.438278 -131.623728 
L 202.827033 -131.060557 
L 203.215788 -130.499942 
L 203.604543 -129.941887 
L 203.993297 -129.386399 
L 204.382052 -128.833482 
L 204.770807 -128.283139 
L 205.159562 -127.735375 
L 205.548316 -127.190194 
L 205.937071 -126.647597 
L 206.325826 -126.10759 
L 206.714581 -125.570173 
L 207.103335 -125.03535 
L 207.49209 -124.503124 
L 207.880845 -123.973494 
L 208.2696 -123.446465 
L 208.658354 -122.922036 
L 209.047109 -122.400209 
L 209.435864 -121.880984 
L 209.824619 -121.364363 
L 210.213373 -120.850345 
L 210.602128 -120.338931 
L 210.990883 -119.830121 
L 211.379638 -119.323914 
L 211.768392 -118.820309 
L 212.157147 -118.319307 
L 212.545902 -117.820905 
L 212.934657 -117.325102 
L 213.323411 -116.831898 
L 213.712166 -116.34129 
L 214.100921 -115.853277 
L 214.489676 -115.367855 
L 214.87843 -114.885024 
L 215.267185 -114.404781 
L 215.65594 -113.927122 
L 216.044695 -113.452045 
L 216.433449 -112.979548 
L 216.822204 -112.509626 
L 217.210959 -112.042276 
L 217.599714 -111.577495 
L 217.988468 -111.115279 
L 218.377223 -110.655624 
L 218.765978 -110.198526 
L 219.154733 -109.74398 
L 219.543487 -109.291983 
L 219.932242 -108.842529 
L 220.320997 -108.395615 
L 220.709752 -107.951234 
L 221.098507 -107.509382 
L 221.487261 -107.070055 
L 221.876016 -106.633246 
L 222.264771 -106.19895 
L 222.653526 -105.767161 
L 223.04228 -105.337875 
L 223.431035 -104.911084 
L 223.81979 -104.486784 
L 224.208545 -104.064967 
L 224.597299 -103.645628 
L 224.986054 -103.228761 
L 225.374809 -102.814359 
L 225.763564 -102.402415 
L 226.152318 -101.992923 
L 226.541073 -101.585876 
L 226.929828 -101.181267 
L 227.318583 -100.779089 
L 227.707337 -100.379335 
L 228.096092 -99.981999 
L 228.484847 -99.587071 
L 228.873602 -99.194547 
L 229.262356 -98.804417 
L 229.651111 -98.416674 
L 230.039866 -98.031311 
L 230.428621 -97.64832 
L 230.817375 -97.267693 
L 231.20613 -96.889422 
L 231.594885 -96.5135 
L 231.98364 -96.139918 
L 232.372394 -95.768668 
L 232.761149 -95.399742 
L 233.149904 -95.033132 
L 233.538659 -94.66883 
L 233.927413 -94.306827 
L 234.316168 -93.947114 
L 234.704923 -93.589684 
L 235.093678 -93.234527 
L 235.482432 -92.881636 
L 235.871187 -92.531001 
L 236.259942 -92.182613 
L 236.648697 -91.836465 
L 237.037451 -91.492546 
L 237.426206 -91.150849 
L 237.814961 -90.811364 
L 238.203716 -90.474082 
L 238.59247 -90.138995 
L 238.981225 -89.806093 
L 239.36998 -89.475367 
L 239.758735 -89.146808 
L 240.147489 -88.820407 
L 240.536244 -88.496155 
L 240.924999 -88.174042 
L 241.313754 -87.85406 
L 241.702509 -87.536198 
L 242.091263 -87.220448 
L 242.480018 -86.9068 
L 242.868773 -86.595245 
L 243.257528 -86.285774 
L 243.646282 -85.978376 
L 244.035037 -85.673043 
L 244.423792 -85.369765 
L 244.812547 -85.068533 
L 245.201301 -84.769337 
L 245.590056 -84.472167 
L 245.978811 -84.177014 
L 246.367566 -83.883869 
L 246.75632 -83.592721 
L 247.145075 -83.303562 
L 247.53383 -83.016381 
L 247.922585 -82.73117 
L 248.311339 -82.447917 
L 248.700094 -82.166615 
L 249.088849 -81.887252 
L 249.477604 -81.609821 
L 249.866358 -81.334309 
L 250.255113 -81.06071 
L 250.643868 -80.789011 
L 251.032623 -80.519205 
L 251.421377 -80.25128 
L 251.810132 -79.985228 
L 252.198887 -79.721039 
L 252.587642 -79.458703 
L 252.976396 -79.198211 
L 253.365151 -78.939553 
L 253.753906 -78.682718 
L 254.142661 -78.427699 
L 254.531415 -78.174484 
L 254.92017 -77.923065 
L 255.308925 -77.673431 
L 255.69768 -77.425573 
L 256.086434 -77.179482 
L 256.475189 -76.935147 
L 256.863944 -76.69256 
L 257.252699 -76.45171 
L 257.641453 -76.212589 
L 258.030208 -75.975186 
L 258.418963 -75.739492 
L 258.807718 -75.505497 
L 259.196472 -75.273193 
L 259.585227 -75.042568 
L 259.973982 -74.813615 
L 260.362737 -74.586323 
L 260.751491 -74.360684 
L 261.140246 -74.136687 
L 261.529001 -73.914323 
L 261.917756 -73.693583 
L 262.306511 -73.474457 
L 262.695265 -73.256936 
L 263.08402 -73.041011 
L 263.472775 -72.826673 
L 263.86153 -72.613912 
L 264.250284 -72.402718 
L 264.639039 -72.193083 
L 265.027794 -71.984998 
L 265.416549 -71.778452 
L 265.805303 -71.573438 
L 266.194058 -71.369945 
L 266.582813 -71.167965 
L 266.971568 -70.967489 
L 267.360322 -70.768507 
L 267.749077 -70.571011 
L 268.137832 -70.374991 
L 268.526587 -70.180439 
L 268.915341 -69.987345 
L 269.304096 -69.795701 
L 269.692851 -69.605497 
L 270.081606 -69.416725 
L 270.47036 -69.229375 
L 270.859115 -69.04344 
L 271.24787 -68.85891 
L 271.636625 -68.675777 
L 272.025379 -68.494031 
L 272.414134 -68.313664 
L 272.802889 -68.134667 
L 273.191644 -67.957032 
L 273.580398 -67.78075 
L 273.969153 -67.605813 
L 274.357908 -67.432211 
L 274.746663 -67.259937 
L 275.135417 -67.088982 
L 275.524172 -66.919337 
L 275.912927 -66.750994 
L 276.301682 -66.583944 
L 276.690436 -66.41818 
L 277.079191 -66.253692 
L 277.467946 -66.090474 
L 277.856701 -65.928515 
L 278.245455 -65.767808 
L 278.63421 -65.608346 
L 279.022965 -65.450119 
L 279.41172 -65.293119 
L 279.800474 -65.137339 
L 280.189229 -64.982771 
L 280.577984 -64.829406 
L 280.966739 -64.677236 
L 281.355493 -64.526254 
L 281.744248 -64.376451 
L 282.133003 -64.227819 
L 282.521758 -64.080352 
L 282.910513 -63.93404 
L 283.299267 -63.788877 
L 283.688022 -63.644854 
L 284.076777 -63.501964 
L 284.465532 -63.360199 
L 284.854286 -63.219551 
L 285.243041 -63.080012 
L 285.631796 -62.941577 
L 286.020551 -62.804235 
L 286.409305 -62.667981 
L 286.79806 -62.532807 
L 287.186815 -62.398705 
L 287.57557 -62.265668 
L 287.964324 -62.133688 
L 288.353079 -62.002759 
L 288.741834 -61.872872 
L 289.130589 -61.744021 
L 289.519343 -61.616199 
L 289.908098 -61.489398 
L 290.296853 -61.363611 
L 290.685608 -61.238832 
L 291.074362 -61.115052 
L 291.463117 -60.992265 
L 291.851872 -60.870465 
L 292.240627 -60.749643 
L 292.629381 -60.629794 
L 293.018136 -60.51091 
L 293.406891 -60.392984 
L 293.795646 -60.27601 
L 294.1844 -60.15998 
L 294.573155 -60.044889 
L 294.96191 -59.930729 
L 295.350665 -59.817494 
L 295.739419 -59.705177 
L 296.128174 -59.593772 
L 296.516929 -59.483271 
L 296.905684 -59.373669 
L 297.294438 -59.264959 
L 297.683193 -59.157134 
L 298.071948 -59.050189 
L 298.460703 -58.944116 
L 298.849457 -58.83891 
L 299.238212 -58.734564 
L 299.626967 -58.631071 
L 300.015722 -58.528426 
L 300.404476 -58.426623 
L 300.793231 -58.325655 
L 301.181986 -58.225516 
L 301.570741 -58.1262 
L 301.959495 -58.027701 
L 302.34825 -57.930013 
L 302.737005 -57.833129 
L 303.12576 -57.737045 
L 303.514515 -57.641754 
L 303.903269 -57.54725 
L 304.292024 -57.453528 
L 304.680779 -57.360581 
L 305.069534 -57.268404 
L 305.458288 -57.176991 
L 305.847043 -57.086337 
L 306.235798 -56.996435 
L 306.624553 -56.90728 
L 307.013307 -56.818867 
L 307.402062 -56.731189 
L 307.790817 -56.644242 
L 308.179572 -56.55802 
L 308.568326 -56.472517 
L 308.957081 -56.387728 
L 309.345836 -56.303648 
L 309.734591 -56.220271 
L 310.123345 -56.137592 
L 310.5121 -56.055605 
L 310.900855 -55.974306 
L 311.28961 -55.893689 
L 311.678364 -55.813748 
L 312.067119 -55.73448 
L 312.455874 -55.655877 
L 312.844629 -55.577937 
L 313.233383 -55.500653 
L 313.622138 -55.42402 
L 314.010893 -55.348033 
L 314.399648 -55.272688 
L 314.788402 -55.19798 
L 315.177157 -55.123903 
L 315.565912 -55.050453 
L 315.954667 -54.977624 
L 316.343421 -54.905413 
L 316.732176 -54.833814 
L 317.120931 -54.762822 
L 317.509686 -54.692433 
L 317.89844 -54.622642 
L 318.287195 -54.553445 
L 318.67595 -54.484836 
L 319.064705 -54.416812 
L 319.453459 -54.349368 
L 319.842214 -54.282498 
L 320.230969 -54.216199 
L 320.619724 -54.150466 
L 321.008478 -54.085295 
L 321.397233 -54.020682 
L 321.785988 -53.956621 
L 322.174743 -53.893109 
L 322.563497 -53.830141 
L 322.952252 -53.767712 
L 323.341007 -53.70582 
L 323.729762 -53.644459 
L 324.118517 -53.583625 
L 324.507271 -53.523315 
L 324.896026 -53.463523 
L 325.284781 -53.404246 
L 325.673536 -53.345479 
L 326.06229 -53.28722 
L 326.451045 -53.229462 
L 326.8398 -53.172204 
L 327.228555 -53.11544 
L 327.617309 -53.059167 
L 328.006064 -53.00338 
L 328.394819 -52.948076 
L 328.783574 -52.893251 
L 329.172328 -52.838901 
L 329.561083 -52.785023 
L 329.949838 -52.731612 
L 330.338593 -52.678664 
L 330.727347 -52.626177 
L 331.116102 -52.574146 
L 331.504857 -52.522568 
L 331.893612 -52.471438 
L 332.282366 -52.420754 
L 332.671121 -52.370511 
L 333.059876 -52.320707 
L 333.448631 -52.271337 
L 333.837385 -52.222398 
L 334.22614 -52.173887 
L 334.614895 -52.1258 
L 335.00365 -52.078133 
L 335.392404 -52.030884 
L 335.781159 -51.984048 
L 336.169914 -51.937623 
L 336.558669 -51.891604 
L 336.947423 -51.84599 
L 337.336178 -51.800775 
L 337.724933 -51.755958 
L 338.113688 -51.711535 
L 338.502442 -51.667502 
L 338.891197 -51.623857 
L 339.279952 -51.580596 
L 339.668707 -51.537716 
L 340.057461 -51.495214 
L 340.446216 -51.453087 
L 340.834971 -51.411331 
L 341.223726 -51.369944 
L 341.61248 -51.328923 
L 342.001235 -51.288264 
L 342.38999 -51.247965 
L 342.778745 -51.208022 
L 343.167499 -51.168433 
L 343.556254 -51.129195 
L 343.945009 -51.090304 
L 344.333764 -51.051759 
L 344.722519 -51.013555 
L 345.111273 -50.97569 
L 345.500028 -50.938162 
L 345.888783 -50.900967 
L 346.277538 -50.864103 
L 346.666292 -50.827567 
L 347.055047 -50.791356 
L 347.443802 -50.755468 
L 347.832557 -50.719899 
L 348.221311 -50.684648 
L 348.610066 -50.649711 
L 348.998821 -50.615086 
L 349.387576 -50.58077 
L 349.77633 -50.54676 
L 350.165085 -50.513055 
L 350.55384 -50.479651 
L 350.942595 -50.446546 
L 351.331349 -50.413737 
L 351.720104 -50.381222 
L 352.108859 -50.348999 
L 352.497614 -50.317064 
L 352.886368 -50.285416 
L 353.275123 -50.254052 
L 353.663878 -50.22297 
L 354.052633 -50.192167 
L 354.441387 -50.16164 
L 354.830142 -50.131389 
L 355.218897 -50.101409 
L 355.607652 -50.0717 
L 355.996406 -50.042258 
L 356.385161 -50.013081 
L 356.773916 -49.984167 
L 357.162671 -49.955514 
L 357.551425 -49.92712 
L 357.94018 -49.898982 
L 358.328935 -49.871098 
L 358.71769 -49.843466 
L 359.106444 -49.816084 
L 359.495199 -49.78895 
L 359.883954 -49.762061 
L 360.272709 -49.735416 
L 360.661463 -49.709012 
L 361.050218 -49.682848 
L 361.438973 -49.65692 
L 361.827728 -49.631228 
L 362.216482 -49.605769 
L 362.605237 -49.580541 
L 362.993992 -49.555543 
L 363.382747 -49.530771 
L 363.771502 -49.506225 
L 364.160256 -49.481902 
L 364.549011 -49.457801 
L 364.937766 -49.433919 
L 365.326521 -49.410254 
L 365.715275 -49.386805 
L 366.10403 -49.36357 
L 366.492785 -49.340547 
L 366.88154 -49.317733 
L 367.270294 -49.295129 
L 367.659049 -49.27273 
L 368.047804 -49.250537 
L 368.436559 -49.228546 
L 368.825313 -49.206756 
L 369.214068 -49.185166 
L 369.602823 -49.163773 
L 369.991578 -49.142576 
L 370.380332 -49.121573 
L 370.769087 -49.100763 
L 371.157842 -49.080144 
L 371.546597 -49.059714 
L 371.935351 -49.039471 
L 372.324106 -49.019414 
L 372.712861 -48.999541 
L 373.101616 -48.979851 
L 373.49037 -48.960342 
L 373.879125 -48.941013 
L 374.26788 -48.921861 
L 374.656635 -48.902886 
L 375.045389 -48.884085 
L 375.434144 -48.865457 
L 375.822899 -48.847001 
L 376.211654 -48.828716 
L 376.600408 -48.810598 
L 376.989163 -48.792649 
L 377.377918 -48.774864 
L 377.766673 -48.757244 
L 378.155427 -48.739787 
L 378.544182 -48.722491 
L 378.932937 -48.705355 
L 379.321692 -48.688378 
L 379.710446 -48.671557 
L 380.099201 -48.654893 
L 380.487956 -48.638382 
L 380.876711 -48.622025 
L 381.265465 -48.605819 
L 381.65422 -48.589764 
L 382.042975 -48.573857 
L 382.43173 -48.558098 
L 382.820484 -48.542485 
L 383.209239 -48.527018 
L 383.597994 -48.511693 
L 383.986749 -48.496512 
L 384.375504 -48.481471 
L 384.764258 -48.466571 
L 385.153013 -48.451809 
L 385.541768 -48.437184 
L 385.930523 -48.422696 
L 386.319277 -48.408342 
L 386.708032 -48.394122 
L 387.096787 -48.380035 
L 387.485542 -48.36608 
L 387.874296 -48.352254 
L 388.263051 -48.338557 
L 388.651806 -48.324989 
L 389.040561 -48.311547 
L 389.429315 -48.29823 
L 389.81807 -48.285038 
L 390.206825 -48.27197 
L 390.59558 -48.259023 
L 390.984334 -48.246198 
L 391.373089 -48.233493 
L 391.761844 -48.220906 
L 392.150599 -48.208438 
L 392.539353 -48.196087 
L 392.928108 -48.183851 
L 393.316863 -48.17173 
L 393.705618 -48.159722 
L 394.094372 -48.147828 
L 394.483127 -48.136045 
L 394.871882 -48.124372 
L 395.260637 -48.11281 
L 395.649391 -48.101355 
L 396.038146 -48.090009 
L 396.426901 -48.078769 
L 396.815656 -48.067635 
L 397.20441 -48.056606 
L 397.593165 -48.045681 
L 397.98192 -48.034858 
L 398.370675 -48.024138 
L 398.759429 -48.013518 
L 399.148184 -48.002999 
L 399.536939 -47.992578 
L 399.925694 -47.982256 
L 400.314448 -47.972032 
L 400.703203 -47.961904 
L 401.091958 -47.951871 
L 401.480713 -47.941934 
L 401.869467 -47.93209 
L 402.258222 -47.922339 
L 402.646977 -47.91268 
L 403.035732 -47.903113 
L 403.424486 -47.893637 
L 403.813241 -47.88425 
L 404.201996 -47.874951 
L 404.590751 -47.865741 
L 404.979506 -47.856619 
L 405.36826 -47.847582 
L 405.757015 -47.838631 
L 406.14577 -47.829766 
L 406.534525 -47.820984 
L 406.923279 -47.812286 
L 407.312034 -47.80367 
L 407.700789 -47.795136 
L 408.089544 -47.786683 
L 408.478298 -47.77831 
L 408.867053 -47.770017 
L 409.255808 -47.761803 
L 409.644563 -47.753667 
L 410.033317 -47.745608 
L 410.422072 -47.737626 
L 410.810827 -47.72972 
L 411.199582 -47.721889 
L 411.588336 -47.714133 
L 411.977091 -47.706451 
L 412.365846 -47.698842 
L 412.754601 -47.691306 
L 413.143355 -47.683841 
L 413.53211 -47.676448 
L 413.920865 -47.669125 
L 414.30962 -47.661872 
L 414.698374 -47.654688 
L 415.087129 -47.647573 
L 415.475884 -47.640526 
L 415.864639 -47.633547 
L 416.253393 -47.626634 
L 416.642148 -47.619787 
L 417.030903 -47.613005 
L 417.419658 -47.606289 
L 417.808412 -47.599637 
L 418.197167 -47.593048 
L 418.585922 -47.586523 
L 418.974677 -47.58006 
L 419.363431 -47.573659 
L 419.752186 -47.56732 
L 420.140941 -47.561041 
L 420.529696 -47.554822 
L 420.91845 -47.548663 
L 421.307205 -47.542564 
L 421.69596 -47.536523 
L 422.084715 -47.530539 
L 422.473469 -47.524614 
L 422.862224 -47.518745 
L 423.250979 -47.512933 
L 423.639734 -47.507176 
L 424.028488 -47.501475 
L 424.417243 -47.495829 
L 424.805998 -47.490237 
L 425.194753 -47.484699 
L 425.583508 -47.479214 
L 425.972262 -47.473782 
L 426.361017 -47.468402 
L 426.749772 -47.463075 
L 427.138527 -47.457798 
L 427.527281 -47.452573 
L 427.916036 -47.447397 
L 428.304791 -47.442272 
L 428.693546 -47.437196 
L 429.0823 -47.43217 
L 429.471055 -47.427191 
L 429.85981 -47.422261 
L 430.248565 -47.417379 
L 430.637319 -47.412543 
L 431.026074 -47.407755 
L 431.414829 -47.403012 
L 431.803584 -47.398316 
L 432.192338 -47.393665 
L 432.581093 -47.389059 
L 432.969848 -47.384497 
L 433.358603 -47.37998 
L 433.747357 -47.375506 
L 434.136112 -47.371076 
L 434.524867 -47.366689 
L 434.913622 -47.362344 
L 435.302376 -47.358042 
L 435.691131 -47.353781 
L 436.079886 -47.349561 
L 436.468641 -47.345382 
L 436.857395 -47.341244 
L 437.24615 -47.337146 
L 437.634905 -47.333088 
L 438.02366 -47.329069 
L 438.412414 -47.32509 
L 438.801169 -47.321149 
L 439.189924 -47.317246 
L 439.578679 -47.313381 
L 439.967433 -47.309554 
L 440.356188 -47.305764 
L 440.744943 -47.302011 
L 441.133698 -47.298295 
L 441.522452 -47.294614 
L 441.911207 -47.29097 
L 442.299962 -47.287361 
L 442.688717 -47.283787 
L 443.077471 -47.280248 
L 443.466226 -47.276743 
L 443.854981 -47.273273 
L 444.243736 -47.269836 
L 444.63249 -47.266433 
L 445.021245 -47.263063 
L 445.41 -47.259727 
L 445.41 -46.928 
L 445.41 -46.928 
L 445.021245 -46.928 
L 444.63249 -46.928 
L 444.243736 -46.928 
L 443.854981 -46.928 
L 443.466226 -46.928 
L 443.077471 -46.928 
L 442.688717 -46.928 
L 442.299962 -46.928 
L 441.911207 -46.928 
L 441.522452 -46.928 
L 441.133698 -46.928 
L 440.744943 -46.928 
L 440.356188 -46.928 
L 439.967433 -46.928 
L 439.578679 -46.928 
L 439.189924 -46.928 
L 438.801169 -46.928 
L 438.412414 -46.928 
L 438.02366 -46.928 
L 437.634905 -46.928 
L 437.24615 -46.928 
L 436.857395 -46.928 
L 436.468641 -46.928 
L 436.079886 -46.928 
L 435.691131 -46.928 
L 435.302376 -46.928 
L 434.913622 -46.928 
L 434.524867 -46.928 
L 434.136112 -46.928 
L 433.747357 -46.928 
L 433.358603 -46.928 
L 432.969848 -46.928 
L 432.581093 -46.928 
L 432.192338 -46.928 
L 431.803584 -46.928 
L 431.414829 -46.928 
L 431.026074 -46.928 
L 430.637319 -46.928 
L 430.248565 -46.928 
L 429.85981 -46.928 
L 429.471055 -46.928 
L 429.0823 -46.928 
L 428.693546 -46.928 
L 428.304791 -46.928 
L 427.916036 -46.928 
L 427.527281 -46.928 
L 427.138527 -46.928 
L 426.749772 -46.928 
L 426.361017 -46.928 
L 425.972262 -46.928 
L 425.583508 -46.928 
L 425.194753 -46.928 
L 424.805998 -46.928 
L 424.417243 -46.928 
L 424.028488 -46.928 
L 423.639734 -46.928 
L 423.250979 -46.928 
L 422.862224 -46.928 
L 422.473469 -46.928 
L 422.084715 -46.928 
L 421.69596 -46.928 
L 421.307205 -46.928 
L 420.91845 -46.928 
L 420.529696 -46.928 
L 420.140941 -46.928 
L 419.752186 -46.928 
L 419.363431 -46.928 
L 418.974677 -46.928 
L 418.585922 -46.928 
L 418.197167 -46.928 
L 417.808412 -46.928 
L 417.419658 -46.928 
L 417.030903 -46.928 
L 416.642148 -46.928 
L 416.253393 -46.928 
L 415.864639 -46.928 
L 415.475884 -46.928 
L 415.087129 -46.928 
L 414.698374 -46.928 
L 414.30962 -46.928 
L 413.920865 -46.928 
L 413.53211 -46.928 
L 413.143355 -46.928 
L 412.754601 -46.928 
L 412.365846 -46.928 
L 411.977091 -46.928 
L 411.588336 -46.928 
L 411.199582 -46.928 
L 410.810827 -46.928 
L 410.422072 -46.928 
L 410.033317 -46.928 
L 409.644563 -46.928 
L 409.255808 -46.928 
L 408.867053 -46.928 
L 408.478298 -46.928 
L 408.089544 -46.928 
L 407.700789 -46.928 
L 407.312034 -46.928 
L 406.923279 -46.928 
L 406.534525 -46.928 
L 406.14577 -46.928 
L 405.757015 -46.928 
L 405.36826 -46.928 
L 404.979506 -46.928 
L 404.590751 -46.928 
L 404.201996 -46.928 
L 403.813241 -46.928 
L 403.424486 -46.928 
L 403.035732 -46.928 
L 402.646977 -46.928 
L 402.258222 -46.928 
L 401.869467 -46.928 
L 401.480713 -46.928 
L 401.091958 -46.928 
L 400.703203 -46.928 
L 400.314448 -46.928 
L 399.925694 -46.928 
L 399.536939 -46.928 
L 399.148184 -46.928 
L 398.759429 -46.928 
L 398.370675 -46.928 
L 397.98192 -46.928 
L 397.593165 -46.928 
L 397.20441 -46.928 
L 396.815656 -46.928 
L 396.426901 -46.928 
L 396.038146 -46.928 
L 395.649391 -46.928 
L 395.260637 -46.928 
L 394.871882 -46.928 
L 394.483127 -46.928 
L 394.094372 -46.928 
L 393.705618 -46.928 
L 393.316863 -46.928 
L 392.928108 -46.928 
L 392.539353 -46.928 
L 392.150599 -46.928 
L 391.761844 -46.928 
L 391.373089 -46.928 
L 390.984334 -46.928 
L 390.59558 -46.928 
L 390.206825 -46.928 
L 389.81807 -46.928 
L 389.429315 -46.928 
L 389.040561 -46.928 
L 388.651806 -46.928 
L 388.263051 -46.928 
L 387.874296 -46.928 
L 387.485542 -46.928 
L 387.096787 -46.928 
L 386.708032 -46.928 
L 386.319277 -46.928 
L 385.930523 -46.928 
L 385.541768 -46.928 
L 385.153013 -46.928 
L 384.764258 -46.928 
L 384.375504 -46.928 
L 383.986749 -46.928 
L 383.597994 -46.928 
L 383.209239 -46.928 
L 382.820484 -46.928 
L 382.43173 -46.928 
L 382.042975 -46.928 
L 381.65422 -46.928 
L 381.265465 -46.928 
L 380.876711 -46.928 
L 380.487956 -46.928 
L 380.099201 -46.928 
L 379.710446 -46.928 
L 379.321692 -46.928 
L 378.932937 -46.928 
L 378.544182 -46.928 
L 378.155427 -46.928 
L 377.766673 -46.928 
L 377.377918 -46.928 
L 376.989163 -46.928 
L 376.600408 -46.928 
L 376.211654 -46.928 
L 375.822899 -46.928 
L 375.434144 -46.928 
L 375.045389 -46.928 
L 374.656635 -46.928 
L 374.26788 -46.928 
L 373.879125 -46.928 
L 373.49037 -46.928 
L 373.101616 -46.928 
L 372.712861 -46.928 
L 372.324106 -46.928 
L 371.935351 -46.928 
L 371.546597 -46.928 
L 371.157842 -46.928 
L 370.769087 -46.928 
L 370.380332 -46.928 
L 369.991578 -46.928 
L 369.602823 -46.928 
L 369.214068 -46.928 
L 368.825313 -46.928 
L 368.436559 -46.928 
L 368.047804 -46.928 
L 367.659049 -46.928 
L 367.270294 -46.928 
L 366.88154 -46.928 
L 366.492785 -46.928 
L 366.10403 -46.928 
L 365.715275 -46.928 
L 365.326521 -46.928 
L 364.937766 -46.928 
L 364.549011 -46.928 
L 364.160256 -46.928 
L 363.771502 -46.928 
L 363.382747 -46.928 
L 362.993992 -46.928 
L 362.605237 -46.928 
L 362.216482 -46.928 
L 361.827728 -46.928 
L 361.438973 -46.928 
L 361.050218 -46.928 
L 360.661463 -46.928 
L 360.272709 -46.928 
L 359.883954 -46.928 
L 359.495199 -46.928 
L 359.106444 -46.928 
L 358.71769 -46.928 
L 358.328935 -46.928 
L 357.94018 -46.928 
L 357.551425 -46.928 
L 357.162671 -46.928 
L 356.773916 -46.928 
L 356.385161 -46.928 
L 355.996406 -46.928 
L 355.607652 -46.928 
L 355.218897 -46.928 
L 354.830142 -46.928 
L 354.441387 -46.928 
L 354.052633 -46.928 
L 353.663878 -46.928 
L 353.275123 -46.928 
L 352.886368 -46.928 
L 352.497614 -46.928 
L 352.108859 -46.928 
L 351.720104 -46.928 
L 351.331349 -46.928 
L 350.942595 -46.928 
L 350.55384 -46.928 
L 350.165085 -46.928 
L 349.77633 -46.928 
L 349.387576 -46.928 
L 348.998821 -46.928 
L 348.610066 -46.928 
L 348.221311 -46.928 
L 347.832557 -46.928 
L 347.443802 -46.928 
L 347.055047 -46.928 
L 346.666292 -46.928 
L 346.277538 -46.928 
L 345.888783 -46.928 
L 345.500028 -46.928 
L 345.111273 -46.928 
L 344.722519 -46.928 
L 344.333764 -46.928 
L 343.945009 -46.928 
L 343.556254 -46.928 
L 343.167499 -46.928 
L 342.778745 -46.928 
L 342.38999 -46.928 
L 342.001235 -46.928 
L 341.61248 -46.928 
L 341.223726 -46.928 
L 340.834971 -46.928 
L 340.446216 -46.928 
L 340.057461 -46.928 
L 339.668707 -46.928 
L 339.279952 -46.928 
L 338.891197 -46.928 
L 338.502442 -46.928 
L 338.113688 -46.928 
L 337.724933 -46.928 
L 337.336178 -46.928 
L 336.947423 -46.928 
L 336.558669 -46.928 
L 336.169914 -46.928 
L 335.781159 -46.928 
L 335.392404 -46.928 
L 335.00365 -46.928 
L 334.614895 -46.928 
L 334.22614 -46.928 
L 333.837385 -46.928 
L 333.448631 -46.928 
L 333.059876 -46.928 
L 332.671121 -46.928 
L 332.282366 -46.928 
L 331.893612 -46.928 
L 331.504857 -46.928 
L 331.116102 -46.928 
L 330.727347 -46.928 
L 330.338593 -46.928 
L 329.949838 -46.928 
L 329.561083 -46.928 
L 329.172328 -46.928 
L 328.783574 -46.928 
L 328.394819 -46.928 
L 328.006064 -46.928 
L 327.617309 -46.928 
L 327.228555 -46.928 
L 326.8398 -46.928 
L 326.451045 -46.928 
L 326.06229 -46.928 
L 325.673536 -46.928 
L 325.284781 -46.928 
L 324.896026 -46.928 
L 324.507271 -46.928 
L 324.118517 -46.928 
L 323.729762 -46.928 
L 323.341007 -46.928 
L 322.952252 -46.928 
L 322.563497 -46.928 
L 322.174743 -46.928 
L 321.785988 -46.928 
L 321.397233 -46.928 
L 321.008478 -46.928 
L 320.619724 -46.928 
L 320.230969 -46.928 
L 319.842214 -46.928 
L 319.453459 -46.928 
L 319.064705 -46.928 
L 318.67595 -46.928 
L 318.287195 -46.928 
L 317.89844 -46.928 
L 317.509686 -46.928 
L 317.120931 -46.928 
L 316.732176 -46.928 
L 316.343421 -46.928 
L 315.954667 -46.928 
L 315.565912 -46.928 
L 315.177157 -46.928 
L 314.788402 -46.928 
L 314.399648 -46.928 
L 314.010893 -46.928 
L 313.622138 -46.928 
L 313.233383 -46.928 
L 312.844629 -46.928 
L 312.455874 -46.928 
L 312.067119 -46.928 
L 311.678364 -46.928 
L 311.28961 -46.928 
L 310.900855 -46.928 
L 310.5121 -46.928 
L 310.123345 -46.928 
L 309.734591 -46.928 
L 309.345836 -46.928 
L 308.957081 -46.928 
L 308.568326 -46.928 
L 308.179572 -46.928 
L 307.790817 -46.928 
L 307.402062 -46.928 
L 307.013307 -46.928 
L 306.624553 -46.928 
L 306.235798 -46.928 
L 305.847043 -46.928 
L 305.458288 -46.928 
L 305.069534 -46.928 
L 304.680779 -46.928 
L 304.292024 -46.928 
L 303.903269 -46.928 
L 303.514515 -46.928 
L 303.12576 -46.928 
L 302.737005 -46.928 
L 302.34825 -46.928 
L 301.959495 -46.928 
L 301.570741 -46.928 
L 301.181986 -46.928 
L 300.793231 -46.928 
L 300.404476 -46.928 
L 300.015722 -46.928 
L 299.626967 -46.928 
L 299.238212 -46.928 
L 298.849457 -46.928 
L 298.460703 -46.928 
L 298.071948 -46.928 
L 297.683193 -46.928 
L 297.294438 -46.928 
L 296.905684 -46.928 
L 296.516929 -46.928 
L 296.128174 -46.928 
L 295.739419 -46.928 
L 295.350665 -46.928 
L 294.96191 -46.928 
L 294.573155 -46.928 
L 294.1844 -46.928 
L 293.795646 -46.928 
L 293.406891 -46.928 
L 293.018136 -46.928 
L 292.629381 -46.928 
L 292.240627 -46.928 
L 291.851872 -46.928 
L 291.463117 -46.928 
L 291.074362 -46.928 
L 290.685608 -46.928 
L 290.296853 -46.928 
L 289.908098 -46.928 
L 289.519343 -46.928 
L 289.130589 -46.928 
L 288.741834 -46.928 
L 288.353079 -46.928 
L 287.964324 -46.928 
L 287.57557 -46.928 
L 287.186815 -46.928 
L 286.79806 -46.928 
L 286.409305 -46.928 
L 286.020551 -46.928 
L 285.631796 -46.928 
L 285.243041 -46.928 
L 284.854286 -46.928 
L 284.465532 -46.928 
L 284.076777 -46.928 
L 283.688022 -46.928 
L 283.299267 -46.928 
L 282.910513 -46.928 
L 282.521758 -46.928 
L 282.133003 -46.928 
L 281.744248 -46.928 
L 281.355493 -46.928 
L 280.966739 -46.928 
L 280.577984 -46.928 
L 280.189229 -46.928 
L 279.800474 -46.928 
L 279.41172 -46.928 
L 279.022965 -46.928 
L 278.63421 -46.928 
L 278.245455 -46.928 
L 277.856701 -46.928 
L 277.467946 -46.928 
L 277.079191 -46.928 
L 276.690436 -46.928 
L 276.301682 -46.928 
L 275.912927 -46.928 
L 275.524172 -46.928 
L 275.135417 -46.928 
L 274.746663 -46.928 
L 274.357908 -46.928 
L 273.969153 -46.928 
L 273.580398 -46.928 
L 273.191644 -46.928 
L 272.802889 -46.928 
L 272.414134 -46.928 
L 272.025379 -46.928 
L 271.636625 -46.928 
L 271.24787 -46.928 
L 270.859115 -46.928 
L 270.47036 -46.928 
L 270.081606 -46.928 
L 269.692851 -46.928 
L 269.304096 -46.928 
L 268.915341 -46.928 
L 268.526587 -46.928 
L 268.137832 -46.928 
L 267.749077 -46.928 
L 267.360322 -46.928 
L 266.971568 -46.928 
L 266.582813 -46.928 
L 266.194058 -46.928 
L 265.805303 -46.928 
L 265.416549 -46.928 
L 265.027794 -46.928 
L 264.639039 -46.928 
L 264.250284 -46.928 
L 263.86153 -46.928 
L 263.472775 -46.928 
L 263.08402 -46.928 
L 262.695265 -46.928 
L 262.306511 -46.928 
L 261.917756 -46.928 
L 261.529001 -46.928 
L 261.140246 -46.928 
L 260.751491 -46.928 
L 260.362737 -46.928 
L 259.973982 -46.928 
L 259.585227 -46.928 
L 259.196472 -46.928 
L 258.807718 -46.928 
L 258.418963 -46.928 
L 258.030208 -46.928 
L 257.641453 -46.928 
L 257.252699 -46.928 
L 256.863944 -46.928 
L 256.475189 -46.928 
L 256.086434 -46.928 
L 255.69768 -46.928 
L 255.308925 -46.928 
L 254.92017 -46.928 
L 254.531415 -46.928 
L 254.142661 -46.928 
L 253.753906 -46.928 
L 253.365151 -46.928 
L 252.976396 -46.928 
L 252.587642 -46.928 
L 252.198887 -46.928 
L 251.810132 -46.928 
L 251.421377 -46.928 
L 251.032623 -46.928 
L 250.643868 -46.928 
L 250.255113 -46.928 
L 249.866358 -46.928 
L 249.477604 -46.928 
L 249.088849 -46.928 
L 248.700094 -46.928 
L 248.311339 -46.928 
L 247.922585 -46.928 
L 247.53383 -46.928 
L 247.145075 -46.928 
L 246.75632 -46.928 
L 246.367566 -46.928 
L 245.978811 -46.928 
L 245.590056 -46.928 
L 245.201301 -46.928 
L 244.812547 -46.928 
L 244.423792 -46.928 
L 244.035037 -46.928 
L 243.646282 -46.928 
L 243.257528 -46.928 
L 242.868773 -46.928 
L 242.480018 -46.928 
L 242.091263 -46.928 
L 241.702509 -46.928 
L 241.313754 -46.928 
L 240.924999 -46.928 
L 240.536244 -46.928 
L 240.147489 -46.928 
L 239.758735 -46.928 
L 239.36998 -46.928 
L 238.981225 -46.928 
L 238.59247 -46.928 
L 238.203716 -46.928 
L 237.814961 -46.928 
L 237.426206 -46.928 
L 237.037451 -46.928 
L 236.648697 -46.928 
L 236.259942 -46.928 
L 235.871187 -46.928 
L 235.482432 -46.928 
L 235.093678 -46.928 
L 234.704923 -46.928 
L 234.316168 -46.928 
L 233.927413 -46.928 
L 233.538659 -46.928 
L 233.149904 -46.928 
L 232.761149 -46.928 
L 232.372394 -46.928 
L 231.98364 -46.928 
L 231.594885 -46.928 
L 231.20613 -46.928 
L 230.817375 -46.928 
L 230.428621 -46.928 
L 230.039866 -46.928 
L 229.651111 -46.928 
L 229.262356 -46.928 
L 228.873602 -46.928 
L 228.484847 -46.928 
L 228.096092 -46.928 
L 227.707337 -46.928 
L 227.318583 -46.928 
L 226.929828 -46.928 
L 226.541073 -46.928 
L 226.152318 -46.928 
L 225.763564 -46.928 
L 225.374809 -46.928 
L 224.986054 -46.928 
L 224.597299 -46.928 
L 224.208545 -46.928 
L 223.81979 -46.928 
L 223.431035 -46.928 
L 223.04228 -46.928 
L 222.653526 -46.928 
L 222.264771 -46.928 
L 221.876016 -46.928 
L 221.487261 -46.928 
L 221.098507 -46.928 
L 220.709752 -46.928 
L 220.320997 -46.928 
L 219.932242 -46.928 
L 219.543487 -46.928 
L 219.154733 -46.928 
L 218.765978 -46.928 
L 218.377223 -46.928 
L 217.988468 -46.928 
L 217.599714 -46.928 
L 217.210959 -46.928 
L 216.822204 -46.928 
L 216.433449 -46.928 
L 216.044695 -46.928 
L 215.65594 -46.928 
L 215.267185 -46.928 
L 214.87843 -46.928 
L 214.489676 -46.928 
L 214.100921 -46.928 
L 213.712166 -46.928 
L 213.323411 -46.928 
L 212.934657 -46.928 
L 212.545902 -46.928 
L 212.157147 -46.928 
L 211.768392 -46.928 
L 211.379638 -46.928 
L 210.990883 -46.928 
L 210.602128 -46.928 
L 210.213373 -46.928 
L 209.824619 -46.928 
L 209.435864 -46.928 
L 209.047109 -46.928 
L 208.658354 -46.928 
L 208.2696 -46.928 
L 207.880845 -46.928 
L 207.49209 -46.928 
L 207.103335 -46.928 
L 206.714581 -46.928 
L 206.325826 -46.928 
L 205.937071 -46.928 
L 205.548316 -46.928 
L 205.159562 -46.928 
L 204.770807 -46.928 
L 204.382052 -46.928 
L 203.993297 -46.928 
L 203.604543 -46.928 
L 203.215788 -46.928 
L 202.827033 -46.928 
L 202.438278 -46.928 
L 202.049524 -46.928 
L 201.660769 -46.928 
L 201.272014 -46.928 
L 200.883259 -46.928 
L 200.494505 -46.928 
L 200.10575 -46.928 
L 199.716995 -46.928 
L 199.32824 -46.928 
L 198.939485 -46.928 
L 198.550731 -46.928 
L 198.161976 -46.928 
L 197.773221 -46.928 
L 197.384466 -46.928 
L 196.995712 -46.928 
L 196.606957 -46.928 
L 196.218202 -46.928 
L 195.829447 -46.928 
L 195.440693 -46.928 
L 195.051938 -46.928 
L 194.663183 -46.928 
L 194.274428 -46.928 
L 193.885674 -46.928 
L 193.496919 -46.928 
L 193.108164 -46.928 
L 192.719409 -46.928 
L 192.330655 -46.928 
L 191.9419 -46.928 
L 191.553145 -46.928 
L 191.16439 -46.928 
L 190.775636 -46.928 
L 190.386881 -46.928 
L 189.998126 -46.928 
L 189.609371 -46.928 
L 189.220617 -46.928 
L 188.831862 -46.928 
L 188.443107 -46.928 
L 188.054352 -46.928 
L 187.665598 -46.928 
L 187.276843 -46.928 
L 186.888088 -46.928 
L 186.499333 -46.928 
L 186.110579 -46.928 
L 185.721824 -46.928 
L 185.333069 -46.928 
L 184.944314 -46.928 
L 184.55556 -46.928 
L 184.166805 -46.928 
L 183.77805 -46.928 
L 183.389295 -46.928 
L 183.000541 -46.928 
L 182.611786 -46.928 
L 182.223031 -46.928 
L 181.834276 -46.928 
L 181.445522 -46.928 
L 181.056767 -46.928 
L 180.668012 -46.928 
L 180.279257 -46.928 
L 179.890503 -46.928 
L 179.501748 -46.928 
L 179.112993 -46.928 
L 178.724238 -46.928 
L 178.335483 -46.928 
L 177.946729 -46.928 
L 177.557974 -46.928 
L 177.169219 -46.928 
L 176.780464 -46.928 
L 176.39171 -46.928 
L 176.002955 -46.928 
L 175.6142 -46.928 
L 175.225445 -46.928 
L 174.836691 -46.928 
L 174.447936 -46.928 
L 174.059181 -46.928 
L 173.670426 -46.928 
L 173.281672 -46.928 
L 172.892917 -46.928 
L 172.504162 -46.928 
L 172.115407 -46.928 
L 171.726653 -46.928 
L 171.337898 -46.928 
L 170.949143 -46.928 
L 170.560388 -46.928 
L 170.171634 -46.928 
L 169.782879 -46.928 
L 169.394124 -46.928 
L 169.005369 -46.928 
L 168.616615 -46.928 
L 168.22786 -46.928 
L 167.839105 -46.928 
L 167.45035 -46.928 
L 167.061596 -46.928 
L 166.672841 -46.928 
L 166.284086 -46.928 
L 165.895331 -46.928 
L 165.506577 -46.928 
L 165.117822 -46.928 
L 164.729067 -46.928 
L 164.340312 -46.928 
L 163.951558 -46.928 
L 163.562803 -46.928 
L 163.174048 -46.928 
L 162.785293 -46.928 
L 162.396539 -46.928 
L 162.007784 -46.928 
L 161.619029 -46.928 
L 161.230274 -46.928 
L 160.84152 -46.928 
L 160.452765 -46.928 
L 160.06401 -46.928 
L 159.675255 -46.928 
L 159.286501 -46.928 
L 158.897746 -46.928 
L 158.508991 -46.928 
L 158.120236 -46.928 
L 157.731481 -46.928 
L 157.342727 -46.928 
L 156.953972 -46.928 
L 156.565217 -46.928 
L 156.176462 -46.928 
L 155.787708 -46.928 
L 155.398953 -46.928 
L 155.010198 -46.928 
L 154.621443 -46.928 
L 154.232689 -46.928 
L 153.843934 -46.928 
L 153.455179 -46.928 
L 153.066424 -46.928 
L 152.67767 -46.928 
L 152.288915 -46.928 
L 151.90016 -46.928 
L 151.511405 -46.928 
L 151.122651 -46.928 
L 150.733896 -46.928 
L 150.345141 -46.928 
L 149.956386 -46.928 
L 149.567632 -46.928 
L 149.178877 -46.928 
L 148.790122 -46.928 
L 148.401367 -46.928 
L 148.012613 -46.928 
L 147.623858 -46.928 
L 147.235103 -46.928 
L 146.846348 -46.928 
L 146.457594 -46.928 
L 146.068839 -46.928 
L 145.680084 -46.928 
L 145.291329 -46.928 
L 144.902575 -46.928 
L 144.51382 -46.928 
L 144.125065 -46.928 
L 143.73631 -46.928 
L 143.347556 -46.928 
L 142.958801 -46.928 
L 142.570046 -46.928 
L 142.181291 -46.928 
L 141.792537 -46.928 
L 141.403782 -46.928 
L 141.015027 -46.928 
L 140.626272 -46.928 
L 140.237518 -46.928 
L 139.848763 -46.928 
L 139.460008 -46.928 
L 139.071253 -46.928 
L 138.682498 -46.928 
L 138.293744 -46.928 
L 137.904989 -46.928 
L 137.516234 -46.928 
L 137.127479 -46.928 
L 136.738725 -46.928 
L 136.34997 -46.928 
L 135.961215 -46.928 
L 135.57246 -46.928 
L 135.183706 -46.928 
L 134.794951 -46.928 
L 134.406196 -46.928 
L 134.017441 -46.928 
L 133.628687 -46.928 
L 133.239932 -46.928 
L 132.851177 -46.928 
L 132.462422 -46.928 
L 132.073668 -46.928 
L 131.684913 -46.928 
L 131.296158 -46.928 
L 130.907403 -46.928 
L 130.518649 -46.928 
L 130.129894 -46.928 
L 129.741139 -46.928 
L 129.352384 -46.928 
L 128.96363 -46.928 
L 128.574875 -46.928 
L 128.18612 -46.928 
L 127.797365 -46.928 
L 127.408611 -46.928 
L 127.019856 -46.928 
L 126.631101 -46.928 
L 126.242346 -46.928 
L 125.853592 -46.928 
L 125.464837 -46.928 
L 125.076082 -46.928 
L 124.687327 -46.928 
L 124.298573 -46.928 
L 123.909818 -46.928 
L 123.521063 -46.928 
L 123.132308 -46.928 
L 122.743554 -46.928 
L 122.354799 -46.928 
L 121.966044 -46.928 
z
" style="stroke: #56b4e9; stroke-opacity: 0.25"/>
    </defs>
    <g clip-path="url(#p8dc2421cfc)">
     <use xlink:href="#m23337bdf9e" x="0" y="288" style="fill: #56b4e9; fill-opacity: 0.25; stroke: #56b4e9; stroke-opacity: 0.25"/>
    </g>
   </g>
   <g id="matplotlib.axis_1">
    <g id="xtick_1">
     <g id="line2d_1">
      <defs>
       <path id="mfcb61701c8" d="M 0 0 
L 0 3.5 
" style="stroke: #000000; stroke-width: 0.8"/>
      </defs>
      <g>
       <use xlink:href="#mfcb61701c8" x="57.044" y="241.072" style="stroke: #000000; stroke-width: 0.8"/>
      </g>
     </g>
     <g id="text_1">
      <!-- 0 -->
      <g transform="translate(53.544625 256.430281) scale(0.11 -0.11)">
       <defs>
        <path id="DejaVuSans-30" d="M 2034 4250 
Q 1547 4250 1301 3770 
Q 1056 3291 1056 2328 
Q 1056 1369 1301 889 
Q 1547 409 2034 409 
Q 2525 409 2770 889 
Q 3016 1369 3016 2328 
Q 3016 3291 2770 3770 
Q 2525 4250 2034 4250 
z
M 2034 4750 
Q 2819 4750 3233 4129 
Q 3647 3509 3647 2328 
Q 3647 1150 3233 529 
Q 2819 -91 2034 -91 
Q 1250 -91 836 529 
Q 422 1150 422 2328 
Q 422 3509 836 4129 
Q 1250 4750 2034 4750 
z
" transform="scale(0.015625)"/>
       </defs>
       <use xlink:href="#DejaVuSans-30"/>
      </g>
     </g>
    </g>
    <g id="xtick_2">
     <g id="line2d_2">
      <g>
       <use xlink:href="#mfcb61701c8" x="121.771667" y="241.072" style="stroke: #000000; stroke-width: 0.8"/>
      </g>
     </g>
     <g id="text_2">
      <!-- 1 -->
      <g transform="translate(118.272292 256.430281) scale(0.11 -0.11)">
       <defs>
        <path id="DejaVuSans-31" d="M 794 531 
L 1825 531 
L 1825 4091 
L 703 3866 
L 703 4441 
L 1819 4666 
L 2450 4666 
L 2450 531 
L 3481 531 
L 3481 0 
L 794 0 
L 794 531 
z
" transform="scale(0.015625)"/>
       </defs>
       <use xlink:href="#DejaVuSans-31"/>
      </g>
     </g>
    </g>
    <g id="xtick_3">
     <g id="line2d_3">
      <g>
       <use xlink:href="#mfcb61701c8" x="186.499333" y="241.072" style="stroke: #000000; stroke-width: 0.8"/>
      </g>
     </g>
     <g id="text_3">
      <!-- 2 -->
      <g transform="translate(182.999958 256.430281) scale(0.11 -0.11)">
       <defs>
        <path id="DejaVuSans-32" d="M 1228 531 
L 3431 531 
L 3431 0 
L 469 0 
L 469 531 
Q 828 903 1448 1529 
Q 2069 2156 2228 2338 
Q 2531 2678 2651 2914 
Q 2772 3150 2772 3378 
Q 2772 3750 2511 3984 
Q 2250 4219 1831 4219 
Q 1534 4219 1204 4116 
Q 875 4013 500 3803 
L 500 4441 
Q 881 4594 1212 4672 
Q 1544 4750 1819 4750 
Q 2544 4750 2975 4387 
Q 3406 4025 3406 3419 
Q 3406 3131 3298 2873 
Q 3191 2616 2906 2266 
Q 2828 2175 2409 1742 
Q 1991 1309 1228 531 
z
" transform="scale(0.015625)"/>
       </defs>
       <use xlink:href="#DejaVuSans-32"/>
      </g>
     </g>
    </g>
    <g id="xtick_4">
     <g id="line2d_4">
      <g>
       <use xlink:href="#mfcb61701c8" x="251.227" y="241.072" style="stroke: #000000; stroke-width: 0.8"/>
      </g>
     </g>
     <g id="text_4">
      <!-- 3 -->
      <g transform="translate(247.727625 256.430281) scale(0.11 -0.11)">
       <defs>
        <path id="DejaVuSans-33" d="M 2597 2516 
Q 3050 2419 3304 2112 
Q 3559 1806 3559 1356 
Q 3559 666 3084 287 
Q 2609 -91 1734 -91 
Q 1441 -91 1130 -33 
Q 819 25 488 141 
L 488 750 
Q 750 597 1062 519 
Q 1375 441 1716 441 
Q 2309 441 2620 675 
Q 2931 909 2931 1356 
Q 2931 1769 2642 2001 
Q 2353 2234 1838 2234 
L 1294 2234 
L 1294 2753 
L 1863 2753 
Q 2328 2753 2575 2939 
Q 2822 3125 2822 3475 
Q 2822 3834 2567 4026 
Q 2313 4219 1838 4219 
Q 1578 4219 1281 4162 
Q 984 4106 628 3988 
L 628 4550 
Q 988 4650 1302 4700 
Q 1616 4750 1894 4750 
Q 2613 4750 3031 4423 
Q 3450 4097 3450 3541 
Q 3450 3153 3228 2886 
Q 3006 2619 2597 2516 
z
" transform="scale(0.015625)"/>
       </defs>
       <use xlink:href="#DejaVuSans-33"/>
      </g>
     </g>
    </g>
    <g id="xtick_5">
     <g id="line2d_5">
      <g>
       <use xlink:href="#mfcb61701c8" x="315.954667" y="241.072" style="stroke: #000000; stroke-width: 0.8"/>
      </g>
     </g>
     <g id="text_5">
      <!-- 4 -->
      <g transform="translate(312.455292 256.430281) scale(0.11 -0.11)">
       <defs>
        <path id="DejaVuSans-34" d="M 2419 4116 
L 825 1625 
L 2419 1625 
L 2419 4116 
z
M 2253 4666 
L 3047 4666 
L 3047 1625 
L 3713 1625 
L 3713 1100 
L 3047 1100 
L 3047 0 
L 2419 0 
L 2419 1100 
L 313 1100 
L 313 1709 
L 2253 4666 
z
" transform="scale(0.015625)"/>
       </defs>
       <use xlink:href="#DejaVuSans-34"/>
      </g>
     </g>
    </g>
    <g id="xtick_6">
     <g id="line2d_6">
      <g>
       <use xlink:href="#mfcb61701c8" x="380.682333" y="241.072" style="stroke: #000000; stroke-width: 0.8"/>
      </g>
     </g>
     <g id="text_6">
      <!-- 5 -->
      <g transform="translate(377.182958 256.430281) scale(0.11 -0.11)">
       <defs>
        <path id="DejaVuSans-35" d="M 691 4666 
L 3169 4666 
L 3169 4134 
L 1269 4134 
L 1269 2991 
Q 1406 3038 1543 3061 
Q 1681 3084 1819 3084 
Q 2600 3084 3056 2656 
Q 3513 2228 3513 1497 
Q 3513 744 3044 326 
Q 2575 -91 1722 -91 
Q 1428 -91 1123 -41 
Q 819 9 494 109 
L 494 744 
Q 775 591 1075 516 
Q 1375 441 1709 441 
Q 2250 441 2565 725 
Q 2881 1009 2881 1497 
Q 2881 1984 2565 2268 
Q 2250 2553 1709 2553 
Q 1456 2553 1204 2497 
Q 953 2441 691 2322 
L 691 4666 
z
" transform="scale(0.015625)"/>
       </defs>
       <use xlink:href="#DejaVuSans-35"/>
      </g>
     </g>
    </g>
    <g id="xtick_7">
     <g id="line2d_7">
      <g>
       <use xlink:href="#mfcb61701c8" x="445.41" y="241.072" style="stroke: #000000; stroke-width: 0.8"/>
      </g>
     </g>
     <g id="text_7">
      <!-- 6 -->
      <g transform="translate(441.910625 256.430281) scale(0.11 -0.11)">
       <defs>
        <path id="DejaVuSans-36" d="M 2113 2584 
Q 1688 2584 1439 2293 
Q 1191 2003 1191 1497 
Q 1191 994 1439 701 
Q 1688 409 2113 409 
Q 2538 409 2786 701 
Q 3034 994 3034 1497 
Q 3034 2003 2786 2293 
Q 2538 2584 2113 2584 
z
M 3366 4563 
L 3366 3988 
Q 3128 4100 2886 4159 
Q 2644 4219 2406 4219 
Q 1781 4219 1451 3797 
Q 1122 3375 1075 2522 
Q 1259 2794 1537 2939 
Q 1816 3084 2150 3084 
Q 2853 3084 3261 2657 
Q 3669 2231 3669 1497 
Q 3669 778 3244 343 
Q 2819 -91 2113 -91 
Q 1303 -91 875 529 
Q 447 1150 447 2328 
Q 447 3434 972 4092 
Q 1497 4750 2381 4750 
Q 2619 4750 2861 4703 
Q 3103 4656 3366 4563 
z
" transform="scale(0.015625)"/>
       </defs>
       <use xlink:href="#DejaVuSans-36"/>
      </g>
     </g>
    </g>
    <g id="text_8">
     <!-- $r$  (units of $a_0$) -->
     <g transform="translate(212.837 271.076219) scale(0.11 -0.11)">
      <defs>
       <path id="DejaVuSans-Oblique-72" d="M 2853 2969 
Q 2766 3016 2653 3041 
Q 2541 3066 2413 3066 
Q 1953 3066 1609 2717 
Q 1266 2369 1153 1784 
L 800 0 
L 225 0 
L 909 3500 
L 1484 3500 
L 1375 2956 
Q 1603 3259 1920 3421 
Q 2238 3584 2597 3584 
Q 2691 3584 2781 3573 
Q 2872 3563 2963 3538 
L 2853 2969 
z
" transform="scale(0.015625)"/>
       <path id="DejaVuSans-20" transform="scale(0.015625)"/>
       <path id="DejaVuSans-28" d="M 1984 4856 
Q 1566 4138 1362 3434 
Q 1159 2731 1159 2009 
Q 1159 1288 1364 580 
Q 1569 -128 1984 -844 
L 1484 -844 
Q 1016 -109 783 600 
Q 550 1309 550 2009 
Q 550 2706 781 3412 
Q 1013 4119 1484 4856 
L 1984 4856 
z
" transform="scale(0.015625)"/>
       <path id="DejaVuSans-75" d="M 544 1381 
L 544 3500 
L 1119 3500 
L 1119 1403 
Q 1119 906 1312 657 
Q 1506 409 1894 409 
Q 2359 409 2629 706 
Q 2900 1003 2900 1516 
L 2900 3500 
L 3475 3500 
L 3475 0 
L 2900 0 
L 2900 538 
Q 2691 219 2414 64 
Q 2138 -91 1772 -91 
Q 1169 -91 856 284 
Q 544 659 544 1381 
z
M 1991 3584 
L 1991 3584 
z
" transform="scale(0.015625)"/>
       <path id="DejaVuSans-6e" d="M 3513 2113 
L 3513 0 
L 2938 0 
L 2938 2094 
Q 2938 2591 2744 2837 
Q 2550 3084 2163 3084 
Q 1697 3084 1428 2787 
Q 1159 2491 1159 1978 
L 1159 0 
L 581 0 
L 581 3500 
L 1159 3500 
L 1159 2956 
Q 1366 3272 1645 3428 
Q 1925 3584 2291 3584 
Q 2894 3584 3203 3211 
Q 3513 2838 3513 2113 
z
" transform="scale(0.015625)"/>
       <path id="DejaVuSans-69" d="M 603 3500 
L 1178 3500 
L 1178 0 
L 603 0 
L 603 3500 
z
M 603 4863 
L 1178 4863 
L 1178 4134 
L 603 4134 
L 603 4863 
z
" transform="scale(0.015625)"/>
       <path id="DejaVuSans-74" d="M 1172 4494 
L 1172 3500 
L 2356 3500 
L 2356 3053 
L 1172 3053 
L 1172 1153 
Q 1172 725 1289 603 
Q 1406 481 1766 481 
L 2356 481 
L 2356 0 
L 1766 0 
Q 1100 0 847 248 
Q 594 497 594 1153 
L 594 3053 
L 172 3053 
L 172 3500 
L 594 3500 
L 594 4494 
L 1172 4494 
z
" transform="scale(0.015625)"/>
       <path id="DejaVuSans-73" d="M 2834 3397 
L 2834 2853 
Q 2591 2978 2328 3040 
Q 2066 3103 1784 3103 
Q 1356 3103 1142 2972 
Q 928 2841 928 2578 
Q 928 2378 1081 2264 
Q 1234 2150 1697 2047 
L 1894 2003 
Q 2506 1872 2764 1633 
Q 3022 1394 3022 966 
Q 3022 478 2636 193 
Q 2250 -91 1575 -91 
Q 1294 -91 989 -36 
Q 684 19 347 128 
L 347 722 
Q 666 556 975 473 
Q 1284 391 1588 391 
Q 1994 391 2212 530 
Q 2431 669 2431 922 
Q 2431 1156 2273 1281 
Q 2116 1406 1581 1522 
L 1381 1569 
Q 847 1681 609 1914 
Q 372 2147 372 2553 
Q 372 3047 722 3315 
Q 1072 3584 1716 3584 
Q 2034 3584 2315 3537 
Q 2597 3491 2834 3397 
z
" transform="scale(0.015625)"/>
       <path id="DejaVuSans-6f" d="M 1959 3097 
Q 1497 3097 1228 2736 
Q 959 2375 959 1747 
Q 959 1119 1226 758 
Q 1494 397 1959 397 
Q 2419 397 2687 759 
Q 2956 1122 2956 1747 
Q 2956 2369 2687 2733 
Q 2419 3097 1959 3097 
z
M 1959 3584 
Q 2709 3584 3137 3096 
Q 3566 2609 3566 1747 
Q 3566 888 3137 398 
Q 2709 -91 1959 -91 
Q 1206 -91 779 398 
Q 353 888 353 1747 
Q 353 2609 779 3096 
Q 1206 3584 1959 3584 
z
" transform="scale(0.015625)"/>
       <path id="DejaVuSans-66" d="M 2375 4863 
L 2375 4384 
L 1825 4384 
Q 1516 4384 1395 4259 
Q 1275 4134 1275 3809 
L 1275 3500 
L 2222 3500 
L 2222 3053 
L 1275 3053 
L 1275 0 
L 697 0 
L 697 3053 
L 147 3053 
L 147 3500 
L 697 3500 
L 697 3744 
Q 697 4328 969 4595 
Q 1241 4863 1831 4863 
L 2375 4863 
z
" transform="scale(0.015625)"/>
       <path id="DejaVuSans-Oblique-61" d="M 3438 1997 
L 3047 0 
L 2472 0 
L 2578 531 
Q 2325 219 2001 64 
Q 1678 -91 1281 -91 
Q 834 -91 548 182 
Q 263 456 263 884 
Q 263 1497 752 1853 
Q 1241 2209 2100 2209 
L 2900 2209 
L 2931 2363 
Q 2938 2388 2941 2417 
Q 2944 2447 2944 2509 
Q 2944 2788 2717 2942 
Q 2491 3097 2081 3097 
Q 1800 3097 1504 3025 
Q 1209 2953 897 2809 
L 997 3341 
Q 1322 3463 1633 3523 
Q 1944 3584 2234 3584 
Q 2853 3584 3176 3315 
Q 3500 3047 3500 2534 
Q 3500 2431 3484 2292 
Q 3469 2153 3438 1997 
z
M 2816 1759 
L 2241 1759 
Q 1534 1759 1195 1570 
Q 856 1381 856 984 
Q 856 709 1029 553 
Q 1203 397 1509 397 
Q 1978 397 2328 733 
Q 2678 1069 2791 1631 
L 2816 1759 
z
" transform="scale(0.015625)"/>
       <path id="DejaVuSans-29" d="M 513 4856 
L 1013 4856 
Q 1481 4119 1714 3412 
Q 1947 2706 1947 2009 
Q 1947 1309 1714 600 
Q 1481 -109 1013 -844 
L 513 -844 
Q 928 -128 1133 580 
Q 1338 1288 1338 2009 
Q 1338 2731 1133 3434 
Q 928 4138 513 4856 
z
" transform="scale(0.015625)"/>
      </defs>
      <use xlink:href="#DejaVuSans-Oblique-72" transform="translate(0 0.015625)"/>
      <use xlink:href="#DejaVuSans-20" transform="translate(41.113281 0.015625)"/>
      <use xlink:href="#DejaVuSans-20" transform="translate(72.900391 0.015625)"/>
      <use xlink:href="#DejaVuSans-28" transform="translate(104.6875 0.015625)"/>
      <use xlink:href="#DejaVuSans-75" transform="translate(143.701172 0.015625)"/>
      <use xlink:href="#DejaVuSans-6e" transform="translate(207.080078 0.015625)"/>
      <use xlink:href="#DejaVuSans-69" transform="translate(270.458984 0.015625)"/>
      <use xlink:href="#DejaVuSans-74" transform="translate(298.242188 0.015625)"/>
      <use xlink:href="#DejaVuSans-73" transform="translate(337.451172 0.015625)"/>
      <use xlink:href="#DejaVuSans-20" transform="translate(389.550781 0.015625)"/>
      <use xlink:href="#DejaVuSans-6f" transform="translate(421.337891 0.015625)"/>
      <use xlink:href="#DejaVuSans-66" transform="translate(482.519531 0.015625)"/>
      <use xlink:href="#DejaVuSans-20" transform="translate(517.724609 0.015625)"/>
      <use xlink:href="#DejaVuSans-Oblique-61" transform="translate(549.511719 0.015625)"/>
      <use xlink:href="#DejaVuSans-30" transform="translate(610.791016 -16.390625) scale(0.7)"/>
      <use xlink:href="#DejaVuSans-29" transform="translate(658.061523 0.015625)"/>
     </g>
    </g>
   </g>
   <g id="matplotlib.axis_2">
    <g id="ytick_1">
     <g id="line2d_8">
      <defs>
       <path id="mb1934a4639" d="M 0 0 
L -3.5 0 
" style="stroke: #000000; stroke-width: 0.8"/>
      </defs>
      <g>
       <use xlink:href="#mb1934a4639" x="57.044" y="241.072" style="stroke: #000000; stroke-width: 0.8"/>
      </g>
     </g>
     <g id="text_9">
      <!-- 0.0 -->
      <g transform="translate(32.550563 245.251141) scale(0.11 -0.11)">
       <defs>
        <path id="DejaVuSans-2e" d="M 684 794 
L 1344 794 
L 1344 0 
L 684 0 
L 684 794 
z
" transform="scale(0.015625)"/>
       </defs>
       <use xlink:href="#DejaVuSans-30"/>
       <use xlink:href="#DejaVuSans-2e" transform="translate(63.623047 0)"/>
       <use xlink:href="#DejaVuSans-30" transform="translate(95.410156 0)"/>
      </g>
     </g>
    </g>
    <g id="ytick_2">
     <g id="line2d_9">
      <g>
       <use xlink:href="#mb1934a4639" x="57.044" y="203.578888" style="stroke: #000000; stroke-width: 0.8"/>
      </g>
     </g>
     <g id="text_10">
      <!-- 0.1 -->
      <g transform="translate(32.550563 207.758029) scale(0.11 -0.11)">
       <use xlink:href="#DejaVuSans-30"/>
       <use xlink:href="#DejaVuSans-2e" transform="translate(63.623047 0)"/>
       <use xlink:href="#DejaVuSans-31" transform="translate(95.410156 0)"/>
      </g>
     </g>
    </g>
    <g id="ytick_3">
     <g id="line2d_10">
      <g>
       <use xlink:href="#mb1934a4639" x="57.044" y="166.085776" style="stroke: #000000; stroke-width: 0.8"/>
      </g>
     </g>
     <g id="text_11">
      <!-- 0.2 -->
      <g transform="translate(32.550563 170.264917) scale(0.11 -0.11)">
       <use xlink:href="#DejaVuSans-30"/>
       <use xlink:href="#DejaVuSans-2e" transform="translate(63.623047 0)"/>
       <use xlink:href="#DejaVuSans-32" transform="translate(95.410156 0)"/>
      </g>
     </g>
    </g>
    <g id="ytick_4">
     <g id="line2d_11">
      <g>
       <use xlink:href="#mb1934a4639" x="57.044" y="128.592665" style="stroke: #000000; stroke-width: 0.8"/>
      </g>
     </g>
     <g id="text_12">
      <!-- 0.3 -->
      <g transform="translate(32.550563 132.771805) scale(0.11 -0.11)">
       <use xlink:href="#DejaVuSans-30"/>
       <use xlink:href="#DejaVuSans-2e" transform="translate(63.623047 0)"/>
       <use xlink:href="#DejaVuSans-33" transform="translate(95.410156 0)"/>
      </g>
     </g>
    </g>
    <g id="ytick_5">
     <g id="line2d_12">
      <g>
       <use xlink:href="#mb1934a4639" x="57.044" y="91.099553" style="stroke: #000000; stroke-width: 0.8"/>
      </g>
     </g>
     <g id="text_13">
      <!-- 0.4 -->
      <g transform="translate(32.550563 95.278693) scale(0.11 -0.11)">
       <use xlink:href="#DejaVuSans-30"/>
       <use xlink:href="#DejaVuSans-2e" transform="translate(63.623047 0)"/>
       <use xlink:href="#DejaVuSans-34" transform="translate(95.410156 0)"/>
      </g>
     </g>
    </g>
    <g id="ytick_6">
     <g id="line2d_13">
      <g>
       <use xlink:href="#mb1934a4639" x="57.044" y="53.606441" style="stroke: #000000; stroke-width: 0.8"/>
      </g>
     </g>
     <g id="text_14">
      <!-- 0.5 -->
      <g transform="translate(32.550563 57.785582) scale(0.11 -0.11)">
       <use xlink:href="#DejaVuSans-30"/>
       <use xlink:href="#DejaVuSans-2e" transform="translate(63.623047 0)"/>
       <use xlink:href="#DejaVuSans-35" transform="translate(95.410156 0)"/>
      </g>
     </g>
    </g>
    <g id="text_15">
     <!-- $P(r)$  (units of $a_0^{-1}$) -->
     <g transform="translate(25.360563 183.961) rotate(-90) scale(0.11 -0.11)">
      <defs>
       <path id="DejaVuSans-Oblique-50" d="M 1081 4666 
L 2541 4666 
Q 3178 4666 3512 4369 
Q 3847 4072 3847 3500 
Q 3847 2731 3353 2303 
Q 2859 1875 1966 1875 
L 1172 1875 
L 806 0 
L 172 0 
L 1081 4666 
z
M 1613 4147 
L 1275 2394 
L 2069 2394 
Q 2606 2394 2893 2669 
Q 3181 2944 3181 3456 
Q 3181 3784 2986 3965 
Q 2791 4147 2438 4147 
L 1613 4147 
z
" transform="scale(0.015625)"/>
       <path id="DejaVuSans-2212" d="M 678 2272 
L 4684 2272 
L 4684 1741 
L 678 1741 
L 678 2272 
z
" transform="scale(0.015625)"/>
      </defs>
      <use xlink:href="#DejaVuSans-Oblique-50" transform="translate(0 0.684375)"/>
      <use xlink:href="#DejaVuSans-28" transform="translate(60.302734 0.684375)"/>
      <use xlink:href="#DejaVuSans-Oblique-72" transform="translate(99.316406 0.684375)"/>
      <use xlink:href="#DejaVuSans-29" transform="translate(140.429688 0.684375)"/>
      <use xlink:href="#DejaVuSans-20" transform="translate(179.443359 0.684375)"/>
      <use xlink:href="#DejaVuSans-20" transform="translate(211.230469 0.684375)"/>
      <use xlink:href="#DejaVuSans-28" transform="translate(243.017578 0.684375)"/>
      <use xlink:href="#DejaVuSans-75" transform="translate(282.03125 0.684375)"/>
      <use xlink:href="#DejaVuSans-6e" transform="translate(345.410156 0.684375)"/>
      <use xlink:href="#DejaVuSans-69" transform="translate(408.789062 0.684375)"/>
      <use xlink:href="#DejaVuSans-74" transform="translate(436.572266 0.684375)"/>
      <use xlink:href="#DejaVuSans-73" transform="translate(475.78125 0.684375)"/>
      <use xlink:href="#DejaVuSans-20" transform="translate(527.880859 0.684375)"/>
      <use xlink:href="#DejaVuSans-6f" transform="translate(559.667969 0.684375)"/>
      <use xlink:href="#DejaVuSans-66" transform="translate(620.849609 0.684375)"/>
      <use xlink:href="#DejaVuSans-20" transform="translate(656.054688 0.684375)"/>
      <use xlink:href="#DejaVuSans-Oblique-61" transform="translate(687.841797 0.684375)"/>
      <use xlink:href="#DejaVuSans-2212" transform="translate(753.77099 38.965625) scale(0.7)"/>
      <use xlink:href="#DejaVuSans-31" transform="translate(812.423333 38.965625) scale(0.7)"/>
      <use xlink:href="#DejaVuSans-30" transform="translate(749.121094 -26.659375) scale(0.7)"/>
      <use xlink:href="#DejaVuSans-29" transform="translate(859.693841 0.684375)"/>
     </g>
    </g>
   </g>
   <g id="line2d_14">
    <path d="M 57.044 241.072 
L 57.82151 240.860744 
L 58.599019 240.247034 
L 59.376529 239.259888 
L 60.154038 237.92694 
L 61.320302 235.336331 
L 62.486567 232.110008 
L 64.041586 226.952266 
L 65.596605 220.969047 
L 67.540378 212.557992 
L 69.872907 201.438893 
L 73.3717 183.451362 
L 83.479323 130.546677 
L 86.589361 115.660562 
L 89.310645 103.557374 
L 92.031928 92.42352 
L 94.364456 83.703641 
L 96.696985 75.771262 
L 99.029514 68.638574 
L 101.362042 62.306732 
L 103.305816 57.636405 
L 105.24959 53.508077 
L 107.193363 49.909983 
L 109.137137 46.827814 
L 110.692156 44.722589 
L 112.247175 42.927914 
L 113.802194 41.434034 
L 115.357213 40.230738 
L 116.912232 39.30745 
L 118.467251 38.653318 
L 120.02227 38.257293 
L 121.577289 38.108198 
L 123.132308 38.194794 
L 124.687327 38.505835 
L 126.242346 39.030115 
L 127.797365 39.756515 
L 129.741139 40.932014 
L 131.684913 42.385043 
L 133.628687 44.094963 
L 135.961215 46.457713 
L 138.293744 49.127924 
L 141.015027 52.588911 
L 144.125065 56.940997 
L 147.623858 62.261931 
L 151.511405 68.597391 
L 156.176462 76.637865 
L 162.396539 87.828455 
L 182.223031 123.82518 
L 188.443107 134.472609 
L 193.885674 143.354546 
L 198.939485 151.193713 
L 203.993297 158.613601 
L 208.658354 165.077964 
L 213.323411 171.168102 
L 217.988468 176.884721 
L 222.653526 182.232839 
L 227.318583 187.220911 
L 231.98364 191.860082 
L 236.648697 196.163535 
L 241.313754 200.14594 
L 245.978811 203.822986 
L 250.643868 207.210989 
L 255.308925 210.326569 
L 259.973982 213.186385 
L 265.027794 216.015002 
L 270.081606 218.583275 
L 275.135417 220.911018 
L 280.577984 223.170594 
L 286.020551 225.195765 
L 291.851872 227.129535 
L 298.071948 228.949811 
L 304.680779 230.639419 
L 311.678364 232.186252 
L 319.064705 233.583188 
L 326.8398 234.827796 
L 335.392404 235.969116 
L 344.722519 236.986445 
L 355.218897 237.898591 
L 366.88154 238.682267 
L 380.099201 239.345107 
L 395.649391 239.898645 
L 414.698374 240.345312 
L 439.189924 240.682754 
L 445.41 240.740273 
L 445.41 240.740273 
" clip-path="url(#p8dc2421cfc)" style="fill: none; stroke: #0072b2; stroke-width: 2.2; stroke-linecap: square"/>
   </g>
   <g id="line2d_15">
    <path d="M 121.771667 241.072 
L 121.771667 27.96 
" clip-path="url(#p8dc2421cfc)" style="fill: none; stroke: #009e73; stroke-width: 1.6; stroke-linecap: square"/>
   </g>
   <g id="line2d_16">
    <path d="M 154.1355 241.072 
L 154.1355 27.96 
" clip-path="url(#p8dc2421cfc)" style="fill: none; stroke: #e69f00; stroke-width: 1.6; stroke-linecap: square"/>
   </g>
   <g id="patch_3">
    <path d="M 57.044 241.072 
L 57.044 27.96 
" style="fill: none; stroke: #000000; stroke-linejoin: miter; stroke-linecap: square"/>
   </g>
   <g id="patch_4">
    <path d="M 57.044 241.072 
L 445.41 241.072 
" style="fill: none; stroke: #000000; stroke-linejoin: miter; stroke-linecap: square"/>
   </g>
   <g id="text_16">
    <!-- Hydrogen 1s radial probability density -->
    <g transform="translate(136.504188 21.96) scale(0.12 -0.12)">
     <defs>
      <path id="DejaVuSans-48" d="M 628 4666 
L 1259 4666 
L 1259 2753 
L 3553 2753 
L 3553 4666 
L 4184 4666 
L 4184 0 
L 3553 0 
L 3553 2222 
L 1259 2222 
L 1259 0 
L 628 0 
L 628 4666 
z
" transform="scale(0.015625)"/>
      <path id="DejaVuSans-79" d="M 2059 -325 
Q 1816 -950 1584 -1140 
Q 1353 -1331 966 -1331 
L 506 -1331 
L 506 -850 
L 844 -850 
Q 1081 -850 1212 -737 
Q 1344 -625 1503 -206 
L 1606 56 
L 191 3500 
L 800 3500 
L 1894 763 
L 2988 3500 
L 3597 3500 
L 2059 -325 
z
" transform="scale(0.015625)"/>
      <path id="DejaVuSans-64" d="M 2906 2969 
L 2906 4863 
L 3481 4863 
L 3481 0 
L 2906 0 
L 2906 525 
Q 2725 213 2448 61 
Q 2172 -91 1784 -91 
Q 1150 -91 751 415 
Q 353 922 353 1747 
Q 353 2572 751 3078 
Q 1150 3584 1784 3584 
Q 2172 3584 2448 3432 
Q 2725 3281 2906 2969 
z
M 947 1747 
Q 947 1113 1208 752 
Q 1469 391 1925 391 
Q 2381 391 2643 752 
Q 2906 1113 2906 1747 
Q 2906 2381 2643 2742 
Q 2381 3103 1925 3103 
Q 1469 3103 1208 2742 
Q 947 2381 947 1747 
z
" transform="scale(0.015625)"/>
      <path id="DejaVuSans-72" d="M 2631 2963 
Q 2534 3019 2420 3045 
Q 2306 3072 2169 3072 
Q 1681 3072 1420 2755 
Q 1159 2438 1159 1844 
L 1159 0 
L 581 0 
L 581 3500 
L 1159 3500 
L 1159 2956 
Q 1341 3275 1631 3429 
Q 1922 3584 2338 3584 
Q 2397 3584 2469 3576 
Q 2541 3569 2628 3553 
L 2631 2963 
z
" transform="scale(0.015625)"/>
      <path id="DejaVuSans-67" d="M 2906 1791 
Q 2906 2416 2648 2759 
Q 2391 3103 1925 3103 
Q 1463 3103 1205 2759 
Q 947 2416 947 1791 
Q 947 1169 1205 825 
Q 1463 481 1925 481 
Q 2391 481 2648 825 
Q 2906 1169 2906 1791 
z
M 3481 434 
Q 3481 -459 3084 -895 
Q 2688 -1331 1869 -1331 
Q 1566 -1331 1297 -1286 
Q 1028 -1241 775 -1147 
L 775 -588 
Q 1028 -725 1275 -790 
Q 1522 -856 1778 -856 
Q 2344 -856 2625 -561 
Q 2906 -266 2906 331 
L 2906 616 
Q 2728 306 2450 153 
Q 2172 0 1784 0 
Q 1141 0 747 490 
Q 353 981 353 1791 
Q 353 2603 747 3093 
Q 1141 3584 1784 3584 
Q 2172 3584 2450 3431 
Q 2728 3278 2906 2969 
L 2906 3500 
L 3481 3500 
L 3481 434 
z
" transform="scale(0.015625)"/>
      <path id="DejaVuSans-65" d="M 3597 1894 
L 3597 1613 
L 953 1613 
Q 991 1019 1311 708 
Q 1631 397 2203 397 
Q 2534 397 2845 478 
Q 3156 559 3463 722 
L 3463 178 
Q 3153 47 2828 -22 
Q 2503 -91 2169 -91 
Q 1331 -91 842 396 
Q 353 884 353 1716 
Q 353 2575 817 3079 
Q 1281 3584 2069 3584 
Q 2775 3584 3186 3129 
Q 3597 2675 3597 1894 
z
M 3022 2063 
Q 3016 2534 2758 2815 
Q 2500 3097 2075 3097 
Q 1594 3097 1305 2825 
Q 1016 2553 972 2059 
L 3022 2063 
z
" transform="scale(0.015625)"/>
      <path id="DejaVuSans-61" d="M 2194 1759 
Q 1497 1759 1228 1600 
Q 959 1441 959 1056 
Q 959 750 1161 570 
Q 1363 391 1709 391 
Q 2188 391 2477 730 
Q 2766 1069 2766 1631 
L 2766 1759 
L 2194 1759 
z
M 3341 1997 
L 3341 0 
L 2766 0 
L 2766 531 
Q 2569 213 2275 61 
Q 1981 -91 1556 -91 
Q 1019 -91 701 211 
Q 384 513 384 1019 
Q 384 1609 779 1909 
Q 1175 2209 1959 2209 
L 2766 2209 
L 2766 2266 
Q 2766 2663 2505 2880 
Q 2244 3097 1772 3097 
Q 1472 3097 1187 3025 
Q 903 2953 641 2809 
L 641 3341 
Q 956 3463 1253 3523 
Q 1550 3584 1831 3584 
Q 2591 3584 2966 3190 
Q 3341 2797 3341 1997 
z
" transform="scale(0.015625)"/>
      <path id="DejaVuSans-6c" d="M 603 4863 
L 1178 4863 
L 1178 0 
L 603 0 
L 603 4863 
z
" transform="scale(0.015625)"/>
      <path id="DejaVuSans-70" d="M 1159 525 
L 1159 -1331 
L 581 -1331 
L 581 3500 
L 1159 3500 
L 1159 2969 
Q 1341 3281 1617 3432 
Q 1894 3584 2278 3584 
Q 2916 3584 3314 3078 
Q 3713 2572 3713 1747 
Q 3713 922 3314 415 
Q 2916 -91 2278 -91 
Q 1894 -91 1617 61 
Q 1341 213 1159 525 
z
M 3116 1747 
Q 3116 2381 2855 2742 
Q 2594 3103 2138 3103 
Q 1681 3103 1420 2742 
Q 1159 2381 1159 1747 
Q 1159 1113 1420 752 
Q 1681 391 2138 391 
Q 2594 391 2855 752 
Q 3116 1113 3116 1747 
z
" transform="scale(0.015625)"/>
      <path id="DejaVuSans-62" d="M 3116 1747 
Q 3116 2381 2855 2742 
Q 2594 3103 2138 3103 
Q 1681 3103 1420 2742 
Q 1159 2381 1159 1747 
Q 1159 1113 1420 752 
Q 1681 391 2138 391 
Q 2594 391 2855 752 
Q 3116 1113 3116 1747 
z
M 1159 2969 
Q 1341 3281 1617 3432 
Q 1894 3584 2278 3584 
Q 2916 3584 3314 3078 
Q 3713 2572 3713 1747 
Q 3713 922 3314 415 
Q 2916 -91 2278 -91 
Q 1894 -91 1617 61 
Q 1341 213 1159 525 
L 1159 0 
L 581 0 
L 581 4863 
L 1159 4863 
L 1159 2969 
z
" transform="scale(0.015625)"/>
     </defs>
     <use xlink:href="#DejaVuSans-48"/>
     <use xlink:href="#DejaVuSans-79" transform="translate(75.195312 0)"/>
     <use xlink:href="#DejaVuSans-64" transform="translate(134.375 0)"/>
     <use xlink:href="#DejaVuSans-72" transform="translate(197.851562 0)"/>
     <use xlink:href="#DejaVuSans-6f" transform="translate(236.714844 0)"/>
     <use xlink:href="#DejaVuSans-67" transform="translate(297.896484 0)"/>
     <use xlink:href="#DejaVuSans-65" transform="translate(361.373047 0)"/>
     <use xlink:href="#DejaVuSans-6e" transform="translate(422.896484 0)"/>
     <use xlink:href="#DejaVuSans-20" transform="translate(486.275391 0)"/>
     <use xlink:href="#DejaVuSans-31" transform="translate(518.0625 0)"/>
     <use xlink:href="#DejaVuSans-73" transform="translate(581.685547 0)"/>
     <use xlink:href="#DejaVuSans-20" transform="translate(633.785156 0)"/>
     <use xlink:href="#DejaVuSans-72" transform="translate(665.572266 0)"/>
     <use xlink:href="#DejaVuSans-61" transform="translate(706.685547 0)"/>
     <use xlink:href="#DejaVuSans-64" transform="translate(767.964844 0)"/>
     <use xlink:href="#DejaVuSans-69" transform="translate(831.441406 0)"/>
     <use xlink:href="#DejaVuSans-61" transform="translate(859.224609 0)"/>
     <use xlink:href="#DejaVuSans-6c" transform="translate(920.503906 0)"/>
     <use xlink:href="#DejaVuSans-20" transform="translate(948.287109 0)"/>
     <use xlink:href="#DejaVuSans-70" transform="translate(980.074219 0)"/>
     <use xlink:href="#DejaVuSans-72" transform="translate(1043.550781 0)"/>
     <use xlink:href="#DejaVuSans-6f" transform="translate(1082.414062 0)"/>
     <use xlink:href="#DejaVuSans-62" transform="translate(1143.595703 0)"/>
     <use xlink:href="#DejaVuSans-61" transform="translate(1207.072266 0)"/>
     <use xlink:href="#DejaVuSans-62" transform="translate(1268.351562 0)"/>
     <use xlink:href="#DejaVuSans-69" transform="translate(1331.828125 0)"/>
     <use xlink:href="#DejaVuSans-6c" transform="translate(1359.611328 0)"/>
     <use xlink:href="#DejaVuSans-69" transform="translate(1387.394531 0)"/>
     <use xlink:href="#DejaVuSans-74" transform="translate(1415.177734 0)"/>
     <use xlink:href="#DejaVuSans-79" transform="translate(1454.386719 0)"/>
     <use xlink:href="#DejaVuSans-20" transform="translate(1513.566406 0)"/>
     <use xlink:href="#DejaVuSans-64" transform="translate(1545.353516 0)"/>
     <use xlink:href="#DejaVuSans-65" transform="translate(1608.830078 0)"/>
     <use xlink:href="#DejaVuSans-6e" transform="translate(1670.353516 0)"/>
     <use xlink:href="#DejaVuSans-73" transform="translate(1733.732422 0)"/>
     <use xlink:href="#DejaVuSans-69" transform="translate(1785.832031 0)"/>
     <use xlink:href="#DejaVuSans-74" transform="translate(1813.615234 0)"/>
     <use xlink:href="#DejaVuSans-79" transform="translate(1852.824219 0)"/>
    </g>
   </g>
   <g id="legend_1">
    <g id="line2d_17">
     <path d="M 318.03 44.46 
L 329.03 44.46 
L 340.03 44.46 
" style="fill: none; stroke: #0072b2; stroke-width: 2.2; stroke-linecap: square"/>
    </g>
    <g id="text_17">
     <!-- $P(r)=\frac{4}{a_0^3}r^2e^{-2r/a_0}$ -->
     <g transform="translate(348.83 48.31) scale(0.11 -0.11)">
      <defs>
       <path id="DejaVuSans-3d" d="M 678 2906 
L 4684 2906 
L 4684 2381 
L 678 2381 
L 678 2906 
z
M 678 1631 
L 4684 1631 
L 4684 1100 
L 678 1100 
L 678 1631 
z
" transform="scale(0.015625)"/>
       <path id="DejaVuSans-Oblique-65" d="M 3078 2063 
Q 3088 2113 3092 2166 
Q 3097 2219 3097 2272 
Q 3097 2653 2873 2875 
Q 2650 3097 2266 3097 
Q 1838 3097 1509 2826 
Q 1181 2556 1013 2059 
L 3078 2063 
z
M 3578 1613 
L 903 1613 
Q 884 1494 878 1425 
Q 872 1356 872 1306 
Q 872 872 1139 634 
Q 1406 397 1894 397 
Q 2269 397 2603 481 
Q 2938 566 3225 728 
L 3116 159 
Q 2806 34 2476 -28 
Q 2147 -91 1806 -91 
Q 1078 -91 686 257 
Q 294 606 294 1247 
Q 294 1794 489 2264 
Q 684 2734 1063 3103 
Q 1306 3334 1642 3459 
Q 1978 3584 2356 3584 
Q 2950 3584 3301 3228 
Q 3653 2872 3653 2272 
Q 3653 2128 3634 1964 
Q 3616 1800 3578 1613 
z
" transform="scale(0.015625)"/>
       <path id="DejaVuSans-2f" d="M 1625 4666 
L 2156 4666 
L 531 -594 
L 0 -594 
L 1625 4666 
z
" transform="scale(0.015625)"/>
      </defs>
      <use xlink:href="#DejaVuSans-Oblique-50" transform="translate(0 0.16875)"/>
      <use xlink:href="#DejaVuSans-28" transform="translate(60.302734 0.16875)"/>
      <use xlink:href="#DejaVuSans-Oblique-72" transform="translate(99.316406 0.16875)"/>
      <use xlink:href="#DejaVuSans-29" transform="translate(140.429688 0.16875)"/>
      <use xlink:href="#DejaVuSans-3d" transform="translate(198.925781 0.16875)"/>
      <use xlink:href="#DejaVuSans-34" transform="translate(319.197266 43.965625) scale(0.7)"/>
      <use xlink:href="#DejaVuSans-Oblique-61" transform="translate(302.197266 -50.448437) scale(0.7)"/>
      <use xlink:href="#DejaVuSans-33" transform="translate(348.347701 -23.651562) scale(0.49)"/>
      <use xlink:href="#DejaVuSans-30" transform="translate(345.092773 -69.589062) scale(0.49)"/>
      <use xlink:href="#DejaVuSans-Oblique-72" transform="translate(393.937056 0.16875)"/>
      <use xlink:href="#DejaVuSans-32" transform="translate(439.700233 38.45) scale(0.7)"/>
      <use xlink:href="#DejaVuSans-Oblique-65" transform="translate(486.970741 0.16875)"/>
      <use xlink:href="#DejaVuSans-2212" transform="translate(553.144074 38.45) scale(0.7)"/>
      <use xlink:href="#DejaVuSans-32" transform="translate(611.796418 38.45) scale(0.7)"/>
      <use xlink:href="#DejaVuSans-Oblique-72" transform="translate(656.332551 38.45) scale(0.7)"/>
      <use xlink:href="#DejaVuSans-2f" transform="translate(685.111848 38.45) scale(0.7)"/>
      <use xlink:href="#DejaVuSans-Oblique-61" transform="translate(708.695832 38.45) scale(0.7)"/>
      <use xlink:href="#DejaVuSans-30" transform="translate(751.59134 26.965625) scale(0.49)"/>
      <path d="M 302.197266 18.965625 
L 302.197266 25.215625 
L 381.437056 25.215625 
L 381.437056 18.965625 
L 302.197266 18.965625 
z
"/>
     </g>
    </g>
    <g id="line2d_18">
     <path d="M 318.03 66.128281 
L 329.03 66.128281 
L 340.03 66.128281 
" style="fill: none; stroke: #009e73; stroke-width: 1.6; stroke-linecap: square"/>
    </g>
    <g id="text_18">
     <!-- $r_{\mathrm{mp}}=a_0$ -->
     <g transform="translate(348.83 69.978281) scale(0.11 -0.11)">
      <defs>
       <path id="DejaVuSans-6d" d="M 3328 2828 
Q 3544 3216 3844 3400 
Q 4144 3584 4550 3584 
Q 5097 3584 5394 3201 
Q 5691 2819 5691 2113 
L 5691 0 
L 5113 0 
L 5113 2094 
Q 5113 2597 4934 2840 
Q 4756 3084 4391 3084 
Q 3944 3084 3684 2787 
Q 3425 2491 3425 1978 
L 3425 0 
L 2847 0 
L 2847 2094 
Q 2847 2600 2669 2842 
Q 2491 3084 2119 3084 
Q 1678 3084 1418 2786 
Q 1159 2488 1159 1978 
L 1159 0 
L 581 0 
L 581 3500 
L 1159 3500 
L 1159 2956 
Q 1356 3278 1631 3431 
Q 1906 3584 2284 3584 
Q 2666 3584 2933 3390 
Q 3200 3197 3328 2828 
z
" transform="scale(0.015625)"/>
      </defs>
      <use xlink:href="#DejaVuSans-Oblique-72"/>
      <use xlink:href="#DejaVuSans-6d" transform="translate(41.113281 -16.40625) scale(0.7)"/>
      <use xlink:href="#DejaVuSans-70" transform="translate(109.301758 -16.40625) scale(0.7)"/>
      <use xlink:href="#DejaVuSans-3d" transform="translate(175.952148 0)"/>
      <use xlink:href="#DejaVuSans-Oblique-61" transform="translate(279.223633 0)"/>
      <use xlink:href="#DejaVuSans-30" transform="translate(340.50293 -16.40625) scale(0.7)"/>
     </g>
    </g>
    <g id="line2d_19">
     <path d="M 318.03 85.708281 
L 329.03 85.708281 
L 340.03 85.708281 
" style="fill: none; stroke: #e69f00; stroke-width: 1.6; stroke-linecap: square"/>
    </g>
    <g id="text_19">
     <!-- $\langle r\rangle=\frac{3}{2}a_0$ -->
     <g transform="translate(348.83 89.558281) scale(0.11 -0.11)">
      <defs>
       <path id="DejaVuSans-27e8" d="M 572 2006 
L 1453 4856 
L 1984 4856 
L 1103 2006 
L 1984 -844 
L 1453 -844 
L 572 2006 
z
" transform="scale(0.015625)"/>
       <path id="DejaVuSans-27e9" d="M 1925 2006 
L 1044 -844 
L 513 -844 
L 1394 2006 
L 513 4856 
L 1044 4856 
L 1925 2006 
z
" transform="scale(0.015625)"/>
      </defs>
      <use xlink:href="#DejaVuSans-27e8" transform="translate(0 0.254687)"/>
      <use xlink:href="#DejaVuSans-Oblique-72" transform="translate(39.013672 0.254687)"/>
      <use xlink:href="#DejaVuSans-27e9" transform="translate(80.126953 0.254687)"/>
      <use xlink:href="#DejaVuSans-3d" transform="translate(138.623047 0.254687)"/>
      <use xlink:href="#DejaVuSans-33" transform="translate(241.894531 45.046875) scale(0.7)"/>
      <use xlink:href="#DejaVuSans-32" transform="translate(241.894531 -39.151563) scale(0.7)"/>
      <use xlink:href="#DejaVuSans-Oblique-61" transform="translate(298.930664 0.254687)"/>
      <use xlink:href="#DejaVuSans-30" transform="translate(360.209961 -16.151563) scale(0.7)"/>
      <path d="M 241.894531 19.051563 
L 241.894531 25.301563 
L 286.430664 25.301563 
L 286.430664 19.051563 
L 241.894531 19.051563 
z
"/>
     </g>
    </g>
   </g>
  </g>
 </g>
 <defs>
  <clipPath id="p8dc2421cfc">
   <rect x="57.044" y="27.96" width="388.366" height="213.112"/>
  </clipPath>
 </defs>
</svg>
