<?xml version="1.0" encoding="UTF-8"?>
<svg xmlns="http://www.w3.org/2000/svg" xmlns:xlink="http://www.w3.org/1999/xlink" width="1920" height="1080" viewBox="0 0 1920 1080">
<defs>
<g>
<g id="glyph-0-0">
<path d="M 0.71875 -4.824219 L 5.617188 -4.824219 L 5.617188 -4.0625 L 0.71875 -4.0625 Z M 0.71875 -3.09375 L 5.617188 -3.09375 L 5.617188 -2.332031 L 0.71875 -2.332031 Z "/>
</g>
<g id="glyph-0-1">
<rect x="0" y="0" width="0" height="0" mask="url(#mask-0)"/>
</g>
<g id="glyph-0-2">
<path d="M 4.761719 -7.515625 L 5.425781 -7.21875 L 1.574219 1.476562 L 0.90625 1.183594 Z "/>
</g>
<g id="glyph-0-3">
<path d="M 5.277344 -5.519531 C 5.277344 -4.871094 4.972656 -4.152344 4.359375 -3.355469 C 3.746094 -2.5625 2.890625 -1.695312 1.792969 -0.761719 L 5.511719 -0.761719 L 5.511719 0 L 0.824219 0 L 0.824219 -0.761719 C 0.957031 -0.886719 1.140625 -1.050781 1.371094 -1.257812 C 1.605469 -1.460938 1.855469 -1.6875 2.121094 -1.9375 C 2.390625 -2.1875 2.660156 -2.457031 2.941406 -2.746094 C 3.21875 -3.035156 3.46875 -3.328125 3.695312 -3.632812 C 3.921875 -3.933594 4.101562 -4.238281 4.242188 -4.539062 C 4.382812 -4.839844 4.453125 -5.132812 4.453125 -5.414062 C 4.453125 -5.835938 4.34375 -6.167969 4.121094 -6.414062 C 3.898438 -6.65625 3.566406 -6.777344 3.125 -6.777344 C 2.746094 -6.777344 2.425781 -6.734375 2.164062 -6.648438 C 1.902344 -6.566406 1.667969 -6.441406 1.457031 -6.28125 L 1.097656 -6.859375 C 1.414062 -7.085938 1.75 -7.25 2.105469 -7.355469 C 2.460938 -7.460938 2.851562 -7.515625 3.273438 -7.515625 C 3.933594 -7.515625 4.433594 -7.335938 4.769531 -6.976562 C 5.109375 -6.617188 5.277344 -6.132812 5.277344 -5.519531 Z "/>
</g>
<g id="glyph-1-0">
<path d="M 1.679688 -5.488281 L 0.632812 -1.613281 C 0.464844 -0.972656 0.402344 -0.769531 0.222656 -0.199219 L 1.152344 -0.199219 C 1.214844 -0.453125 1.265625 -0.65625 1.296875 -0.78125 C 1.402344 -1.214844 1.476562 -1.519531 1.488281 -1.59375 L 1.785156 -2.710938 C 1.972656 -3.398438 2.25 -3.949219 2.703125 -4.507812 C 3.125 -5.015625 3.558594 -5.277344 3.980469 -5.277344 C 4.421875 -5.277344 4.6875 -5.015625 4.6875 -4.582031 C 4.6875 -4.328125 4.625 -4.023438 4.484375 -3.535156 L 4.117188 -2.175781 C 3.980469 -1.648438 3.882812 -1.171875 3.882812 -0.949219 C 3.882812 -0.421875 4.210938 -0.0859375 4.71875 -0.0859375 C 5.320312 -0.0859375 5.722656 -0.453125 6.195312 -1.402344 L 5.953125 -1.53125 C 5.605469 -0.8125 5.246094 -0.421875 4.941406 -0.421875 C 4.792969 -0.421875 4.699219 -0.558594 4.699219 -0.769531 C 4.699219 -1.097656 4.761719 -1.382812 5.023438 -2.34375 L 5.320312 -3.460938 C 5.445312 -3.9375 5.53125 -4.414062 5.53125 -4.675781 C 5.53125 -5.289062 5.066406 -5.667969 4.316406 -5.667969 C 3.515625 -5.667969 2.964844 -5.332031 2.238281 -4.390625 L 2.660156 -5.941406 L 3.894531 -6.566406 L 3.8125 -6.894531 L 2.777344 -6.363281 C 2.933594 -6.976562 3.113281 -7.578125 3.273438 -8.066406 L 1.289062 -7.84375 L 1.234375 -7.609375 C 1.785156 -7.601562 1.910156 -7.589844 2.015625 -7.558594 C 2.089844 -7.527344 2.144531 -7.453125 2.144531 -7.378906 C 2.144531 -7.292969 2.089844 -7.007812 2.027344 -6.789062 L 1.785156 -5.890625 L 0.738281 -5.363281 L 0.84375 -5.046875 Z "/>
</g>
</g>
<image id="source-98" x="0" y="0" width="0" height="0"/>
<mask id="mask-0">
<use xlink:href="#source-98"/>
</mask>
</defs>
<g fill="rgb(12.156863%, 43.529412%, 36.078431%)" fill-opacity="1">
<use xlink:href="#glyph-0-0" x="30" y="29.341797"/>
<use xlink:href="#glyph-0-1" x="36" y="29.341797"/>
</g>
<g fill="rgb(12.156863%, 43.529412%, 36.078431%)" fill-opacity="1">
<use xlink:href="#glyph-1-0" x="42" y="29.341797"/>
</g>
<g fill="rgb(12.156863%, 43.529412%, 36.078431%)" fill-opacity="1">
<use xlink:href="#glyph-0-2" x="48" y="29.341797"/>
<use xlink:href="#glyph-0-3" x="54" y="29.341797"/>
</g>
</svg>
