<?xml version="1.0" encoding="UTF-8"?>
<svg xmlns="http://www.w3.org/2000/svg" xmlns:xlink="http://www.w3.org/1999/xlink" width="1920" height="1080" viewBox="0 0 1920 1080">
<defs>
<g>
<g id="glyph-0-0">
<path d="M 1.539062 0.109375 C 1.273438 0.109375 1.042969 0.0429688 0.84375 -0.0859375 C 0.648438 -0.214844 0.492188 -0.402344 0.382812 -0.640625 C 0.273438 -0.878906 0.214844 -1.152344 0.214844 -1.464844 C 0.214844 -1.746094 0.28125 -2 0.40625 -2.226562 C 0.535156 -2.457031 0.707031 -2.640625 0.917969 -2.78125 C 1.128906 -2.921875 1.359375 -2.988281 1.609375 -2.988281 C 1.804688 -2.988281 1.972656 -2.953125 2.125 -2.875 C 2.273438 -2.796875 2.390625 -2.691406 2.472656 -2.554688 C 2.558594 -2.417969 2.601562 -2.257812 2.601562 -2.082031 C 2.601562 -1.929688 2.527344 -1.855469 2.382812 -1.855469 L 0.859375 -1.855469 C 0.792969 -1.855469 0.746094 -1.839844 0.71875 -1.800781 C 0.691406 -1.765625 0.679688 -1.695312 0.679688 -1.589844 C 0.679688 -1.359375 0.730469 -1.148438 0.832031 -0.957031 C 0.933594 -0.765625 1.066406 -0.613281 1.234375 -0.503906 C 1.402344 -0.390625 1.589844 -0.332031 1.792969 -0.332031 C 1.9375 -0.332031 2.066406 -0.359375 2.183594 -0.414062 C 2.300781 -0.46875 2.40625 -0.550781 2.5 -0.65625 C 2.519531 -0.679688 2.53125 -0.695312 2.542969 -0.703125 C 2.550781 -0.710938 2.5625 -0.714844 2.578125 -0.714844 C 2.617188 -0.714844 2.636719 -0.691406 2.636719 -0.644531 C 2.636719 -0.550781 2.59375 -0.449219 2.507812 -0.339844 C 2.433594 -0.25 2.347656 -0.167969 2.246094 -0.101562 C 2.144531 -0.0351562 2.035156 0.0195312 1.914062 0.0546875 C 1.792969 0.0898438 1.667969 0.109375 1.539062 0.109375 Z M 0.875 -2.082031 L 1.53125 -2.082031 C 1.648438 -2.082031 1.746094 -2.082031 1.828125 -2.085938 C 1.910156 -2.089844 1.988281 -2.101562 2.066406 -2.117188 C 2.089844 -2.121094 2.105469 -2.136719 2.113281 -2.164062 C 2.121094 -2.191406 2.125 -2.226562 2.125 -2.273438 C 2.125 -2.414062 2.0625 -2.535156 1.9375 -2.632812 C 1.816406 -2.730469 1.671875 -2.78125 1.503906 -2.78125 C 1.390625 -2.78125 1.28125 -2.75 1.171875 -2.683594 C 1.058594 -2.617188 0.96875 -2.539062 0.894531 -2.441406 C 0.824219 -2.34375 0.789062 -2.25 0.789062 -2.152344 C 0.789062 -2.105469 0.816406 -2.082031 0.875 -2.082031 Z "/>
</g>
<g id="glyph-0-1">
<path d="M 0.84375 0.101562 C 0.757812 0.101562 0.671875 0.0664062 0.582031 0 C 0.492188 -0.0664062 0.417969 -0.148438 0.359375 -0.246094 C 0.296875 -0.34375 0.265625 -0.433594 0.265625 -0.519531 C 0.265625 -0.675781 0.308594 -0.792969 0.390625 -0.882812 C 0.472656 -0.96875 0.601562 -1.046875 0.78125 -1.121094 L 1.515625 -1.421875 C 1.613281 -1.460938 1.667969 -1.496094 1.6875 -1.523438 C 1.703125 -1.550781 1.714844 -1.617188 1.71875 -1.710938 L 1.734375 -2.175781 C 1.738281 -2.300781 1.703125 -2.40625 1.628906 -2.5 C 1.554688 -2.589844 1.445312 -2.636719 1.308594 -2.636719 C 1.234375 -2.636719 1.164062 -2.625 1.089844 -2.601562 C 1.019531 -2.578125 0.957031 -2.542969 0.910156 -2.507812 C 0.882812 -2.488281 0.863281 -2.457031 0.851562 -2.417969 C 0.84375 -2.378906 0.835938 -2.339844 0.835938 -2.296875 C 0.835938 -2.277344 0.839844 -2.257812 0.839844 -2.230469 C 0.84375 -2.207031 0.84375 -2.1875 0.84375 -2.167969 C 0.84375 -2.144531 0.816406 -2.109375 0.753906 -2.070312 C 0.695312 -2.027344 0.628906 -1.992188 0.550781 -1.960938 C 0.476562 -1.929688 0.417969 -1.914062 0.367188 -1.914062 C 0.34375 -1.914062 0.324219 -1.921875 0.3125 -1.933594 C 0.296875 -1.945312 0.289062 -1.960938 0.289062 -1.980469 C 0.289062 -2.054688 0.3125 -2.140625 0.363281 -2.226562 C 0.414062 -2.316406 0.484375 -2.398438 0.578125 -2.476562 C 0.6875 -2.578125 0.808594 -2.667969 0.9375 -2.746094 C 1.070312 -2.820312 1.195312 -2.882812 1.320312 -2.925781 C 1.445312 -2.96875 1.558594 -2.988281 1.652344 -2.988281 C 1.828125 -2.988281 1.96875 -2.929688 2.082031 -2.804688 C 2.195312 -2.683594 2.25 -2.53125 2.246094 -2.347656 L 2.210938 -0.613281 C 2.207031 -0.511719 2.226562 -0.429688 2.277344 -0.367188 C 2.328125 -0.304688 2.394531 -0.273438 2.46875 -0.273438 C 2.589844 -0.273438 2.679688 -0.300781 2.738281 -0.355469 C 2.761719 -0.378906 2.78125 -0.390625 2.796875 -0.390625 C 2.820312 -0.390625 2.839844 -0.382812 2.851562 -0.367188 C 2.867188 -0.355469 2.875 -0.335938 2.875 -0.3125 C 2.875 -0.257812 2.847656 -0.203125 2.796875 -0.152344 C 2.71875 -0.0742188 2.636719 -0.0117188 2.546875 0.03125 C 2.457031 0.078125 2.375 0.101562 2.296875 0.101562 C 2.074219 0.101562 1.898438 -0.0234375 1.769531 -0.273438 L 1.746094 -0.273438 C 1.589844 -0.144531 1.4375 -0.0507812 1.292969 0.0117188 C 1.148438 0.0703125 1 0.101562 0.84375 0.101562 Z M 1.183594 -0.246094 C 1.28125 -0.246094 1.363281 -0.261719 1.429688 -0.292969 C 1.496094 -0.324219 1.558594 -0.367188 1.609375 -0.417969 C 1.632812 -0.441406 1.65625 -0.476562 1.671875 -0.515625 C 1.6875 -0.558594 1.699219 -0.625 1.703125 -0.714844 L 1.71875 -1.070312 C 1.722656 -1.121094 1.722656 -1.160156 1.710938 -1.183594 C 1.703125 -1.207031 1.683594 -1.21875 1.652344 -1.21875 C 1.644531 -1.21875 1.628906 -1.21875 1.601562 -1.214844 C 1.578125 -1.210938 1.546875 -1.199219 1.507812 -1.183594 C 1.253906 -1.09375 1.078125 -0.996094 0.980469 -0.898438 C 0.878906 -0.800781 0.832031 -0.710938 0.832031 -0.628906 C 0.832031 -0.503906 0.867188 -0.40625 0.941406 -0.34375 C 1.015625 -0.277344 1.097656 -0.246094 1.183594 -0.246094 Z "/>
</g>
<g id="glyph-0-2">
<path d="M 1.539062 0.109375 C 1.296875 0.109375 1.078125 0.046875 0.886719 -0.0742188 C 0.691406 -0.199219 0.535156 -0.367188 0.421875 -0.582031 C 0.308594 -0.796875 0.253906 -1.035156 0.253906 -1.300781 C 0.253906 -1.613281 0.320312 -1.898438 0.457031 -2.152344 C 0.59375 -2.40625 0.78125 -2.609375 1.011719 -2.761719 C 1.242188 -2.914062 1.496094 -2.988281 1.777344 -2.988281 C 2.089844 -2.988281 2.363281 -2.90625 2.601562 -2.738281 C 2.660156 -2.695312 2.6875 -2.648438 2.6875 -2.601562 C 2.6875 -2.5625 2.671875 -2.519531 2.636719 -2.46875 C 2.601562 -2.421875 2.5625 -2.382812 2.511719 -2.351562 C 2.464844 -2.320312 2.417969 -2.304688 2.375 -2.304688 C 2.351562 -2.304688 2.328125 -2.3125 2.304688 -2.328125 C 2.28125 -2.347656 2.253906 -2.363281 2.222656 -2.382812 C 2.117188 -2.464844 2 -2.542969 1.871094 -2.613281 C 1.742188 -2.6875 1.632812 -2.722656 1.546875 -2.722656 C 1.308594 -2.722656 1.117188 -2.613281 0.972656 -2.394531 C 0.824219 -2.175781 0.75 -1.886719 0.75 -1.53125 C 0.75 -1.304688 0.800781 -1.101562 0.898438 -0.917969 C 0.996094 -0.734375 1.128906 -0.589844 1.296875 -0.484375 C 1.460938 -0.378906 1.648438 -0.324219 1.847656 -0.324219 C 1.988281 -0.324219 2.109375 -0.347656 2.210938 -0.394531 C 2.3125 -0.441406 2.417969 -0.519531 2.535156 -0.636719 C 2.542969 -0.644531 2.558594 -0.652344 2.570312 -0.660156 C 2.585938 -0.667969 2.597656 -0.671875 2.605469 -0.671875 C 2.660156 -0.671875 2.6875 -0.636719 2.6875 -0.570312 C 2.6875 -0.542969 2.679688 -0.507812 2.660156 -0.472656 C 2.644531 -0.4375 2.617188 -0.394531 2.578125 -0.347656 C 2.5 -0.25 2.410156 -0.167969 2.304688 -0.0976562 C 2.199219 -0.0273438 2.082031 0.0234375 1.953125 0.0585938 C 1.824219 0.0898438 1.6875 0.109375 1.539062 0.109375 Z "/>
</g>
<g id="glyph-0-3">
<path d="M 0.28125 0.0234375 C 0.183594 0.0234375 0.136719 -0.00390625 0.136719 -0.0585938 C 0.136719 -0.101562 0.191406 -0.140625 0.304688 -0.171875 C 0.375 -0.195312 0.445312 -0.230469 0.507812 -0.265625 C 0.574219 -0.304688 0.609375 -0.375 0.613281 -0.46875 L 0.613281 -4.089844 C 0.613281 -4.21875 0.59375 -4.332031 0.550781 -4.429688 C 0.507812 -4.53125 0.421875 -4.589844 0.296875 -4.609375 C 0.253906 -4.617188 0.230469 -4.652344 0.230469 -4.710938 C 0.230469 -4.753906 0.25 -4.78125 0.289062 -4.796875 C 0.355469 -4.820312 0.4375 -4.847656 0.53125 -4.875 C 0.625 -4.902344 0.722656 -4.9375 0.824219 -4.972656 C 0.925781 -5.007812 1.011719 -5.042969 1.089844 -5.078125 C 1.109375 -5.085938 1.125 -5.09375 1.132812 -5.09375 C 1.148438 -5.09375 1.160156 -5.085938 1.171875 -5.078125 C 1.179688 -5.066406 1.183594 -5.054688 1.183594 -5.042969 C 1.183594 -5.011719 1.179688 -4.972656 1.167969 -4.917969 C 1.15625 -4.867188 1.144531 -4.773438 1.132812 -4.644531 C 1.125 -4.515625 1.121094 -4.320312 1.121094 -4.058594 L 1.121094 -2.800781 C 1.121094 -2.726562 1.125 -2.671875 1.128906 -2.636719 C 1.136719 -2.601562 1.152344 -2.570312 1.171875 -2.535156 C 1.246094 -2.59375 1.34375 -2.65625 1.457031 -2.726562 C 1.570312 -2.796875 1.695312 -2.859375 1.835938 -2.910156 C 1.976562 -2.964844 2.117188 -2.988281 2.269531 -2.988281 C 2.503906 -2.988281 2.699219 -2.898438 2.855469 -2.710938 C 3.011719 -2.527344 3.089844 -2.292969 3.089844 -2.007812 L 3.089844 -0.492188 C 3.089844 -0.394531 3.121094 -0.324219 3.183594 -0.277344 C 3.246094 -0.230469 3.316406 -0.199219 3.386719 -0.171875 C 3.441406 -0.160156 3.480469 -0.144531 3.511719 -0.125 C 3.539062 -0.109375 3.554688 -0.0859375 3.554688 -0.0585938 C 3.554688 -0.00390625 3.503906 0.0234375 3.410156 0.0234375 C 3.3125 0.0234375 3.238281 0.0195312 3.1875 0.0117188 C 3.136719 0.00390625 3.089844 -0.00390625 3.042969 -0.0078125 C 3 -0.0117188 2.933594 -0.015625 2.847656 -0.015625 C 2.765625 -0.015625 2.699219 -0.0117188 2.652344 -0.0078125 C 2.601562 -0.00390625 2.554688 0.00390625 2.503906 0.0117188 C 2.453125 0.0195312 2.378906 0.0234375 2.28125 0.0234375 C 2.1875 0.0234375 2.136719 -0.00390625 2.136719 -0.0585938 C 2.136719 -0.0898438 2.152344 -0.113281 2.179688 -0.125 C 2.210938 -0.136719 2.25 -0.152344 2.304688 -0.171875 C 2.375 -0.195312 2.441406 -0.230469 2.5 -0.277344 C 2.558594 -0.324219 2.585938 -0.394531 2.585938 -0.492188 L 2.585938 -1.964844 C 2.585938 -2.085938 2.550781 -2.195312 2.480469 -2.292969 C 2.410156 -2.390625 2.324219 -2.46875 2.222656 -2.527344 C 2.121094 -2.585938 2.019531 -2.613281 1.914062 -2.613281 C 1.824219 -2.613281 1.714844 -2.601562 1.597656 -2.574219 C 1.476562 -2.546875 1.382812 -2.507812 1.316406 -2.457031 C 1.238281 -2.394531 1.1875 -2.328125 1.160156 -2.261719 C 1.132812 -2.195312 1.121094 -2.085938 1.121094 -1.9375 L 1.121094 -0.46875 C 1.125 -0.371094 1.15625 -0.304688 1.210938 -0.265625 C 1.265625 -0.226562 1.328125 -0.199219 1.402344 -0.171875 C 1.453125 -0.160156 1.492188 -0.144531 1.519531 -0.125 C 1.546875 -0.109375 1.558594 -0.0859375 1.558594 -0.0585938 C 1.558594 -0.00390625 1.511719 0.0234375 1.414062 0.0234375 C 1.320312 0.0234375 1.246094 0.0195312 1.199219 0.0117188 C 1.152344 0.00390625 1.105469 -0.00390625 1.0625 -0.0078125 C 1.019531 -0.0117188 0.953125 -0.015625 0.867188 -0.015625 C 0.785156 -0.015625 0.71875 -0.0117188 0.667969 -0.0078125 C 0.617188 -0.00390625 0.566406 0.00390625 0.507812 0.0117188 C 0.453125 0.0195312 0.378906 0.0234375 0.28125 0.0234375 Z "/>
</g>
<g id="glyph-0-4">
<rect x="0" y="0" width="0" height="0" mask="url(#mask-0)"/>
</g>
<g id="glyph-0-5">
<path d="M 0.316406 0.0234375 C 0.273438 0.0234375 0.238281 0.015625 0.214844 0.00390625 C 0.1875 -0.0078125 0.171875 -0.0273438 0.171875 -0.0585938 C 0.171875 -0.0976562 0.191406 -0.121094 0.226562 -0.136719 C 0.261719 -0.152344 0.300781 -0.164062 0.339844 -0.171875 C 0.441406 -0.195312 0.519531 -0.226562 0.570312 -0.261719 C 0.625 -0.300781 0.648438 -0.359375 0.648438 -0.449219 L 0.648438 -2.015625 C 0.648438 -2.144531 0.628906 -2.261719 0.582031 -2.363281 C 0.535156 -2.464844 0.449219 -2.523438 0.324219 -2.542969 C 0.300781 -2.546875 0.28125 -2.558594 0.269531 -2.570312 C 0.257812 -2.585938 0.253906 -2.605469 0.253906 -2.636719 C 0.253906 -2.6875 0.273438 -2.71875 0.316406 -2.722656 C 0.511719 -2.765625 0.667969 -2.824219 0.792969 -2.898438 C 0.917969 -2.972656 1.011719 -3.035156 1.078125 -3.085938 C 1.121094 -3.117188 1.152344 -3.132812 1.175781 -3.132812 C 1.207031 -3.132812 1.21875 -3.121094 1.21875 -3.097656 C 1.21875 -3.058594 1.214844 -2.984375 1.203125 -2.871094 C 1.191406 -2.757812 1.179688 -2.632812 1.171875 -2.496094 C 1.160156 -2.359375 1.15625 -2.234375 1.15625 -2.125 L 1.15625 -0.449219 C 1.15625 -0.367188 1.183594 -0.304688 1.238281 -0.265625 C 1.292969 -0.226562 1.371094 -0.199219 1.464844 -0.171875 C 1.503906 -0.164062 1.542969 -0.152344 1.578125 -0.136719 C 1.613281 -0.121094 1.632812 -0.0976562 1.632812 -0.0585938 C 1.632812 -0.00390625 1.585938 0.0234375 1.488281 0.0234375 C 1.398438 0.0234375 1.324219 0.0195312 1.265625 0.0117188 C 1.210938 0.00390625 1.160156 -0.00390625 1.109375 -0.0078125 C 1.058594 -0.0117188 0.988281 -0.015625 0.902344 -0.015625 C 0.820312 -0.015625 0.753906 -0.0117188 0.699219 -0.0078125 C 0.648438 -0.00390625 0.59375 0.00390625 0.542969 0.0117188 C 0.488281 0.0195312 0.414062 0.0234375 0.316406 0.0234375 Z M 0.894531 -3.726562 C 0.792969 -3.726562 0.710938 -3.761719 0.640625 -3.832031 C 0.570312 -3.902344 0.535156 -3.988281 0.535156 -4.089844 C 0.535156 -4.195312 0.570312 -4.28125 0.640625 -4.351562 C 0.710938 -4.421875 0.792969 -4.457031 0.894531 -4.457031 C 1 -4.457031 1.089844 -4.421875 1.160156 -4.351562 C 1.230469 -4.28125 1.265625 -4.195312 1.265625 -4.089844 C 1.265625 -3.988281 1.230469 -3.902344 1.160156 -3.832031 C 1.089844 -3.761719 1 -3.726562 0.894531 -3.726562 Z "/>
</g>
<g id="glyph-0-6">
<path d="M 1.410156 2.09375 C 1 2.09375 0.675781 2.015625 0.4375 1.859375 C 0.199219 1.703125 0.078125 1.492188 0.078125 1.226562 C 0.078125 1.101562 0.0976562 0.996094 0.136719 0.910156 C 0.175781 0.824219 0.234375 0.75 0.316406 0.6875 C 0.382812 0.628906 0.476562 0.554688 0.589844 0.464844 C 0.703125 0.375 0.820312 0.285156 0.9375 0.1875 L 1.242188 0.203125 C 1.011719 0.351562 0.851562 0.492188 0.757812 0.628906 C 0.667969 0.761719 0.621094 0.925781 0.621094 1.121094 C 0.621094 1.3125 0.707031 1.476562 0.878906 1.605469 C 1.050781 1.738281 1.257812 1.804688 1.507812 1.804688 C 1.792969 1.804688 2.023438 1.742188 2.195312 1.609375 C 2.316406 1.519531 2.410156 1.398438 2.476562 1.253906 C 2.542969 1.105469 2.578125 0.949219 2.578125 0.789062 C 2.578125 0.683594 2.542969 0.59375 2.464844 0.523438 C 2.390625 0.453125 2.273438 0.398438 2.117188 0.355469 C 1.957031 0.3125 1.75 0.28125 1.496094 0.265625 C 1.042969 0.234375 0.726562 0.171875 0.550781 0.0859375 C 0.375 0 0.289062 -0.136719 0.289062 -0.316406 C 0.289062 -0.367188 0.300781 -0.410156 0.328125 -0.453125 C 0.355469 -0.492188 0.398438 -0.535156 0.453125 -0.585938 C 0.566406 -0.671875 0.648438 -0.734375 0.699219 -0.777344 C 0.753906 -0.816406 0.792969 -0.851562 0.820312 -0.882812 C 0.847656 -0.910156 0.871094 -0.945312 0.894531 -0.988281 L 1.140625 -0.867188 C 1.035156 -0.828125 0.945312 -0.777344 0.875 -0.710938 C 0.800781 -0.644531 0.765625 -0.585938 0.765625 -0.535156 C 0.765625 -0.46875 0.800781 -0.40625 0.875 -0.359375 C 0.945312 -0.308594 1.050781 -0.265625 1.191406 -0.238281 C 1.332031 -0.210938 1.503906 -0.1875 1.703125 -0.171875 C 2.148438 -0.148438 2.476562 -0.078125 2.695312 0.0429688 C 2.910156 0.164062 3.019531 0.335938 3.019531 0.554688 C 3.019531 0.742188 2.972656 0.929688 2.878906 1.109375 C 2.785156 1.289062 2.660156 1.453125 2.507812 1.601562 C 2.351562 1.753906 2.179688 1.871094 1.988281 1.960938 C 1.800781 2.050781 1.605469 2.09375 1.410156 2.09375 Z M 1.496094 -1.019531 C 1.679688 -1.019531 1.828125 -1.109375 1.949219 -1.296875 C 2.070312 -1.480469 2.128906 -1.710938 2.128906 -1.984375 C 2.128906 -2.125 2.097656 -2.257812 2.03125 -2.378906 C 1.96875 -2.503906 1.882812 -2.601562 1.78125 -2.675781 C 1.675781 -2.75 1.566406 -2.789062 1.445312 -2.789062 C 1.335938 -2.789062 1.230469 -2.75 1.128906 -2.667969 C 1.03125 -2.589844 0.953125 -2.488281 0.890625 -2.363281 C 0.832031 -2.238281 0.800781 -2.097656 0.800781 -1.949219 C 0.800781 -1.78125 0.832031 -1.625 0.894531 -1.484375 C 0.957031 -1.34375 1.042969 -1.230469 1.148438 -1.144531 C 1.253906 -1.058594 1.371094 -1.019531 1.496094 -1.019531 Z M 1.453125 -0.765625 C 1.253906 -0.765625 1.066406 -0.816406 0.886719 -0.917969 C 0.710938 -1.019531 0.566406 -1.152344 0.453125 -1.316406 C 0.339844 -1.484375 0.28125 -1.667969 0.28125 -1.863281 C 0.28125 -2.089844 0.339844 -2.289062 0.457031 -2.460938 C 0.574219 -2.628906 0.730469 -2.765625 0.925781 -2.859375 C 1.117188 -2.957031 1.320312 -3.003906 1.539062 -3.003906 C 1.679688 -3.003906 1.800781 -2.988281 1.902344 -2.949219 C 2.007812 -2.914062 2.109375 -2.882812 2.210938 -2.851562 C 2.324219 -2.820312 2.417969 -2.796875 2.484375 -2.792969 C 2.550781 -2.785156 2.621094 -2.78125 2.695312 -2.78125 C 2.753906 -2.78125 2.824219 -2.785156 2.910156 -2.792969 C 2.996094 -2.800781 3.058594 -2.800781 3.089844 -2.800781 C 3.152344 -2.800781 3.183594 -2.765625 3.183594 -2.695312 C 3.183594 -2.652344 3.160156 -2.605469 3.113281 -2.558594 C 3.089844 -2.535156 3.070312 -2.519531 3.054688 -2.519531 L 2.859375 -2.519531 C 2.730469 -2.519531 2.65625 -2.5 2.644531 -2.464844 C 2.640625 -2.445312 2.632812 -2.414062 2.625 -2.378906 C 2.617188 -2.34375 2.613281 -2.304688 2.605469 -2.261719 C 2.601562 -2.21875 2.601562 -2.175781 2.601562 -2.128906 C 2.601562 -1.882812 2.546875 -1.660156 2.441406 -1.453125 C 2.335938 -1.246094 2.195312 -1.078125 2.023438 -0.953125 C 1.847656 -0.828125 1.660156 -0.765625 1.453125 -0.765625 Z "/>
</g>
<g id="glyph-0-7">
<path d="M 0.316406 0.0234375 C 0.273438 0.0234375 0.238281 0.015625 0.214844 0.00390625 C 0.1875 -0.0078125 0.171875 -0.0273438 0.171875 -0.0585938 C 0.171875 -0.0976562 0.1875 -0.121094 0.214844 -0.132812 C 0.246094 -0.144531 0.285156 -0.160156 0.339844 -0.171875 C 0.410156 -0.191406 0.480469 -0.21875 0.550781 -0.253906 C 0.617188 -0.285156 0.648438 -0.351562 0.648438 -0.449219 L 0.648438 -2 C 0.648438 -2.128906 0.636719 -2.242188 0.609375 -2.332031 C 0.582031 -2.425781 0.507812 -2.488281 0.382812 -2.519531 C 0.363281 -2.53125 0.347656 -2.542969 0.332031 -2.554688 C 0.316406 -2.566406 0.3125 -2.585938 0.3125 -2.613281 C 0.3125 -2.667969 0.332031 -2.695312 0.375 -2.703125 C 0.542969 -2.746094 0.679688 -2.796875 0.789062 -2.859375 C 0.894531 -2.921875 0.996094 -2.992188 1.097656 -3.070312 C 1.113281 -3.078125 1.125 -3.085938 1.136719 -3.09375 C 1.148438 -3.101562 1.164062 -3.105469 1.175781 -3.105469 C 1.1875 -3.105469 1.195312 -3.101562 1.203125 -3.089844 C 1.210938 -3.082031 1.214844 -3.070312 1.214844 -3.054688 C 1.214844 -3.019531 1.207031 -2.953125 1.195312 -2.847656 C 1.183594 -2.746094 1.175781 -2.660156 1.175781 -2.59375 C 1.175781 -2.574219 1.179688 -2.554688 1.179688 -2.539062 C 1.183594 -2.523438 1.1875 -2.511719 1.191406 -2.507812 C 1.359375 -2.664062 1.539062 -2.785156 1.730469 -2.867188 C 1.921875 -2.949219 2.128906 -2.988281 2.355469 -2.988281 C 2.589844 -2.988281 2.785156 -2.894531 2.941406 -2.703125 C 3.09375 -2.507812 3.171875 -2.269531 3.171875 -1.984375 L 3.171875 -0.449219 C 3.171875 -0.351562 3.203125 -0.289062 3.273438 -0.257812 C 3.339844 -0.226562 3.410156 -0.199219 3.480469 -0.171875 C 3.519531 -0.160156 3.558594 -0.144531 3.59375 -0.125 C 3.628906 -0.109375 3.648438 -0.0820312 3.648438 -0.0429688 C 3.648438 -0.015625 3.628906 0.00390625 3.597656 0.0117188 C 3.5625 0.0195312 3.53125 0.0234375 3.503906 0.0234375 C 3.40625 0.0234375 3.332031 0.0195312 3.277344 0.0117188 C 3.226562 0.00390625 3.175781 -0.00390625 3.128906 -0.0078125 C 3.078125 -0.0117188 3.011719 -0.015625 2.925781 -0.015625 C 2.84375 -0.015625 2.777344 -0.0117188 2.722656 -0.0078125 C 2.667969 -0.00390625 2.617188 0.00390625 2.558594 0.0117188 C 2.503906 0.0195312 2.429688 0.0234375 2.332031 0.0234375 C 2.308594 0.0234375 2.277344 0.0195312 2.242188 0.0117188 C 2.207031 0.00390625 2.1875 -0.015625 2.1875 -0.0429688 C 2.1875 -0.0820312 2.207031 -0.109375 2.242188 -0.125 C 2.277344 -0.144531 2.316406 -0.160156 2.355469 -0.171875 C 2.425781 -0.195312 2.496094 -0.226562 2.5625 -0.257812 C 2.632812 -0.289062 2.664062 -0.351562 2.664062 -0.449219 L 2.664062 -1.964844 C 2.664062 -2.175781 2.605469 -2.339844 2.488281 -2.460938 C 2.371094 -2.578125 2.210938 -2.640625 2.015625 -2.644531 C 1.84375 -2.644531 1.691406 -2.617188 1.558594 -2.558594 C 1.429688 -2.503906 1.316406 -2.4375 1.214844 -2.355469 C 1.195312 -2.335938 1.179688 -2.308594 1.171875 -2.277344 C 1.160156 -2.246094 1.15625 -2.21875 1.15625 -2.1875 L 1.15625 -0.449219 C 1.15625 -0.351562 1.1875 -0.285156 1.257812 -0.253906 C 1.324219 -0.21875 1.394531 -0.191406 1.464844 -0.171875 C 1.578125 -0.144531 1.632812 -0.105469 1.632812 -0.0585938 C 1.632812 -0.0273438 1.621094 -0.0078125 1.597656 0.00390625 C 1.574219 0.015625 1.535156 0.0234375 1.488281 0.0234375 C 1.390625 0.0234375 1.316406 0.0195312 1.261719 0.0117188 C 1.207031 0.00390625 1.152344 -0.00390625 1.105469 -0.0078125 C 1.058594 -0.0117188 0.988281 -0.015625 0.902344 -0.015625 C 0.820312 -0.015625 0.753906 -0.0117188 0.703125 -0.0078125 C 0.652344 -0.00390625 0.601562 0.00390625 0.546875 0.0117188 C 0.492188 0.0195312 0.414062 0.0234375 0.316406 0.0234375 Z "/>
</g>
<g id="glyph-0-8">
<path d="M 1.039062 0.101562 C 0.890625 0.101562 0.75 0.078125 0.621094 0.03125 C 0.492188 -0.0117188 0.378906 -0.078125 0.289062 -0.160156 C 0.265625 -0.210938 0.246094 -0.300781 0.234375 -0.425781 C 0.222656 -0.550781 0.214844 -0.65625 0.210938 -0.738281 C 0.210938 -0.78125 0.242188 -0.800781 0.304688 -0.800781 C 0.324219 -0.800781 0.339844 -0.796875 0.359375 -0.789062 C 0.375 -0.78125 0.386719 -0.769531 0.390625 -0.75 C 0.453125 -0.515625 0.550781 -0.347656 0.691406 -0.246094 C 0.828125 -0.144531 0.964844 -0.09375 1.105469 -0.09375 C 1.246094 -0.09375 1.363281 -0.140625 1.460938 -0.234375 C 1.5625 -0.328125 1.609375 -0.445312 1.609375 -0.585938 C 1.609375 -0.714844 1.566406 -0.828125 1.480469 -0.921875 C 1.394531 -1.015625 1.242188 -1.128906 1.027344 -1.265625 C 0.863281 -1.367188 0.730469 -1.460938 0.628906 -1.554688 C 0.527344 -1.644531 0.453125 -1.738281 0.40625 -1.835938 C 0.363281 -1.929688 0.339844 -2.039062 0.339844 -2.160156 C 0.339844 -2.3125 0.375 -2.453125 0.449219 -2.578125 C 0.519531 -2.703125 0.628906 -2.804688 0.773438 -2.878906 C 0.917969 -2.953125 1.097656 -2.988281 1.316406 -2.988281 C 1.460938 -2.988281 1.578125 -2.976562 1.675781 -2.945312 C 1.773438 -2.917969 1.84375 -2.886719 1.890625 -2.851562 C 1.929688 -2.800781 1.964844 -2.71875 1.988281 -2.605469 C 2.015625 -2.492188 2.03125 -2.382812 2.03125 -2.28125 C 2.03125 -2.25 2.003906 -2.230469 1.957031 -2.230469 C 1.929688 -2.230469 1.902344 -2.238281 1.875 -2.25 C 1.847656 -2.261719 1.828125 -2.277344 1.820312 -2.296875 C 1.757812 -2.457031 1.679688 -2.578125 1.585938 -2.660156 C 1.492188 -2.746094 1.375 -2.789062 1.234375 -2.789062 C 1.113281 -2.789062 1.007812 -2.75 0.914062 -2.679688 C 0.820312 -2.605469 0.773438 -2.5 0.773438 -2.363281 C 0.773438 -2.25 0.808594 -2.152344 0.878906 -2.066406 C 0.949219 -1.980469 1.078125 -1.878906 1.269531 -1.769531 C 1.550781 -1.609375 1.757812 -1.460938 1.894531 -1.324219 C 2.03125 -1.1875 2.101562 -1.007812 2.101562 -0.78125 C 2.101562 -0.519531 2.003906 -0.308594 1.804688 -0.144531 C 1.609375 0.0195312 1.351562 0.101562 1.039062 0.101562 Z "/>
</g>
<g id="glyph-0-9">
<path d="M 1.363281 0.101562 C 1.128906 0.101562 0.945312 0.0273438 0.8125 -0.117188 C 0.679688 -0.261719 0.613281 -0.472656 0.613281 -0.757812 L 0.613281 -2.433594 C 0.613281 -2.472656 0.597656 -2.5 0.570312 -2.515625 C 0.542969 -2.535156 0.480469 -2.542969 0.382812 -2.542969 L 0.339844 -2.542969 C 0.316406 -2.542969 0.296875 -2.558594 0.277344 -2.589844 C 0.261719 -2.621094 0.253906 -2.652344 0.253906 -2.6875 C 0.253906 -2.695312 0.261719 -2.710938 0.273438 -2.730469 C 0.289062 -2.75 0.296875 -2.761719 0.304688 -2.765625 C 0.398438 -2.832031 0.488281 -2.902344 0.566406 -2.96875 C 0.644531 -3.035156 0.71875 -3.101562 0.785156 -3.167969 C 0.847656 -3.230469 0.902344 -3.292969 0.945312 -3.34375 C 0.96875 -3.367188 0.992188 -3.386719 1.007812 -3.40625 C 1.023438 -3.421875 1.042969 -3.429688 1.070312 -3.429688 C 1.09375 -3.429688 1.117188 -3.425781 1.136719 -3.417969 C 1.160156 -3.40625 1.167969 -3.386719 1.164062 -3.351562 L 1.125 -3.027344 C 1.121094 -2.972656 1.132812 -2.9375 1.164062 -2.917969 C 1.191406 -2.898438 1.238281 -2.890625 1.300781 -2.890625 L 2.125 -2.890625 C 2.144531 -2.890625 2.160156 -2.875 2.175781 -2.84375 C 2.1875 -2.8125 2.195312 -2.773438 2.195312 -2.730469 C 2.195312 -2.6875 2.1875 -2.644531 2.175781 -2.605469 C 2.160156 -2.5625 2.144531 -2.542969 2.125 -2.542969 L 1.410156 -2.542969 C 1.289062 -2.542969 1.210938 -2.53125 1.171875 -2.511719 C 1.136719 -2.492188 1.121094 -2.4375 1.121094 -2.339844 L 1.121094 -0.917969 C 1.121094 -0.726562 1.160156 -0.574219 1.242188 -0.460938 C 1.324219 -0.351562 1.441406 -0.296875 1.597656 -0.296875 C 1.734375 -0.296875 1.84375 -0.308594 1.921875 -0.328125 C 2 -0.351562 2.066406 -0.382812 2.128906 -0.425781 C 2.140625 -0.4375 2.148438 -0.441406 2.160156 -0.441406 C 2.179688 -0.441406 2.191406 -0.429688 2.199219 -0.40625 C 2.207031 -0.386719 2.210938 -0.363281 2.210938 -0.339844 C 2.210938 -0.316406 2.171875 -0.265625 2.089844 -0.195312 C 2.011719 -0.121094 1.90625 -0.0546875 1.78125 0.0078125 C 1.652344 0.0703125 1.515625 0.101562 1.363281 0.101562 Z "/>
</g>
<g id="glyph-0-10">
<path d="M 2.578125 0.136719 C 2.570312 0.136719 2.554688 0.128906 2.53125 0.109375 C 2.511719 0.0898438 2.5 0.0742188 2.5 0.0664062 C 2.5 0.015625 2.503906 -0.0507812 2.515625 -0.140625 C 2.527344 -0.230469 2.535156 -0.304688 2.535156 -0.367188 L 2.535156 -0.410156 C 2.464844 -0.300781 2.347656 -0.1875 2.1875 -0.0703125 C 2.027344 0.0429688 1.828125 0.101562 1.589844 0.101562 C 1.316406 0.101562 1.078125 0.0273438 0.878906 -0.117188 C 0.679688 -0.261719 0.523438 -0.445312 0.414062 -0.671875 C 0.304688 -0.898438 0.253906 -1.132812 0.253906 -1.371094 C 0.253906 -1.652344 0.316406 -1.914062 0.449219 -2.160156 C 0.578125 -2.40625 0.765625 -2.605469 1.007812 -2.757812 C 1.25 -2.914062 1.539062 -2.988281 1.878906 -2.988281 C 1.972656 -2.988281 2.070312 -2.980469 2.171875 -2.964844 C 2.269531 -2.949219 2.34375 -2.929688 2.398438 -2.910156 C 2.441406 -2.894531 2.472656 -2.890625 2.492188 -2.890625 C 2.527344 -2.890625 2.542969 -2.945312 2.542969 -3.0625 L 2.542969 -4.089844 C 2.542969 -4.285156 2.511719 -4.417969 2.449219 -4.484375 C 2.386719 -4.550781 2.296875 -4.597656 2.179688 -4.617188 C 2.136719 -4.625 2.117188 -4.65625 2.117188 -4.710938 C 2.117188 -4.753906 2.136719 -4.78125 2.175781 -4.796875 C 2.386719 -4.847656 2.550781 -4.898438 2.671875 -4.949219 C 2.792969 -4.996094 2.886719 -5.035156 2.953125 -5.0625 C 2.972656 -5.074219 2.992188 -5.078125 3.007812 -5.082031 C 3.023438 -5.082031 3.039062 -5.085938 3.046875 -5.085938 C 3.078125 -5.085938 3.09375 -5.070312 3.097656 -5.042969 C 3.097656 -5.011719 3.09375 -4.964844 3.085938 -4.894531 C 3.078125 -4.824219 3.070312 -4.722656 3.0625 -4.585938 C 3.054688 -4.453125 3.046875 -4.277344 3.046875 -4.058594 L 3.046875 -0.792969 C 3.046875 -0.628906 3.058594 -0.511719 3.085938 -0.4375 C 3.109375 -0.363281 3.148438 -0.324219 3.199219 -0.324219 C 3.222656 -0.324219 3.265625 -0.328125 3.324219 -0.332031 C 3.386719 -0.335938 3.449219 -0.34375 3.511719 -0.347656 C 3.597656 -0.351562 3.640625 -0.328125 3.640625 -0.28125 C 3.640625 -0.246094 3.628906 -0.21875 3.609375 -0.191406 C 3.585938 -0.164062 3.5625 -0.152344 3.539062 -0.152344 C 3.402344 -0.132812 3.273438 -0.105469 3.140625 -0.0703125 C 3.011719 -0.03125 2.863281 0.0234375 2.695312 0.09375 C 2.65625 0.113281 2.628906 0.125 2.617188 0.128906 C 2.605469 0.132812 2.59375 0.136719 2.578125 0.136719 Z M 1.847656 -0.273438 C 1.972656 -0.273438 2.097656 -0.308594 2.21875 -0.371094 C 2.339844 -0.4375 2.445312 -0.523438 2.535156 -0.628906 L 2.542969 -1.929688 C 2.542969 -2.058594 2.503906 -2.1875 2.429688 -2.3125 C 2.355469 -2.4375 2.253906 -2.539062 2.121094 -2.617188 C 1.988281 -2.699219 1.832031 -2.738281 1.652344 -2.738281 C 1.542969 -2.738281 1.417969 -2.703125 1.277344 -2.636719 C 1.136719 -2.570312 1.019531 -2.449219 0.917969 -2.277344 C 0.816406 -2.105469 0.765625 -1.859375 0.765625 -1.539062 C 0.765625 -1.265625 0.804688 -1.042969 0.886719 -0.878906 C 0.96875 -0.710938 1.070312 -0.585938 1.1875 -0.5 C 1.304688 -0.414062 1.425781 -0.351562 1.550781 -0.320312 C 1.671875 -0.289062 1.773438 -0.273438 1.847656 -0.273438 Z "/>
</g>
<g id="glyph-0-11">
<path d="M 1.546875 0.152344 C 1.527344 0.152344 1.503906 0.113281 1.472656 0.0390625 C 1.445312 -0.0351562 1.425781 -0.0898438 1.414062 -0.121094 C 1.382812 -0.203125 1.351562 -0.289062 1.320312 -0.378906 C 1.292969 -0.46875 1.265625 -0.550781 1.234375 -0.628906 C 1.128906 -0.925781 1.015625 -1.21875 0.890625 -1.507812 C 0.769531 -1.792969 0.648438 -2.082031 0.535156 -2.375 C 0.5 -2.460938 0.449219 -2.542969 0.378906 -2.609375 C 0.308594 -2.679688 0.238281 -2.726562 0.167969 -2.746094 C 0.128906 -2.757812 0.0976562 -2.773438 0.0703125 -2.789062 C 0.046875 -2.804688 0.0351562 -2.828125 0.0351562 -2.859375 C 0.0351562 -2.890625 0.0546875 -2.90625 0.0898438 -2.914062 C 0.125 -2.921875 0.15625 -2.925781 0.179688 -2.925781 C 0.277344 -2.925781 0.347656 -2.921875 0.390625 -2.917969 C 0.433594 -2.914062 0.476562 -2.90625 0.519531 -2.898438 C 0.5625 -2.890625 0.625 -2.890625 0.707031 -2.890625 C 0.792969 -2.890625 0.859375 -2.894531 0.902344 -2.898438 C 0.945312 -2.90625 0.992188 -2.914062 1.039062 -2.917969 C 1.085938 -2.921875 1.15625 -2.925781 1.25 -2.925781 C 1.273438 -2.925781 1.304688 -2.921875 1.339844 -2.914062 C 1.375 -2.90625 1.394531 -2.890625 1.394531 -2.859375 C 1.394531 -2.828125 1.378906 -2.800781 1.34375 -2.78125 C 1.308594 -2.761719 1.269531 -2.746094 1.226562 -2.730469 C 1.179688 -2.710938 1.144531 -2.671875 1.121094 -2.617188 C 1.097656 -2.5625 1.082031 -2.5 1.082031 -2.433594 C 1.082031 -2.398438 1.085938 -2.367188 1.089844 -2.332031 C 1.09375 -2.300781 1.101562 -2.269531 1.113281 -2.238281 L 1.683594 -0.722656 C 1.6875 -0.71875 1.691406 -0.714844 1.695312 -0.714844 C 1.695312 -0.714844 1.699219 -0.71875 1.703125 -0.722656 L 2.253906 -2.128906 C 2.273438 -2.179688 2.289062 -2.230469 2.296875 -2.285156 C 2.304688 -2.339844 2.3125 -2.386719 2.3125 -2.425781 C 2.3125 -2.523438 2.296875 -2.589844 2.269531 -2.632812 C 2.238281 -2.671875 2.191406 -2.707031 2.125 -2.730469 C 2.0625 -2.753906 2.015625 -2.773438 1.992188 -2.789062 C 1.96875 -2.804688 1.957031 -2.828125 1.957031 -2.859375 C 1.957031 -2.890625 1.972656 -2.90625 2.003906 -2.914062 C 2.035156 -2.921875 2.066406 -2.925781 2.101562 -2.925781 C 2.15625 -2.925781 2.222656 -2.917969 2.3125 -2.90625 C 2.398438 -2.894531 2.503906 -2.890625 2.628906 -2.890625 C 2.753906 -2.890625 2.839844 -2.894531 2.886719 -2.90625 C 2.929688 -2.917969 2.988281 -2.925781 3.054688 -2.925781 C 3.09375 -2.925781 3.128906 -2.921875 3.15625 -2.914062 C 3.183594 -2.90625 3.199219 -2.890625 3.199219 -2.859375 C 3.199219 -2.808594 3.144531 -2.765625 3.035156 -2.730469 C 2.960938 -2.710938 2.882812 -2.65625 2.796875 -2.5625 C 2.710938 -2.472656 2.640625 -2.367188 2.585938 -2.246094 L 2.023438 -0.886719 C 2.011719 -0.867188 1.992188 -0.820312 1.964844 -0.746094 C 1.9375 -0.671875 1.90625 -0.589844 1.871094 -0.503906 C 1.835938 -0.414062 1.808594 -0.335938 1.785156 -0.269531 C 1.761719 -0.207031 1.746094 -0.171875 1.746094 -0.171875 C 1.746094 -0.171875 1.738281 -0.152344 1.71875 -0.105469 C 1.699219 -0.0585938 1.679688 -0.0117188 1.652344 0.0390625 C 1.628906 0.0898438 1.609375 0.128906 1.589844 0.152344 Z "/>
</g>
<g id="glyph-0-12">
<path d="M 0.289062 2.058594 C 0.265625 2.058594 0.234375 2.054688 0.195312 2.046875 C 0.15625 2.039062 0.136719 2.023438 0.136719 1.992188 C 0.136719 1.953125 0.15625 1.925781 0.191406 1.910156 C 0.226562 1.894531 0.265625 1.878906 0.304688 1.863281 C 0.375 1.839844 0.445312 1.8125 0.511719 1.78125 C 0.578125 1.75 0.613281 1.683594 0.613281 1.589844 L 0.613281 -2.074219 C 0.613281 -2.113281 0.601562 -2.167969 0.582031 -2.246094 C 0.558594 -2.324219 0.523438 -2.398438 0.476562 -2.46875 C 0.429688 -2.542969 0.363281 -2.585938 0.28125 -2.601562 C 0.261719 -2.605469 0.246094 -2.617188 0.238281 -2.636719 C 0.230469 -2.65625 0.222656 -2.675781 0.222656 -2.695312 C 0.222656 -2.71875 0.230469 -2.738281 0.238281 -2.75 C 0.246094 -2.765625 0.261719 -2.777344 0.273438 -2.78125 C 0.457031 -2.824219 0.613281 -2.871094 0.742188 -2.921875 C 0.875 -2.972656 0.996094 -3.019531 1.113281 -3.070312 C 1.117188 -3.070312 1.121094 -3.070312 1.121094 -3.074219 C 1.121094 -3.074219 1.121094 -3.078125 1.125 -3.078125 C 1.136719 -3.078125 1.144531 -3.070312 1.15625 -3.054688 C 1.164062 -3.039062 1.171875 -3.027344 1.171875 -3.011719 C 1.171875 -2.96875 1.164062 -2.898438 1.152344 -2.804688 C 1.140625 -2.710938 1.132812 -2.636719 1.132812 -2.578125 C 1.132812 -2.539062 1.136719 -2.519531 1.140625 -2.511719 C 1.1875 -2.5625 1.277344 -2.621094 1.40625 -2.699219 C 1.53125 -2.773438 1.679688 -2.839844 1.839844 -2.898438 C 2.003906 -2.960938 2.160156 -2.988281 2.3125 -2.988281 C 2.5625 -2.988281 2.773438 -2.925781 2.949219 -2.792969 C 3.125 -2.660156 3.261719 -2.488281 3.355469 -2.277344 C 3.449219 -2.070312 3.496094 -1.851562 3.496094 -1.625 C 3.496094 -1.410156 3.453125 -1.199219 3.371094 -0.992188 C 3.289062 -0.789062 3.175781 -0.605469 3.027344 -0.441406 C 2.878906 -0.277344 2.703125 -0.144531 2.507812 -0.046875 C 2.308594 0.0507812 2.097656 0.101562 1.871094 0.101562 C 1.804688 0.101562 1.722656 0.0898438 1.628906 0.0703125 C 1.535156 0.046875 1.441406 0.0195312 1.355469 -0.015625 C 1.265625 -0.046875 1.195312 -0.0859375 1.148438 -0.128906 C 1.144531 -0.128906 1.140625 -0.101562 1.132812 -0.046875 C 1.128906 0.0078125 1.125 0.0664062 1.125 0.125 C 1.121094 0.1875 1.121094 0.222656 1.121094 0.238281 L 1.121094 1.589844 C 1.121094 1.652344 1.144531 1.699219 1.195312 1.738281 C 1.246094 1.773438 1.304688 1.800781 1.367188 1.816406 C 1.433594 1.832031 1.492188 1.847656 1.539062 1.863281 C 1.578125 1.878906 1.613281 1.894531 1.648438 1.910156 C 1.6875 1.925781 1.703125 1.953125 1.703125 1.992188 C 1.703125 2.023438 1.683594 2.039062 1.648438 2.046875 C 1.609375 2.054688 1.574219 2.058594 1.546875 2.058594 C 1.40625 2.058594 1.289062 2.050781 1.195312 2.039062 C 1.101562 2.027344 0.992188 2.023438 0.867188 2.023438 C 0.785156 2.023438 0.71875 2.023438 0.667969 2.03125 C 0.617188 2.035156 0.566406 2.039062 0.511719 2.046875 C 0.460938 2.054688 0.386719 2.058594 0.289062 2.058594 Z M 1.980469 -0.121094 C 2.050781 -0.121094 2.140625 -0.144531 2.242188 -0.1875 C 2.347656 -0.230469 2.449219 -0.300781 2.554688 -0.398438 C 2.65625 -0.492188 2.742188 -0.625 2.8125 -0.789062 C 2.882812 -0.953125 2.917969 -1.152344 2.917969 -1.394531 C 2.917969 -1.671875 2.882812 -1.898438 2.808594 -2.066406 C 2.738281 -2.234375 2.648438 -2.363281 2.542969 -2.449219 C 2.4375 -2.535156 2.328125 -2.59375 2.21875 -2.621094 C 2.105469 -2.652344 2.011719 -2.664062 1.9375 -2.664062 C 1.820312 -2.664062 1.699219 -2.640625 1.578125 -2.59375 C 1.457031 -2.546875 1.351562 -2.492188 1.265625 -2.429688 C 1.183594 -2.371094 1.140625 -2.324219 1.140625 -2.289062 C 1.140625 -2.183594 1.140625 -2.078125 1.136719 -1.96875 C 1.136719 -1.859375 1.132812 -1.753906 1.128906 -1.652344 C 1.128906 -1.550781 1.125 -1.460938 1.125 -1.382812 C 1.121094 -1.304688 1.121094 -1.242188 1.121094 -1.199219 C 1.121094 -1.007812 1.164062 -0.828125 1.253906 -0.664062 C 1.34375 -0.5 1.453125 -0.371094 1.585938 -0.269531 C 1.71875 -0.171875 1.847656 -0.121094 1.980469 -0.121094 Z "/>
</g>
</g>
<image id="source-45" x="0" y="0" width="0" height="0"/>
<mask id="mask-0">
<use xlink:href="#source-45"/>
</mask>
</defs>
<g fill="rgb(18.431373%, 16.470588%, 14.901961%)" fill-opacity="1">
<use xlink:href="#glyph-0-0" x="30" y="27.273438"/>
<use xlink:href="#glyph-0-1" x="33" y="27.273438"/>
<use xlink:href="#glyph-0-2" x="36" y="27.273438"/>
<use xlink:href="#glyph-0-3" x="39" y="27.273438"/>
<use xlink:href="#glyph-0-4" x="43" y="27.273438"/>
<use xlink:href="#glyph-0-0" x="44" y="27.273438"/>
<use xlink:href="#glyph-0-5" x="47" y="27.273438"/>
<use xlink:href="#glyph-0-6" x="49" y="27.273438"/>
<use xlink:href="#glyph-0-0" x="52" y="27.273438"/>
<use xlink:href="#glyph-0-7" x="55" y="27.273438"/>
<use xlink:href="#glyph-0-8" x="59" y="27.273438"/>
<use xlink:href="#glyph-0-9" x="61" y="27.273438"/>
<use xlink:href="#glyph-0-1" x="63" y="27.273438"/>
<use xlink:href="#glyph-0-9" x="66" y="27.273438"/>
<use xlink:href="#glyph-0-0" x="68" y="27.273438"/>
<use xlink:href="#glyph-0-4" x="71" y="27.273438"/>
<use xlink:href="#glyph-0-1" x="72" y="27.273438"/>
<use xlink:href="#glyph-0-10" x="75" y="27.273438"/>
<use xlink:href="#glyph-0-11" x="79" y="27.273438"/>
<use xlink:href="#glyph-0-1" x="82" y="27.273438"/>
<use xlink:href="#glyph-0-7" x="85" y="27.273438"/>
<use xlink:href="#glyph-0-2" x="89" y="27.273438"/>
<use xlink:href="#glyph-0-0" x="92" y="27.273438"/>
<use xlink:href="#glyph-0-8" x="95" y="27.273438"/>
<use xlink:href="#glyph-0-4" x="97" y="27.273438"/>
<use xlink:href="#glyph-0-12" x="98" y="27.273438"/>
<use xlink:href="#glyph-0-3" x="102" y="27.273438"/>
<use xlink:href="#glyph-0-1" x="106" y="27.273438"/>
<use xlink:href="#glyph-0-8" x="109" y="27.273438"/>
<use xlink:href="#glyph-0-0" x="111" y="27.273438"/>
</g>
</svg>
