<?xml version="1.0" encoding="UTF-8"?>
<svg xmlns="http://www.w3.org/2000/svg" xmlns:xlink="http://www.w3.org/1999/xlink" width="1920" height="1080" viewBox="0 0 1920 1080">
<defs>
<g>
<g id="glyph-0-0">
<path d="M 1.15625 0.0859375 C 0.957031 0.0859375 0.800781 0.0234375 0.6875 -0.0976562 C 0.574219 -0.21875 0.519531 -0.402344 0.519531 -0.640625 L 0.519531 -2.058594 C 0.519531 -2.089844 0.507812 -2.113281 0.484375 -2.128906 C 0.457031 -2.144531 0.40625 -2.152344 0.324219 -2.152344 L 0.289062 -2.152344 C 0.265625 -2.152344 0.25 -2.164062 0.234375 -2.191406 C 0.21875 -2.21875 0.214844 -2.246094 0.214844 -2.273438 C 0.214844 -2.28125 0.21875 -2.292969 0.230469 -2.308594 C 0.242188 -2.324219 0.253906 -2.335938 0.257812 -2.339844 C 0.339844 -2.398438 0.414062 -2.453125 0.480469 -2.511719 C 0.546875 -2.570312 0.609375 -2.625 0.664062 -2.679688 C 0.71875 -2.734375 0.765625 -2.785156 0.800781 -2.828125 C 0.820312 -2.847656 0.839844 -2.867188 0.851562 -2.882812 C 0.867188 -2.894531 0.882812 -2.902344 0.90625 -2.902344 C 0.925781 -2.902344 0.945312 -2.898438 0.960938 -2.890625 C 0.980469 -2.882812 0.988281 -2.863281 0.984375 -2.835938 L 0.953125 -2.558594 C 0.949219 -2.515625 0.960938 -2.484375 0.984375 -2.46875 C 1.007812 -2.453125 1.046875 -2.445312 1.101562 -2.445312 L 1.796875 -2.445312 C 1.8125 -2.445312 1.828125 -2.429688 1.839844 -2.40625 C 1.851562 -2.378906 1.859375 -2.347656 1.859375 -2.308594 C 1.859375 -2.273438 1.851562 -2.238281 1.839844 -2.203125 C 1.828125 -2.167969 1.8125 -2.152344 1.796875 -2.152344 L 1.191406 -2.152344 C 1.089844 -2.152344 1.023438 -2.144531 0.992188 -2.125 C 0.960938 -2.109375 0.945312 -2.0625 0.945312 -1.980469 L 0.945312 -0.777344 C 0.945312 -0.613281 0.980469 -0.484375 1.050781 -0.390625 C 1.121094 -0.296875 1.21875 -0.25 1.351562 -0.25 C 1.46875 -0.25 1.558594 -0.257812 1.625 -0.277344 C 1.691406 -0.296875 1.75 -0.324219 1.800781 -0.359375 C 1.808594 -0.367188 1.820312 -0.371094 1.828125 -0.371094 C 1.84375 -0.371094 1.855469 -0.363281 1.859375 -0.34375 C 1.867188 -0.328125 1.871094 -0.308594 1.871094 -0.289062 C 1.871094 -0.265625 1.835938 -0.226562 1.769531 -0.164062 C 1.703125 -0.105469 1.613281 -0.046875 1.507812 0.0078125 C 1.398438 0.0585938 1.28125 0.0859375 1.15625 0.0859375 Z "/>
</g>
<g id="glyph-0-1">
<path d="M 0.269531 0.0195312 C 0.230469 0.0195312 0.203125 0.0117188 0.179688 0.00390625 C 0.15625 -0.0078125 0.148438 -0.0234375 0.148438 -0.0507812 C 0.148438 -0.0820312 0.160156 -0.105469 0.191406 -0.117188 C 0.222656 -0.128906 0.253906 -0.136719 0.289062 -0.148438 C 0.375 -0.167969 0.4375 -0.191406 0.484375 -0.222656 C 0.527344 -0.253906 0.550781 -0.304688 0.550781 -0.378906 L 0.550781 -1.703125 C 0.550781 -1.8125 0.53125 -1.914062 0.492188 -2 C 0.453125 -2.085938 0.382812 -2.132812 0.273438 -2.152344 C 0.253906 -2.15625 0.238281 -2.164062 0.230469 -2.175781 C 0.21875 -2.1875 0.214844 -2.207031 0.214844 -2.230469 C 0.214844 -2.273438 0.230469 -2.300781 0.269531 -2.304688 C 0.433594 -2.339844 0.566406 -2.390625 0.671875 -2.453125 C 0.777344 -2.515625 0.859375 -2.570312 0.910156 -2.609375 C 0.945312 -2.636719 0.976562 -2.652344 0.996094 -2.652344 C 1.019531 -2.652344 1.03125 -2.640625 1.03125 -2.621094 C 1.03125 -2.589844 1.027344 -2.523438 1.015625 -2.429688 C 1.007812 -2.332031 0.996094 -2.226562 0.988281 -2.109375 C 0.980469 -1.996094 0.976562 -1.890625 0.976562 -1.796875 L 0.976562 -0.378906 C 0.976562 -0.308594 1 -0.257812 1.046875 -0.226562 C 1.09375 -0.195312 1.160156 -0.167969 1.242188 -0.148438 C 1.273438 -0.140625 1.304688 -0.128906 1.335938 -0.117188 C 1.367188 -0.105469 1.382812 -0.0820312 1.382812 -0.0507812 C 1.382812 -0.00390625 1.339844 0.0195312 1.257812 0.0195312 C 1.179688 0.0195312 1.121094 0.015625 1.074219 0.0078125 C 1.027344 0.00390625 0.980469 -0.00390625 0.9375 -0.0078125 C 0.894531 -0.0117188 0.835938 -0.0117188 0.765625 -0.0117188 C 0.695312 -0.0117188 0.636719 -0.0117188 0.59375 -0.0078125 C 0.546875 -0.00390625 0.503906 0.00390625 0.457031 0.0078125 C 0.414062 0.015625 0.351562 0.0195312 0.269531 0.0195312 Z M 0.757812 -3.152344 C 0.671875 -3.152344 0.601562 -3.183594 0.539062 -3.242188 C 0.480469 -3.300781 0.453125 -3.371094 0.453125 -3.457031 C 0.453125 -3.546875 0.480469 -3.621094 0.539062 -3.679688 C 0.597656 -3.738281 0.671875 -3.769531 0.757812 -3.769531 C 0.847656 -3.769531 0.921875 -3.742188 0.980469 -3.679688 C 1.039062 -3.621094 1.070312 -3.546875 1.070312 -3.457031 C 1.070312 -3.371094 1.039062 -3.300781 0.980469 -3.242188 C 0.921875 -3.183594 0.847656 -3.152344 0.757812 -3.152344 Z "/>
</g>
<g id="glyph-0-2">
<path d="M 0.269531 0.0195312 C 0.238281 0.0195312 0.207031 0.015625 0.183594 0.0078125 C 0.160156 0 0.148438 -0.0195312 0.148438 -0.0507812 C 0.148438 -0.078125 0.160156 -0.0976562 0.1875 -0.109375 C 0.214844 -0.121094 0.246094 -0.132812 0.289062 -0.148438 C 0.34375 -0.167969 0.402344 -0.191406 0.460938 -0.21875 C 0.519531 -0.242188 0.550781 -0.296875 0.550781 -0.378906 L 0.550781 -1.691406 C 0.550781 -1.800781 0.539062 -1.898438 0.511719 -1.984375 C 0.488281 -2.066406 0.421875 -2.117188 0.316406 -2.132812 C 0.300781 -2.136719 0.289062 -2.144531 0.277344 -2.15625 C 0.269531 -2.167969 0.261719 -2.1875 0.261719 -2.210938 C 0.261719 -2.253906 0.277344 -2.277344 0.3125 -2.285156 C 0.421875 -2.3125 0.507812 -2.34375 0.574219 -2.375 C 0.640625 -2.40625 0.699219 -2.4375 0.75 -2.476562 C 0.800781 -2.515625 0.863281 -2.558594 0.933594 -2.601562 C 0.941406 -2.605469 0.953125 -2.613281 0.960938 -2.617188 C 0.96875 -2.625 0.976562 -2.628906 0.988281 -2.628906 C 1.015625 -2.628906 1.027344 -2.613281 1.027344 -2.585938 C 1.027344 -2.554688 1.019531 -2.5 1.011719 -2.410156 C 1 -2.324219 0.996094 -2.25 0.996094 -2.195312 C 0.996094 -2.152344 1 -2.128906 1.007812 -2.121094 L 1.019531 -2.121094 C 1.113281 -2.210938 1.238281 -2.300781 1.390625 -2.390625 C 1.542969 -2.484375 1.738281 -2.53125 1.972656 -2.53125 C 2.121094 -2.53125 2.242188 -2.5 2.339844 -2.433594 C 2.4375 -2.371094 2.519531 -2.261719 2.585938 -2.109375 L 2.601562 -2.109375 C 2.734375 -2.226562 2.882812 -2.324219 3.050781 -2.40625 C 3.214844 -2.488281 3.398438 -2.53125 3.597656 -2.53125 C 3.734375 -2.53125 3.84375 -2.488281 3.933594 -2.40625 C 4.023438 -2.324219 4.09375 -2.21875 4.140625 -2.089844 C 4.1875 -1.960938 4.210938 -1.824219 4.210938 -1.679688 L 4.210938 -0.378906 C 4.210938 -0.296875 4.238281 -0.242188 4.296875 -0.21875 C 4.351562 -0.191406 4.410156 -0.167969 4.472656 -0.148438 C 4.511719 -0.136719 4.546875 -0.121094 4.574219 -0.109375 C 4.601562 -0.0976562 4.613281 -0.078125 4.613281 -0.0507812 C 4.613281 -0.0234375 4.605469 -0.0078125 4.585938 0.00390625 C 4.566406 0.0117188 4.535156 0.0195312 4.492188 0.0195312 C 4.410156 0.0195312 4.347656 0.015625 4.300781 0.0078125 C 4.257812 0.00390625 4.214844 -0.00390625 4.175781 -0.0078125 C 4.136719 -0.0117188 4.082031 -0.0117188 4.007812 -0.0117188 C 3.9375 -0.0117188 3.882812 -0.0117188 3.835938 -0.0078125 C 3.792969 -0.00390625 3.746094 0.00390625 3.695312 0.0078125 C 3.648438 0.015625 3.582031 0.0195312 3.5 0.0195312 C 3.464844 0.0195312 3.433594 0.0117188 3.414062 0.00390625 C 3.390625 -0.0078125 3.378906 -0.0234375 3.378906 -0.0507812 C 3.378906 -0.0820312 3.390625 -0.105469 3.417969 -0.117188 C 3.445312 -0.128906 3.480469 -0.136719 3.519531 -0.148438 C 3.585938 -0.164062 3.644531 -0.183594 3.699219 -0.214844 C 3.753906 -0.242188 3.78125 -0.296875 3.78125 -0.378906 L 3.78125 -1.660156 C 3.78125 -1.757812 3.761719 -1.851562 3.714844 -1.941406 C 3.671875 -2.027344 3.609375 -2.101562 3.539062 -2.15625 C 3.464844 -2.214844 3.382812 -2.242188 3.292969 -2.242188 C 3.191406 -2.242188 3.097656 -2.230469 3.007812 -2.207031 C 2.921875 -2.183594 2.839844 -2.136719 2.761719 -2.078125 C 2.648438 -1.988281 2.589844 -1.839844 2.589844 -1.636719 L 2.589844 -0.378906 C 2.589844 -0.296875 2.621094 -0.242188 2.683594 -0.214844 C 2.742188 -0.1875 2.804688 -0.164062 2.867188 -0.148438 C 2.90625 -0.140625 2.941406 -0.128906 2.964844 -0.113281 C 2.992188 -0.0976562 3.007812 -0.078125 3.007812 -0.0507812 C 3.007812 -0.0234375 2.996094 -0.0078125 2.976562 0.00390625 C 2.957031 0.0117188 2.925781 0.0195312 2.882812 0.0195312 C 2.800781 0.0195312 2.738281 0.015625 2.691406 0.0078125 C 2.644531 0.00390625 2.601562 -0.00390625 2.558594 -0.0078125 C 2.515625 -0.0117188 2.457031 -0.0117188 2.382812 -0.0117188 C 2.3125 -0.0117188 2.257812 -0.0117188 2.210938 -0.0078125 C 2.167969 -0.00390625 2.121094 0.00390625 2.070312 0.0078125 C 2.023438 0.015625 1.957031 0.0195312 1.875 0.0195312 C 1.84375 0.0195312 1.816406 0.0117188 1.789062 0.00390625 C 1.765625 -0.0078125 1.753906 -0.0234375 1.753906 -0.0507812 C 1.753906 -0.0820312 1.769531 -0.101562 1.800781 -0.113281 C 1.832031 -0.125 1.863281 -0.132812 1.894531 -0.148438 C 1.957031 -0.167969 2.015625 -0.191406 2.074219 -0.21875 C 2.132812 -0.242188 2.164062 -0.296875 2.164062 -0.378906 L 2.164062 -1.660156 C 2.164062 -1.757812 2.140625 -1.851562 2.097656 -1.941406 C 2.050781 -2.027344 1.992188 -2.101562 1.917969 -2.15625 C 1.84375 -2.214844 1.765625 -2.242188 1.675781 -2.242188 C 1.574219 -2.242188 1.476562 -2.230469 1.390625 -2.207031 C 1.300781 -2.183594 1.21875 -2.136719 1.144531 -2.078125 C 1.035156 -1.996094 0.976562 -1.847656 0.976562 -1.636719 L 0.976562 -0.378906 C 0.976562 -0.296875 1.007812 -0.242188 1.0625 -0.21875 C 1.121094 -0.191406 1.179688 -0.167969 1.242188 -0.148438 C 1.273438 -0.136719 1.304688 -0.125 1.335938 -0.113281 C 1.367188 -0.101562 1.382812 -0.0820312 1.382812 -0.0507812 C 1.382812 -0.0234375 1.371094 -0.0078125 1.347656 0.00390625 C 1.324219 0.0117188 1.296875 0.0195312 1.257812 0.0195312 C 1.175781 0.0195312 1.113281 0.015625 1.066406 0.0078125 C 1.019531 0.00390625 0.976562 -0.00390625 0.933594 -0.0078125 C 0.894531 -0.0117188 0.835938 -0.0117188 0.765625 -0.0117188 C 0.695312 -0.0117188 0.636719 -0.0117188 0.597656 -0.0078125 C 0.554688 -0.00390625 0.507812 0.00390625 0.460938 0.0078125 C 0.414062 0.015625 0.351562 0.0195312 0.269531 0.0195312 Z "/>
</g>
<g id="glyph-0-3">
<path d="M 1.300781 0.0898438 C 1.078125 0.0898438 0.882812 0.0351562 0.714844 -0.0742188 C 0.546875 -0.183594 0.417969 -0.339844 0.324219 -0.539062 C 0.230469 -0.742188 0.183594 -0.976562 0.183594 -1.242188 C 0.183594 -1.476562 0.238281 -1.691406 0.34375 -1.886719 C 0.453125 -2.078125 0.597656 -2.234375 0.777344 -2.351562 C 0.957031 -2.46875 1.152344 -2.53125 1.363281 -2.53125 C 1.527344 -2.53125 1.671875 -2.496094 1.796875 -2.433594 C 1.921875 -2.367188 2.023438 -2.277344 2.09375 -2.160156 C 2.164062 -2.042969 2.199219 -1.910156 2.199219 -1.761719 C 2.199219 -1.632812 2.136719 -1.570312 2.015625 -1.570312 L 0.726562 -1.570312 C 0.667969 -1.570312 0.628906 -1.554688 0.609375 -1.523438 C 0.585938 -1.492188 0.574219 -1.433594 0.574219 -1.34375 C 0.574219 -1.148438 0.617188 -0.96875 0.703125 -0.808594 C 0.789062 -0.648438 0.902344 -0.519531 1.042969 -0.425781 C 1.1875 -0.328125 1.34375 -0.28125 1.515625 -0.28125 C 1.636719 -0.28125 1.75 -0.304688 1.847656 -0.351562 C 1.949219 -0.398438 2.035156 -0.464844 2.113281 -0.554688 C 2.128906 -0.574219 2.144531 -0.589844 2.152344 -0.597656 C 2.160156 -0.601562 2.167969 -0.605469 2.179688 -0.605469 C 2.214844 -0.605469 2.230469 -0.585938 2.230469 -0.542969 C 2.230469 -0.464844 2.195312 -0.382812 2.121094 -0.289062 C 2.058594 -0.210938 1.984375 -0.140625 1.898438 -0.0859375 C 1.8125 -0.0273438 1.722656 0.015625 1.621094 0.046875 C 1.519531 0.078125 1.410156 0.0898438 1.300781 0.0898438 Z M 0.738281 -1.761719 L 1.296875 -1.761719 C 1.394531 -1.761719 1.476562 -1.761719 1.546875 -1.765625 C 1.617188 -1.769531 1.683594 -1.777344 1.746094 -1.789062 C 1.765625 -1.792969 1.78125 -1.808594 1.789062 -1.828125 C 1.792969 -1.851562 1.796875 -1.882812 1.796875 -1.925781 C 1.796875 -2.042969 1.746094 -2.144531 1.640625 -2.226562 C 1.535156 -2.308594 1.414062 -2.351562 1.269531 -2.351562 C 1.175781 -2.351562 1.082031 -2.324219 0.988281 -2.269531 C 0.894531 -2.214844 0.820312 -2.148438 0.757812 -2.066406 C 0.695312 -1.984375 0.667969 -1.902344 0.667969 -1.820312 C 0.667969 -1.78125 0.691406 -1.761719 0.738281 -1.761719 Z "/>
</g>
</g>
</defs>
<g fill="rgb(24.313725%, 33.333333%, 34.901961%)" fill-opacity="1">
<use xlink:href="#glyph-0-0" x="30" y="26.15332"/>
<use xlink:href="#glyph-0-1" x="32" y="26.15332"/>
<use xlink:href="#glyph-0-2" x="33" y="26.15332"/>
<use xlink:href="#glyph-0-3" x="38" y="26.15332"/>
</g>
</svg>
