<?xml version="1.0" encoding="UTF-8"?>
<svg xmlns="http://www.w3.org/2000/svg" xmlns:xlink="http://www.w3.org/1999/xlink" width="1920" height="1080" viewBox="0 0 1920 1080">
<defs>
<g>
<g id="glyph-0-0">
<path d="M 1.300781 0.0898438 C 1.078125 0.0898438 0.882812 0.0351562 0.714844 -0.0742188 C 0.546875 -0.183594 0.417969 -0.339844 0.324219 -0.539062 C 0.230469 -0.742188 0.183594 -0.976562 0.183594 -1.242188 C 0.183594 -1.476562 0.238281 -1.691406 0.34375 -1.886719 C 0.453125 -2.078125 0.597656 -2.234375 0.777344 -2.351562 C 0.957031 -2.46875 1.152344 -2.53125 1.363281 -2.53125 C 1.527344 -2.53125 1.671875 -2.496094 1.796875 -2.433594 C 1.921875 -2.367188 2.023438 -2.277344 2.09375 -2.160156 C 2.164062 -2.042969 2.199219 -1.910156 2.199219 -1.761719 C 2.199219 -1.632812 2.136719 -1.570312 2.015625 -1.570312 L 0.726562 -1.570312 C 0.667969 -1.570312 0.628906 -1.554688 0.609375 -1.523438 C 0.585938 -1.492188 0.574219 -1.433594 0.574219 -1.34375 C 0.574219 -1.148438 0.617188 -0.96875 0.703125 -0.808594 C 0.789062 -0.648438 0.902344 -0.519531 1.042969 -0.425781 C 1.1875 -0.328125 1.34375 -0.28125 1.515625 -0.28125 C 1.636719 -0.28125 1.75 -0.304688 1.847656 -0.351562 C 1.949219 -0.398438 2.035156 -0.464844 2.113281 -0.554688 C 2.128906 -0.574219 2.144531 -0.589844 2.152344 -0.597656 C 2.160156 -0.601562 2.167969 -0.605469 2.179688 -0.605469 C 2.214844 -0.605469 2.230469 -0.585938 2.230469 -0.542969 C 2.230469 -0.464844 2.195312 -0.382812 2.121094 -0.289062 C 2.058594 -0.210938 1.984375 -0.140625 1.898438 -0.0859375 C 1.8125 -0.0273438 1.722656 0.015625 1.621094 0.046875 C 1.519531 0.078125 1.410156 0.0898438 1.300781 0.0898438 Z M 0.738281 -1.761719 L 1.296875 -1.761719 C 1.394531 -1.761719 1.476562 -1.761719 1.546875 -1.765625 C 1.617188 -1.769531 1.683594 -1.777344 1.746094 -1.789062 C 1.765625 -1.792969 1.78125 -1.808594 1.789062 -1.828125 C 1.792969 -1.851562 1.796875 -1.882812 1.796875 -1.925781 C 1.796875 -2.042969 1.746094 -2.144531 1.640625 -2.226562 C 1.535156 -2.308594 1.414062 -2.351562 1.269531 -2.351562 C 1.175781 -2.351562 1.082031 -2.324219 0.988281 -2.269531 C 0.894531 -2.214844 0.820312 -2.148438 0.757812 -2.066406 C 0.695312 -1.984375 0.667969 -1.902344 0.667969 -1.820312 C 0.667969 -1.78125 0.691406 -1.761719 0.738281 -1.761719 Z "/>
</g>
<g id="glyph-0-1">
<path d="M 0.269531 0.0195312 C 0.230469 0.0195312 0.203125 0.0117188 0.179688 0.00390625 C 0.15625 -0.0078125 0.148438 -0.0234375 0.148438 -0.0507812 C 0.148438 -0.0820312 0.160156 -0.101562 0.183594 -0.113281 C 0.207031 -0.125 0.242188 -0.132812 0.289062 -0.148438 C 0.347656 -0.164062 0.40625 -0.183594 0.464844 -0.214844 C 0.523438 -0.242188 0.550781 -0.296875 0.550781 -0.378906 L 0.550781 -1.691406 C 0.550781 -1.800781 0.539062 -1.894531 0.515625 -1.972656 C 0.492188 -2.050781 0.429688 -2.105469 0.324219 -2.132812 C 0.308594 -2.140625 0.292969 -2.148438 0.28125 -2.160156 C 0.269531 -2.171875 0.261719 -2.1875 0.261719 -2.210938 C 0.261719 -2.257812 0.28125 -2.28125 0.316406 -2.285156 C 0.460938 -2.320312 0.578125 -2.367188 0.667969 -2.417969 C 0.757812 -2.472656 0.84375 -2.53125 0.929688 -2.597656 C 0.941406 -2.605469 0.953125 -2.613281 0.960938 -2.617188 C 0.972656 -2.625 0.984375 -2.628906 0.996094 -2.628906 C 1.003906 -2.628906 1.011719 -2.625 1.015625 -2.613281 C 1.023438 -2.605469 1.027344 -2.597656 1.027344 -2.585938 C 1.027344 -2.554688 1.019531 -2.5 1.011719 -2.410156 C 1 -2.324219 0.996094 -2.25 0.996094 -2.195312 C 0.996094 -2.179688 0.996094 -2.160156 1 -2.148438 C 1 -2.132812 1.003906 -2.125 1.007812 -2.121094 C 1.152344 -2.253906 1.300781 -2.355469 1.464844 -2.425781 C 1.625 -2.496094 1.800781 -2.53125 1.992188 -2.53125 C 2.191406 -2.53125 2.355469 -2.449219 2.488281 -2.285156 C 2.617188 -2.121094 2.683594 -1.921875 2.683594 -1.679688 L 2.683594 -0.378906 C 2.683594 -0.296875 2.710938 -0.242188 2.769531 -0.21875 C 2.824219 -0.191406 2.882812 -0.167969 2.945312 -0.148438 C 2.976562 -0.136719 3.007812 -0.121094 3.039062 -0.105469 C 3.070312 -0.09375 3.085938 -0.0703125 3.085938 -0.0351562 C 3.085938 -0.0117188 3.070312 0.00390625 3.042969 0.0078125 C 3.015625 0.015625 2.988281 0.0195312 2.964844 0.0195312 C 2.882812 0.0195312 2.820312 0.015625 2.773438 0.0078125 C 2.730469 0.00390625 2.6875 -0.00390625 2.644531 -0.0078125 C 2.605469 -0.0117188 2.546875 -0.0117188 2.476562 -0.0117188 C 2.40625 -0.0117188 2.347656 -0.0117188 2.304688 -0.0078125 C 2.257812 -0.00390625 2.214844 0.00390625 2.167969 0.0078125 C 2.121094 0.015625 2.054688 0.0195312 1.972656 0.0195312 C 1.953125 0.0195312 1.929688 0.015625 1.898438 0.0078125 C 1.867188 0.00390625 1.851562 -0.0117188 1.851562 -0.0351562 C 1.851562 -0.0703125 1.867188 -0.09375 1.898438 -0.105469 C 1.929688 -0.121094 1.960938 -0.132812 1.992188 -0.148438 C 2.054688 -0.167969 2.113281 -0.191406 2.167969 -0.21875 C 2.226562 -0.242188 2.253906 -0.296875 2.253906 -0.378906 L 2.253906 -1.660156 C 2.253906 -1.839844 2.203125 -1.980469 2.105469 -2.082031 C 2.003906 -2.179688 1.871094 -2.230469 1.703125 -2.238281 C 1.558594 -2.238281 1.429688 -2.214844 1.320312 -2.167969 C 1.210938 -2.121094 1.113281 -2.0625 1.027344 -1.992188 C 1.011719 -1.976562 0.996094 -1.953125 0.988281 -1.929688 C 0.980469 -1.902344 0.976562 -1.875 0.976562 -1.851562 L 0.976562 -0.378906 C 0.976562 -0.296875 1.007812 -0.242188 1.0625 -0.214844 C 1.121094 -0.1875 1.179688 -0.164062 1.242188 -0.148438 C 1.335938 -0.121094 1.382812 -0.0898438 1.382812 -0.0507812 C 1.382812 -0.0234375 1.371094 -0.0078125 1.351562 0.00390625 C 1.332031 0.0117188 1.300781 0.0195312 1.257812 0.0195312 C 1.175781 0.0195312 1.113281 0.015625 1.066406 0.0078125 C 1.019531 0.00390625 0.976562 -0.00390625 0.933594 -0.0078125 C 0.894531 -0.0117188 0.835938 -0.0117188 0.765625 -0.0117188 C 0.695312 -0.0117188 0.636719 -0.0117188 0.597656 -0.0078125 C 0.554688 -0.00390625 0.507812 0.00390625 0.460938 0.0078125 C 0.414062 0.015625 0.351562 0.0195312 0.269531 0.0195312 Z "/>
</g>
<g id="glyph-0-2">
<path d="M 0.300781 0.0195312 C 0.257812 0.0195312 0.226562 0.0117188 0.207031 0.00390625 C 0.1875 -0.0078125 0.175781 -0.0234375 0.175781 -0.0507812 C 0.175781 -0.0820312 0.1875 -0.101562 0.214844 -0.113281 C 0.238281 -0.125 0.273438 -0.132812 0.316406 -0.148438 C 0.394531 -0.167969 0.453125 -0.195312 0.492188 -0.234375 C 0.53125 -0.273438 0.550781 -0.320312 0.550781 -0.378906 L 0.550781 -1.691406 C 0.550781 -1.800781 0.535156 -1.898438 0.5 -1.980469 C 0.46875 -2.0625 0.402344 -2.113281 0.300781 -2.132812 C 0.285156 -2.136719 0.269531 -2.148438 0.257812 -2.164062 C 0.246094 -2.179688 0.238281 -2.195312 0.238281 -2.210938 C 0.238281 -2.253906 0.257812 -2.277344 0.292969 -2.285156 C 0.398438 -2.316406 0.511719 -2.367188 0.625 -2.429688 C 0.742188 -2.492188 0.832031 -2.542969 0.898438 -2.585938 C 0.921875 -2.601562 0.941406 -2.613281 0.957031 -2.617188 C 0.972656 -2.625 0.980469 -2.628906 0.988281 -2.628906 C 1.007812 -2.628906 1.019531 -2.613281 1.019531 -2.585938 C 1.019531 -2.574219 1.019531 -2.542969 1.015625 -2.492188 C 1.015625 -2.445312 1.011719 -2.386719 1.011719 -2.320312 C 1.007812 -2.257812 1.007812 -2.191406 1.003906 -2.125 C 1.003906 -2.117188 1.007812 -2.113281 1.015625 -2.113281 C 1.078125 -2.195312 1.152344 -2.265625 1.230469 -2.328125 C 1.308594 -2.390625 1.390625 -2.4375 1.476562 -2.476562 C 1.558594 -2.511719 1.640625 -2.53125 1.71875 -2.53125 C 1.804688 -2.53125 1.871094 -2.511719 1.929688 -2.476562 C 1.984375 -2.4375 2.011719 -2.390625 2.011719 -2.335938 C 2.011719 -2.292969 2 -2.25 1.976562 -2.199219 C 1.953125 -2.152344 1.925781 -2.109375 1.886719 -2.070312 C 1.851562 -2.035156 1.8125 -2.015625 1.773438 -2.015625 C 1.746094 -2.015625 1.722656 -2.023438 1.691406 -2.03125 C 1.664062 -2.042969 1.632812 -2.054688 1.601562 -2.070312 C 1.570312 -2.082031 1.535156 -2.097656 1.503906 -2.109375 C 1.472656 -2.121094 1.4375 -2.125 1.40625 -2.125 C 1.308594 -2.125 1.214844 -2.089844 1.121094 -2.023438 C 1.03125 -1.953125 0.984375 -1.816406 0.984375 -1.613281 L 0.984375 -0.378906 C 0.984375 -0.324219 1.011719 -0.28125 1.070312 -0.246094 C 1.125 -0.210938 1.207031 -0.179688 1.308594 -0.148438 C 1.351562 -0.136719 1.386719 -0.121094 1.410156 -0.109375 C 1.433594 -0.0976562 1.449219 -0.078125 1.449219 -0.0507812 C 1.449219 -0.00390625 1.40625 0.0195312 1.324219 0.0195312 C 1.203125 0.0195312 1.109375 0.0117188 1.046875 0.00390625 C 0.984375 -0.0078125 0.898438 -0.0117188 0.792969 -0.0117188 C 0.726562 -0.0117188 0.667969 -0.0117188 0.625 -0.0078125 C 0.582031 -0.00390625 0.539062 0.00390625 0.492188 0.0078125 C 0.445312 0.015625 0.382812 0.0195312 0.300781 0.0195312 Z "/>
</g>
<g id="glyph-0-3">
<path d="M 1.191406 1.773438 C 0.84375 1.773438 0.570312 1.707031 0.371094 1.574219 C 0.167969 1.441406 0.0664062 1.261719 0.0664062 1.039062 C 0.0664062 0.933594 0.0820312 0.84375 0.117188 0.769531 C 0.148438 0.695312 0.199219 0.632812 0.269531 0.582031 C 0.324219 0.53125 0.402344 0.46875 0.496094 0.394531 C 0.59375 0.320312 0.691406 0.242188 0.792969 0.160156 L 1.050781 0.171875 C 0.855469 0.296875 0.71875 0.417969 0.640625 0.53125 C 0.5625 0.644531 0.527344 0.785156 0.527344 0.945312 C 0.527344 1.109375 0.597656 1.246094 0.742188 1.359375 C 0.886719 1.472656 1.066406 1.527344 1.277344 1.527344 C 1.515625 1.527344 1.710938 1.472656 1.859375 1.363281 C 1.960938 1.285156 2.039062 1.183594 2.097656 1.058594 C 2.152344 0.933594 2.179688 0.804688 2.179688 0.667969 C 2.179688 0.578125 2.148438 0.503906 2.085938 0.441406 C 2.023438 0.382812 1.925781 0.335938 1.789062 0.300781 C 1.65625 0.261719 1.480469 0.238281 1.265625 0.226562 C 0.882812 0.199219 0.617188 0.148438 0.46875 0.0742188 C 0.320312 0 0.246094 -0.113281 0.246094 -0.269531 C 0.246094 -0.308594 0.253906 -0.347656 0.277344 -0.382812 C 0.300781 -0.417969 0.335938 -0.453125 0.386719 -0.496094 C 0.480469 -0.570312 0.546875 -0.621094 0.59375 -0.65625 C 0.636719 -0.691406 0.671875 -0.722656 0.695312 -0.746094 C 0.714844 -0.769531 0.738281 -0.800781 0.757812 -0.835938 L 0.964844 -0.734375 C 0.875 -0.699219 0.800781 -0.65625 0.738281 -0.601562 C 0.679688 -0.546875 0.648438 -0.496094 0.648438 -0.453125 C 0.648438 -0.394531 0.679688 -0.34375 0.738281 -0.300781 C 0.800781 -0.257812 0.890625 -0.226562 1.007812 -0.203125 C 1.125 -0.175781 1.269531 -0.160156 1.441406 -0.148438 C 1.816406 -0.125 2.097656 -0.0664062 2.277344 0.0351562 C 2.460938 0.136719 2.554688 0.28125 2.554688 0.46875 C 2.554688 0.628906 2.515625 0.785156 2.433594 0.9375 C 2.355469 1.089844 2.25 1.230469 2.121094 1.355469 C 1.988281 1.484375 1.84375 1.582031 1.683594 1.660156 C 1.523438 1.734375 1.359375 1.773438 1.191406 1.773438 Z M 1.265625 -0.863281 C 1.417969 -0.863281 1.546875 -0.941406 1.648438 -1.097656 C 1.75 -1.253906 1.800781 -1.449219 1.800781 -1.679688 C 1.800781 -1.796875 1.773438 -1.910156 1.71875 -2.011719 C 1.664062 -2.117188 1.59375 -2.199219 1.507812 -2.265625 C 1.417969 -2.328125 1.324219 -2.359375 1.222656 -2.359375 C 1.128906 -2.359375 1.039062 -2.324219 0.957031 -2.257812 C 0.871094 -2.191406 0.804688 -2.105469 0.753906 -2 C 0.703125 -1.894531 0.679688 -1.777344 0.679688 -1.648438 C 0.679688 -1.507812 0.703125 -1.375 0.757812 -1.253906 C 0.8125 -1.136719 0.882812 -1.039062 0.972656 -0.96875 C 1.0625 -0.898438 1.160156 -0.863281 1.265625 -0.863281 Z M 1.226562 -0.648438 C 1.0625 -0.648438 0.902344 -0.691406 0.75 -0.777344 C 0.601562 -0.863281 0.476562 -0.972656 0.382812 -1.113281 C 0.285156 -1.253906 0.238281 -1.410156 0.238281 -1.578125 C 0.238281 -1.769531 0.289062 -1.9375 0.386719 -2.082031 C 0.488281 -2.226562 0.621094 -2.339844 0.78125 -2.417969 C 0.945312 -2.5 1.117188 -2.542969 1.300781 -2.542969 C 1.417969 -2.542969 1.523438 -2.527344 1.609375 -2.496094 C 1.699219 -2.464844 1.785156 -2.4375 1.871094 -2.414062 C 1.96875 -2.386719 2.046875 -2.367188 2.101562 -2.363281 C 2.160156 -2.355469 2.21875 -2.351562 2.277344 -2.351562 C 2.328125 -2.351562 2.390625 -2.355469 2.460938 -2.363281 C 2.535156 -2.367188 2.585938 -2.371094 2.613281 -2.371094 C 2.667969 -2.371094 2.695312 -2.339844 2.695312 -2.277344 C 2.695312 -2.242188 2.675781 -2.203125 2.632812 -2.164062 C 2.613281 -2.144531 2.597656 -2.132812 2.585938 -2.132812 L 2.417969 -2.132812 C 2.308594 -2.132812 2.25 -2.117188 2.238281 -2.082031 C 2.234375 -2.066406 2.226562 -2.042969 2.222656 -2.011719 C 2.214844 -1.980469 2.210938 -1.949219 2.207031 -1.914062 C 2.203125 -1.875 2.199219 -1.839844 2.199219 -1.800781 C 2.199219 -1.59375 2.15625 -1.402344 2.066406 -1.226562 C 1.976562 -1.050781 1.859375 -0.914062 1.710938 -0.804688 C 1.5625 -0.699219 1.402344 -0.648438 1.226562 -0.648438 Z "/>
</g>
<g id="glyph-0-4">
<path d="M 0.390625 1.742188 C 0.3125 1.742188 0.242188 1.722656 0.175781 1.683594 C 0.113281 1.644531 0.078125 1.582031 0.078125 1.492188 C 0.078125 1.417969 0.0976562 1.351562 0.132812 1.296875 C 0.167969 1.242188 0.214844 1.214844 0.28125 1.214844 C 0.324219 1.214844 0.371094 1.222656 0.414062 1.234375 C 0.457031 1.246094 0.492188 1.253906 0.527344 1.253906 C 0.550781 1.253906 0.570312 1.246094 0.589844 1.238281 C 0.609375 1.226562 0.625 1.210938 0.640625 1.183594 C 0.6875 1.113281 0.738281 1.019531 0.796875 0.910156 C 0.855469 0.800781 0.917969 0.675781 0.980469 0.539062 C 1.042969 0.398438 1.105469 0.253906 1.160156 0.0976562 C 1.171875 0.0625 1.179688 0.015625 1.179688 -0.0429688 C 1.179688 -0.0742188 1.175781 -0.105469 1.171875 -0.136719 C 1.167969 -0.167969 1.164062 -0.195312 1.15625 -0.21875 L 0.445312 -2.011719 C 0.417969 -2.085938 0.378906 -2.148438 0.332031 -2.203125 C 0.285156 -2.257812 0.230469 -2.292969 0.171875 -2.308594 C 0.140625 -2.320312 0.105469 -2.335938 0.078125 -2.351562 C 0.046875 -2.367188 0.03125 -2.390625 0.03125 -2.417969 C 0.03125 -2.445312 0.046875 -2.460938 0.078125 -2.464844 C 0.109375 -2.472656 0.132812 -2.476562 0.152344 -2.476562 C 0.234375 -2.476562 0.292969 -2.472656 0.332031 -2.46875 C 0.371094 -2.464844 0.410156 -2.460938 0.441406 -2.453125 C 0.476562 -2.445312 0.53125 -2.445312 0.597656 -2.445312 C 0.671875 -2.445312 0.726562 -2.445312 0.765625 -2.453125 C 0.800781 -2.460938 0.839844 -2.464844 0.878906 -2.46875 C 0.921875 -2.472656 0.980469 -2.476562 1.0625 -2.476562 C 1.085938 -2.476562 1.113281 -2.46875 1.144531 -2.460938 C 1.171875 -2.449219 1.183594 -2.433594 1.183594 -2.40625 C 1.183594 -2.378906 1.164062 -2.351562 1.121094 -2.324219 C 1.078125 -2.296875 1.039062 -2.28125 1.007812 -2.273438 C 0.96875 -2.261719 0.9375 -2.238281 0.917969 -2.207031 C 0.898438 -2.175781 0.886719 -2.132812 0.886719 -2.078125 C 0.886719 -2.054688 0.890625 -2.023438 0.90625 -1.988281 C 0.917969 -1.953125 0.925781 -1.925781 0.933594 -1.90625 L 1.429688 -0.683594 C 1.4375 -0.660156 1.449219 -0.648438 1.464844 -0.648438 C 1.476562 -0.648438 1.488281 -0.660156 1.496094 -0.683594 L 1.917969 -1.800781 C 1.929688 -1.832031 1.941406 -1.867188 1.953125 -1.914062 C 1.960938 -1.960938 1.96875 -2 1.96875 -2.027344 C 1.96875 -2.105469 1.957031 -2.160156 1.933594 -2.191406 C 1.910156 -2.222656 1.882812 -2.246094 1.84375 -2.261719 C 1.8125 -2.277344 1.773438 -2.296875 1.730469 -2.324219 C 1.6875 -2.351562 1.667969 -2.378906 1.667969 -2.40625 C 1.667969 -2.429688 1.683594 -2.449219 1.714844 -2.460938 C 1.746094 -2.46875 1.769531 -2.476562 1.789062 -2.476562 C 1.847656 -2.476562 1.90625 -2.46875 1.964844 -2.460938 C 2.023438 -2.449219 2.109375 -2.445312 2.222656 -2.445312 C 2.300781 -2.445312 2.359375 -2.445312 2.390625 -2.453125 C 2.425781 -2.460938 2.457031 -2.464844 2.480469 -2.46875 C 2.503906 -2.472656 2.539062 -2.476562 2.585938 -2.476562 C 2.605469 -2.476562 2.628906 -2.472656 2.660156 -2.464844 C 2.691406 -2.460938 2.707031 -2.445312 2.707031 -2.417969 C 2.707031 -2.390625 2.691406 -2.367188 2.660156 -2.351562 C 2.628906 -2.335938 2.597656 -2.320312 2.566406 -2.308594 C 2.503906 -2.292969 2.441406 -2.246094 2.371094 -2.167969 C 2.300781 -2.085938 2.246094 -2 2.207031 -1.898438 L 1.375 0.078125 C 1.371094 0.0898438 1.347656 0.144531 1.3125 0.238281 C 1.273438 0.332031 1.222656 0.449219 1.167969 0.585938 C 1.109375 0.726562 1.046875 0.875 0.980469 1.03125 C 0.914062 1.191406 0.847656 1.34375 0.789062 1.492188 C 0.75 1.574219 0.699219 1.632812 0.628906 1.675781 C 0.558594 1.71875 0.480469 1.742188 0.390625 1.742188 Z "/>
</g>
</g>
</defs>
<g fill="rgb(24.313725%, 33.333333%, 34.901961%)" fill-opacity="1">
<use xlink:href="#glyph-0-0" x="30" y="26.15332"/>
<use xlink:href="#glyph-0-1" x="32" y="26.15332"/>
<use xlink:href="#glyph-0-0" x="35" y="26.15332"/>
<use xlink:href="#glyph-0-2" x="37" y="26.15332"/>
<use xlink:href="#glyph-0-3" x="39" y="26.15332"/>
<use xlink:href="#glyph-0-4" x="42" y="26.15332"/>
</g>
</svg>
