<?xml version="1.0" encoding="UTF-8"?>
<svg xmlns="http://www.w3.org/2000/svg" xmlns:xlink="http://www.w3.org/1999/xlink" width="1920" height="1080" viewBox="0 0 1920 1080">
<defs>
<g>
<g id="glyph-0-0">
<path d="M 2.070312 -5.445312 L 2.597656 -5.445312 L 2.597656 1.011719 L 2.070312 1.011719 Z "/>
</g>
<g id="glyph-1-0">
<path d="M 2.6875 -0.53125 C 2.847656 -0.585938 3.007812 -0.695312 3.164062 -0.859375 C 3.375 -1.078125 3.480469 -1.398438 3.480469 -1.820312 L 3.480469 -4.253906 L 4.183594 -4.253906 L 4.183594 -1.792969 C 4.183594 -1.246094 4.019531 -0.789062 3.691406 -0.421875 C 3.386719 -0.078125 3.050781 0.09375 2.6875 0.09375 L 2.6875 1.617188 L 1.992188 1.617188 L 1.992188 0.09375 C 1.632812 0.09375 1.296875 -0.078125 0.992188 -0.421875 C 0.664062 -0.789062 0.496094 -1.246094 0.496094 -1.792969 L 0.496094 -4.253906 L 1.199219 -4.253906 L 1.199219 -1.820312 C 1.199219 -1.398438 1.304688 -1.078125 1.519531 -0.859375 C 1.675781 -0.695312 1.835938 -0.585938 1.992188 -0.53125 L 1.992188 -4.253906 L 2.6875 -4.253906 Z "/>
</g>
<g id="glyph-1-1">
<path d="M 3.199219 -2.4375 L 2.128906 1.023438 L 1.484375 1.023438 L 2.550781 -2.4375 L 1.484375 -5.902344 L 2.128906 -5.902344 Z "/>
</g>
</g>
</defs>
<g fill="rgb(74.901961%, 20%, 22.352941%)" fill-opacity="1">
<use xlink:href="#glyph-0-0" x="30" y="27.21875"/>
</g>
<g fill="rgb(74.901961%, 20%, 22.352941%)" fill-opacity="1">
<use xlink:href="#glyph-1-0" x="35" y="27.21875"/>
<use xlink:href="#glyph-1-1" x="40" y="27.21875"/>
</g>
</svg>
