<?xml version="1.0" encoding="UTF-8"?>
<svg xmlns="http://www.w3.org/2000/svg" xmlns:xlink="http://www.w3.org/1999/xlink" width="1920" height="1080" viewBox="0 0 1920 1080">
<defs>
<g>
<g id="glyph-0-0">
<path d="M 2.660156 -7 L 3.339844 -7 L 3.339844 1.300781 L 2.660156 1.300781 Z "/>
</g>
<g id="glyph-0-1">
<path d="M 4.390625 -4.230469 C 4.238281 -4.285156 4.070312 -4.328125 3.894531 -4.363281 C 3.71875 -4.402344 3.542969 -4.421875 3.371094 -4.421875 C 2.71875 -4.421875 2.230469 -4.265625 1.910156 -3.960938 C 1.589844 -3.652344 1.429688 -3.167969 1.429688 -2.5 C 1.429688 -2.207031 1.476562 -1.945312 1.570312 -1.714844 C 1.664062 -1.484375 1.796875 -1.289062 1.96875 -1.128906 C 2.144531 -0.96875 2.351562 -0.847656 2.59375 -0.761719 C 2.839844 -0.675781 3.105469 -0.628906 3.398438 -0.628906 C 3.710938 -0.628906 4.019531 -0.683594 4.316406 -0.789062 C 4.613281 -0.894531 4.859375 -1.035156 5.058594 -1.210938 L 5.410156 -0.628906 C 5.316406 -0.550781 5.199219 -0.464844 5.058594 -0.378906 C 4.917969 -0.292969 4.757812 -0.210938 4.574219 -0.136719 C 4.390625 -0.0585938 4.1875 0.00390625 3.964844 0.0507812 C 3.742188 0.0976562 3.5 0.121094 3.238281 0.121094 C 2.804688 0.121094 2.425781 0.0585938 2.09375 -0.0664062 C 1.765625 -0.1875 1.488281 -0.363281 1.269531 -0.59375 C 1.050781 -0.824219 0.882812 -1.101562 0.769531 -1.425781 C 0.65625 -1.75 0.601562 -2.105469 0.601562 -2.5 C 0.601562 -2.921875 0.660156 -3.292969 0.773438 -3.621094 C 0.890625 -3.945312 1.058594 -4.21875 1.28125 -4.441406 C 1.5 -4.660156 1.765625 -4.828125 2.078125 -4.945312 C 2.394531 -5.0625 2.742188 -5.121094 3.128906 -5.121094 C 3.621094 -5.121094 4.023438 -5.078125 4.335938 -4.988281 C 4.644531 -4.902344 4.90625 -4.808594 5.121094 -4.699219 L 5.109375 -4.671875 L 5.109375 -3.28125 L 4.390625 -3.28125 Z "/>
</g>
<g id="glyph-0-2">
<path d="M 1.339844 0.390625 L 2.800781 0.390625 L 2.800781 -2.359375 L 1.550781 -1.660156 L 1.28125 -2.210938 L 2.941406 -3.199219 L 3.5 -3.199219 L 3.5 0.390625 L 4.851562 0.390625 L 4.851562 1 L 1.339844 1 Z "/>
</g>
<g id="glyph-0-3">
<path d="M 4.449219 -6.75 C 4.449219 -6.503906 4.382812 -6.269531 4.246094 -6.046875 C 4.109375 -5.824219 3.929688 -5.613281 3.710938 -5.414062 C 3.492188 -5.21875 3.246094 -5.035156 2.980469 -4.871094 C 2.714844 -4.703125 2.449219 -4.558594 2.191406 -4.429688 L 4.648438 -4.429688 L 4.648438 -3.800781 L 1.140625 -3.800781 L 1.140625 -4.328125 C 1.246094 -4.417969 1.382812 -4.511719 1.550781 -4.621094 C 1.71875 -4.726562 1.898438 -4.839844 2.089844 -4.960938 C 2.285156 -5.082031 2.476562 -5.207031 2.675781 -5.34375 C 2.871094 -5.480469 3.050781 -5.621094 3.210938 -5.765625 C 3.371094 -5.910156 3.5 -6.054688 3.601562 -6.203125 C 3.699219 -6.355469 3.75 -6.507812 3.75 -6.660156 C 3.75 -6.800781 3.722656 -6.917969 3.664062 -7.015625 C 3.609375 -7.113281 3.535156 -7.191406 3.449219 -7.253906 C 3.363281 -7.316406 3.269531 -7.363281 3.164062 -7.390625 C 3.0625 -7.417969 2.960938 -7.429688 2.859375 -7.429688 C 2.707031 -7.429688 2.566406 -7.410156 2.433594 -7.375 C 2.304688 -7.339844 2.183594 -7.292969 2.074219 -7.238281 C 1.964844 -7.1875 1.867188 -7.128906 1.78125 -7.066406 C 1.695312 -7.003906 1.625 -6.945312 1.570312 -6.898438 L 1.25 -7.390625 C 1.308594 -7.449219 1.394531 -7.519531 1.5 -7.59375 C 1.605469 -7.671875 1.734375 -7.746094 1.878906 -7.816406 C 2.027344 -7.886719 2.191406 -7.945312 2.378906 -7.996094 C 2.566406 -8.046875 2.765625 -8.070312 2.980469 -8.070312 C 3.1875 -8.070312 3.378906 -8.042969 3.558594 -7.984375 C 3.738281 -7.929688 3.894531 -7.84375 4.023438 -7.734375 C 4.15625 -7.625 4.257812 -7.488281 4.335938 -7.324219 C 4.410156 -7.160156 4.449219 -6.96875 4.449219 -6.75 Z "/>
</g>
<g id="glyph-0-4">
<rect x="0" y="0" width="0" height="0" mask="url(#mask-0)"/>
</g>
<g id="glyph-0-5">
<path d="M 0.480469 -3.738281 L 2.640625 -3.738281 L 2.640625 -5.949219 L 3.359375 -5.949219 L 3.359375 -3.738281 L 5.519531 -3.738281 L 5.519531 -3.019531 L 3.359375 -3.019531 L 3.359375 -0.808594 L 2.640625 -0.808594 L 2.640625 -3.019531 L 0.480469 -3.019531 Z "/>
</g>
<g id="glyph-0-6">
<path d="M 4.449219 -1.949219 C 4.449219 -1.703125 4.382812 -1.46875 4.246094 -1.246094 C 4.109375 -1.023438 3.929688 -0.8125 3.710938 -0.613281 C 3.492188 -0.417969 3.246094 -0.238281 2.980469 -0.0703125 C 2.714844 0.0976562 2.449219 0.242188 2.191406 0.371094 L 4.648438 0.371094 L 4.648438 1 L 1.140625 1 L 1.140625 0.46875 C 1.246094 0.382812 1.382812 0.285156 1.550781 0.179688 C 1.71875 0.0742188 1.898438 -0.0390625 2.089844 -0.160156 C 2.285156 -0.28125 2.476562 -0.410156 2.675781 -0.546875 C 2.871094 -0.683594 3.050781 -0.820312 3.210938 -0.964844 C 3.371094 -1.109375 3.5 -1.253906 3.601562 -1.40625 C 3.699219 -1.554688 3.75 -1.707031 3.75 -1.859375 C 3.75 -2 3.722656 -2.117188 3.664062 -2.214844 C 3.609375 -2.3125 3.535156 -2.390625 3.449219 -2.453125 C 3.363281 -2.519531 3.269531 -2.5625 3.164062 -2.589844 C 3.0625 -2.617188 2.960938 -2.628906 2.859375 -2.628906 C 2.707031 -2.628906 2.566406 -2.613281 2.433594 -2.574219 C 2.304688 -2.539062 2.183594 -2.492188 2.074219 -2.441406 C 1.964844 -2.386719 1.867188 -2.328125 1.78125 -2.265625 C 1.695312 -2.203125 1.625 -2.148438 1.570312 -2.101562 L 1.25 -2.589844 C 1.308594 -2.648438 1.394531 -2.71875 1.5 -2.796875 C 1.605469 -2.871094 1.734375 -2.945312 1.878906 -3.015625 C 2.027344 -3.085938 2.191406 -3.144531 2.378906 -3.195312 C 2.566406 -3.246094 2.765625 -3.269531 2.980469 -3.269531 C 3.1875 -3.269531 3.378906 -3.242188 3.558594 -3.183594 C 3.738281 -3.128906 3.894531 -3.046875 4.023438 -2.933594 C 4.15625 -2.824219 4.257812 -2.6875 4.335938 -2.523438 C 4.410156 -2.359375 4.449219 -2.171875 4.449219 -1.949219 Z "/>
</g>
<g id="glyph-0-7">
<path d="M 0.679688 -4.570312 L 5.320312 -4.570312 L 5.320312 -3.851562 L 0.679688 -3.851562 Z M 0.679688 -2.929688 L 5.320312 -2.929688 L 5.320312 -2.210938 L 0.679688 -2.210938 Z "/>
</g>
<g id="glyph-0-8">
<path d="M 1.269531 -0.71875 L 2.839844 -0.71875 L 2.839844 -5.980469 L 1.238281 -4.859375 L 0.851562 -5.429688 L 3.050781 -7 L 3.609375 -7 L 3.609375 -0.71875 L 5.148438 -0.71875 L 5.148438 0 L 1.269531 0 Z "/>
</g>
</g>
<image id="source-50" x="0" y="0" width="0" height="0"/>
<mask id="mask-0">
<use xlink:href="#source-50"/>
</mask>
</defs>
<g fill="rgb(12.156863%, 43.529412%, 36.078431%)" fill-opacity="1">
<use xlink:href="#glyph-0-0" x="30" y="28.849609"/>
<use xlink:href="#glyph-0-1" x="36" y="28.849609"/>
<use xlink:href="#glyph-0-2" x="42" y="28.849609"/>
<use xlink:href="#glyph-0-0" x="48" y="28.849609"/>
<use xlink:href="#glyph-0-3" x="54" y="28.849609"/>
<use xlink:href="#glyph-0-4" x="60" y="28.849609"/>
<use xlink:href="#glyph-0-4" x="66" y="28.849609"/>
<use xlink:href="#glyph-0-5" x="72" y="28.849609"/>
<use xlink:href="#glyph-0-4" x="78" y="28.849609"/>
<use xlink:href="#glyph-0-4" x="84" y="28.849609"/>
<use xlink:href="#glyph-0-0" x="90" y="28.849609"/>
<use xlink:href="#glyph-0-1" x="96" y="28.849609"/>
<use xlink:href="#glyph-0-6" x="102" y="28.849609"/>
<use xlink:href="#glyph-0-0" x="108" y="28.849609"/>
<use xlink:href="#glyph-0-3" x="114" y="28.849609"/>
<use xlink:href="#glyph-0-4" x="120" y="28.849609"/>
<use xlink:href="#glyph-0-4" x="126" y="28.849609"/>
<use xlink:href="#glyph-0-7" x="132" y="28.849609"/>
<use xlink:href="#glyph-0-4" x="138" y="28.849609"/>
<use xlink:href="#glyph-0-4" x="144" y="28.849609"/>
<use xlink:href="#glyph-0-8" x="150" y="28.849609"/>
</g>
</svg>
