<?xml version="1.0" encoding="UTF-8"?>
<svg xmlns="http://www.w3.org/2000/svg" xmlns:xlink="http://www.w3.org/1999/xlink" width="1920" height="1080" viewBox="0 0 1920 1080">
<defs>
<g>
<g id="glyph-0-0">
<path d="M 2.363281 -6.222656 L 2.96875 -6.222656 L 2.96875 1.15625 L 2.363281 1.15625 Z "/>
</g>
<g id="glyph-0-1">
<path d="M 0.425781 -3.324219 L 2.347656 -3.324219 L 2.347656 -5.289062 L 2.988281 -5.289062 L 2.988281 -3.324219 L 4.90625 -3.324219 L 4.90625 -2.683594 L 2.988281 -2.683594 L 2.988281 -0.71875 L 2.347656 -0.71875 L 2.347656 -2.683594 L 0.425781 -2.683594 Z "/>
</g>
<g id="glyph-0-2">
<path d="M 0.746094 -0.59375 L 3.761719 -3.847656 L 0.746094 -3.847656 L 0.746094 -4.445312 L 4.585938 -4.445312 L 4.585938 -3.847656 L 1.546875 -0.59375 L 4.585938 -0.59375 L 4.585938 0 L 0.746094 0 Z "/>
</g>
<g id="glyph-1-0">
<path d="M 3.65625 -2.785156 L 2.433594 1.171875 L 1.695312 1.171875 L 2.917969 -2.785156 L 1.695312 -6.746094 L 2.433594 -6.746094 Z "/>
</g>
</g>
</defs>
<g fill="rgb(12.156863%, 43.529412%, 36.078431%)" fill-opacity="1">
<use xlink:href="#glyph-0-0" x="30" y="28.251953"/>
<use xlink:href="#glyph-0-1" x="35" y="28.251953"/>
<use xlink:href="#glyph-0-2" x="40" y="28.251953"/>
</g>
<g fill="rgb(12.156863%, 43.529412%, 36.078431%)" fill-opacity="1">
<use xlink:href="#glyph-1-0" x="45" y="28.251953"/>
</g>
</svg>
